v -0.028315 -0.009754 -0.006120
v -0.028382 -0.006679 -0.000973
v -0.029002 -0.007349 0.007283
v -0.028681 0.001274 -0.005501
v -0.028515 0.001254 0.003253
v -0.028745 0.002312 0.004771
v -0.028701 0.005011 -0.007258
v -0.029026 0.004919 -0.000966
v -0.028605 0.005351 0.008185
v -0.028326 0.013640 -0.010492
v -0.028583 0.013796 -0.003682
v -0.019191 -0.017125 -0.016673
v -0.019075 -0.018743 -0.007760
v -0.020144 -0.018049 -0.001211
v -0.019712 -0.018886 0.004814
v -0.022170 -0.016555 0.015525
v -0.019149 -0.011117 -0.019012
v -0.023342 -0.007549 -0.014540
v -0.024171 -0.010955 0.000061
v -0.024335 -0.009529 0.005452
v -0.019070 -0.006806 0.016609
v -0.020512 -0.004488 -0.025416
v -0.020045 -0.000451 -0.021678
v -0.024830 0.000642 -0.013917
v -0.025625 -0.005030 0.004223
v -0.024136 -0.001005 0.009979
v -0.021390 0.001564 0.014857
v -0.019891 0.011538 -0.016906
v -0.023495 0.010229 -0.007305
v -0.024850 0.009187 0.002313
v -0.018711 0.012221 0.012395
v -0.019154 0.007245 0.015695
v -0.021119 0.014103 -0.015933
v -0.021433 0.013913 -0.007905
v -0.021343 0.014427 0.001122
v -0.018295 0.016325 0.007938
v -0.019985 0.013940 0.018177
v -0.018656 0.023915 -0.012617
v -0.020859 0.023549 0.001461
v -0.018861 0.026953 0.005620
v -0.011192 -0.027374 -0.005713
v -0.009699 -0.026614 -0.003976
v -0.010188 -0.026990 0.006789
v -0.015088 -0.018401 -0.015988
v -0.015530 -0.018632 -0.013250
v -0.017450 -0.019990 0.004116
v -0.016771 -0.020007 0.006421
v -0.010263 -0.017077 0.017322
v -0.014559 -0.006758 -0.025622
v -0.017944 -0.010690 -0.020770
v -0.017554 -0.015571 0.010968
v -0.013064 -0.007172 0.023946
v -0.012478 -0.007347 0.024759
v -0.015993 0.003335 -0.025408
v -0.016215 -0.004298 0.021919
v -0.010161 -0.000039 0.024936
v -0.011055 0.007704 -0.027688
v -0.016447 0.010791 -0.021852
v -0.016898 0.013012 0.014379
v -0.011315 0.009503 0.022489
v -0.009384 0.005079 0.025280
v -0.009118 0.015114 -0.025573
v -0.009757 0.018167 -0.020328
v -0.008565 0.022962 -0.012971
v -0.010778 0.023384 -0.000920
v -0.008868 0.023128 0.005664
v -0.009944 0.015786 0.017993
v -0.008676 0.025677 -0.015331
v -0.010091 0.024029 -0.007175
v -0.009380 0.023819 -0.000177
v -0.008304 0.024248 0.008483
v -0.009934 0.026825 0.014986
v 0.000025 -0.026667 -0.018219
v -0.001677 -0.026843 -0.008189
v -0.005094 -0.026903 -0.002574
v 0.001521 -0.030317 0.011583
v -0.003866 -0.026974 0.014960
v -0.006641 -0.017863 -0.027545
v -0.005746 -0.021608 -0.017143
v -0.007356 -0.024911 -0.010616
v -0.006694 -0.025533 -0.001186
v -0.004686 -0.021425 0.014352
v -0.005825 -0.017444 0.024077
v 0.000410 -0.010135 -0.029504
v -0.004557 -0.012654 0.023702
v -0.002823 -0.010166 0.027064
v -0.003015 -0.003323 0.027575
v -0.001418 0.012511 -0.028151
v 0.000836 0.010840 0.023509
v -0.004618 0.006598 0.025181
v 0.001304 0.016198 -0.025509
v -0.003763 0.021392 -0.018651
v -0.002754 0.023039 -0.014477
v 0.000082 0.022614 0.011472
v -0.006758 0.016921 0.018253
v -0.002712 0.014983 0.024875
v 0.001138 0.024603 -0.015589
v -0.000453 0.025289 -0.006828
v -0.000047 0.025298 0.002012
v -0.001278 0.024487 0.006330
v -0.002392 0.023989 0.016055
v 0.007560 -0.026642 -0.015393
v 0.006857 -0.031778 -0.007613
v 0.005688 -0.031841 0.003666
v 0.009799 -0.029155 0.009716
v 0.007558 -0.017301 -0.026503
v 0.001927 -0.023863 -0.015723
v 0.010522 -0.023856 -0.006473
v 0.004487 -0.025481 0.003921
v 0.007199 -0.023660 0.010985
v 0.009779 -0.022243 0.018807
v 0.001802 -0.015845 -0.028099
v 0.005270 -0.015984 0.024314
v 0.006695 -0.008963 0.026094
v 0.010264 -0.005548 -0.029211
v 0.011433 0.002809 0.023516
v 0.006402 -0.002180 0.026528
v 0.010698 0.008795 -0.027677
v 0.008442 0.011699 0.021105
v 0.004617 0.004428 0.025797
v 0.005708 0.014600 -0.026624
v 0.011528 0.020003 -0.015953
v 0.011192 0.023110 -0.009123
v 0.011654 0.023104 0.002493
v 0.009248 0.018649 0.014037
v 0.002963 0.017953 0.017454
v 0.004609 0.015434 0.024964
v 0.003733 0.023733 -0.016024
v 0.006741 0.025047 -0.005568
v 0.003545 0.025027 0.001709
v 0.004580 0.024683 0.005342
v 0.005443 0.023494 0.014938
v 0.016551 -0.027631 -0.005533
v 0.016202 -0.028331 -0.002053
v 0.014255 -0.028557 0.004845
v 0.018175 -0.021267 -0.016793
v 0.019189 -0.024320 -0.009536
v 0.019898 -0.024134 0.002177
v 0.019948 -0.020894 0.010148
v 0.015721 -0.021448 0.015144
v 0.014742 -0.007947 -0.027755
v 0.021544 -0.007087 -0.021103
v 0.020570 -0.015458 -0.005612
v 0.020343 -0.015489 0.003268
v 0.021557 -0.012653 0.014405
v 0.012651 -0.015019 0.021754
v 0.016157 -0.002080 -0.027078
v 0.021609 0.001304 -0.022106
v 0.021174 -0.005020 0.013958
v 0.013334 -0.001333 0.023632
v 0.012935 -0.000857 0.024969
v 0.013234 0.006370 -0.027262
v 0.017460 0.006153 -0.023107
v 0.021282 0.013350 -0.010640
v 0.021439 0.006434 0.014083
v 0.011712 0.005264 0.023018
v 0.013175 0.007745 0.024796
v 0.013407 0.014597 -0.021421
v 0.016415 0.019593 -0.005477
v 0.016266 0.019497 0.002860
v 0.013734 0.019169 0.009230
v 0.011979 0.014130 0.017521
v 0.012599 0.024596 -0.015688
v 0.012201 0.023835 -0.010058
v 0.012040 0.024063 -0.002080
v 0.011986 0.023813 0.008139
v 0.024444 -0.017940 -0.007744
v 0.022871 -0.020523 0.004108
v 0.022244 -0.018161 0.008743
v 0.023679 -0.006818 -0.019094
v 0.026070 -0.013329 -0.009475
v 0.026930 -0.013194 -0.000291
v 0.022530 -0.013741 0.012922
v 0.022631 -0.006950 0.014892
v 0.023154 -0.000041 -0.019024
v 0.028014 -0.006270 -0.007142
v 0.028129 -0.006256 0.001397
v 0.026431 -0.006470 0.008401
v 0.023027 -0.000138 0.014686
v 0.022735 0.004324 -0.018951
v 0.026000 0.007067 -0.007412
v 0.026187 0.007047 0.001185
v 0.024511 0.006819 0.008208
v 0.021809 0.005981 0.014963
v 0.022294 0.015856 -0.016810
v 0.022707 0.014411 -0.006445
v 0.021965 0.015307 -0.001516
v 0.021967 0.014173 0.004713
v 0.031987 -0.001499 -0.006437
v 0.031884 -0.000960 0.002545
v 0.032327 0.003857 -0.000862
f 9 11 8
f 166 127 132
f 22 1 12
f 41 73 12
f 41 1 12
f 41 76 104
f 105 76 104
f 189 185 191
f 189 148 185
f 40 9 11
f 40 38 68
f 40 163 68
f 10 11 8
f 10 22 1
f 10 40 11
f 10 40 38
f 3 1 16
f 3 9 16
f 3 1 8
f 3 9 8
f 187 185 191
f 187 163 185
f 187 163 166
f 57 88 84
f 57 22 84
f 103 41 104
f 103 41 73
f 137 167 136
f 137 103 136
f 137 103 133
f 137 167 138
f 78 73 12
f 78 22 12
f 78 22 84
f 78 112 84
f 15 1 16
f 15 41 16
f 15 41 1
f 43 41 16
f 43 41 76
f 134 137 138
f 134 137 133
f 134 103 104
f 134 103 133
f 111 105 76
f 111 83 76
f 135 134 138
f 135 105 104
f 135 134 104
f 77 83 16
f 77 83 76
f 77 43 16
f 77 43 76
f 171 167 136
f 171 189 167
f 168 135 138
f 168 167 138
f 152 148 185
f 152 118 185
f 121 118 88
f 121 163 185
f 121 118 185
f 72 127 132
f 72 166 132
f 72 163 166
f 72 40 163
f 7 10 8
f 7 10 1
f 157 166 127
f 174 151 146
f 96 127 87
f 96 61 87
f 96 72 127
f 188 187 191
f 188 187 166
f 62 57 88
f 62 38 68
f 62 10 38
f 58 10 22
f 58 57 22
f 58 62 10
f 58 62 57
f 102 103 136
f 102 103 73
f 106 141 136
f 106 141 112
f 106 102 136
f 106 102 73
f 106 78 73
f 106 78 112
f 115 112 84
f 115 141 112
f 115 88 84
f 115 118 88
f 115 152 118
f 140 111 105
f 140 135 105
f 140 173 146
f 140 111 146
f 114 151 146
f 114 86 87
f 53 86 83
f 53 83 16
f 53 86 87
f 53 55 16
f 53 61 87
f 170 171 189
f 170 189 148
f 170 141 136
f 170 171 136
f 172 189 167
f 172 168 167
f 147 152 148
f 147 170 148
f 147 170 141
f 147 115 141
f 147 115 152
f 37 40 9
f 37 72 40
f 37 96 72
f 37 9 16
f 37 55 16
f 37 96 61
f 37 53 55
f 37 53 61
f 4 1 8
f 4 7 8
f 4 7 1
f 117 157 151
f 117 114 87
f 117 114 151
f 117 127 87
f 117 157 127
f 145 173 146
f 145 174 146
f 145 174 173
f 179 157 151
f 179 174 151
f 184 157 166
f 184 188 166
f 184 179 157
f 184 188 191
f 91 121 88
f 91 62 88
f 91 62 68
f 91 163 68
f 91 121 163
f 139 168 135
f 139 140 135
f 139 140 173
f 113 86 83
f 113 114 86
f 113 111 83
f 113 111 146
f 113 114 146
f 190 179 174
f 190 184 191
f 190 184 179
f 190 174 173
f 190 189 191
f 190 172 189
f 190 172 168
f 169 139 173
f 169 139 168
f 169 190 173
f 169 190 168
