v -0.035067 0.013018 -0.018251
v -0.035633 0.012640 -0.007153
v -0.035512 0.011512 -0.002508
v -0.035336 0.011677 0.005106
v -0.036666 0.011738 0.015292
v -0.035324 0.014754 -0.008454
v -0.035254 0.015250 0.000778
v -0.035073 0.014951 0.005170
v -0.025454 0.010564 -0.027472
v -0.025688 0.009901 -0.019753
v -0.029299 0.011016 -0.012817
v -0.027391 0.012478 -0.004115
v -0.029364 0.011240 0.010777
v -0.027297 0.009471 0.019130
v -0.028370 0.009628 0.024400
v -0.027698 0.015439 -0.017482
v -0.026989 0.015056 -0.009640
v -0.027636 0.014734 0.000107
v -0.028319 0.014732 0.005382
v -0.025926 0.014709 0.013147
v -0.014723 0.005012 -0.037494
v -0.018209 0.007065 -0.030662
v -0.019004 0.007623 -0.023674
v -0.023058 0.011066 -0.014036
v -0.021029 0.012480 -0.005084
v -0.022260 0.012821 0.003299
v -0.015131 0.009015 0.018736
v -0.019487 0.006894 0.024665
v -0.016675 0.005411 0.033645
v -0.017357 0.014645 -0.019664
v -0.016977 0.014757 -0.011764
v -0.020616 0.014726 -0.002717
v -0.016134 0.015081 0.005994
v -0.021625 0.015285 0.012900
v -0.006757 0.000427 -0.037688
v -0.012936 0.003745 -0.029816
v -0.004714 0.004019 -0.023740
v -0.011584 0.002967 0.029870
v -0.004921 0.000158 0.035046
v -0.012578 0.005482 -0.027715
v -0.006471 0.006682 -0.020046
v -0.011140 0.010438 -0.009105
v -0.006860 0.010009 0.001935
v -0.008671 0.009532 0.011035
v -0.014221 0.007902 0.021336
v -0.010407 0.005338 0.025624
v -0.013100 0.004800 0.033139
v -0.010477 0.015004 -0.009376
v -0.014079 0.014926 0.001076
v -0.009886 0.014673 0.007124
v -0.012819 0.014736 0.015560
v 0.005416 -0.005319 -0.037692
v 0.001539 -0.000477 -0.027444
v -0.002934 0.002107 -0.026399
v 0.004299 0.004404 -0.016934
v 0.004938 0.004605 0.004568
v 0.002586 0.004098 0.014533
v -0.003761 -0.000539 0.031299
v 0.004681 -0.005117 0.033879
v -0.004119 0.004951 -0.029710
v -0.002606 0.004802 -0.020994
v 0.002502 0.005059 -0.007842
v -0.003614 0.009164 -0.002466
v -0.001784 0.007839 0.010362
v -0.002897 0.004659 0.022311
v -0.000597 0.005284 0.023887
v -0.003552 0.014829 -0.007226
v -0.003482 0.014753 0.001900
v 0.010921 -0.008308 -0.030130
v 0.015109 -0.006891 -0.020887
v 0.013584 -0.005632 0.019324
v 0.013643 -0.008985 0.026568
v 0.006436 -0.007767 0.034044
v 0.008164 -0.005029 -0.037350
v 0.007686 -0.004773 -0.032107
v 0.006026 0.001840 -0.018088
v 0.007837 0.001808 -0.013172
v 0.011069 0.001413 -0.002495
v 0.010880 0.000974 0.007041
v 0.008653 0.000508 0.015916
v 0.007694 -0.002639 0.024180
v 0.005522 -0.003824 0.032935
v 0.008303 0.005505 -0.018164
v 0.006797 0.005517 -0.007659
v 0.005523 0.004906 -0.005116
v 0.006258 0.005090 0.004913
v 0.005571 0.004829 0.016456
v 0.019931 -0.016529 -0.028733
v 0.019703 -0.016026 -0.019766
v 0.023081 -0.016334 -0.009030
v 0.024009 -0.016701 0.000847
v 0.023387 -0.017105 0.010186
v 0.021131 -0.017550 0.018991
v 0.018234 -0.016762 0.025390
v 0.016519 -0.015452 0.034162
v 0.016984 -0.013035 -0.028888
v 0.015897 -0.013742 -0.024763
v 0.019229 -0.007228 -0.009894
v 0.021002 -0.007607 0.000264
v 0.020174 -0.008035 0.009550
v 0.017451 -0.008499 0.018226
v 0.017442 -0.013757 0.025414
v 0.015637 -0.013727 0.034382
v 0.016900 -0.004987 -0.030198
v 0.016441 -0.005195 -0.019591
v 0.016031 -0.002930 -0.008087
v 0.017459 -0.004660 -0.000916
v 0.017077 -0.005119 0.009995
v 0.017015 -0.004978 0.015943
v 0.015631 -0.003744 0.025042
v 0.016049 0.004885 -0.004195
v 0.016255 0.004710 0.003401
v 0.027342 -0.026244 -0.019768
v 0.027671 -0.026256 -0.008500
v 0.027372 -0.026285 -0.003984
v 0.026716 -0.025975 0.005029
v 0.029183 -0.028222 0.017605
v 0.027865 -0.027411 0.024849
v 0.026212 -0.025120 -0.017905
v 0.025536 -0.022834 -0.009750
v 0.025765 -0.022724 0.002843
v 0.026391 -0.024059 0.009014
v 0.025794 -0.025104 0.020174
v 0.026266 -0.025006 0.026617
v 0.026100 -0.013359 -0.008874
v 0.026363 -0.013585 0.002434
v 0.025818 -0.013450 0.003063
v 0.025852 -0.005136 -0.002866
f 113 117 5
f 113 128 117
f 118 117 5
f 118 128 117
f 3 113 5
f 3 1 113
f 104 113 128
f 60 104 74
f 21 1 113
f 21 60 74
f 15 118 5
f 15 29 118
f 15 29 51
f 47 29 39
f 47 29 51
f 124 118 128
f 82 103 39
f 95 29 118
f 95 124 118
f 95 124 103
f 95 29 39
f 95 103 39
f 20 8 5
f 20 15 5
f 34 67 16
f 34 20 8
f 34 15 51
f 34 20 15
f 2 3 5
f 2 3 1
f 6 1 16
f 6 2 1
f 6 2 5
f 88 104 113
f 88 104 74
f 83 60 104
f 9 1 16
f 9 21 1
f 30 21 60
f 30 83 67
f 30 83 60
f 30 67 16
f 30 9 16
f 30 9 21
f 7 34 16
f 7 34 8
f 7 6 16
f 7 8 5
f 7 6 5
f 68 112 51
f 68 34 51
f 68 34 67
f 66 112 51
f 66 47 39
f 66 47 51
f 110 82 103
f 110 112 128
f 110 66 112
f 110 124 128
f 110 124 103
f 110 82 39
f 110 66 39
f 52 88 74
f 52 88 113
f 111 83 104
f 111 104 128
f 111 112 128
f 111 83 67
f 111 68 67
f 111 68 112
f 35 21 74
f 35 52 74
f 35 21 113
f 35 52 113
