v -0.080934 -0.075942 -0.055823
v -0.079685 -0.076042 -0.052994
v -0.079380 -0.075497 -0.035799
v -0.079785 -0.075474 -0.030201
v -0.078649 -0.075550 -0.023808
v -0.079904 -0.076231 -0.009883
v -0.079397 -0.075963 0.005660
v -0.079804 -0.075805 0.009844
v -0.078844 -0.075624 0.021412
v -0.078849 -0.076117 0.028560
v -0.078693 -0.075446 0.045360
v -0.081681 -0.077131 0.049474
v -0.079113 -0.070698 -0.054949
v -0.078632 -0.070818 -0.050130
v -0.078638 -0.069867 -0.041063
v -0.078644 -0.068923 -0.032052
v -0.078656 -0.067051 -0.014194
v -0.078661 -0.066123 -0.005347
v -0.078666 -0.072696 0.002765
v -0.078672 -0.071756 0.011515
v -0.078677 -0.070822 0.020213
v -0.078683 -0.069894 0.028859
v -0.078689 -0.068971 0.037452
v -0.079684 -0.066204 0.049230
v -0.079113 -0.056497 -0.054949
v -0.078634 -0.063193 -0.049387
v -0.078639 -0.062267 -0.040331
v -0.078645 -0.061346 -0.031330
v -0.078817 -0.059588 -0.021433
v -0.078827 -0.060669 -0.006749
v -0.078667 -0.065201 0.003447
v -0.078673 -0.064285 0.012187
v -0.078679 -0.063374 0.020875
v -0.078677 -0.062472 0.029506
v -0.078690 -0.061569 0.038095
v -0.078695 -0.060674 0.046628
v -0.079113 -0.049397 -0.054949
v -0.078798 -0.050827 -0.050828
v -0.078804 -0.045445 -0.035420
v -0.078809 -0.046026 -0.027994
v -0.078814 -0.046605 -0.020607
v -0.078825 -0.047752 -0.005950
v -0.078830 -0.048322 0.001322
v -0.078841 -0.049451 0.015751
v -0.078846 -0.050012 0.022910
v -0.078859 -0.050570 0.030035
v -0.078862 -0.051676 0.044165
v -0.080207 -0.047188 0.049302
v -0.079113 -0.042296 -0.054949
v -0.078795 -0.037730 -0.049948
v -0.078806 -0.038936 -0.034992
v -0.078811 -0.039534 -0.027573
v -0.078817 -0.040129 -0.020193
v -0.078828 -0.041309 -0.005549
v -0.078835 -0.035478 0.002108
v -0.078840 -0.036077 0.009328
v -0.078851 -0.037265 0.023657
v -0.078856 -0.037855 0.030766
v -0.078638 -0.038633 0.043094
v -0.078781 -0.040356 0.049130
v -0.079113 -0.028096 -0.054949
v -0.078798 -0.031197 -0.049506
v -0.078809 -0.032437 -0.034565
v -0.078816 -0.026579 -0.026733
v -0.078822 -0.027207 -0.019367
v -0.078832 -0.028453 -0.004751
v -0.078838 -0.029071 0.002501
v -0.078843 -0.029686 0.009714
v -0.078853 -0.030907 0.024030
v -0.078858 -0.031512 0.031132
v -0.078640 -0.031995 0.043423
v -0.079695 -0.033126 0.049130
v -0.079113 -0.020995 -0.054949
v -0.078803 -0.018163 -0.048626
v -0.078808 -0.018818 -0.041149
v -0.078819 -0.020117 -0.026314
v -0.078824 -0.020761 -0.018955
v -0.078835 -0.022040 -0.004352
v -0.078842 -0.016288 0.003284
v -0.078848 -0.016935 0.010484
v -0.078858 -0.018219 0.024773
v -0.078636 -0.020107 0.032081
v -0.078643 -0.018780 0.044077
v -0.081521 -0.018665 0.049130
v -0.078800 -0.010987 -0.055696
v -0.078805 -0.011662 -0.048187
v -0.078813 -0.005858 -0.040286
v -0.078816 -0.007222 -0.025482
v -0.078822 -0.007900 -0.018137
v -0.078827 -0.008573 -0.010830
v -0.078838 -0.009910 0.003671
v -0.078843 -0.010573 0.010865
v -0.078633 -0.008171 0.020693
v -0.078646 -0.006899 0.032773
v -0.078646 -0.005646 0.044728
v -0.078851 -0.010145 0.049447
v -0.078805 0.002019 -0.054805
v -0.078810 0.001311 -0.047310
v -0.078815 0.000606 -0.039855
v -0.078826 -0.000792 -0.025062
v -0.078824 -0.001484 -0.017727
v -0.078832 0.004215 -0.010024
v -0.078621 0.003199 0.003131
v -0.078627 0.004416 0.015355
v -0.078635 -0.001564 0.021058
v -0.078647 -0.000327 0.033117
v -0.078654 0.000894 0.045054
v -0.079852 -0.002219 0.049447
v -0.078800 0.008507 -0.054365
v -0.078808 0.014243 -0.046440
v -0.078813 0.013506 -0.038999
v -0.078824 0.012042 -0.024233
v -0.078829 0.011316 -0.016908
v -0.078834 0.010594 -0.009622
v -0.078622 0.009819 0.003525
v -0.078629 0.011000 0.015727
v -0.078638 0.011589 0.021783
v -0.078651 0.012756 0.033802
v -0.078657 0.013907 0.045698
v -0.080853 0.005707 0.049447
v -0.079113 0.021607 -0.054949
v -0.078810 0.020693 -0.046005
v -0.078815 0.019940 -0.038570
v -0.078821 0.019190 -0.031175
v -0.078834 0.024077 -0.016093
v -0.078619 0.021876 -0.007978
v -0.078632 0.023000 0.004310
v -0.078635 0.023557 0.010406
v -0.078646 0.018139 0.022146
v -0.078652 0.019267 0.034143
v -0.078655 0.019827 0.040096
v -0.079047 0.018887 0.049502
v -0.079113 0.028707 -0.054949
v -0.078815 0.033564 -0.045135
v -0.078820 0.032777 -0.037715
v -0.078826 0.031995 -0.030333
v -0.078622 0.033983 -0.019525
v -0.078621 0.028469 -0.007567
v -0.078634 0.029559 0.004700
v -0.078637 0.030098 0.010785
v -0.078649 0.031171 0.022865
v -0.078662 0.032233 0.034823
v -0.078665 0.032758 0.040756
v -0.081063 0.026737 0.049502
v -0.079113 0.042908 -0.054949
v -0.078817 0.039984 -0.044701
v -0.078823 0.039181 -0.037288
v -0.078620 0.040054 -0.025317
v -0.078624 0.040572 -0.019095
v -0.078630 0.041598 -0.006747
v -0.078637 0.042615 0.005476
v -0.078640 0.043119 0.011540
v -0.078653 0.044123 0.023579
v -0.078663 0.038684 0.035161
v -0.078666 0.039193 0.041084
v -0.078670 0.039699 0.046978
v -0.079113 0.050008 -0.054949
v -0.078820 0.046394 -0.044268
v -0.078820 0.051960 -0.036440
v -0.078624 0.053204 -0.024439
v -0.078627 0.053687 -0.018239
v -0.078632 0.048131 -0.006340
v -0.078635 0.048623 -0.000223
v -0.078648 0.049602 0.011918
v -0.078660 0.050572 0.023936
v -0.078667 0.051529 0.035833
v -0.078670 0.052004 0.041737
v -0.080134 0.045534 0.049170
v -0.079113 0.064209 -0.054949
v -0.078812 0.060040 -0.050840
v -0.078823 0.058333 -0.036015
v -0.078622 0.059282 -0.030224
v -0.078635 0.060216 -0.017812
v -0.078641 0.061138 -0.005527
v -0.078645 0.061596 0.000568
v -0.078657 0.062506 0.012668
v -0.078663 0.063405 0.024644
v -0.078673 0.063854 0.030589
v -0.078677 0.058383 0.042063
v -0.078816 0.064039 0.049101
v -0.079113 0.071309 -0.054949
v -0.078817 0.072822 -0.049964
v -0.078622 0.071910 -0.035565
v -0.078626 0.072344 -0.029333
v -0.078638 0.073209 -0.016964
v -0.078645 0.074062 -0.004722
v -0.078648 0.074486 0.001353
v -0.078659 0.068927 0.013040
v -0.078665 0.069793 0.024997
v -0.078674 0.070225 0.030931
v -0.078680 0.071077 0.042709
v -0.079721 0.071202 0.049101
v -0.078712 0.077200 -0.055291
v -0.079648 0.077206 -0.049030
v -0.080581 0.077212 -0.042789
v -0.078627 0.078845 -0.028890
v -0.078640 0.079675 -0.016542
v -0.081375 0.076395 -0.005792
v -0.079944 0.076237 -0.001519
v -0.079803 0.076798 0.014907
v -0.081428 0.076805 0.022531
v -0.078725 0.077235 0.035616
v -0.079808 0.076684 0.045731
v -0.080048 0.077248 0.047671
v -0.076243 -0.079072 -0.055602
v -0.076223 -0.078091 -0.053762
v -0.076420 -0.076124 -0.034905
v -0.076420 -0.079047 -0.027283
v -0.076623 -0.079119 -0.017328
v -0.076660 -0.078372 -0.010659
v -0.076334 -0.078568 0.001984
v -0.076635 -0.075646 0.009053
v -0.076497 -0.076242 0.025616
v -0.076502 -0.079103 0.033083
v -0.076727 -0.076605 0.041398
v -0.074214 -0.076508 0.049130
v -0.076718 -0.068931 -0.054491
v -0.076415 -0.070282 -0.050173
v -0.076420 -0.073199 -0.042534
v -0.076663 -0.070069 -0.024857
v -0.076662 -0.074218 -0.017762
v -0.076324 -0.074257 -0.013633
v -0.076492 -0.067626 0.003186
v -0.076496 -0.070493 0.010672
v -0.076497 -0.073369 0.018147
v -0.076728 -0.072521 0.034385
v -0.076720 -0.075230 0.042967
v -0.075128 -0.069278 0.049130
v -0.076913 -0.061503 -0.054203
v -0.076670 -0.057636 -0.046093
v -0.076669 -0.061772 -0.039020
v -0.076486 -0.056101 -0.026801
v -0.076486 -0.058988 -0.019296
v -0.076491 -0.064745 -0.004300
v -0.076080 -0.058368 0.004103
v -0.076735 -0.060282 0.013394
v -0.076734 -0.064354 0.020385
v -0.076561 -0.056567 0.032687
v -0.076561 -0.059404 0.040038
v -0.076041 -0.062047 0.049130
v -0.076314 -0.053876 -0.054367
v -0.076675 -0.053492 -0.053154
v -0.076486 -0.053211 -0.034312
v -0.075681 -0.046742 -0.031317
v -0.076370 -0.053856 -0.022906
v -0.076739 -0.048092 -0.007535
v -0.076737 -0.052151 -0.000566
v -0.076551 -0.048065 0.010593
v -0.076556 -0.053739 0.025327
v -0.076445 -0.050985 0.029021
v -0.076806 -0.046839 0.043449
v -0.076954 -0.054817 0.049130
v -0.076579 -0.045010 -0.054807
v -0.076698 -0.038381 -0.051908
v -0.076726 -0.035461 -0.036455
v -0.076746 -0.035929 -0.028395
v -0.076740 -0.044037 -0.014497
v -0.076546 -0.039532 -0.011550
v -0.076551 -0.045219 0.003219
v -0.075748 -0.041148 0.007998
v -0.075768 -0.039328 0.020863
v -0.076808 -0.038865 0.029705
v -0.076807 -0.042850 0.036573
v -0.074846 -0.041849 0.049447
v -0.076398 -0.027381 -0.055119
v -0.076405 -0.029542 -0.047395
v -0.076747 -0.031887 -0.035335
v -0.076546 -0.033825 -0.026338
v -0.076754 -0.032581 -0.021217
v -0.076780 -0.029751 -0.006194
v -0.076794 -0.028346 0.001242
v -0.076811 -0.026936 0.009141
v -0.076809 -0.034885 0.022843
v -0.076618 -0.034668 0.032302
v -0.076473 -0.026829 0.041727
v -0.075847 -0.033923 0.049447
v -0.076364 -0.019348 -0.055524
v -0.076752 -0.023804 -0.049189
v -0.076062 -0.023207 -0.037576
v -0.076461 -0.018568 -0.025700
v -0.076463 -0.020715 -0.018119
v -0.076814 -0.019003 -0.004533
v -0.076813 -0.022967 0.002301
v -0.076149 -0.016850 0.014638
v -0.076833 -0.024198 0.023240
v -0.076845 -0.022840 0.030471
v -0.076878 -0.018235 0.045417
v -0.077850 -0.018071 0.049447
v -0.076142 -0.007382 -0.054340
v -0.076445 -0.012120 -0.048536
v -0.076599 -0.006539 -0.040492
v -0.076824 -0.007112 -0.024984
v -0.076819 -0.011075 -0.018175
v -0.076815 -0.015042 -0.011360
v -0.076523 -0.010007 0.002877
v -0.076524 -0.012132 0.010322
v -0.076882 -0.006554 0.025206
v -0.076884 -0.010433 0.031940
v -0.076883 -0.014327 0.038677
v -0.068861 -0.014763 0.049101
v -0.076598 -0.000879 -0.055115
v -0.076599 -0.003710 -0.047801
v -0.076826 0.000781 -0.038589
v -0.076825 -0.003164 -0.031790
v -0.076195 -0.002785 -0.021970
v -0.076664 0.003290 -0.011071
v -0.076665 -0.002281 0.003282
v -0.076884 0.001213 0.011766
v -0.076883 -0.002669 0.018483
v -0.076582 -0.001688 0.030646
v -0.076733 0.001850 0.045660
v -0.070671 -0.000435 0.049101
v -0.075739 0.010982 -0.055219
v -0.076827 0.004721 -0.045381
v -0.076655 0.014439 -0.039849
v -0.076655 0.008850 -0.025453
v -0.076660 0.006069 -0.018259
v -0.076890 0.012846 -0.008339
v -0.076885 0.005091 0.005056
v -0.076567 0.004624 0.008612
v -0.076724 0.010062 0.024508
v -0.076728 0.007326 0.031565
v -0.076298 0.006085 0.040496
v -0.071576 0.006728 0.049101
v -0.076655 0.020035 -0.054267
v -0.076655 0.017236 -0.047056
v -0.075838 0.014812 -0.037354
v -0.076897 0.024443 -0.028385
v -0.076895 0.016722 -0.015025
v -0.076719 0.023812 -0.010843
v -0.076719 0.018302 0.003311
v -0.076719 0.015550 0.010381
v -0.075941 0.022463 0.025694
v -0.076619 0.014731 0.028744
v -0.076786 0.022052 0.045115
v -0.073386 0.021056 0.049101
v -0.076525 0.029351 -0.054186
v -0.076518 0.033725 -0.049571
v -0.076898 0.028298 -0.035055
v -0.076715 0.029320 -0.025023
v -0.076715 0.026560 -0.017933
v -0.076595 0.025239 -0.007671
v -0.076063 0.024929 0.000218
v -0.076092 0.028936 0.014849
v -0.076777 0.030175 0.024249
v -0.076120 0.032893 0.029298
v -0.076785 0.024764 0.038168
v -0.074291 0.028220 0.049101
v -0.076904 0.039850 -0.055020
v -0.076903 0.036006 -0.048370
v -0.076714 0.034847 -0.039220
v -0.076252 0.043311 -0.026154
v -0.076640 0.043415 -0.016406
v -0.076768 0.043766 -0.010626
v -0.076772 0.038326 0.003341
v -0.076772 0.035604 0.010314
v -0.076964 0.044241 0.017190
v -0.076711 0.044525 0.032169
v -0.076148 0.036812 0.043576
v -0.075196 0.035384 0.049101
v -0.076340 0.046875 -0.054694
v -0.077061 0.054226 -0.052530
v -0.076321 0.051291 -0.036289
v -0.076768 0.049224 -0.024609
v -0.076768 0.046494 -0.017615
v -0.076286 0.045301 -0.005993
v -0.076685 0.052838 0.003688
v -0.076692 0.050754 0.010827
v -0.076828 0.049751 0.023998
v -0.076833 0.047073 0.030867
v -0.076360 0.050118 0.043140
v -0.077006 0.049711 0.049101
v -0.076968 0.063461 -0.055711
v -0.077079 0.057225 -0.044752
v -0.077096 0.060185 -0.037052
v -0.077113 0.063117 -0.029427
v -0.076676 0.059129 -0.017800
v -0.076824 0.063205 -0.010406
v -0.076828 0.057822 0.003373
v -0.076828 0.055130 0.010253
v -0.076419 0.058691 0.024755
v -0.076436 0.059894 0.034660
v -0.076887 0.060859 0.044070
v -0.077911 0.056875 0.049101
v -0.075969 0.071296 -0.055556
v -0.076665 0.067572 -0.046628
v -0.076819 0.074001 -0.038021
v -0.076824 0.068603 -0.024202
v -0.077146 0.068897 -0.014396
v -0.077163 0.071753 -0.006987
v -0.077180 0.074574 0.000349
v -0.076878 0.074131 0.010190
v -0.076879 0.068809 0.023753
v -0.076883 0.066160 0.030532
v -0.076797 0.071016 0.042384
v -0.078058 0.071625 0.049412
v -0.071169 0.076801 -0.054802
v -0.069885 0.077153 -0.044935
v -0.069096 0.077398 -0.034518
v -0.069917 0.076769 -0.031246
v -0.073233 0.076778 -0.015779
v -0.074876 0.076784 -0.008072
v -0.076523 0.076789 -0.000391
v -0.078165 0.076794 0.007268
v -0.076555 0.076660 0.021672
v -0.077643 0.076668 0.029722
v -0.076900 0.077336 0.045569
v -0.072098 0.076615 0.047469
v -0.058798 -0.080869 -0.055094
v -0.058804 -0.079958 -0.047574
v -0.058805 -0.079044 -0.040097
v -0.059286 -0.082567 -0.027430
v -0.059294 -0.081672 -0.020192
v -0.058828 -0.075476 -0.010634
v -0.065201 -0.076125 0.003267
v -0.061979 -0.076129 0.015600
v -0.060376 -0.076132 0.021748
v -0.067779 -0.076182 0.030885
v -0.063879 -0.076301 0.036165
v -0.060716 -0.079237 0.049101
v -0.059282 -0.074385 -0.054789
v -0.059290 -0.073510 -0.047433
v -0.059291 -0.072633 -0.040118
v -0.059295 -0.070893 -0.025615
v -0.059302 -0.070038 -0.018428
v -0.059303 -0.069181 -0.011280
v -0.062942 -0.066811 0.002037
v -0.062934 -0.065638 0.010823
v -0.062969 -0.073951 0.023600
v -0.061621 -0.072073 0.049101
v -0.063041 -0.056823 -0.054222
v -0.059298 -0.061868 -0.045486
v -0.059299 -0.061030 -0.038223
v -0.059301 -0.060197 -0.031003
v -0.059310 -0.058551 -0.016687
v -0.059312 -0.057732 -0.009589
v -0.063043 -0.055430 0.004042
v -0.062930 -0.065053 0.015192
v -0.062925 -0.064474 0.019547
v -0.062526 -0.064909 0.049101
v -0.063131 -0.051655 -0.055553
v -0.059299 -0.051172 -0.050813
v -0.059308 -0.049575 -0.036352
v -0.059774 -0.049534 -0.029979
v -0.059778 -0.047978 -0.016027
v -0.059780 -0.047206 -0.009109
v -0.062985 -0.049263 0.005434
v -0.062976 -0.048131 0.014369
v -0.063030 -0.053749 0.017519
v -0.064336 -0.050582 0.049101
v -0.058834 -0.040485 -0.054698
v -0.059778 -0.042042 -0.049722
v -0.059776 -0.040515 -0.035606
v -0.059779 -0.039762 -0.028609
v -0.059783 -0.038267 -0.014730
v -0.059785 -0.037526 -0.007849
v -0.062902 -0.043667 0.005452
v -0.062894 -0.042380 0.014330
v -0.065241 -0.043418 0.049101
v -0.059775 -0.032999 -0.055327
v -0.059777 -0.032264 -0.048249
v -0.059781 -0.030806 -0.034212
v -0.059783 -0.030083 -0.027251
v -0.059786 -0.029364 -0.020330
v -0.059790 -0.027938 -0.006601
v -0.058873 -0.035163 -0.004108
v -0.063029 -0.031055 0.008958
v -0.067051 -0.029090 0.049101
v -0.059093 -0.016132 -0.055456
v -0.060248 -0.020306 -0.046504
v -0.060251 -0.019624 -0.039651
v -0.060256 -0.018270 -0.026055
v -0.060258 -0.017599 -0.019312
v -0.060256 -0.016262 -0.005932
v -0.058886 -0.022157 -0.002003
v -0.063129 -0.021377 0.007774
v -0.067956 -0.021927 0.049101
v -0.059642 -0.006730 -0.054965
v -0.060249 -0.011830 -0.045434
v -0.060252 -0.011173 -0.038608
v -0.060256 -0.009870 -0.025065
v -0.060259 -0.009223 -0.018348
v -0.060257 -0.007936 -0.005021
v -0.059796 -0.008376 0.002600
v -0.058904 -0.008702 0.007006
v -0.067114 -0.014938 0.049421
v -0.059335 0.003080 -0.055427
v -0.060701 0.001276 -0.050247
v -0.060699 0.002497 -0.036916
v -0.060695 0.003104 -0.030303
v -0.060693 0.004305 -0.017182
v -0.060262 -0.000287 -0.010737
v -0.060258 0.000333 -0.004116
v -0.058921 0.003842 0.008982
v -0.067328 -0.004342 0.049170
v -0.059803 0.014029 -0.054927
v -0.060705 0.008815 -0.049488
v -0.060703 0.009993 -0.036194
v -0.060699 0.010579 -0.029599
v -0.060698 0.011738 -0.016513
v -0.060698 0.005490 -0.004199
v -0.060696 0.012885 -0.003565
v -0.059354 0.008638 0.006898
v -0.059129 0.010360 0.049068
v -0.061136 0.023336 -0.054254
v -0.061138 0.023877 -0.047724
v -0.061134 0.024417 -0.041226
v -0.060697 0.018021 -0.028896
v -0.060695 0.019138 -0.015847
v -0.060698 0.019690 -0.009374
v -0.060702 0.020786 0.003471
v -0.059809 0.019245 0.006103
v -0.060026 0.017459 0.049068
v -0.060717 0.034465 -0.054806
v -0.061136 0.030720 -0.047247
v -0.061136 0.024952 -0.034764
v -0.061131 0.025487 -0.028333
v -0.061129 0.026547 -0.015571
v -0.061131 0.027071 -0.009240
v -0.061126 0.027595 -0.002939
v -0.060271 0.033870 0.012378
v -0.061820 0.031655 0.049068
v -0.061223 0.038512 -0.055393
v -0.061534 0.040668 -0.046346
v -0.061529 0.041156 -0.040001
v -0.061525 0.042122 -0.027407
v -0.061522 0.043079 -0.014940
v -0.061517 0.043554 -0.008752
v -0.061512 0.044028 -0.002594
v -0.060698 0.043074 0.011619
v -0.059382 0.040152 0.017961
v -0.062716 0.038754 0.049068
v -0.061719 0.047267 -0.055015
v -0.061712 0.047830 -0.045883
v -0.061528 0.047504 -0.039778
v -0.061525 0.048438 -0.027195
v -0.061521 0.049363 -0.014738
v -0.061516 0.049822 -0.008555
v -0.061513 0.050733 0.003717
v -0.061119 0.048614 0.010696
v -0.059819 0.046602 0.016012
v -0.063613 0.045852 0.049068
v -0.061718 0.054881 -0.054282
v -0.061712 0.055422 -0.045161
v -0.061713 0.055957 -0.036100
v -0.061706 0.056491 -0.027088
v -0.061707 0.064528 -0.017446
v -0.061516 0.056081 -0.008359
v -0.061512 0.056960 0.003904
v -0.061508 0.057397 0.009990
v -0.061509 0.064017 0.016222
v -0.065407 0.060049 0.049068
v -0.060719 0.068756 -0.054768
v -0.061717 0.070070 -0.052820
v -0.061712 0.071052 -0.034680
v -0.061705 0.071540 -0.025688
v -0.061707 0.072023 -0.016756
v -0.061701 0.065032 -0.008551
v -0.061694 0.072984 0.000961
v -0.061695 0.073458 0.009735
v -0.061688 0.073931 0.018463
v -0.060700 0.072386 0.026362
v -0.066296 0.067149 0.049073
v -0.064917 0.076752 -0.054614
v -0.066591 0.076757 -0.046805
v -0.068253 0.076764 -0.039012
v -0.065831 0.077275 -0.026151
v -0.066768 0.077280 -0.020068
v -0.061515 0.074801 -0.007771
v -0.061511 0.075586 0.004461
v -0.061506 0.075976 0.010533
v -0.061503 0.076749 0.022586
v -0.061545 0.077502 0.034511
v -0.064248 0.077508 0.045777
v -0.060829 0.076213 0.049102
v -0.058336 -0.076193 -0.052175
v -0.057187 -0.076141 0.034009
v -0.054133 -0.076281 0.039084
v -0.049034 -0.075593 0.049170
v -0.057915 -0.073014 -0.055811
v -0.058345 -0.075297 -0.044575
v -0.058353 -0.074406 -0.037021
v -0.058356 -0.073511 -0.029510
v -0.058372 -0.071756 -0.014625
v -0.058376 -0.070877 -0.007246
v -0.057973 -0.066929 -0.002887
v -0.049265 -0.067722 0.049068
v -0.058360 -0.059227 -0.048757
v -0.058368 -0.058391 -0.041252
v -0.058379 -0.056725 -0.026372
v -0.058387 -0.055904 -0.018998
v -0.057594 -0.064259 -0.005032
v -0.057280 -0.060801 0.001218
v -0.050162 -0.060623 0.049068
v -0.057954 -0.051313 -0.051126
v -0.057970 -0.049704 -0.036034
v -0.057978 -0.048906 -0.028555
v -0.057986 -0.048113 -0.021121
v -0.058399 -0.054267 -0.004378
v -0.058009 -0.045763 0.000923
v -0.051059 -0.053525 0.049068
v -0.058008 -0.040034 -0.054827
v -0.058387 -0.042642 -0.045417
v -0.058395 -0.041864 -0.038004
v -0.058403 -0.041090 -0.030633
v -0.058414 -0.039548 -0.016019
v -0.058422 -0.038787 -0.008777
v -0.058425 -0.038023 -0.001574
v -0.052852 -0.039328 0.049068
v -0.058410 -0.027153 -0.049519
v -0.058417 -0.025686 -0.034823
v -0.058017 -0.028077 -0.024383
v -0.058025 -0.027356 -0.017069
v -0.058033 -0.026640 -0.009797
v -0.058040 -0.025927 -0.002568
v -0.053749 -0.032230 0.049068
v -0.058034 -0.021985 -0.054877
v -0.058562 -0.016825 -0.050184
v -0.057148 -0.022921 -0.042447
v -0.058425 -0.024967 -0.027542
v -0.058428 -0.024245 -0.020300
v -0.058443 -0.022828 -0.005946
v -0.058447 -0.022117 0.001172
v -0.054646 -0.025131 0.049068
v -0.058432 -0.011214 -0.046230
v -0.058439 -0.010540 -0.038952
v -0.058450 -0.009197 -0.024519
v -0.058454 -0.008527 -0.017363
v -0.058461 -0.007869 -0.010249
v -0.058472 -0.006556 0.003858
v -0.057397 -0.013617 0.010182
v -0.056439 -0.010935 0.049068
v -0.058059 -0.004269 -0.054926
v -0.058578 -0.002482 -0.052600
v -0.058580 -0.001714 -0.042511
v -0.058587 -0.000959 -0.032496
v -0.058082 -0.005255 0.008213
v -0.057336 -0.003836 0.049068
v -0.058589 0.011691 -0.054979
v -0.058596 0.012400 -0.044952
v -0.058598 0.013112 -0.034983
v -0.058605 0.013811 -0.025087
v -0.058475 0.006868 -0.014485
v -0.058482 0.007476 -0.007454
v -0.058489 0.008080 -0.000463
v -0.058500 0.009287 0.013403
v -0.049035 0.014474 0.049369
v -0.058418 0.021397 -0.054513
v -0.058471 0.019073 -0.047011
v -0.058427 0.022130 -0.042576
v -0.058435 0.022858 -0.030724
v -0.058118 0.015899 -0.014917
v -0.058507 0.022494 -0.004719
v -0.058514 0.023050 0.002192
v -0.058517 0.023611 0.009066
v -0.058524 0.024162 0.015901
v -0.050015 0.022233 0.049369
v -0.058103 0.030213 -0.055015
v -0.058607 0.026350 -0.047355
v -0.058614 0.027003 -0.037447
v -0.058615 0.027661 -0.027596
v -0.058137 0.032739 -0.015315
v -0.058146 0.033358 -0.005553
v -0.058138 0.031964 0.001343
v -0.058152 0.033001 0.015097
v -0.057506 0.030356 0.018536
v -0.048678 0.027997 0.049041
v -0.058431 0.036497 -0.055068
v -0.058617 0.040130 -0.049730
v -0.058439 0.037171 -0.043208
v -0.058447 0.037840 -0.031432
v -0.058456 0.038505 -0.019739
v -0.058527 0.036682 -0.008913
v -0.058534 0.037720 0.004794
v -0.058537 0.038236 0.011591
v -0.058543 0.038740 0.018349
v -0.049567 0.035031 0.049041
v -0.058443 0.051397 -0.055615
v -0.058136 0.047562 -0.045129
v -0.058452 0.052014 -0.043831
v -0.058460 0.052627 -0.032130
v -0.058468 0.053235 -0.020511
v -0.058476 0.053839 -0.008974
v -0.058484 0.054439 0.002483
v -0.058560 0.052556 0.014063
v -0.058567 0.053017 0.020746
v -0.051336 0.049102 0.049046
v -0.058145 0.063471 -0.055100
v -0.058154 0.063988 -0.045256
v -0.058164 0.064501 -0.035475
v -0.058543 0.063580 -0.030800
v -0.058553 0.064455 -0.017105
v -0.057733 0.057764 -0.008170
v -0.057743 0.058285 0.001473
v -0.057752 0.058802 0.011053
v -0.052225 0.056136 0.049046
v -0.057313 0.066735 -0.055041
v -0.058470 0.066654 -0.044456
v -0.058159 0.065448 -0.039603
v -0.058478 0.067212 -0.032829
v -0.058486 0.067766 -0.021283
v -0.058494 0.068315 -0.009817
v -0.058502 0.068861 0.001569
v -0.058509 0.069403 0.012876
v -0.058214 0.067519 0.021915
v -0.057896 0.071005 0.027136
v -0.054002 0.070204 0.049046
v -0.058543 0.076028 -0.055430
v -0.058550 0.076429 -0.048492
v -0.058559 0.077232 -0.034728
v -0.058566 0.077627 -0.027903
v -0.057921 0.077435 -0.015331
v -0.058111 0.077443 -0.006069
v -0.058300 0.077451 0.003143
v -0.058484 0.077467 0.012309
v -0.057351 0.078027 0.024189
v -0.052825 0.076896 0.033436
v -0.054446 0.076903 0.040844
v -0.056070 0.076907 0.048227
v -0.041020 -0.076181 0.030217
v -0.044259 -0.076261 0.042042
v -0.047472 -0.081918 0.049068
v -0.048369 -0.074820 0.049068
v -0.039224 -0.063114 0.049377
v -0.038903 -0.049378 0.049041
v -0.039792 -0.042344 0.049041
v -0.040680 -0.035310 0.049041
v -0.042458 -0.021241 0.049041
v -0.043346 -0.014207 0.049041
v -0.045123 -0.000139 0.049041
v -0.046012 0.006895 0.049041
v -0.047789 0.020963 0.049041
v -0.039698 0.025019 0.049344
v -0.041644 0.040429 0.049344
v -0.039295 0.052289 0.049014
v -0.040175 0.059260 0.049014
v -0.041056 0.066231 0.049014
v -0.042585 0.077414 0.034332
v -0.041157 0.077570 0.044567
v -0.038774 0.076793 0.046422
v -0.033032 -0.076118 0.032676
v -0.034254 -0.076240 0.045039
v -0.035349 -0.077514 0.049040
v -0.036237 -0.070480 0.049040
v -0.037126 -0.063446 0.049041
v -0.029956 -0.052028 0.049352
v -0.030929 -0.044323 0.049352
v -0.028727 -0.031363 0.049014
v -0.029608 -0.024392 0.049014
v -0.031369 -0.010450 0.049014
v -0.032249 -0.003479 0.049014
v -0.034011 0.010463 0.049014
v -0.034891 0.017434 0.049014
v -0.036653 0.031376 0.049014
v -0.037533 0.038347 0.049014
v -0.038414 0.045318 0.049014
v -0.033389 0.058374 0.049319
v -0.029205 0.069239 0.048987
v -0.038455 0.077564 0.033516
v -0.037649 0.076785 0.038659
v -0.030078 0.076148 0.048987
v -0.023421 -0.076064 0.029808
v -0.027516 -0.076118 0.044506
v -0.022562 -0.080160 0.049014
v -0.023443 -0.073189 0.049014
v -0.025204 -0.059247 0.049014
v -0.026085 -0.052276 0.049014
v -0.026966 -0.045305 0.049014
v -0.021782 -0.033444 0.049327
v -0.023723 -0.018143 0.049319
v -0.018739 -0.013672 0.048982
v -0.020484 0.000146 0.048982
v -0.021357 0.007056 0.048982
v -0.023096 0.020876 0.048987
v -0.023969 0.027785 0.048987
v -0.024841 0.034694 0.048987
v -0.026587 0.048512 0.048987
v -0.027460 0.055421 0.048987
v -0.024288 0.068473 0.049295
v -0.022287 0.076974 0.029339
v -0.025552 0.076982 0.043832
v -0.025248 0.076072 0.049295
v -0.011544 -0.076020 0.033661
v -0.009941 -0.076024 0.040001
v -0.010011 -0.082762 0.048982
v -0.011756 -0.068944 0.048982
v -0.012629 -0.062035 0.048982
v -0.013502 -0.055126 0.048982
v -0.015248 -0.041308 0.048982
v -0.016120 -0.034399 0.048982
v -0.017866 -0.020581 0.048982
v -0.013728 -0.015118 0.049295
v -0.008919 0.003711 0.048956
v -0.009778 0.010562 0.048961
v -0.010643 0.017410 0.048961
v -0.012373 0.031106 0.048961
v -0.013238 0.037954 0.048961
v -0.014103 0.044802 0.048961
v -0.015833 0.058498 0.048961
v -0.016698 0.065347 0.048961
v -0.016252 0.077622 0.032558
v -0.017609 0.077622 0.037984
v -0.017085 0.076467 0.047433
v -0.006740 -0.076028 0.035831
v -0.005589 -0.076030 0.042206
v -0.006040 -0.075907 0.049302
v 0.000597 -0.071619 0.048956
v -0.000268 -0.064771 0.048956
v -0.001998 -0.051074 0.048956
v -0.002864 -0.044226 0.048956
v -0.004594 -0.030530 0.048956
v -0.005459 -0.023682 0.048956
v -0.007189 -0.009985 0.048956
v -0.008054 -0.003137 0.048956
v -0.004324 0.007882 0.049014
v 0.000728 0.020790 0.048931
v -0.000129 0.027578 0.048931
v -0.001844 0.041155 0.048931
v -0.002702 0.047943 0.048931
v -0.003560 0.054731 0.048931
v -0.005275 0.068308 0.048931
v -0.003493 0.077423 0.032086
v 0.001184 0.076894 0.039537
v -0.006132 0.075096 0.048931
v 0.009196 -0.075982 0.035522
v 0.010330 -0.075986 0.041983
v 0.001462 -0.078467 0.048956
v 0.003635 -0.072759 0.049046
v 0.011019 -0.060670 0.048931
v 0.010161 -0.053882 0.048931
v 0.008446 -0.040305 0.048931
v 0.007589 -0.033517 0.048931
v 0.005874 -0.019940 0.048931
v 0.005016 -0.013152 0.048931
v 0.003301 0.000425 0.048931
v 0.002443 0.007213 0.048931
v 0.005184 0.019642 0.048988
v 0.011059 0.030843 0.048906
v 0.010209 0.037573 0.048906
v 0.008508 0.051032 0.048906
v 0.007658 0.057761 0.048906
v 0.005958 0.071220 0.048906
v 0.005374 0.077049 0.032517
v 0.003752 0.077057 0.039624
v 0.002122 0.077061 0.046703
v 0.007874 0.084768 0.049328
v 0.013564 -0.076000 0.033861
v 0.016422 -0.076000 0.039991
v 0.013592 -0.081035 0.048931
v 0.012734 -0.074247 0.048931
v 0.013157 -0.060170 0.049019
v 0.021260 -0.049911 0.048906
v 0.020410 -0.043182 0.048906
v 0.018710 -0.029723 0.048906
v 0.017860 -0.022993 0.048906
v 0.016160 -0.009534 0.048906
v 0.015310 -0.002805 0.048906
v 0.013609 0.010655 0.048906
v 0.012759 0.017384 0.048906
v 0.014519 0.031191 0.048957
v 0.021212 0.040724 0.048881
v 0.020369 0.047396 0.048881
v 0.018684 0.060739 0.048881
v 0.017841 0.067411 0.048881
v 0.017463 0.077575 0.035306
v 0.019214 0.076947 0.043678
v 0.015188 0.075679 0.048931
v 0.025540 -0.075938 0.035209
v 0.026657 -0.075945 0.041757
v 0.024661 -0.076830 0.048906
v 0.023811 -0.070100 0.048906
v 0.022961 -0.063370 0.048906
v 0.021513 -0.054200 0.048367
v 0.031320 -0.039340 0.048876
v 0.030483 -0.032665 0.048881
v 0.028798 -0.019322 0.048881
v 0.027955 -0.012650 0.048881
v 0.026269 0.000693 0.048881
v 0.025426 0.007365 0.048881
v 0.023741 0.020709 0.048881
v 0.022898 0.027380 0.048881
v 0.025398 0.035915 0.048931
v 0.031186 0.050434 0.048852
v 0.030350 0.057049 0.048852
v 0.028679 0.070279 0.048852
v 0.025715 0.077732 0.030749
v 0.030255 0.077130 0.042516
v 0.027843 0.076894 0.048852
v 0.037692 -0.075888 0.033283
v 0.039302 -0.075892 0.039872
v 0.036377 -0.079371 0.048876
v 0.035534 -0.072699 0.048876
v 0.033848 -0.059355 0.048876
v 0.033005 -0.052684 0.048876
v 0.033408 -0.042348 0.048962
v 0.041214 -0.028946 0.048852
v 0.040378 -0.022331 0.048852
v 0.038707 -0.009101 0.048852
v 0.037871 -0.002486 0.048852
v 0.036200 0.010744 0.048852
v 0.035364 0.017359 0.048852
v 0.033693 0.030589 0.048852
v 0.032857 0.037204 0.048852
v 0.034344 0.047873 0.048308
v 0.040998 0.059983 0.048828
v 0.040169 0.066542 0.048828
v 0.031889 0.077126 0.035571
v 0.037932 0.076994 0.040362
v 0.036730 0.076998 0.047701
v 0.042309 -0.075895 0.034891
v 0.043420 -0.075899 0.041523
v 0.047899 -0.081866 0.048852
v 0.047064 -0.075251 0.048852
v 0.045392 -0.062021 0.048852
v 0.043721 -0.048791 0.048852
v 0.042885 -0.042176 0.048852
v 0.044595 -0.033272 0.048308
v 0.050941 -0.018727 0.048828
v 0.050113 -0.012168 0.048828
v 0.048456 0.000950 0.048828
v 0.047627 0.007510 0.048828
v 0.045970 0.020628 0.048828
v 0.045141 0.027187 0.048828
v 0.043484 0.040305 0.048828
v 0.042655 0.046865 0.048828
v 0.043251 0.058145 0.048882
v 0.050646 0.069372 0.048805
v 0.044221 0.077786 0.035029
v 0.041549 0.077791 0.045271
v 0.049824 0.075876 0.048805
v 0.058506 -0.076346 -0.055567
v 0.060457 -0.075484 -0.051126
v 0.059685 -0.075630 -0.043606
v 0.060203 -0.075842 -0.025707
v 0.059457 -0.075428 -0.016428
v 0.060179 -0.076172 -0.010056
v 0.059072 -0.076296 0.000579
v 0.059074 -0.075528 0.006200
v 0.061366 -0.075812 0.022970
v 0.060877 -0.075844 0.028703
v 0.060624 -0.075856 0.041285
v 0.058399 -0.077759 0.048828
v 0.059937 -0.069650 -0.055752
v 0.060915 -0.070771 -0.049393
v 0.060912 -0.071290 -0.041396
v 0.060898 -0.072322 -0.025526
v 0.060895 -0.065702 -0.017656
v 0.060892 -0.066229 -0.009827
v 0.060886 -0.067275 0.005706
v 0.060883 -0.074851 0.013412
v 0.060880 -0.075349 0.021078
v 0.059921 -0.075192 0.027093
v 0.057570 -0.071200 0.048828
v 0.060408 -0.056707 -0.054356
v 0.060915 -0.056355 -0.049393
v 0.060912 -0.056913 -0.041396
v 0.060898 -0.058022 -0.025526
v 0.060895 -0.058571 -0.017656
v 0.060400 -0.059936 -0.007660
v 0.060395 -0.060465 -0.000023
v 0.059924 -0.059851 0.010740
v 0.059462 -0.064601 0.016010
v 0.056742 -0.064641 0.048828
v 0.060415 -0.049456 -0.054821
v 0.060417 -0.050020 -0.046925
v 0.060412 -0.050584 -0.039069
v 0.060406 -0.051145 -0.031256
v 0.060404 -0.052256 -0.015762
v 0.060406 -0.052805 -0.008080
v 0.059461 -0.048430 -0.001283
v 0.058644 -0.054502 0.011240
v 0.058111 -0.053013 0.016282
v 0.055085 -0.051523 0.048828
v 0.060421 -0.042192 -0.055287
v 0.060416 -0.042780 -0.047380
v 0.060410 -0.043364 -0.039516
v 0.060403 -0.036734 -0.032135
v 0.060407 -0.044521 -0.023921
v 0.059929 -0.043647 -0.013456
v 0.059033 -0.043583 0.002559
v 0.058091 -0.036058 0.007421
v 0.054256 -0.044964 0.048828
v 0.058231 -0.026717 -0.055231
v 0.059938 -0.026410 -0.045987
v 0.059942 -0.027051 -0.038237
v 0.059939 -0.027692 -0.030527
v 0.059466 -0.031887 -0.018973
v 0.059466 -0.032549 -0.011493
v 0.058376 -0.035140 0.003304
v 0.057617 -0.032758 0.008449
v 0.052599 -0.031845 0.048828
v 0.059947 -0.018269 -0.054763
v 0.059944 -0.018939 -0.046948
v 0.059941 -0.019606 -0.039178
v 0.059465 -0.015688 -0.029446
v 0.059465 -0.024167 -0.020418
v 0.058367 -0.024249 -0.004272
v 0.058066 -0.018505 -0.001753
v 0.057603 -0.025323 0.006447
v 0.051770 -0.025286 0.048828
v 0.058020 -0.006004 -0.054792
v 0.059458 -0.006367 -0.046266
v 0.059458 -0.007116 -0.038575
v 0.059023 -0.008166 -0.027882
v 0.058355 -0.013822 -0.017505
v 0.058050 -0.006688 -0.009827
v 0.058057 -0.012278 -0.003122
v 0.061328 -0.015184 0.048805
v 0.059470 0.002348 -0.055583
v 0.059463 0.001564 -0.047816
v 0.059027 0.001194 -0.037642
v 0.058609 0.003446 -0.027975
v 0.058225 -0.000658 -0.023181
v 0.058041 -0.000319 -0.011258
v 0.057356 0.000900 -0.003706
v 0.059684 -0.002175 0.048805
v 0.059016 0.011578 -0.055256
v 0.059015 0.010676 -0.047534
v 0.059020 0.009784 -0.039863
v 0.058220 0.010667 -0.027516
v 0.058028 0.005427 -0.018105
v 0.058031 0.006120 -0.012704
v 0.058041 0.010833 0.048805
v 0.057472 0.023365 -0.055810
v 0.059014 0.019372 -0.049815
v 0.058593 0.023919 -0.041830
v 0.057736 0.021575 -0.024721
v 0.057739 0.022288 -0.019381
v 0.057742 0.022998 -0.014060
v 0.057219 0.017338 0.048805
v 0.058196 0.026312 -0.055154
v 0.059012 0.028140 -0.052115
v 0.057844 0.027967 -0.039386
v 0.057724 0.028924 -0.026643
v 0.057727 0.029628 -0.021263
v 0.057499 0.029538 -0.013714
v 0.055576 0.030346 0.048805
v 0.057226 0.036614 -0.055046
v 0.058584 0.034965 -0.052806
v 0.057696 0.043241 -0.036050
v 0.057702 0.044615 -0.025106
v 0.057715 0.037070 -0.023171
v 0.057111 0.036249 -0.013230
v 0.054754 0.036850 0.048805
v 0.057820 0.045282 -0.054336
v 0.057498 0.045000 -0.046219
v 0.057439 0.053279 -0.036953
v 0.057440 0.054017 -0.031564
v 0.057464 0.046690 -0.018428
v 0.053111 0.049859 0.048805
v 0.057806 0.058951 -0.053266
v 0.057422 0.062269 -0.039573
v 0.057427 0.063728 -0.028711
v 0.057217 0.062707 -0.021920
v 0.052289 0.056363 0.048805
v 0.061039 0.070514 -0.051504
v 0.061035 0.070989 -0.042107
v 0.061022 0.071462 -0.032757
v 0.057035 0.065276 -0.022241
v 0.060942 0.072152 0.048778
v 0.060129 0.076823 -0.054410
v 0.060460 0.077589 -0.045694
v 0.059422 0.077592 -0.040155
v 0.060469 0.077752 -0.027309
v 0.059104 0.077756 -0.022054
v 0.061302 0.077545 -0.006741
v 0.060557 0.077503 0.005167
v 0.059842 0.077017 0.015194
v 0.060578 0.077189 0.024843
v 0.058945 0.077194 0.031680
v 0.055678 0.077201 0.045294
v 0.055265 0.076544 0.048251
v 0.067883 -0.076246 -0.054597
v 0.063560 -0.076086 -0.044801
v 0.063052 -0.077018 -0.038593
v 0.063542 -0.076262 -0.029479
v 0.063523 -0.076435 -0.014299
v 0.063512 -0.076516 -0.006760
v 0.063639 -0.075871 0.001790
v 0.063516 -0.075554 0.007943
v 0.062369 -0.076223 0.018525
v 0.063676 -0.075872 0.035135
v 0.066651 -0.075871 0.041492
v 0.069538 -0.080229 0.048800
v 0.063037 -0.068362 -0.044204
v 0.063541 -0.068280 -0.035430
v 0.063532 -0.068124 -0.027784
v 0.063236 -0.065661 -0.016770
v 0.063232 -0.067343 -0.009655
v 0.063228 -0.069021 -0.002556
v 0.068717 -0.073725 0.048800
v 0.063022 -0.059787 -0.049771
v 0.063250 -0.060603 -0.038213
v 0.063245 -0.062286 -0.031047
v 0.063240 -0.063975 -0.023901
v 0.063369 -0.057814 -0.009749
v 0.063362 -0.058401 -0.002435
v 0.067079 -0.060713 0.048805
v 0.063008 -0.051282 -0.055293
v 0.063411 -0.054869 -0.046757
v 0.063488 -0.052153 -0.039752
v 0.063470 -0.052435 -0.024709
v 0.063459 -0.052570 -0.017238
v 0.063451 -0.052715 -0.009804
v 0.063441 -0.052849 -0.002401
v 0.066258 -0.054209 0.048805
v 0.064132 -0.042546 -0.055762
v 0.064134 -0.036165 -0.052800
v 0.063061 -0.037115 -0.038751
v 0.063048 -0.036674 -0.031294
v 0.063028 -0.035806 -0.016500
v 0.064614 -0.041201 0.048805
v 0.063442 -0.028645 -0.049783
v 0.063421 -0.029021 -0.034872
v 0.063410 -0.029207 -0.027468
v 0.063403 -0.029402 -0.020099
v 0.063386 -0.029781 -0.005458
v 0.063268 -0.026377 0.003655
v 0.063793 -0.034696 0.048805
v 0.063376 -0.019335 -0.055077
v 0.063324 -0.021921 -0.046837
v 0.063932 -0.015805 -0.036178
v 0.063298 -0.023838 -0.025030
v 0.063291 -0.024479 -0.017818
v 0.063285 -0.025117 -0.010633
v 0.063301 -0.017825 0.004135
v 0.062149 -0.021688 0.048805
v 0.063951 -0.014272 -0.055314
v 0.063732 -0.007790 -0.044502
v 0.063727 -0.009762 -0.035801
v 0.063721 -0.011729 -0.027122
v 0.063087 -0.008126 -0.019374
v 0.063079 -0.011481 -0.005701
v 0.063076 -0.013153 0.001113
v 0.063072 -0.014822 0.007912
v 0.066616 -0.013306 0.048251
v 0.062434 -0.000200 -0.054580
v 0.063103 -0.001371 -0.046897
v 0.063099 -0.003066 -0.039994
v 0.063095 -0.004756 -0.033106
v 0.063334 0.003152 -0.014205
v 0.063321 0.003139 -0.006991
v 0.063312 0.003117 0.000188
v 0.063179 0.004171 0.009465
v 0.070721 -0.005251 0.048777
v 0.063985 0.010478 -0.054616
v 0.064269 0.009518 -0.053379
v 0.064258 0.008640 -0.042418
v 0.063217 0.007556 -0.025572
v 0.063210 0.006870 -0.018513
v 0.063194 0.005516 -0.004472
v 0.063185 0.004847 0.002511
v 0.063251 0.013636 0.009846
v 0.069091 0.007649 0.048777
v 0.063327 0.016166 -0.054486
v 0.063846 0.022816 -0.052131
v 0.063837 0.021984 -0.042766
v 0.063828 0.021156 -0.033442
v 0.063810 0.019511 -0.014915
v 0.063918 0.024119 -0.009587
v 0.063265 0.019806 0.003198
v 0.063257 0.019745 0.010251
v 0.067461 0.020550 0.048777
v 0.063777 0.026465 -0.055449
v 0.064360 0.026953 -0.048946
v 0.064346 0.026854 -0.037359
v 0.064332 0.026756 -0.025841
v 0.063879 0.034487 -0.020529
v 0.063870 0.034109 -0.011057
v 0.063857 0.033742 -0.001626
v 0.063093 0.033344 0.015013
v 0.066646 0.027000 0.048777
v 0.062034 0.038479 -0.055033
v 0.063914 0.035613 -0.049249
v 0.063151 0.039097 -0.039993
v 0.063136 0.037645 -0.026089
v 0.062946 0.043468 -0.015192
v 0.062942 0.041799 -0.008613
v 0.063297 0.038676 0.003309
v 0.062931 0.036812 0.011041
v 0.062928 0.035157 0.017566
v 0.065016 0.039901 0.048777
v 0.062967 0.053556 -0.054955
v 0.062964 0.051866 -0.048293
v 0.062957 0.048496 -0.035011
v 0.063543 0.054346 -0.024585
v 0.063539 0.052384 -0.016284
v 0.063534 0.050426 -0.008003
v 0.063280 0.047393 -0.000675
v 0.063524 0.046525 0.008498
v 0.063131 0.054571 0.017386
v 0.064202 0.046351 0.048777
v 0.063887 0.062814 -0.055854
v 0.063558 0.060262 -0.049609
v 0.063553 0.058286 -0.041247
v 0.063548 0.056314 -0.032906
v 0.063720 0.055602 -0.021754
v 0.063263 0.056043 -0.004617
v 0.063030 0.063481 0.000361
v 0.063018 0.061978 0.013688
v 0.063012 0.061231 0.020317
v 0.062572 0.059252 0.048778
v 0.064212 0.065766 -0.055083
v 0.064208 0.074034 -0.051613
v 0.064197 0.073522 -0.040563
v 0.063058 0.066501 -0.026586
v 0.063050 0.065746 -0.019812
v 0.063246 0.064618 -0.008526
v 0.064143 0.071531 0.003075
v 0.064129 0.071043 0.013841
v 0.062605 0.073775 0.021294
v 0.061757 0.065702 0.048778
v 0.066989 0.077447 -0.054162
v 0.065974 0.077741 -0.048432
v 0.063219 0.077747 -0.037848
v 0.061842 0.077750 -0.032573
v 0.070493 0.077165 -0.016511
v 0.068830 0.077169 -0.009577
v 0.065514 0.077176 0.004240
v 0.063863 0.077179 0.011123
v 0.062215 0.077183 0.017989
v 0.063375 0.077837 0.034114
v 0.062042 0.077839 0.039150
v 0.071075 0.074889 0.048755
v 0.071701 -0.076415 -0.054199
v 0.078382 -0.082332 -0.052249
v 0.078387 -0.080208 -0.034938
v 0.078393 -0.079154 -0.026362
v 0.078398 -0.078107 -0.017841
v 0.078398 -0.077070 -0.009378
v 0.078403 -0.076036 -0.000964
v 0.078411 -0.080937 0.015013
v 0.078410 -0.079903 0.023275
v 0.078410 -0.078875 0.031487
v 0.078415 -0.077851 0.039652
v 0.078421 -0.076833 0.047766
v 0.079785 -0.071399 -0.054250
v 0.078385 -0.075210 -0.051473
v 0.078391 -0.073132 -0.034184
v 0.078396 -0.072102 -0.025619
v 0.078402 -0.071078 -0.017108
v 0.078401 -0.070064 -0.008656
v 0.078407 -0.069053 -0.000251
v 0.078408 -0.073990 0.015702
v 0.078408 -0.072979 0.023954
v 0.078413 -0.071970 0.032161
v 0.078418 -0.070968 0.040316
v 0.078424 -0.069972 0.048421
v 0.078565 -0.055997 -0.055629
v 0.078386 -0.061008 -0.049932
v 0.078392 -0.060012 -0.041278
v 0.078393 -0.065066 -0.024882
v 0.078399 -0.064066 -0.016381
v 0.078398 -0.063075 -0.007939
v 0.078404 -0.062087 0.000455
v 0.078403 -0.061108 0.008791
v 0.078408 -0.059165 0.025314
v 0.078410 -0.065081 0.032829
v 0.078416 -0.064101 0.040975
v 0.078054 -0.063304 0.048777
v 0.078567 -0.050172 -0.055383
v 0.078390 -0.053926 -0.049161
v 0.078395 -0.052953 -0.040518
v 0.078395 -0.051990 -0.031935
v 0.078406 -0.050075 -0.014922
v 0.078405 -0.049129 -0.006500
v 0.078407 -0.055130 0.001165
v 0.078407 -0.054174 0.009491
v 0.078412 -0.053221 0.017771
v 0.078417 -0.051335 0.034171
v 0.078423 -0.050399 0.042298
v 0.076425 -0.050403 0.048777
v 0.078565 -0.044358 -0.055140
v 0.078384 -0.039808 -0.047634
v 0.078396 -0.038879 -0.039007
v 0.078392 -0.044971 -0.031193
v 0.078403 -0.043102 -0.014199
v 0.078403 -0.042179 -0.005788
v 0.078408 -0.041259 0.002576
v 0.078407 -0.040348 0.010882
v 0.078413 -0.039440 0.019142
v 0.078414 -0.044484 0.034836
v 0.078420 -0.043570 0.042953
v 0.075610 -0.043953 0.048777
v 0.078382 -0.033675 -0.055534
v 0.078388 -0.032767 -0.046868
v 0.078399 -0.031861 -0.038251
v 0.078399 -0.030967 -0.029700
v 0.078405 -0.030075 -0.021197
v 0.078406 -0.035239 -0.005072
v 0.078412 -0.034342 0.003282
v 0.078411 -0.033453 0.011578
v 0.078416 -0.032567 0.019828
v 0.078416 -0.031689 0.028022
v 0.078421 -0.029947 0.044264
v 0.073980 -0.031052 0.048777
v 0.078571 -0.021185 -0.054166
v 0.078388 -0.018726 -0.045344
v 0.078397 -0.024859 -0.037502
v 0.078396 -0.023987 -0.028961
v 0.078402 -0.023119 -0.020469
v 0.078407 -0.022256 -0.012030
v 0.078412 -0.020548 0.004684
v 0.078412 -0.019704 0.012961
v 0.078417 -0.018862 0.021192
v 0.078419 -0.024851 0.028697
v 0.078424 -0.023152 0.044920
v 0.073165 -0.024602 0.048777
v 0.078819 -0.008495 -0.055005
v 0.078392 -0.011725 -0.044582
v 0.078398 -0.010891 -0.036002
v 0.078397 -0.010066 -0.027482
v 0.078403 -0.009242 -0.019011
v 0.078411 -0.015332 -0.011308
v 0.078416 -0.013670 0.005387
v 0.078415 -0.012847 0.013653
v 0.078421 -0.012028 0.021874
v 0.078414 -0.011218 0.030034
v 0.078419 -0.010408 0.038154
v 0.071535 -0.011702 0.048777
v 0.079289 -0.000465 -0.054382
v 0.078387 0.001443 -0.051680
v 0.078395 -0.003929 -0.035257
v 0.078394 -0.003126 -0.026748
v 0.078406 -0.002323 -0.018281
v 0.078411 -0.001527 -0.009873
v 0.078411 -0.000739 -0.001522
v 0.078416 0.000825 0.015029
v 0.078418 -0.005208 0.022550
v 0.078417 -0.004418 0.030706
v 0.078423 -0.003630 0.038816
v 0.078428 -0.002847 0.046876
v 0.079313 0.012032 -0.055113
v 0.078391 0.008427 -0.050911
v 0.078396 0.009197 -0.042309
v 0.078401 0.010720 -0.025272
v 0.078407 0.011476 -0.016831
v 0.078415 0.005358 -0.009155
v 0.078414 0.006123 -0.000814
v 0.078419 0.007643 0.015717
v 0.078425 0.008397 0.023909
v 0.078418 0.009142 0.032040
v 0.078423 0.009887 0.040131
v 0.078429 0.010627 0.048173
v 0.079291 0.023859 -0.055803
v 0.078388 0.015396 -0.050149
v 0.078394 0.016143 -0.041558
v 0.078399 0.017621 -0.024541
v 0.078404 0.018355 -0.016111
v 0.078410 0.019083 -0.007733
v 0.078415 0.019807 0.000593
v 0.078420 0.020527 0.008867
v 0.078422 0.015179 0.024581
v 0.078421 0.015905 0.032708
v 0.078427 0.016628 0.040790
v 0.078348 0.017314 0.048755
v 0.078825 0.028637 -0.055822
v 0.078389 0.029297 -0.048625
v 0.078394 0.029999 -0.040054
v 0.078400 0.030696 -0.031537
v 0.078407 0.025223 -0.015387
v 0.078413 0.025929 -0.007019
v 0.078418 0.026632 0.001297
v 0.078424 0.027329 0.009562
v 0.078423 0.028021 0.017770
v 0.078422 0.029390 0.034035
v 0.078427 0.030071 0.042098
v 0.076732 0.030109 0.048755
v 0.078390 0.042486 -0.055705
v 0.078392 0.036229 -0.047862
v 0.078398 0.036908 -0.039302
v 0.078403 0.037583 -0.030795
v 0.078403 0.038252 -0.022348
v 0.078414 0.039581 -0.005600
v 0.078413 0.040237 0.002691
v 0.078425 0.040894 0.010941
v 0.078421 0.034786 0.018448
v 0.078419 0.036113 0.034694
v 0.078425 0.036773 0.042748
v 0.075924 0.036506 0.048755
v 0.078393 0.049414 -0.054934
v 0.078393 0.050051 -0.046346
v 0.078398 0.050685 -0.037807
v 0.078404 0.051316 -0.029321
v 0.078400 0.045101 -0.021623
v 0.078411 0.046387 -0.004894
v 0.078410 0.047021 0.003387
v 0.078422 0.047656 0.011627
v 0.078421 0.048283 0.019806
v 0.078427 0.048908 0.027940
v 0.078431 0.050144 0.044053
v 0.074308 0.049300 0.048755
v 0.078397 0.056329 -0.054165
v 0.078396 0.056943 -0.045588
v 0.078402 0.057555 -0.037059
v 0.078407 0.058164 -0.028583
v 0.078407 0.058766 -0.020166
v 0.078412 0.059367 -0.011796
v 0.078417 0.060556 0.004783
v 0.078423 0.061146 0.012999
v 0.078424 0.055013 0.020485
v 0.078430 0.055617 0.028610
v 0.078429 0.056810 0.044700
v 0.073499 0.055698 0.048755
v 0.078828 0.072675 -0.055038
v 0.078398 0.070118 -0.052637
v 0.078403 0.071255 -0.035572
v 0.078405 0.064997 -0.027852
v 0.078404 0.065578 -0.019445
v 0.078410 0.066157 -0.011085
v 0.078414 0.067302 0.005474
v 0.078420 0.067871 0.013680
v 0.078419 0.068434 0.021831
v 0.078424 0.068995 0.029936
v 0.078424 0.069551 0.037987
v 0.071883 0.068492 0.048755
v 0.078577 0.075237 -0.055838
v 0.077184 0.077148 -0.044425
v 0.075504 0.077152 -0.037421
v 0.073827 0.077156 -0.030436
v 0.072162 0.077161 -0.023462
v 0.074119 0.077814 -0.006546
v 0.078594 0.074632 0.005521
v 0.078598 0.075077 0.010953
v 0.078423 0.075127 0.022506
v 0.078428 0.075668 0.030602
v 0.078427 0.076203 0.038644
v 0.078433 0.076737 0.046641
v 0.081546 -0.075484 -0.055308
v 0.081393 -0.081339 -0.052702
v 0.081385 -0.079364 -0.042098
v 0.081567 -0.079927 -0.032808
v 0.081557 -0.077795 -0.020071
v 0.081542 -0.075692 -0.007457
v 0.081883 -0.080873 -0.000140
v 0.081871 -0.078572 0.010483
v 0.081859 -0.076292 0.021013
v 0.083096 -0.078195 0.028636
v 0.082607 -0.082673 0.038534
v 0.081974 -0.082069 0.049851
v 0.082125 -0.065528 -0.055385
v 0.081907 -0.070917 -0.052269
v 0.081895 -0.068637 -0.041309
v 0.081883 -0.066377 -0.030445
v 0.081504 -0.065766 -0.018330
v 0.081936 -0.073659 -0.006212
v 0.081532 -0.073598 0.005054
v 0.082356 -0.074664 0.011185
v 0.081523 -0.071522 0.017455
v 0.081513 -0.069465 0.029746
v 0.081503 -0.067426 0.041929
v 0.081459 -0.066604 0.048847
v 0.081554 -0.064496 -0.044329
v 0.082114 -0.063068 -0.042018
v 0.081544 -0.062442 -0.031590
v 0.081535 -0.060405 -0.018964
v 0.081525 -0.058387 -0.006449
v 0.081851 -0.059706 0.001585
v 0.081510 -0.056396 0.005945
v 0.081465 -0.056405 0.017291
v 0.081883 -0.061558 0.030462
v 0.081864 -0.056847 0.044716
v 0.083080 -0.063422 0.049170
v 0.081547 -0.049175 -0.055753
v 0.081875 -0.049657 -0.049902
v 0.081537 -0.047196 -0.043011
v 0.081490 -0.049742 -0.028952
v 0.081476 -0.046093 -0.014558
v 0.081895 -0.047572 -0.008155
v 0.082329 -0.049754 -0.003645
v 0.082059 -0.053502 0.010149
v 0.081501 -0.054413 0.018241
v 0.081496 -0.052438 0.030438
v 0.081487 -0.050489 0.042519
v 0.082019 -0.046561 0.048001
v 0.082623 -0.043622 -0.055823
v 0.082091 -0.042522 -0.048863
v 0.082073 -0.040224 -0.035719
v 0.081527 -0.045235 -0.030382
v 0.081517 -0.043291 -0.017865
v 0.081508 -0.041365 -0.005458
v 0.081823 -0.039026 0.003275
v 0.081498 -0.039455 0.006841
v 0.081484 -0.037571 0.019024
v 0.081479 -0.035685 0.031119
v 0.082275 -0.039012 0.039677
v 0.081913 -0.037778 0.049435
v 0.081525 -0.032077 -0.054355
v 0.081847 -0.028892 -0.047584
v 0.081519 -0.030181 -0.041714
v 0.081510 -0.028310 -0.029195
v 0.081500 -0.026457 -0.016785
v 0.081448 -0.026954 -0.010888
v 0.082036 -0.033417 0.003011
v 0.082023 -0.031194 0.015677
v 0.081804 -0.034899 0.023912
v 0.081793 -0.032866 0.034096
v 0.081466 -0.033833 0.043091
v 0.081408 -0.030339 0.047669
v 0.082064 -0.022321 -0.055605
v 0.081464 -0.018295 -0.049791
v 0.082054 -0.020117 -0.042517
v 0.081827 -0.024812 -0.026307
v 0.081816 -0.022803 -0.015809
v 0.081491 -0.024619 -0.004483
v 0.081797 -0.018826 0.004926
v 0.081482 -0.022797 0.007713
v 0.081472 -0.020991 0.019803
v 0.081459 -0.019209 0.031780
v 0.081449 -0.017434 0.043663
v 0.081886 -0.023150 0.049724
v 0.082299 -0.006344 -0.054597
v 0.081507 -0.015249 -0.052971
v 0.081498 -0.013451 -0.040449
v 0.081493 -0.011660 -0.028026
v 0.081484 -0.009893 -0.015721
v 0.081421 -0.008328 -0.007317
v 0.081474 -0.008142 -0.003523
v 0.081465 -0.006406 0.008570
v 0.081775 -0.014926 0.025306
v 0.081764 -0.013000 0.035367
v 0.081756 -0.011082 0.045350
v 0.082222 -0.010201 0.045983
v 0.081491 0.001305 -0.051608
v 0.081481 0.003017 -0.039194
v 0.081797 -0.004763 -0.024317
v 0.082008 0.003775 -0.023561
v 0.081789 -0.002853 -0.013942
v 0.081778 -0.000968 -0.003661
v 0.081767 0.000901 0.006533
v 0.081456 -0.004684 0.020560
v 0.081447 -0.002978 0.032448
v 0.081438 -0.001285 0.044234
v 0.081871 -0.000516 0.048880
v 0.081800 0.009341 -0.053622
v 0.081789 0.011185 -0.043117
v 0.081472 0.004713 -0.026886
v 0.081463 0.006395 -0.014685
v 0.081995 0.005802 -0.010915
v 0.081458 0.008072 -0.002579
v 0.081449 0.009725 0.009415
v 0.081440 0.011364 0.021306
v 0.081427 0.012981 0.033088
v 0.081418 0.014593 0.044780
v 0.081728 0.008232 0.046475
v 0.082009 0.019111 -0.055806
v 0.081415 0.017002 -0.048689
v 0.081465 0.019221 -0.037959
v 0.081456 0.020835 -0.025755
v 0.081771 0.014834 -0.022366
v 0.081446 0.022434 -0.013655
v 0.081442 0.024029 -0.001649
v 0.081742 0.020190 0.008110
v 0.081731 0.021942 0.018099
v 0.081724 0.023689 0.028011
v 0.082181 0.015253 0.041827
v 0.082584 0.022035 0.048127
v 0.081774 0.028799 -0.051331
v 0.081763 0.030540 -0.040956
v 0.081752 0.032266 -0.030668
v 0.081742 0.033978 -0.020465
v 0.081964 0.026856 -0.005247
v 0.082191 0.031222 -0.003562
v 0.081433 0.025602 0.010245
v 0.081424 0.027161 0.022040
v 0.081411 0.028699 0.033727
v 0.081402 0.030233 0.045325
v 0.081700 0.027115 0.047574
v 0.081974 0.040112 -0.049554
v 0.081965 0.041960 -0.036922
v 0.081440 0.036700 -0.024641
v 0.082615 0.041567 -0.022992
v 0.081431 0.038220 -0.012642
v 0.081422 0.039727 -0.000744
v 0.081417 0.041230 0.011063
v 0.081409 0.042712 0.022763
v 0.081396 0.044173 0.034356
v 0.081686 0.043973 0.039023
v 0.082132 0.042166 0.047893
v 0.081745 0.047805 -0.049100
v 0.081738 0.049456 -0.038845
v 0.081727 0.051085 -0.028682
v 0.081717 0.052700 -0.018602
v 0.081415 0.053759 -0.011645
v 0.081934 0.047394 0.000282
v 0.081922 0.049167 0.012456
v 0.081910 0.050924 0.024521
v 0.081894 0.052657 0.036470
v 0.081387 0.045630 0.045862
v 0.081736 0.063970 -0.044774
v 0.081931 0.062329 -0.031006
v 0.081922 0.064046 -0.018668
v 0.082152 0.055870 -0.006998
v 0.081406 0.055189 0.000157
v 0.081398 0.056608 0.011860
v 0.081393 0.058022 0.023474
v 0.081669 0.060589 0.030585
v 0.081662 0.062135 0.040190
v 0.081767 0.058717 0.049556
v 0.081720 0.066393 -0.046912
v 0.081710 0.067941 -0.036787
v 0.081702 0.069484 -0.026739
v 0.081692 0.071006 -0.016779
v 0.081682 0.072516 -0.006900
v 0.081391 0.070412 0.001043
v 0.081383 0.071757 0.012653
v 0.081893 0.069098 0.017680
v 0.081874 0.070729 0.029560
v 0.081862 0.072363 0.041353
v 0.082991 0.069637 0.049401
v 0.082873 0.076272 -0.054955
v 0.081892 0.078284 -0.047462
v 0.082557 0.077501 -0.036991
v 0.082140 0.075909 -0.031062
v 0.082035 0.077557 -0.020892
v 0.081478 0.077564 -0.011960
v 0.082147 0.077273 0.001121
v 0.081665 0.075508 0.012627
v 0.081655 0.076982 0.022270
v 0.081509 0.078659 0.032757
v 0.081987 0.075952 0.042692
v 0.081386 0.074822 0.048714
f 722 1440 12
f 1 205 12
f 396 1599 846
f 396 1599 1440
f 197 204 846
f 197 201 195
f 197 201 204
f 192 396 204
f 575 204 846
f 575 396 846
f 575 396 204
f 144 1440 12
f 144 396 1440
f 144 192 396
f 144 192 204
f 144 201 204
f 198 1 195
f 198 201 195
f 198 1 12
f 198 201 12
f 193 197 195
f 193 197 846
f 209 205 12
f 209 412 205
f 214 722 12
f 214 412 722
f 214 209 12
f 214 209 412
f 409 412 205
f 785 722 1440
f 785 412 722
f 931 1 205
f 931 409 205
f 931 1429 1430
f 84 201 12
f 84 144 12
f 84 144 201
f 181 1 195
f 181 193 1
f 373 1 1193
f 373 193 1
f 1428 1620 846
f 1428 1622 846
f 1428 1622 1620
f 1226 409 412
f 1226 931 1430
f 1226 931 409
f 1610 1599 1440
f 1610 1463 1440
f 1610 1463 1438
f 1610 1599 846
f 1610 1622 846
f 1476 1 1193
f 194 193 195
f 194 181 195
f 194 181 193
f 1611 1476 1546
f 1611 1610 1438
f 1611 1476 1438
f 1439 785 412
f 1439 1226 412
f 1439 785 1440
f 1439 1226 1430
f 1439 1430 1438
f 1439 1463 1438
f 1439 1463 1440
f 1621 1622 1620
f 1621 1610 1622
f 943 931 1429
f 943 931 1
f 943 1476 1
f 1441 1476 1438
f 1441 1476 1429
f 1441 1430 1438
f 1441 1429 1430
f 385 373 193
f 385 708 193
f 1612 1611 1213
f 1612 1620 846
f 1612 193 846
f 1612 193 1213
f 1417 1611 1546
f 1417 1476 1193
f 1417 385 708
f 1417 708 193
f 1417 1476 1546
f 1417 373 1193
f 1417 385 373
f 1417 193 1213
f 1417 1611 1213
f 1464 1476 1429
f 1464 943 1429
f 1464 943 1476
f 1613 1612 1620
f 1613 1612 1611
f 1613 1621 1620
f 1613 1611 1610
f 1613 1621 1610
