v -0.055592 -0.008187 -0.020225
v -0.056514 -0.009594 -0.011208
v -0.059107 -0.007904 0.000053
v -0.055989 -0.010017 0.002413
v -0.046828 -0.007925 -0.031835
v -0.049106 -0.012060 -0.020625
v -0.051985 -0.013053 -0.008745
v -0.049917 -0.014394 0.000562
v -0.048518 -0.013886 0.006850
v -0.053582 -0.007707 0.017629
v -0.048795 -0.007843 0.022645
v -0.045614 -0.010546 0.032068
v -0.044835 -0.006258 0.028688
v -0.038307 -0.022370 -0.009851
v -0.036065 -0.019333 0.000537
v -0.037301 -0.017350 0.011950
v -0.040553 -0.016583 -0.018429
v -0.043182 -0.017169 -0.010095
v -0.044343 -0.015599 0.008600
v -0.038673 -0.014795 0.017691
v -0.038200 -0.008738 0.029526
v -0.041799 -0.008792 0.038347
v -0.036121 -0.004473 -0.043905
v -0.042903 -0.006438 0.029980
v -0.038354 -0.005501 0.033738
v -0.030562 -0.018217 -0.028286
v -0.032655 -0.023394 -0.014901
v -0.029378 -0.024572 -0.000737
v -0.033689 -0.019927 0.002944
v -0.032547 -0.018127 0.013323
v -0.033104 -0.019063 0.023003
v -0.030452 -0.016031 0.019766
v -0.026543 -0.011450 0.029279
v -0.025856 -0.008887 0.032818
v -0.031984 -0.005337 -0.044237
v -0.029703 -0.003113 0.038488
v -0.026959 -0.003523 0.046184
v -0.016311 -0.019062 -0.022970
v -0.023610 -0.022645 -0.014042
v -0.019036 -0.023463 -0.001811
v -0.020754 -0.019486 0.011776
v -0.019344 -0.017291 0.018632
v -0.018587 -0.023510 0.022196
v -0.018280 -0.010486 -0.038128
v -0.023617 -0.014292 0.024268
v -0.017300 -0.017028 0.033442
v -0.017649 -0.000139 -0.049911
v -0.016883 -0.002387 -0.047750
v -0.015801 -0.001688 0.040369
v -0.020532 0.000036 0.046666
v -0.013575 -0.018391 -0.024324
v -0.009842 -0.020927 -0.009419
v -0.005391 -0.025220 0.000338
v -0.006975 -0.024182 0.011579
v -0.014462 -0.019397 0.020306
v -0.011490 -0.017910 0.029182
v -0.008750 -0.008896 -0.038324
v -0.010724 -0.012443 -0.033920
v -0.009775 -0.016062 -0.027955
v -0.008275 -0.017097 0.019252
v -0.005164 -0.015515 0.030409
v -0.008106 -0.007699 0.040166
v -0.013010 -0.008342 0.041885
v -0.007551 -0.000171 -0.047202
v -0.011653 -0.006962 0.033792
v -0.005215 0.000938 0.043004
v -0.008930 0.004305 -0.048233
v -0.008335 0.003540 0.041052
v -0.006764 0.003214 0.044888
v -0.004385 -0.017618 -0.027674
v 0.000730 -0.020985 -0.013802
v 0.001481 -0.022740 -0.003793
v 0.003096 -0.020263 0.010115
v -0.003894 -0.021252 0.017982
v -0.003737 -0.018373 0.023949
v -0.003968 -0.009057 -0.033027
v -0.004620 -0.016258 -0.019646
v 0.004418 -0.012081 -0.018049
v 0.004992 -0.015463 -0.002580
v 0.001435 -0.013689 0.011142
v 0.000767 -0.010763 0.019675
v 0.002330 -0.015811 0.023526
v 0.002563 -0.009805 0.032939
v 0.001739 0.002429 -0.044820
v 0.004722 -0.004641 -0.031668
v 0.000158 -0.003566 0.031831
v 0.005192 -0.000898 0.035904
v -0.002718 0.002616 0.042024
v -0.000310 0.009843 -0.048796
v -0.001600 0.008809 -0.047738
v 0.003421 0.003414 0.040078
v -0.001363 0.010092 0.043418
v 0.004586 0.014011 0.042171
v 0.005653 -0.019271 -0.013661
v 0.006059 -0.019939 0.000271
v 0.006889 -0.019302 0.006251
v 0.005334 -0.010095 -0.030586
v 0.010924 -0.011296 -0.023211
v 0.010684 -0.015023 -0.012907
v 0.013639 -0.014400 -0.002181
v 0.012360 -0.014466 0.007156
v 0.008720 -0.014915 0.015749
v 0.010901 -0.008619 0.025792
v 0.009328 0.002558 -0.039545
v 0.008409 -0.006069 -0.033013
v 0.011766 -0.004346 -0.023000
v 0.011616 -0.006923 -0.017664
v 0.014418 -0.006961 -0.006503
v 0.015074 -0.005830 0.005776
v 0.011695 -0.004971 0.017823
v 0.013047 -0.004631 0.027037
v 0.005388 -0.005710 0.034405
v 0.007464 0.012161 -0.048865
v 0.012550 0.011461 -0.040100
v 0.011339 0.009936 -0.034511
v 0.014990 0.005088 0.027956
v 0.007783 0.004099 0.035436
v 0.009303 0.015820 -0.048929
v 0.014242 0.013885 -0.040187
v 0.014006 0.018596 -0.038092
v 0.009886 0.013322 0.031490
v 0.009860 0.013820 0.036373
v 0.017454 -0.008127 -0.016002
v 0.020592 -0.007491 -0.003075
v 0.019868 -0.007469 0.007815
v 0.016608 -0.007850 0.017405
v 0.016356 -0.000873 -0.030669
v 0.018708 -0.004336 -0.019751
v 0.021879 -0.003721 -0.008947
v 0.022671 -0.003479 0.001022
v 0.021172 -0.003596 0.010228
v 0.017921 -0.003987 0.018876
v 0.019063 0.001895 0.022814
v 0.015273 0.012293 -0.038284
v 0.016947 0.004816 -0.029782
v 0.021857 0.005650 -0.018340
v 0.022631 0.002905 -0.012687
v 0.024165 0.006092 -0.007841
v 0.023099 0.006120 0.011179
v 0.019976 0.005744 0.019847
v 0.016034 0.012463 0.029506
v 0.015423 0.003996 0.031840
v 0.016019 0.020572 -0.048538
v 0.019593 0.022014 -0.038241
v 0.020387 0.014414 -0.029626
v 0.020973 0.014930 -0.028053
v 0.024514 0.015512 -0.017092
v 0.022812 0.016296 -0.004438
v 0.024759 0.013571 0.011517
v 0.021779 0.015399 0.020740
v 0.016865 0.014760 0.028853
v 0.017006 0.022466 0.032843
v 0.020925 0.026199 -0.042834
v 0.020841 0.024357 -0.037555
v 0.024573 0.024922 -0.026468
v 0.023703 0.025073 -0.008901
v 0.024602 0.026065 0.000667
v 0.024100 0.028047 0.009189
v 0.023378 0.024991 0.021571
v 0.018444 0.024355 0.029661
v 0.017558 0.023537 0.034658
v 0.025653 0.002158 -0.014395
v 0.025840 0.002395 0.000037
v 0.025523 0.000087 0.003973
v 0.025791 0.011373 -0.020562
v 0.025942 0.006182 -0.009204
v 0.025833 0.011740 -0.003149
v 0.026360 0.011529 0.002837
v 0.026213 0.009884 0.015046
v 0.027198 0.021388 -0.028289
v 0.025341 0.019174 -0.019895
v 0.026292 0.019847 -0.011408
v 0.026136 0.015818 -0.006837
v 0.026533 0.015945 0.002965
v 0.026353 0.020942 0.013173
v 0.025328 0.027240 -0.031522
v 0.025403 0.023605 -0.021272
v 0.026762 0.025272 -0.015978
v 0.027887 0.025475 -0.005905
v 0.028082 0.025548 0.003815
v 0.026523 0.025379 0.012946
v 0.025567 0.030745 0.023152
v 0.027794 0.034710 -0.032718
v 0.027726 0.034796 -0.025033
v 0.029016 0.034991 -0.014865
v 0.029692 0.035104 -0.004957
v 0.029580 0.035112 0.004647
v 0.027930 0.034917 0.013734
v 0.026045 0.032912 0.024978
v 0.035231 0.044712 -0.016127
v 0.034839 0.043375 -0.007229
f 191 190 3
f 10 191 3
f 10 191 189
f 1 190 3
f 1 23 190
f 143 23 47
f 13 189 50
f 13 10 189
f 93 189 50
f 35 23 47
f 35 26 23
f 5 1 23
f 5 26 23
f 27 70 26
f 183 23 190
f 12 8 31
f 83 82 103
f 2 1 3
f 44 35 26
f 44 70 26
f 123 162 124
f 6 5 1
f 6 5 26
f 6 27 26
f 118 143 47
f 118 113 47
f 118 113 143
f 104 143 127
f 104 113 143
f 153 143 23
f 153 183 23
f 22 13 10
f 22 12 10
f 22 12 31
f 4 8 3
f 4 12 8
f 4 10 3
f 4 12 10
f 161 93 189
f 161 142 189
f 161 142 93
f 169 142 189
f 169 191 189
f 28 27 53
f 170 183 190
f 170 162 190
f 170 153 183
f 170 153 143
f 170 143 127
f 170 162 127
f 7 8 3
f 7 2 3
f 48 35 47
f 48 44 35
f 48 44 70
f 100 123 124
f 128 162 127
f 128 123 127
f 128 123 162
f 102 82 103
f 125 100 124
f 125 100 101
f 105 104 127
f 105 104 113
f 37 13 50
f 37 22 13
f 92 93 50
f 92 69 50
f 92 69 93
f 91 142 93
f 91 69 93
f 14 8 31
f 14 28 31
f 14 28 27
f 14 7 8
f 14 6 27
f 14 6 1
f 14 2 1
f 14 7 2
f 46 37 22
f 71 94 72
f 71 94 70
f 71 72 53
f 71 27 53
f 71 27 70
f 99 100 123
f 99 94 123
f 99 94 100
f 98 123 127
f 98 94 123
f 98 105 127
f 98 94 70
f 96 100 101
f 96 72 53
f 96 54 53
f 126 125 101
f 126 96 101
f 126 96 102
f 126 102 103
f 164 169 191
f 164 126 169
f 164 126 125
f 164 191 190
f 164 125 124
f 164 162 190
f 164 162 124
f 64 113 47
f 64 48 47
f 63 46 37
f 63 69 50
f 63 37 50
f 97 98 70
f 97 98 105
f 97 64 70
f 97 64 105
f 95 96 72
f 95 96 100
f 95 94 72
f 95 94 100
f 73 102 82
f 73 96 102
f 73 74 82
f 73 96 54
f 73 74 54
f 111 126 103
f 111 126 142
f 133 169 142
f 133 126 142
f 57 48 70
f 57 64 70
f 57 64 48
f 84 105 113
f 84 64 113
f 84 64 105
f 62 63 83
f 62 91 69
f 62 63 69
f 61 83 82
f 61 63 83
f 61 63 46
f 43 74 54
f 43 28 31
f 43 22 31
f 43 46 22
f 43 54 53
f 43 28 53
f 132 126 169
f 132 133 169
f 132 133 126
f 112 62 83
f 112 62 91
f 112 91 142
f 112 111 142
f 112 83 103
f 112 111 103
f 56 61 46
f 56 43 46
f 56 43 61
f 75 43 74
f 75 43 61
f 75 74 82
f 75 61 82
