v -0.081050 -0.075887 -0.055708
v -0.079800 -0.075986 -0.052880
v -0.079495 -0.075442 -0.035685
v -0.079900 -0.075418 -0.030087
v -0.078764 -0.075495 -0.023694
v -0.080019 -0.076175 -0.009769
v -0.079512 -0.075907 0.005774
v -0.079919 -0.075749 0.009959
v -0.078959 -0.075568 0.021526
v -0.078964 -0.076061 0.028674
v -0.078808 -0.075390 0.045474
v -0.081796 -0.077076 0.049588
v -0.079228 -0.070642 -0.054835
v -0.078747 -0.070762 -0.050016
v -0.078753 -0.069812 -0.040949
v -0.078759 -0.068867 -0.031938
v -0.078771 -0.066995 -0.014080
v -0.078777 -0.066067 -0.005233
v -0.078781 -0.072641 0.002879
v -0.078787 -0.071701 0.011629
v -0.078792 -0.070767 0.020327
v -0.078798 -0.069838 0.028973
v -0.078804 -0.068915 0.037566
v -0.079800 -0.066148 0.049344
v -0.079228 -0.056441 -0.054835
v -0.078749 -0.063137 -0.049273
v -0.078755 -0.062211 -0.040217
v -0.078760 -0.061290 -0.031216
v -0.078932 -0.059532 -0.021319
v -0.078943 -0.060614 -0.006635
v -0.078782 -0.065145 0.003561
v -0.078788 -0.064229 0.012302
v -0.078794 -0.063318 0.020989
v -0.078792 -0.062416 0.029620
v -0.078805 -0.061513 0.038209
v -0.078811 -0.060618 0.046742
v -0.079228 -0.049341 -0.054835
v -0.078913 -0.050771 -0.050714
v -0.078919 -0.045389 -0.035305
v -0.078924 -0.045971 -0.027880
v -0.078930 -0.046549 -0.020493
v -0.078940 -0.047697 -0.005836
v -0.078946 -0.048266 0.001436
v -0.078956 -0.049396 0.015865
v -0.078961 -0.049956 0.023024
v -0.078974 -0.050514 0.030149
v -0.078977 -0.051620 0.044279
v -0.080322 -0.047132 0.049416
v -0.079228 -0.042241 -0.054835
v -0.078910 -0.037674 -0.049833
v -0.078921 -0.038880 -0.034878
v -0.078927 -0.039478 -0.027459
v -0.078932 -0.040073 -0.020079
v -0.078943 -0.041253 -0.005435
v -0.078950 -0.035422 0.002222
v -0.078956 -0.036021 0.009443
v -0.078966 -0.037210 0.023771
v -0.078971 -0.037799 0.030880
v -0.078753 -0.038577 0.043208
v -0.078896 -0.040300 0.049244
v -0.079228 -0.028040 -0.054835
v -0.078913 -0.031142 -0.049392
v -0.078924 -0.032381 -0.034450
v -0.078931 -0.026523 -0.026619
v -0.078937 -0.027151 -0.019253
v -0.078947 -0.028397 -0.004636
v -0.078953 -0.029016 0.002615
v -0.078958 -0.029631 0.009828
v -0.078968 -0.030851 0.024144
v -0.078974 -0.031457 0.031246
v -0.078755 -0.031939 0.043537
v -0.079810 -0.033070 0.049244
v -0.078912 -0.017449 -0.056028
v -0.078918 -0.018107 -0.048512
v -0.078923 -0.018762 -0.041035
v -0.078934 -0.020061 -0.026200
v -0.078939 -0.020706 -0.018841
v -0.078950 -0.021985 -0.004238
v -0.078958 -0.016232 0.003398
v -0.078963 -0.016879 0.010598
v -0.078973 -0.018164 0.024888
v -0.078751 -0.020051 0.032195
v -0.078758 -0.018724 0.044192
v -0.081637 -0.018609 0.049244
v -0.078915 -0.010931 -0.055581
v -0.078920 -0.011606 -0.048072
v -0.078928 -0.005803 -0.040172
v -0.078931 -0.007167 -0.025368
v -0.078937 -0.007844 -0.018023
v -0.078942 -0.008518 -0.010715
v -0.078953 -0.009854 0.003785
v -0.078958 -0.010518 0.010979
v -0.078748 -0.008116 0.020808
v -0.078761 -0.006843 0.032888
v -0.078761 -0.005590 0.044842
v -0.078966 -0.010089 0.049561
v -0.078920 0.002075 -0.054691
v -0.078925 0.001366 -0.047196
v -0.078930 0.000662 -0.039741
v -0.078941 -0.000736 -0.024947
v -0.078939 -0.001429 -0.017613
v -0.078947 0.004271 -0.009909
v -0.078736 0.003255 0.003246
v -0.078742 0.004472 0.015469
v -0.078750 -0.001508 0.021172
v -0.078763 -0.000272 0.033232
v -0.078769 0.000949 0.045168
v -0.079967 -0.002163 0.049561
v -0.078915 0.008563 -0.054250
v -0.078923 0.014299 -0.046326
v -0.078928 0.013561 -0.038885
v -0.078939 0.012098 -0.024119
v -0.078944 0.011372 -0.016794
v -0.078949 0.010650 -0.009507
v -0.078737 0.009875 0.003639
v -0.078744 0.011056 0.015841
v -0.078753 0.011645 0.021898
v -0.078766 0.012811 0.033916
v -0.078772 0.013963 0.045813
v -0.080969 0.005763 0.049561
v -0.079228 0.021662 -0.054835
v -0.078925 0.020749 -0.045890
v -0.078930 0.019995 -0.038456
v -0.078936 0.019245 -0.031061
v -0.078949 0.024133 -0.015979
v -0.078734 0.021931 -0.007863
v -0.078747 0.023056 0.004424
v -0.078750 0.023613 0.010520
v -0.078761 0.018194 0.022260
v -0.078767 0.019323 0.034257
v -0.078771 0.019882 0.040210
v -0.079162 0.018942 0.049616
v -0.079228 0.028763 -0.054835
v -0.078930 0.033619 -0.045021
v -0.078935 0.032833 -0.037601
v -0.078941 0.032051 -0.030219
v -0.078737 0.034039 -0.019411
v -0.078736 0.028525 -0.007452
v -0.078749 0.029614 0.004814
v -0.078752 0.030154 0.010899
v -0.078764 0.031226 0.022979
v -0.078777 0.032288 0.034937
v -0.078780 0.032814 0.040870
v -0.081178 0.026793 0.049616
v -0.079228 0.042963 -0.054835
v -0.078932 0.040039 -0.044587
v -0.078938 0.039237 -0.037174
v -0.078736 0.040110 -0.025202
v -0.078739 0.040627 -0.018981
v -0.078745 0.041654 -0.006633
v -0.078752 0.042670 0.005590
v -0.078755 0.043175 0.011655
v -0.078768 0.044178 0.023694
v -0.078778 0.038740 0.035275
v -0.078782 0.039249 0.041198
v -0.078785 0.039755 0.047092
v -0.079228 0.050064 -0.054835
v -0.078935 0.046449 -0.044154
v -0.078935 0.052015 -0.036326
v -0.078739 0.053260 -0.024325
v -0.078742 0.053742 -0.018125
v -0.078747 0.048187 -0.006225
v -0.078750 0.048679 -0.000109
v -0.078763 0.049658 0.012032
v -0.078775 0.050627 0.024051
v -0.078782 0.051584 0.035947
v -0.078785 0.052059 0.041851
v -0.080249 0.045589 0.049284
v -0.079228 0.064264 -0.054835
v -0.078927 0.060096 -0.050725
v -0.078938 0.058389 -0.035901
v -0.078737 0.059338 -0.030110
v -0.078750 0.060272 -0.017698
v -0.078756 0.061194 -0.005413
v -0.078760 0.061651 0.000682
v -0.078772 0.062562 0.012782
v -0.078778 0.063461 0.024758
v -0.078788 0.063910 0.030703
v -0.078792 0.058438 0.042177
v -0.078931 0.064094 0.049215
v -0.079229 0.071365 -0.054835
v -0.078932 0.072877 -0.049850
v -0.078737 0.071966 -0.035451
v -0.078741 0.072400 -0.029219
v -0.078753 0.073265 -0.016850
v -0.078760 0.074118 -0.004608
v -0.078763 0.074541 0.001467
v -0.078774 0.068983 0.013154
v -0.078780 0.069848 0.025111
v -0.078789 0.070280 0.031046
v -0.078795 0.071133 0.042824
v -0.079836 0.071258 0.049215
v -0.078827 0.077256 -0.055177
v -0.079763 0.077262 -0.048916
v -0.080696 0.077268 -0.042675
v -0.078742 0.078901 -0.028776
v -0.078755 0.079731 -0.016428
v -0.081490 0.076451 -0.005678
v -0.080060 0.076293 -0.001405
v -0.079918 0.076854 0.015021
v -0.081543 0.076861 0.022645
v -0.078840 0.077291 0.035730
v -0.079923 0.076740 0.045846
v -0.080163 0.077303 0.047785
v -0.076358 -0.079016 -0.055487
v -0.076338 -0.078035 -0.053648
v -0.076535 -0.076069 -0.034791
v -0.076535 -0.078992 -0.027169
v -0.076738 -0.079064 -0.017214
v -0.076776 -0.078316 -0.010545
v -0.076449 -0.078512 0.002098
v -0.076750 -0.075590 0.009167
v -0.076612 -0.076187 0.025730
v -0.076617 -0.079047 0.033197
v -0.076842 -0.076550 0.041512
v -0.074329 -0.076453 0.049244
v -0.076833 -0.068876 -0.054376
v -0.076530 -0.070226 -0.050059
v -0.076535 -0.073143 -0.042419
v -0.076778 -0.070013 -0.024743
v -0.076777 -0.074162 -0.017648
v -0.076440 -0.074201 -0.013519
v -0.076607 -0.067570 0.003301
v -0.076612 -0.070437 0.010786
v -0.076612 -0.073313 0.018261
v -0.076843 -0.072465 0.034499
v -0.076835 -0.075175 0.043081
v -0.075243 -0.069222 0.049244
v -0.077028 -0.061447 -0.054089
v -0.076785 -0.057580 -0.045979
v -0.076784 -0.061716 -0.038906
v -0.076601 -0.056045 -0.026687
v -0.076602 -0.058932 -0.019182
v -0.076607 -0.064689 -0.004186
v -0.076195 -0.058312 0.004217
v -0.076850 -0.060226 0.013509
v -0.076849 -0.064298 0.020499
v -0.076676 -0.056511 0.032801
v -0.076676 -0.059348 0.040152
v -0.076156 -0.061992 0.049244
v -0.076429 -0.053821 -0.054253
v -0.076790 -0.053436 -0.053039
v -0.076601 -0.053156 -0.034198
v -0.075797 -0.046686 -0.031203
v -0.076485 -0.053801 -0.022791
v -0.076854 -0.048036 -0.007421
v -0.076853 -0.052095 -0.000451
v -0.076666 -0.048009 0.010707
v -0.076671 -0.053683 0.025441
v -0.076560 -0.050930 0.029135
v -0.076921 -0.046783 0.043563
v -0.077069 -0.054761 0.049244
v -0.076739 -0.041553 -0.055975
v -0.076813 -0.038326 -0.051794
v -0.076841 -0.035405 -0.036341
v -0.076861 -0.035873 -0.028280
v -0.076855 -0.043982 -0.014383
v -0.076661 -0.039476 -0.011436
v -0.076666 -0.045163 0.003333
v -0.075863 -0.041092 0.008112
v -0.075883 -0.039273 0.020977
v -0.076923 -0.038810 0.029819
v -0.076922 -0.042794 0.036687
v -0.074961 -0.041793 0.049561
v -0.076513 -0.027326 -0.055005
v -0.076520 -0.029487 -0.047280
v -0.076862 -0.031831 -0.035221
v -0.076661 -0.033769 -0.026223
v -0.076869 -0.032526 -0.021103
v -0.076895 -0.029696 -0.006079
v -0.076909 -0.028291 0.001356
v -0.076927 -0.026880 0.009255
v -0.076924 -0.034829 0.022957
v -0.076733 -0.034612 0.032417
v -0.076588 -0.026774 0.041842
v -0.075962 -0.033867 0.049561
v -0.076869 -0.019718 -0.055994
v -0.076868 -0.023748 -0.049075
v -0.076177 -0.023151 -0.037462
v -0.076576 -0.018512 -0.025586
v -0.076578 -0.020660 -0.018005
v -0.076929 -0.018947 -0.004419
v -0.076928 -0.022911 0.002415
v -0.076264 -0.016794 0.014752
v -0.076948 -0.024142 0.023354
v -0.076960 -0.022785 0.030585
v -0.076994 -0.018179 0.045531
v -0.077965 -0.018015 0.049561
v -0.076257 -0.007326 -0.054226
v -0.076560 -0.012064 -0.048422
v -0.076714 -0.006483 -0.040378
v -0.076939 -0.007056 -0.024869
v -0.076934 -0.011020 -0.018061
v -0.076930 -0.014987 -0.011245
v -0.076638 -0.009951 0.002991
v -0.076639 -0.012076 0.010436
v -0.076997 -0.006499 0.025320
v -0.076999 -0.010378 0.032054
v -0.076998 -0.014271 0.038791
v -0.068976 -0.014707 0.049215
v -0.076714 -0.000823 -0.055001
v -0.076714 -0.003654 -0.047686
v -0.076941 0.000836 -0.038474
v -0.076940 -0.003108 -0.031675
v -0.076310 -0.002730 -0.021856
v -0.076780 0.003346 -0.010957
v -0.076780 -0.002225 0.003396
v -0.076999 0.001269 0.011880
v -0.076998 -0.002613 0.018597
v -0.076697 -0.001632 0.030760
v -0.076848 0.001906 0.045774
v -0.070786 -0.000380 0.049215
v -0.075854 0.011038 -0.055105
v -0.076942 0.004777 -0.045266
v -0.076770 0.014494 -0.039735
v -0.076771 0.008906 -0.025339
v -0.076775 0.006125 -0.018145
v -0.077005 0.012901 -0.008225
v -0.077000 0.005147 0.005170
v -0.076682 0.004679 0.008726
v -0.076839 0.010117 0.024622
v -0.076843 0.007381 0.031679
v -0.076413 0.006140 0.040610
v -0.071691 0.006784 0.049215
v -0.076770 0.020091 -0.054153
v -0.076770 0.017292 -0.046941
v -0.075953 0.014868 -0.037240
v -0.077012 0.024499 -0.028271
v -0.077010 0.016778 -0.014911
v -0.076834 0.023867 -0.010729
v -0.076834 0.018357 0.003426
v -0.076834 0.015605 0.010495
v -0.076056 0.022519 0.025808
v -0.076734 0.014787 0.028858
v -0.076901 0.022108 0.045229
v -0.073501 0.021112 0.049215
v -0.076641 0.029407 -0.054072
v -0.076633 0.033781 -0.049457
v -0.077013 0.028354 -0.034941
v -0.076830 0.029376 -0.024909
v -0.076830 0.026616 -0.017819
v -0.076711 0.025295 -0.007557
v -0.076178 0.024985 0.000332
v -0.076207 0.028992 0.014963
v -0.076892 0.030231 0.024364
v -0.076235 0.032949 0.029412
v -0.076901 0.024820 0.038282
v -0.074406 0.028275 0.049215
v -0.077019 0.039905 -0.054906
v -0.077018 0.036062 -0.048256
v -0.076829 0.034903 -0.039106
v -0.076367 0.043366 -0.026040
v -0.076756 0.043471 -0.016292
v -0.076883 0.043822 -0.010512
v -0.076887 0.038381 0.003455
v -0.076888 0.035659 0.010428
v -0.077079 0.044297 0.017304
v -0.076827 0.044580 0.032283
v -0.076263 0.036868 0.043690
v -0.075311 0.035439 0.049215
v -0.076455 0.046931 -0.054579
v -0.077176 0.054282 -0.052416
v -0.076436 0.051347 -0.036174
v -0.076883 0.049280 -0.024495
v -0.076883 0.046550 -0.017501
v -0.076401 0.045356 -0.005878
v -0.076800 0.052893 0.003802
v -0.076807 0.050810 0.010941
v -0.076944 0.049806 0.024112
v -0.076948 0.047129 0.030981
v -0.076475 0.050174 0.043254
v -0.077121 0.049767 0.049215
v -0.077083 0.063517 -0.055597
v -0.077194 0.057280 -0.044638
v -0.077211 0.060241 -0.036938
v -0.077228 0.063173 -0.029313
v -0.076791 0.059184 -0.017685
v -0.076939 0.063260 -0.010292
v -0.076943 0.057878 0.003487
v -0.076943 0.055186 0.010367
v -0.076535 0.058747 0.024869
v -0.076551 0.059949 0.034774
v -0.077002 0.060914 0.044184
v -0.078026 0.056930 0.049215
v -0.076084 0.071351 -0.055442
v -0.076780 0.067627 -0.046513
v -0.076934 0.074057 -0.037907
v -0.076939 0.068659 -0.024088
v -0.077262 0.068952 -0.014282
v -0.077278 0.071809 -0.006873
v -0.077295 0.074630 0.000464
v -0.076994 0.074187 0.010304
v -0.076994 0.068865 0.023867
v -0.076998 0.066216 0.030646
v -0.076912 0.071072 0.042498
v -0.078173 0.071681 0.049527
v -0.071284 0.076857 -0.054688
v -0.070000 0.077209 -0.044821
v -0.069211 0.077453 -0.034403
v -0.070033 0.076824 -0.031132
v -0.073348 0.076833 -0.015665
v -0.074992 0.076840 -0.007957
v -0.076638 0.076845 -0.000277
v -0.078280 0.076849 0.007383
v -0.076670 0.076716 0.021786
v -0.077759 0.076724 0.029836
v -0.077015 0.077392 0.045684
v -0.072213 0.076671 0.047583
v -0.058913 -0.080814 -0.054980
v -0.058919 -0.079903 -0.047460
v -0.058920 -0.078989 -0.039983
v -0.059401 -0.082511 -0.027316
v -0.059409 -0.081617 -0.020078
v -0.058943 -0.075420 -0.010520
v -0.065316 -0.076069 0.003381
v -0.062094 -0.076073 0.015714
v -0.060492 -0.076077 0.021862
v -0.067894 -0.076127 0.030999
v -0.063995 -0.076245 0.036279
v -0.060831 -0.079181 0.049215
v -0.059397 -0.074329 -0.054675
v -0.059405 -0.073454 -0.047319
v -0.059406 -0.072577 -0.040004
v -0.059410 -0.070837 -0.025501
v -0.059417 -0.069982 -0.018314
v -0.059419 -0.069125 -0.011166
v -0.063057 -0.066755 0.002151
v -0.063049 -0.065582 0.010937
v -0.063084 -0.073895 0.023714
v -0.061736 -0.072017 0.049215
v -0.063156 -0.056768 -0.054108
v -0.059413 -0.061813 -0.045372
v -0.059415 -0.060974 -0.038109
v -0.059416 -0.060141 -0.030888
v -0.059425 -0.058496 -0.016573
v -0.059427 -0.057676 -0.009475
v -0.063158 -0.055375 0.004156
v -0.063045 -0.064997 0.015306
v -0.063040 -0.064418 0.019661
v -0.062641 -0.064853 0.049215
v -0.063247 -0.051600 -0.055439
v -0.059414 -0.051117 -0.050699
v -0.059423 -0.049519 -0.036238
v -0.059889 -0.049478 -0.029865
v -0.059893 -0.047922 -0.015913
v -0.059895 -0.047150 -0.008994
v -0.063100 -0.049207 0.005548
v -0.063091 -0.048075 0.014483
v -0.063145 -0.053693 0.017633
v -0.064451 -0.050526 0.049215
v -0.059420 -0.040503 -0.055991
v -0.059893 -0.041986 -0.049607
v -0.059891 -0.040460 -0.035492
v -0.059894 -0.039706 -0.028495
v -0.059898 -0.038212 -0.014616
v -0.059900 -0.037470 -0.007734
v -0.063017 -0.043612 0.005566
v -0.063009 -0.042324 0.014444
v -0.065356 -0.043362 0.049215
v -0.059890 -0.032944 -0.055213
v -0.059892 -0.032208 -0.048135
v -0.059896 -0.030750 -0.034097
v -0.059899 -0.030027 -0.027137
v -0.059901 -0.029308 -0.020215
v -0.059905 -0.027882 -0.006487
v -0.058988 -0.035107 -0.003994
v -0.063144 -0.031000 0.009072
v -0.067166 -0.029035 0.049215
v -0.059208 -0.016076 -0.055342
v -0.060363 -0.020251 -0.046390
v -0.060366 -0.019568 -0.039537
v -0.060371 -0.018215 -0.025940
v -0.060373 -0.017543 -0.019197
v -0.060371 -0.016206 -0.005818
v -0.059001 -0.022102 -0.001889
v -0.063244 -0.021322 0.007888
v -0.068071 -0.021871 0.049215
v -0.059757 -0.006674 -0.054851
v -0.060364 -0.011774 -0.045320
v -0.060367 -0.011117 -0.038494
v -0.060371 -0.009814 -0.024951
v -0.060374 -0.009168 -0.018234
v -0.060372 -0.007880 -0.004907
v -0.059911 -0.008320 0.002714
v -0.059019 -0.008647 0.007120
v -0.067229 -0.014882 0.049535
v -0.059450 0.003136 -0.055313
v -0.060816 0.001332 -0.050133
v -0.060814 0.002552 -0.036802
v -0.060810 0.003160 -0.030189
v -0.060808 0.004361 -0.017068
v -0.060377 -0.000232 -0.010623
v -0.060373 0.000388 -0.004001
v -0.059036 0.003898 0.009096
v -0.067443 -0.004286 0.049284
v -0.060368 0.012119 -0.055760
v -0.060820 0.008871 -0.049374
v -0.060818 0.010048 -0.036080
v -0.060814 0.010634 -0.029484
v -0.060813 0.011793 -0.016399
v -0.060813 0.005545 -0.004085
v -0.060811 0.012940 -0.003450
v -0.059469 0.008694 0.007012
v -0.059244 0.010416 0.049182
v -0.061251 0.023392 -0.054140
v -0.061253 0.023932 -0.047610
v -0.061249 0.024473 -0.041112
v -0.060812 0.018076 -0.028782
v -0.060810 0.019194 -0.015733
v -0.060813 0.019746 -0.009260
v -0.060817 0.020842 0.003586
v -0.059924 0.019301 0.006217
v -0.060141 0.017514 0.049182
v -0.060833 0.034521 -0.054692
v -0.061252 0.030776 -0.047133
v -0.061251 0.025008 -0.034650
v -0.061246 0.025543 -0.028219
v -0.061244 0.026602 -0.015457
v -0.061246 0.027126 -0.009126
v -0.061241 0.027651 -0.002825
v -0.060387 0.033926 0.012492
v -0.061935 0.031711 0.049182
v -0.061338 0.038568 -0.055279
v -0.061649 0.040724 -0.046232
v -0.061644 0.041211 -0.039887
v -0.061640 0.042178 -0.027293
v -0.061637 0.043134 -0.014826
v -0.061632 0.043610 -0.008638
v -0.061627 0.044083 -0.002480
v -0.060813 0.043130 0.011734
v -0.059497 0.040207 0.018075
v -0.062831 0.038809 0.049182
v -0.061834 0.047322 -0.054901
v -0.061828 0.047886 -0.045769
v -0.061643 0.047560 -0.039664
v -0.061640 0.048494 -0.027081
v -0.061636 0.049418 -0.014624
v -0.061631 0.049878 -0.008441
v -0.061628 0.050789 0.003831
v -0.061234 0.048669 0.010810
v -0.059934 0.046657 0.016126
v -0.063728 0.045908 0.049182
v -0.061834 0.054937 -0.054168
v -0.061827 0.055478 -0.045046
v -0.061828 0.056012 -0.035986
v -0.061822 0.056546 -0.026974
v -0.061822 0.064583 -0.017331
v -0.061631 0.056137 -0.008244
v -0.061627 0.057016 0.004018
v -0.061623 0.057453 0.010104
v -0.061624 0.064073 0.016336
v -0.065522 0.060105 0.049182
v -0.060834 0.068812 -0.054654
v -0.061832 0.070126 -0.052706
v -0.061827 0.071108 -0.034566
v -0.061820 0.071596 -0.025574
v -0.061822 0.072078 -0.016642
v -0.061816 0.065088 -0.008437
v -0.061809 0.073039 0.001075
v -0.061810 0.073513 0.009849
v -0.061804 0.073987 0.018577
v -0.060815 0.072442 0.026476
v -0.066411 0.067205 0.049187
v -0.065032 0.076808 -0.054500
v -0.066706 0.076813 -0.046691
v -0.068368 0.076820 -0.038898
v -0.065946 0.077330 -0.026036
v -0.066883 0.077336 -0.019954
v -0.061630 0.074857 -0.007657
v -0.061627 0.075642 0.004576
v -0.061622 0.076032 0.010647
v -0.061618 0.076805 0.022700
v -0.061660 0.077558 0.034625
v -0.064363 0.077564 0.045892
v -0.060944 0.076269 0.049216
v -0.058451 -0.076138 -0.052061
v -0.057302 -0.076085 0.034123
v -0.054248 -0.076225 0.039199
v -0.049149 -0.075538 0.049284
v -0.058030 -0.072958 -0.055697
v -0.058460 -0.075241 -0.044461
v -0.058468 -0.074350 -0.036907
v -0.058472 -0.073456 -0.029395
v -0.058488 -0.071700 -0.014510
v -0.058491 -0.070822 -0.007132
v -0.058088 -0.066874 -0.002773
v -0.049380 -0.067666 0.049182
v -0.058475 -0.059172 -0.048643
v -0.058483 -0.058336 -0.041138
v -0.058495 -0.056669 -0.026257
v -0.058502 -0.055848 -0.018884
v -0.057709 -0.064203 -0.004918
v -0.057395 -0.060745 0.001332
v -0.050277 -0.060568 0.049182
v -0.058069 -0.051258 -0.051012
v -0.058085 -0.049648 -0.035920
v -0.058093 -0.048851 -0.028441
v -0.058101 -0.048058 -0.021006
v -0.058514 -0.054211 -0.004264
v -0.058124 -0.045707 0.001037
v -0.051174 -0.053469 0.049182
v -0.058123 -0.039978 -0.054712
v -0.058502 -0.042587 -0.045303
v -0.058510 -0.041809 -0.037890
v -0.058518 -0.041035 -0.030519
v -0.058529 -0.039492 -0.015905
v -0.058537 -0.038732 -0.008663
v -0.058540 -0.037967 -0.001460
v -0.052967 -0.039273 0.049182
v -0.058525 -0.027097 -0.049404
v -0.058532 -0.025630 -0.034709
v -0.058132 -0.028021 -0.024269
v -0.058140 -0.027301 -0.016955
v -0.058148 -0.026584 -0.009683
v -0.058155 -0.025872 -0.002454
v -0.053864 -0.032174 0.049182
v -0.058149 -0.021930 -0.054763
v -0.058677 -0.016769 -0.050070
v -0.057263 -0.022866 -0.042332
v -0.058540 -0.024912 -0.027428
v -0.058543 -0.024189 -0.020186
v -0.058558 -0.022772 -0.005832
v -0.058562 -0.022062 0.001286
v -0.054761 -0.025076 0.049182
v -0.058547 -0.011158 -0.046116
v -0.058555 -0.010485 -0.038838
v -0.058566 -0.009141 -0.024404
v -0.058569 -0.008471 -0.017248
v -0.058576 -0.007813 -0.010135
v -0.058587 -0.006500 0.003972
v -0.057512 -0.013562 0.010296
v -0.056554 -0.010879 0.049182
v -0.058174 -0.004213 -0.054812
v -0.058693 -0.002427 -0.052486
v -0.058695 -0.001658 -0.042397
v -0.058702 -0.000903 -0.032382
v -0.058198 -0.005199 0.008327
v -0.057451 -0.003781 0.049182
v -0.058704 0.011747 -0.054865
v -0.058711 0.012456 -0.044838
v -0.058713 0.013168 -0.034869
v -0.058720 0.013867 -0.024973
v -0.058590 0.006924 -0.014371
v -0.058597 0.007532 -0.007340
v -0.058604 0.008136 -0.000349
v -0.058615 0.009343 0.013517
v -0.049150 0.014529 0.049483
v -0.058533 0.021453 -0.054399
v -0.058586 0.019128 -0.046897
v -0.058542 0.022186 -0.042462
v -0.058550 0.022913 -0.030610
v -0.058233 0.015954 -0.014803
v -0.058622 0.022549 -0.004605
v -0.058629 0.023106 0.002306
v -0.058632 0.023667 0.009180
v -0.058639 0.024217 0.016015
v -0.050130 0.022288 0.049483
v -0.058218 0.030269 -0.054901
v -0.058722 0.026405 -0.047241
v -0.058729 0.027059 -0.037332
v -0.058731 0.027717 -0.027482
v -0.058252 0.032795 -0.015201
v -0.058261 0.033414 -0.005439
v -0.058253 0.032020 0.001457
v -0.058267 0.033057 0.015212
v -0.057621 0.030412 0.018650
v -0.048793 0.028053 0.049155
v -0.058546 0.036552 -0.054953
v -0.058732 0.040185 -0.049616
v -0.058554 0.037227 -0.043094
v -0.058563 0.037896 -0.031318
v -0.058571 0.038561 -0.019625
v -0.058643 0.036738 -0.008799
v -0.058649 0.037776 0.004908
v -0.058652 0.038291 0.011705
v -0.058659 0.038796 0.018463
v -0.049682 0.035087 0.049155
v -0.058558 0.051453 -0.055500
v -0.058251 0.047617 -0.045015
v -0.058567 0.052070 -0.043717
v -0.058575 0.052682 -0.032016
v -0.058583 0.053291 -0.020397
v -0.058591 0.053895 -0.008860
v -0.058599 0.054495 0.002597
v -0.058675 0.052612 0.014177
v -0.058682 0.053073 0.020860
v -0.051451 0.049158 0.049160
v -0.058260 0.063527 -0.054986
v -0.058270 0.064043 -0.045142
v -0.058279 0.064556 -0.035361
v -0.058658 0.063636 -0.030686
v -0.058668 0.064511 -0.016991
v -0.057848 0.057820 -0.008055
v -0.057858 0.058340 0.001587
v -0.057867 0.058858 0.011167
v -0.052340 0.056192 0.049160
v -0.057429 0.066791 -0.054926
v -0.058585 0.066710 -0.044341
v -0.058274 0.065504 -0.039488
v -0.058593 0.067268 -0.032715
v -0.058601 0.067821 -0.021169
v -0.058609 0.068371 -0.009703
v -0.058617 0.068917 0.001683
v -0.058625 0.069459 0.012991
v -0.058330 0.067575 0.022029
v -0.058011 0.071061 0.027250
v -0.054117 0.070260 0.049160
v -0.058658 0.076084 -0.055316
v -0.058665 0.076485 -0.048378
v -0.058674 0.077288 -0.034614
v -0.058681 0.077683 -0.027789
v -0.058037 0.077491 -0.015217
v -0.058226 0.077499 -0.005955
v -0.058415 0.077506 0.003257
v -0.058599 0.077523 0.012423
v -0.057466 0.078082 0.024303
v -0.052940 0.076952 0.033550
v -0.054561 0.076959 0.040958
v -0.056185 0.076963 0.048342
v -0.041135 -0.076125 0.030332
v -0.044374 -0.076205 0.042156
v -0.047587 -0.081863 0.049182
v -0.048484 -0.074764 0.049182
v -0.039340 -0.063059 0.049492
v -0.039018 -0.049322 0.049155
v -0.039907 -0.042288 0.049155
v -0.040795 -0.035254 0.049155
v -0.042573 -0.021186 0.049155
v -0.043461 -0.014152 0.049155
v -0.045239 -0.000083 0.049155
v -0.046127 0.006951 0.049155
v -0.047904 0.021019 0.049155
v -0.039813 0.025075 0.049458
v -0.041759 0.040485 0.049458
v -0.039410 0.052344 0.049128
v -0.040290 0.059315 0.049128
v -0.041171 0.066286 0.049128
v -0.042700 0.077470 0.034446
v -0.041272 0.077625 0.044681
v -0.038889 0.076849 0.046536
v -0.033147 -0.076063 0.032790
v -0.034369 -0.076184 0.045154
v -0.035464 -0.077459 0.049155
v -0.036352 -0.070425 0.049155
v -0.037241 -0.063390 0.049155
v -0.030071 -0.051972 0.049466
v -0.031044 -0.044267 0.049466
v -0.028842 -0.031308 0.049128
v -0.029723 -0.024337 0.049128
v -0.031484 -0.010395 0.049128
v -0.032365 -0.003424 0.049128
v -0.034126 0.010518 0.049128
v -0.035006 0.017489 0.049128
v -0.036768 0.031431 0.049128
v -0.037648 0.038402 0.049128
v -0.038529 0.045373 0.049128
v -0.033505 0.058430 0.049433
v -0.029321 0.069295 0.049101
v -0.038571 0.077620 0.033631
v -0.037764 0.076841 0.038773
v -0.030193 0.076204 0.049101
v -0.023536 -0.076008 0.029922
v -0.027631 -0.076063 0.044620
v -0.022678 -0.080105 0.049128
v -0.023558 -0.073134 0.049128
v -0.025319 -0.059192 0.049128
v -0.026200 -0.052221 0.049128
v -0.027081 -0.045250 0.049128
v -0.021897 -0.033388 0.049441
v -0.023838 -0.018088 0.049433
v -0.018854 -0.013616 0.049096
v -0.020600 0.000202 0.049096
v -0.021472 0.007111 0.049096
v -0.023211 0.020932 0.049101
v -0.024084 0.027841 0.049101
v -0.024957 0.034750 0.049101
v -0.026702 0.048568 0.049101
v -0.027575 0.055477 0.049101
v -0.024403 0.068529 0.049409
v -0.022403 0.077029 0.029453
v -0.025667 0.077037 0.043946
v -0.025363 0.076128 0.049409
v -0.011659 -0.075964 0.033775
v -0.010056 -0.075968 0.040116
v -0.010126 -0.082707 0.049096
v -0.011871 -0.068888 0.049096
v -0.012744 -0.061979 0.049096
v -0.013617 -0.055070 0.049096
v -0.015363 -0.041252 0.049096
v -0.016235 -0.034343 0.049096
v -0.017981 -0.020525 0.049096
v -0.013843 -0.015062 0.049409
v -0.009035 0.003767 0.049070
v -0.009893 0.010617 0.049076
v -0.010758 0.017465 0.049076
v -0.012488 0.031162 0.049076
v -0.013353 0.038010 0.049076
v -0.014218 0.044858 0.049076
v -0.015948 0.058554 0.049076
v -0.016814 0.065402 0.049076
v -0.016367 0.077677 0.032672
v -0.017724 0.077678 0.038098
v -0.017200 0.076523 0.047547
v -0.006855 -0.075973 0.035945
v -0.005704 -0.075974 0.042320
v -0.006155 -0.075852 0.049417
v 0.000482 -0.071563 0.049070
v -0.000383 -0.064715 0.049070
v -0.002114 -0.051019 0.049070
v -0.002979 -0.044171 0.049070
v -0.004709 -0.030474 0.049070
v -0.005574 -0.023626 0.049070
v -0.007304 -0.009930 0.049070
v -0.008169 -0.003082 0.049070
v -0.004439 0.007938 0.049128
v 0.000613 0.020845 0.049045
v -0.000244 0.027634 0.049045
v -0.001960 0.041210 0.049045
v -0.002817 0.047999 0.049045
v -0.003675 0.054787 0.049045
v -0.005390 0.068364 0.049045
v -0.003608 0.077479 0.032200
v 0.001069 0.076950 0.039651
v -0.006247 0.075152 0.049045
v 0.009081 -0.075926 0.035636
v 0.010215 -0.075931 0.042097
v 0.001347 -0.078411 0.049070
v 0.003520 -0.072703 0.049160
v 0.010904 -0.060615 0.049045
v 0.010046 -0.053826 0.049045
v 0.008331 -0.040250 0.049045
v 0.007474 -0.033461 0.049045
v 0.005759 -0.019885 0.049045
v 0.004901 -0.013096 0.049045
v 0.003186 0.000480 0.049045
v 0.002328 0.007269 0.049045
v 0.005069 0.019698 0.049102
v 0.010944 0.030899 0.049020
v 0.010094 0.037628 0.049020
v 0.008393 0.051087 0.049020
v 0.007543 0.057817 0.049020
v 0.005843 0.071276 0.049020
v 0.005259 0.077105 0.032631
v 0.003637 0.077113 0.039738
v 0.002006 0.077117 0.046817
v 0.007759 0.084824 0.049442
v 0.013449 -0.075944 0.033975
v 0.016307 -0.075944 0.040105
v 0.013477 -0.080980 0.049045
v 0.012619 -0.074191 0.049045
v 0.013042 -0.060115 0.049133
v 0.021145 -0.049856 0.049020
v 0.020295 -0.043126 0.049020
v 0.018595 -0.029667 0.049020
v 0.017745 -0.022938 0.049020
v 0.016045 -0.009478 0.049020
v 0.015194 -0.002749 0.049020
v 0.013494 0.010710 0.049020
v 0.012644 0.017440 0.049020
v 0.014404 0.031247 0.049071
v 0.021097 0.040780 0.048995
v 0.020254 0.047451 0.048995
v 0.018569 0.060795 0.048995
v 0.017726 0.067467 0.048995
v 0.017348 0.077631 0.035420
v 0.019098 0.077003 0.043792
v 0.015073 0.075734 0.049045
v 0.025425 -0.075882 0.035323
v 0.026542 -0.075889 0.041871
v 0.024546 -0.076774 0.049020
v 0.023696 -0.070044 0.049020
v 0.022846 -0.063315 0.049020
v 0.021398 -0.054144 0.048482
v 0.031205 -0.039284 0.048990
v 0.030368 -0.032610 0.048995
v 0.028683 -0.019266 0.048995
v 0.027840 -0.012594 0.048995
v 0.026154 0.000749 0.048995
v 0.025311 0.007421 0.048995
v 0.023626 0.020764 0.048995
v 0.022783 0.027436 0.048995
v 0.025283 0.035970 0.049045
v 0.031071 0.050490 0.048966
v 0.030235 0.057105 0.048966
v 0.028564 0.070335 0.048966
v 0.025600 0.077788 0.030863
v 0.030140 0.077186 0.042630
v 0.027728 0.076950 0.048966
v 0.037577 -0.075832 0.033397
v 0.039187 -0.075836 0.039987
v 0.036262 -0.079315 0.048990
v 0.035419 -0.072643 0.048990
v 0.033733 -0.059300 0.048990
v 0.032890 -0.052628 0.048990
v 0.033293 -0.042292 0.049076
v 0.041099 -0.028890 0.048966
v 0.040263 -0.022275 0.048966
v 0.038592 -0.009045 0.048966
v 0.037756 -0.002430 0.048966
v 0.036085 0.010800 0.048966
v 0.035249 0.017415 0.048966
v 0.033578 0.030645 0.048966
v 0.032742 0.037260 0.048966
v 0.034229 0.047929 0.048422
v 0.040883 0.060039 0.048943
v 0.040054 0.066598 0.048943
v 0.031774 0.077182 0.035685
v 0.037817 0.077050 0.040476
v 0.036615 0.077054 0.047816
v 0.042194 -0.075839 0.035005
v 0.043305 -0.075844 0.041637
v 0.047784 -0.081810 0.048966
v 0.046949 -0.075195 0.048966
v 0.045277 -0.061965 0.048966
v 0.043606 -0.048735 0.048966
v 0.042770 -0.042120 0.048966
v 0.044480 -0.033216 0.048422
v 0.050826 -0.018671 0.048943
v 0.049998 -0.012112 0.048943
v 0.048340 0.001006 0.048943
v 0.047512 0.007565 0.048943
v 0.045855 0.020684 0.048943
v 0.045026 0.027243 0.048943
v 0.043369 0.040361 0.048943
v 0.042540 0.046920 0.048943
v 0.043136 0.058201 0.048996
v 0.050531 0.069427 0.048919
v 0.044106 0.077841 0.035143
v 0.041434 0.077846 0.045385
v 0.049709 0.075932 0.048919
v 0.058391 -0.076291 -0.055453
v 0.060342 -0.075429 -0.051012
v 0.059570 -0.075574 -0.043491
v 0.060088 -0.075787 -0.025593
v 0.059342 -0.075372 -0.016314
v 0.060064 -0.076116 -0.009942
v 0.058957 -0.076240 0.000694
v 0.058959 -0.075472 0.006314
v 0.061251 -0.075756 0.023084
v 0.060762 -0.075789 0.028817
v 0.060509 -0.075800 0.041399
v 0.058284 -0.077704 0.048942
v 0.059821 -0.069595 -0.055638
v 0.060800 -0.070715 -0.049279
v 0.060797 -0.071235 -0.041282
v 0.060783 -0.072267 -0.025412
v 0.060780 -0.065646 -0.017542
v 0.060777 -0.066174 -0.009713
v 0.060771 -0.067220 0.005820
v 0.060768 -0.074795 0.013526
v 0.060765 -0.075293 0.021192
v 0.059806 -0.075136 0.027207
v 0.057455 -0.071145 0.048942
v 0.060293 -0.056652 -0.054241
v 0.060800 -0.056300 -0.049279
v 0.060797 -0.056858 -0.041282
v 0.060783 -0.057966 -0.025412
v 0.060780 -0.058515 -0.017542
v 0.060285 -0.059880 -0.007546
v 0.060280 -0.060409 0.000091
v 0.059809 -0.059795 0.010854
v 0.059347 -0.064546 0.016124
v 0.056627 -0.064585 0.048943
v 0.060300 -0.049400 -0.054707
v 0.060302 -0.049965 -0.046811
v 0.060297 -0.050529 -0.038955
v 0.060291 -0.051090 -0.031142
v 0.060288 -0.052200 -0.015648
v 0.060291 -0.052749 -0.007965
v 0.059346 -0.048374 -0.001169
v 0.058529 -0.054446 0.011354
v 0.057996 -0.052957 0.016397
v 0.054969 -0.051467 0.048943
v 0.060306 -0.042137 -0.055173
v 0.060301 -0.042724 -0.047266
v 0.060295 -0.043309 -0.039402
v 0.060288 -0.036678 -0.032021
v 0.060292 -0.044465 -0.023807
v 0.059814 -0.043591 -0.013342
v 0.058918 -0.043527 0.002673
v 0.057976 -0.036002 0.007535
v 0.054141 -0.044908 0.048943
v 0.058116 -0.026661 -0.055117
v 0.059823 -0.026355 -0.045873
v 0.059827 -0.026996 -0.038123
v 0.059824 -0.027636 -0.030413
v 0.059351 -0.031832 -0.018859
v 0.059351 -0.032494 -0.011378
v 0.058260 -0.035084 0.003418
v 0.057502 -0.032703 0.008563
v 0.052484 -0.031790 0.048943
v 0.059831 -0.018213 -0.054648
v 0.059829 -0.018884 -0.046834
v 0.059826 -0.019550 -0.039064
v 0.059350 -0.015632 -0.029332
v 0.059350 -0.024111 -0.020304
v 0.058252 -0.024194 -0.004157
v 0.057951 -0.018449 -0.001638
v 0.057488 -0.025268 0.006561
v 0.051655 -0.025231 0.048943
v 0.058911 -0.013303 -0.055952
v 0.059343 -0.006311 -0.046151
v 0.059343 -0.007060 -0.038460
v 0.058908 -0.008110 -0.027768
v 0.058240 -0.013767 -0.017390
v 0.057935 -0.006633 -0.009713
v 0.057942 -0.012222 -0.003008
v 0.061213 -0.015128 0.048919
v 0.059354 0.002403 -0.055469
v 0.059348 0.001619 -0.047702
v 0.058912 0.001250 -0.037528
v 0.058494 0.003502 -0.027861
v 0.058110 -0.000603 -0.023066
v 0.057926 -0.000263 -0.011143
v 0.057241 0.000955 -0.003591
v 0.059569 -0.002119 0.048919
v 0.058900 0.011634 -0.055142
v 0.058900 0.010731 -0.047419
v 0.058905 0.009840 -0.039749
v 0.058104 0.010723 -0.027402
v 0.057913 0.005482 -0.017991
v 0.057916 0.006176 -0.012590
v 0.057926 0.010889 0.048919
v 0.057357 0.023421 -0.055696
v 0.058899 0.019428 -0.049701
v 0.058478 0.023975 -0.041716
v 0.057621 0.021631 -0.024607
v 0.057624 0.022343 -0.019267
v 0.057627 0.023053 -0.013946
v 0.057104 0.017393 0.048919
v 0.058080 0.026367 -0.055039
v 0.058897 0.028196 -0.052001
v 0.057729 0.028023 -0.039272
v 0.057609 0.028980 -0.026529
v 0.057612 0.029684 -0.021149
v 0.057384 0.029594 -0.013600
v 0.055461 0.030402 0.048919
v 0.057325 0.041470 -0.055793
v 0.058469 0.035020 -0.052692
v 0.057581 0.043296 -0.035936
v 0.057587 0.044671 -0.024992
v 0.057600 0.037126 -0.023057
v 0.056996 0.036305 -0.013115
v 0.054639 0.036906 0.048919
v 0.058465 0.045079 -0.055998
v 0.057383 0.045056 -0.046105
v 0.057324 0.053334 -0.036838
v 0.057325 0.054073 -0.031450
v 0.057349 0.046746 -0.018313
v 0.052996 0.049915 0.048919
v 0.057295 0.060108 -0.055894
v 0.057690 0.059007 -0.053152
v 0.057307 0.062324 -0.039458
v 0.057312 0.063784 -0.028597
v 0.057102 0.062763 -0.021806
v 0.052174 0.056419 0.048919
v 0.060924 0.070570 -0.051390
v 0.060920 0.071044 -0.041993
v 0.060907 0.071518 -0.032643
v 0.056920 0.065332 -0.022127
v 0.060827 0.072208 0.048892
v 0.060014 0.076878 -0.054296
v 0.060344 0.077645 -0.045579
v 0.059307 0.077647 -0.040041
v 0.060354 0.077808 -0.027195
v 0.058989 0.077812 -0.021940
v 0.061187 0.077600 -0.006627
v 0.060442 0.077559 0.005282
v 0.059727 0.077073 0.015308
v 0.060463 0.077244 0.024957
v 0.058830 0.077250 0.031794
v 0.055563 0.077257 0.045408
v 0.055150 0.076600 0.048365
v 0.067767 -0.076191 -0.054482
v 0.063445 -0.076031 -0.044687
v 0.062937 -0.076963 -0.038479
v 0.063426 -0.076206 -0.029365
v 0.063408 -0.076379 -0.014185
v 0.063397 -0.076460 -0.006646
v 0.063524 -0.075815 0.001904
v 0.063401 -0.075498 0.008057
v 0.062254 -0.076168 0.018639
v 0.063561 -0.075816 0.035249
v 0.066536 -0.075815 0.041606
v 0.069423 -0.080174 0.048914
v 0.063255 -0.074656 -0.055812
v 0.062922 -0.068307 -0.044090
v 0.063426 -0.068224 -0.035316
v 0.063416 -0.068069 -0.027670
v 0.063121 -0.065605 -0.016656
v 0.063117 -0.067287 -0.009541
v 0.063113 -0.068965 -0.002442
v 0.068602 -0.073669 0.048914
v 0.063741 -0.059981 -0.055782
v 0.062907 -0.059732 -0.049657
v 0.063135 -0.060547 -0.038098
v 0.063129 -0.062230 -0.030933
v 0.063125 -0.063919 -0.023786
v 0.063254 -0.057759 -0.009635
v 0.063247 -0.058345 -0.002321
v 0.066964 -0.060658 0.048919
v 0.062893 -0.051227 -0.055179
v 0.063296 -0.054813 -0.046643
v 0.063373 -0.052098 -0.039638
v 0.063354 -0.052380 -0.024595
v 0.063344 -0.052515 -0.017124
v 0.063336 -0.052659 -0.009689
v 0.063326 -0.052793 -0.002286
v 0.066143 -0.054153 0.048919
v 0.064017 -0.042490 -0.055648
v 0.064019 -0.036110 -0.052685
v 0.062946 -0.037059 -0.038637
v 0.062933 -0.036618 -0.031180
v 0.062913 -0.035750 -0.016386
v 0.064499 -0.041145 0.048919
v 0.063327 -0.028589 -0.049669
v 0.063306 -0.028965 -0.034758
v 0.063295 -0.029151 -0.027354
v 0.063288 -0.029347 -0.019984
v 0.063271 -0.029725 -0.005343
v 0.063153 -0.026321 0.003770
v 0.063678 -0.034641 0.048919
v 0.063261 -0.019279 -0.054963
v 0.063209 -0.021866 -0.046723
v 0.063817 -0.015750 -0.036064
v 0.063183 -0.023783 -0.024916
v 0.063176 -0.024424 -0.017704
v 0.063169 -0.025062 -0.010519
v 0.063186 -0.017770 0.004249
v 0.062034 -0.021632 0.048919
v 0.063836 -0.014217 -0.055200
v 0.063617 -0.007734 -0.044388
v 0.063612 -0.009706 -0.035687
v 0.063606 -0.011673 -0.027007
v 0.062972 -0.008070 -0.019260
v 0.062964 -0.011425 -0.005587
v 0.062960 -0.013097 0.001227
v 0.062957 -0.014766 0.008026
v 0.066501 -0.013251 0.048365
v 0.062319 -0.000145 -0.054465
v 0.062988 -0.001316 -0.046783
v 0.062984 -0.003010 -0.039880
v 0.062980 -0.004700 -0.032992
v 0.063219 0.003208 -0.014091
v 0.063206 0.003194 -0.006876
v 0.063197 0.003172 0.000302
v 0.063064 0.004227 0.009579
v 0.070605 -0.005196 0.048892
v 0.063870 0.010533 -0.054502
v 0.064154 0.009574 -0.053265
v 0.064143 0.008696 -0.042304
v 0.063101 0.007611 -0.025458
v 0.063095 0.006926 -0.018399
v 0.063079 0.005571 -0.004358
v 0.063070 0.004903 0.002625
v 0.063136 0.013691 0.009960
v 0.068976 0.007705 0.048892
v 0.063211 0.016221 -0.054372
v 0.063731 0.022871 -0.052017
v 0.063722 0.022040 -0.042652
v 0.063713 0.021212 -0.033328
v 0.063695 0.019567 -0.014801
v 0.063803 0.024175 -0.009473
v 0.063150 0.019862 0.003312
v 0.063142 0.019801 0.010365
v 0.067346 0.020606 0.048892
v 0.063662 0.026520 -0.055335
v 0.064245 0.027009 -0.048831
v 0.064231 0.026910 -0.037245
v 0.064217 0.026811 -0.025727
v 0.063764 0.034543 -0.020415
v 0.063754 0.034164 -0.010943
v 0.063742 0.033798 -0.001511
v 0.062978 0.033399 0.015127
v 0.066531 0.027056 0.048892
v 0.062837 0.036696 -0.055887
v 0.063799 0.035669 -0.049135
v 0.063036 0.039153 -0.039879
v 0.063021 0.037701 -0.025975
v 0.062831 0.043524 -0.015078
v 0.062827 0.041855 -0.008499
v 0.063182 0.038732 0.003423
v 0.062816 0.036868 0.011156
v 0.062813 0.035213 0.017680
v 0.064901 0.039957 0.048892
v 0.062852 0.053612 -0.054840
v 0.062849 0.051922 -0.048179
v 0.062841 0.048552 -0.034897
v 0.063428 0.054402 -0.024471
v 0.063423 0.052440 -0.016170
v 0.063418 0.050482 -0.007889
v 0.063165 0.047448 -0.000561
v 0.063409 0.046581 0.008613
v 0.063015 0.054627 0.017500
v 0.064087 0.046407 0.048892
v 0.063772 0.062870 -0.055740
v 0.063443 0.060318 -0.049495
v 0.063438 0.058341 -0.041133
v 0.063433 0.056369 -0.032792
v 0.063605 0.055657 -0.021639
v 0.063148 0.056098 -0.004503
v 0.062915 0.063536 0.000475
v 0.062903 0.062034 0.013802
v 0.062897 0.061287 0.020431
v 0.062457 0.059307 0.048892
v 0.064097 0.065822 -0.054969
v 0.064093 0.074090 -0.051499
v 0.064082 0.073578 -0.040449
v 0.062943 0.066556 -0.026472
v 0.062935 0.065801 -0.019698
v 0.063131 0.064673 -0.008411
v 0.064028 0.071587 0.003189
v 0.064014 0.071099 0.013955
v 0.062490 0.073831 0.021409
v 0.061642 0.065758 0.048892
v 0.066874 0.077502 -0.054048
v 0.065859 0.077797 -0.048317
v 0.063103 0.077803 -0.037734
v 0.061727 0.077805 -0.032459
v 0.070378 0.077221 -0.016397
v 0.068715 0.077224 -0.009463
v 0.065399 0.077231 0.004354
v 0.063748 0.077235 0.011237
v 0.062100 0.077239 0.018103
v 0.063260 0.077893 0.034228
v 0.061927 0.077895 0.039264
v 0.070960 0.074945 0.048869
v 0.074456 -0.075677 -0.055933
v 0.078267 -0.082277 -0.052135
v 0.078272 -0.080152 -0.034824
v 0.078278 -0.079098 -0.026248
v 0.078283 -0.078051 -0.017727
v 0.078283 -0.077014 -0.009264
v 0.078288 -0.075980 -0.000850
v 0.078296 -0.080882 0.015127
v 0.078295 -0.079847 0.023390
v 0.078295 -0.078820 0.031601
v 0.078300 -0.077795 0.039766
v 0.078305 -0.076777 0.047881
v 0.078449 -0.067618 -0.056005
v 0.078270 -0.075154 -0.051359
v 0.078275 -0.073077 -0.034070
v 0.078281 -0.072046 -0.025504
v 0.078287 -0.071023 -0.016994
v 0.078286 -0.070008 -0.008541
v 0.078292 -0.068997 -0.000137
v 0.078293 -0.073935 0.015816
v 0.078292 -0.072923 0.024069
v 0.078298 -0.071915 0.032275
v 0.078303 -0.070912 0.040430
v 0.078309 -0.069917 0.048536
v 0.078452 -0.061774 -0.055759
v 0.078271 -0.060952 -0.049818
v 0.078277 -0.059956 -0.041164
v 0.078278 -0.065011 -0.024768
v 0.078284 -0.064010 -0.016267
v 0.078283 -0.063019 -0.007825
v 0.078289 -0.062031 0.000569
v 0.078288 -0.061052 0.008905
v 0.078293 -0.059109 0.025428
v 0.078295 -0.065025 0.032943
v 0.078301 -0.064045 0.041089
v 0.077939 -0.063248 0.048892
v 0.078452 -0.050116 -0.055269
v 0.078275 -0.053870 -0.049047
v 0.078280 -0.052897 -0.040404
v 0.078280 -0.051934 -0.031821
v 0.078291 -0.050019 -0.014808
v 0.078290 -0.049073 -0.006386
v 0.078292 -0.055074 0.001279
v 0.078292 -0.054118 0.009605
v 0.078297 -0.053165 0.017885
v 0.078302 -0.051279 0.034285
v 0.078307 -0.050344 0.042412
v 0.076309 -0.050348 0.048892
v 0.078450 -0.044302 -0.055026
v 0.078269 -0.039753 -0.047520
v 0.078281 -0.038824 -0.038893
v 0.078277 -0.044915 -0.031078
v 0.078288 -0.043046 -0.014085
v 0.078287 -0.042123 -0.005674
v 0.078293 -0.041203 0.002690
v 0.078292 -0.040292 0.010996
v 0.078298 -0.039384 0.019256
v 0.078299 -0.044428 0.034950
v 0.078305 -0.043514 0.043067
v 0.075495 -0.043897 0.048892
v 0.078267 -0.033619 -0.055420
v 0.078273 -0.032711 -0.046753
v 0.078284 -0.031805 -0.038137
v 0.078284 -0.030911 -0.029586
v 0.078289 -0.030020 -0.021083
v 0.078291 -0.035183 -0.004958
v 0.078297 -0.034286 0.003396
v 0.078296 -0.033397 0.011692
v 0.078301 -0.032511 0.019942
v 0.078301 -0.031633 0.028136
v 0.078305 -0.029891 0.044378
v 0.073865 -0.030997 0.048892
v 0.078456 -0.021130 -0.054052
v 0.078273 -0.018671 -0.045230
v 0.078282 -0.024803 -0.037388
v 0.078281 -0.023932 -0.028847
v 0.078287 -0.023063 -0.020355
v 0.078292 -0.022200 -0.011916
v 0.078297 -0.020493 0.004799
v 0.078297 -0.019648 0.013075
v 0.078302 -0.018807 0.021306
v 0.078304 -0.024795 0.028812
v 0.078309 -0.023097 0.045034
v 0.073050 -0.024546 0.048892
v 0.078704 -0.008439 -0.054891
v 0.078277 -0.011669 -0.044467
v 0.078282 -0.010836 -0.035888
v 0.078282 -0.010010 -0.027368
v 0.078288 -0.009187 -0.018896
v 0.078296 -0.015277 -0.011193
v 0.078301 -0.013614 0.005501
v 0.078300 -0.012792 0.013768
v 0.078305 -0.011972 0.021988
v 0.078299 -0.011162 0.030148
v 0.078304 -0.010353 0.038268
v 0.071420 -0.011646 0.048892
v 0.079174 -0.000409 -0.054268
v 0.078272 0.001498 -0.051565
v 0.078280 -0.003873 -0.035143
v 0.078279 -0.003070 -0.026634
v 0.078291 -0.002267 -0.018167
v 0.078296 -0.001471 -0.009759
v 0.078296 -0.000683 -0.001408
v 0.078301 0.000881 0.015143
v 0.078303 -0.005153 0.022665
v 0.078302 -0.004362 0.030820
v 0.078308 -0.003574 0.038930
v 0.078313 -0.002791 0.046990
v 0.079194 0.005093 -0.055814
v 0.078276 0.008483 -0.050797
v 0.078281 0.009253 -0.042195
v 0.078286 0.010776 -0.025158
v 0.078292 0.011532 -0.016717
v 0.078300 0.005413 -0.009040
v 0.078299 0.006179 -0.000700
v 0.078304 0.007699 0.015831
v 0.078309 0.008453 0.024023
v 0.078303 0.009198 0.032154
v 0.078308 0.009943 0.040245
v 0.078313 0.010683 0.048287
v 0.078804 0.024108 -0.055868
v 0.078273 0.015452 -0.050035
v 0.078278 0.016199 -0.041443
v 0.078283 0.017677 -0.024427
v 0.078289 0.018410 -0.015997
v 0.078294 0.019139 -0.007619
v 0.078300 0.019863 0.000707
v 0.078305 0.020583 0.008981
v 0.078307 0.015235 0.024695
v 0.078306 0.015960 0.032822
v 0.078311 0.016684 0.040904
v 0.078233 0.017370 0.048869
v 0.078710 0.028693 -0.055707
v 0.078273 0.029353 -0.048511
v 0.078279 0.030054 -0.039940
v 0.078285 0.030752 -0.031423
v 0.078292 0.025279 -0.015272
v 0.078298 0.025985 -0.006904
v 0.078303 0.026687 0.001412
v 0.078309 0.027385 0.009676
v 0.078308 0.028076 0.017884
v 0.078307 0.029446 0.034149
v 0.078312 0.030127 0.042212
v 0.076617 0.030165 0.048869
v 0.078275 0.042542 -0.055590
v 0.078277 0.036284 -0.047748
v 0.078283 0.036964 -0.039187
v 0.078288 0.037639 -0.030681
v 0.078288 0.038307 -0.022234
v 0.078299 0.039637 -0.005485
v 0.078298 0.040293 0.002806
v 0.078310 0.040949 0.011055
v 0.078305 0.034842 0.018562
v 0.078304 0.036169 0.034808
v 0.078310 0.036828 0.042862
v 0.075809 0.036562 0.048869
v 0.078278 0.049470 -0.054820
v 0.078278 0.050106 -0.046232
v 0.078283 0.050741 -0.037693
v 0.078289 0.051372 -0.029207
v 0.078285 0.045157 -0.021509
v 0.078296 0.046442 -0.004780
v 0.078295 0.047077 0.003501
v 0.078307 0.047712 0.011741
v 0.078306 0.048339 0.019920
v 0.078311 0.048964 0.028054
v 0.078316 0.050200 0.044167
v 0.074193 0.049356 0.048869
v 0.078282 0.056385 -0.054051
v 0.078281 0.056999 -0.045473
v 0.078287 0.057611 -0.036944
v 0.078292 0.058220 -0.028469
v 0.078292 0.058822 -0.020052
v 0.078297 0.059423 -0.011682
v 0.078302 0.060611 0.004897
v 0.078307 0.061201 0.013113
v 0.078309 0.055069 0.020599
v 0.078315 0.055673 0.028724
v 0.078314 0.056865 0.044814
v 0.073384 0.055753 0.048869
v 0.078459 0.069649 -0.055966
v 0.078283 0.070173 -0.052522
v 0.078287 0.071311 -0.035458
v 0.078290 0.065053 -0.027738
v 0.078289 0.065633 -0.019331
v 0.078294 0.066213 -0.010971
v 0.078299 0.067358 0.005589
v 0.078305 0.067926 0.013794
v 0.078304 0.068489 0.021945
v 0.078309 0.069051 0.030050
v 0.078309 0.069607 0.038101
v 0.071768 0.068548 0.048869
v 0.078462 0.075293 -0.055723
v 0.077069 0.077204 -0.044310
v 0.075389 0.077208 -0.037307
v 0.073712 0.077211 -0.030321
v 0.072046 0.077217 -0.023348
v 0.074004 0.077869 -0.006431
v 0.078479 0.074688 0.005636
v 0.078483 0.075133 0.011067
v 0.078307 0.075183 0.022620
v 0.078313 0.075723 0.030716
v 0.078312 0.076259 0.038758
v 0.078317 0.076793 0.046755
v 0.081431 -0.075428 -0.055194
v 0.081278 -0.081283 -0.052588
v 0.081270 -0.079308 -0.041984
v 0.081452 -0.079871 -0.032693
v 0.081442 -0.077739 -0.019956
v 0.081427 -0.075636 -0.007343
v 0.081768 -0.080817 -0.000026
v 0.081756 -0.078517 0.010597
v 0.081744 -0.076236 0.021127
v 0.082981 -0.078140 0.028750
v 0.082492 -0.082617 0.038648
v 0.081859 -0.082013 0.049965
v 0.082010 -0.065472 -0.055271
v 0.081792 -0.070861 -0.052155
v 0.081780 -0.068581 -0.041195
v 0.081768 -0.066321 -0.030331
v 0.081389 -0.065710 -0.018216
v 0.081821 -0.073603 -0.006098
v 0.081417 -0.073542 0.005168
v 0.082241 -0.074609 0.011299
v 0.081408 -0.071466 0.017569
v 0.081398 -0.069409 0.029860
v 0.081388 -0.067370 0.042043
v 0.081344 -0.066549 0.048961
v 0.081439 -0.064441 -0.044215
v 0.081999 -0.063012 -0.041904
v 0.081429 -0.062386 -0.031476
v 0.081419 -0.060350 -0.018849
v 0.081410 -0.058331 -0.006335
v 0.081736 -0.059650 0.001699
v 0.081395 -0.056340 0.006060
v 0.081350 -0.056349 0.017405
v 0.081767 -0.061503 0.030576
v 0.081749 -0.056791 0.044830
v 0.082965 -0.063367 0.049284
v 0.081431 -0.049119 -0.055639
v 0.081760 -0.049602 -0.049788
v 0.081422 -0.047141 -0.042897
v 0.081375 -0.049686 -0.028838
v 0.081361 -0.046037 -0.014444
v 0.081780 -0.047517 -0.008041
v 0.082214 -0.049699 -0.003531
v 0.081944 -0.053446 0.010264
v 0.081386 -0.054357 0.018355
v 0.081381 -0.052382 0.030552
v 0.081372 -0.050433 0.042633
v 0.081903 -0.046505 0.048115
v 0.082508 -0.043566 -0.055709
v 0.081976 -0.042466 -0.048748
v 0.081958 -0.040168 -0.035605
v 0.081412 -0.045180 -0.030268
v 0.081402 -0.043236 -0.017751
v 0.081393 -0.041309 -0.005344
v 0.081708 -0.038970 0.003389
v 0.081383 -0.039399 0.006955
v 0.081369 -0.037515 0.019138
v 0.081364 -0.035629 0.031233
v 0.082159 -0.038956 0.039791
v 0.081798 -0.037722 0.049549
v 0.081409 -0.032021 -0.054241
v 0.081732 -0.028837 -0.047470
v 0.081404 -0.030125 -0.041600
v 0.081395 -0.028255 -0.029080
v 0.081385 -0.026401 -0.016670
v 0.081333 -0.026899 -0.010774
v 0.081921 -0.033362 0.003125
v 0.081908 -0.031139 0.015792
v 0.081689 -0.034843 0.024026
v 0.081678 -0.032810 0.034210
v 0.081351 -0.033778 0.043205
v 0.081292 -0.030283 0.047783
v 0.081948 -0.022266 -0.055491
v 0.081349 -0.018240 -0.049677
v 0.081939 -0.020061 -0.042403
v 0.081712 -0.024756 -0.026193
v 0.081701 -0.022747 -0.015695
v 0.081376 -0.024563 -0.004368
v 0.081682 -0.018771 0.005040
v 0.081366 -0.022741 0.007827
v 0.081357 -0.020935 0.019917
v 0.081343 -0.019154 0.031894
v 0.081334 -0.017379 0.043777
v 0.081771 -0.023094 0.049838
v 0.081712 -0.010519 -0.055852
v 0.081392 -0.015194 -0.052856
v 0.081383 -0.013396 -0.040334
v 0.081378 -0.011604 -0.027912
v 0.081368 -0.009838 -0.015607
v 0.081306 -0.008272 -0.007203
v 0.081359 -0.008086 -0.003409
v 0.081350 -0.006350 0.008685
v 0.081659 -0.014870 0.025420
v 0.081649 -0.012945 0.035481
v 0.081641 -0.011026 0.045464
v 0.082107 -0.010145 0.046097
v 0.081375 0.001361 -0.051494
v 0.081366 0.003073 -0.039079
v 0.081682 -0.004708 -0.024203
v 0.081893 0.003831 -0.023446
v 0.081674 -0.002798 -0.013828
v 0.081663 -0.000913 -0.003547
v 0.081652 0.000957 0.006648
v 0.081341 -0.004629 0.020674
v 0.081332 -0.002922 0.032562
v 0.081323 -0.001230 0.044349
v 0.081756 -0.000460 0.048994
v 0.081685 0.009397 -0.053507
v 0.081674 0.011240 -0.043003
v 0.081357 0.004769 -0.026772
v 0.081348 0.006451 -0.014571
v 0.081880 0.005857 -0.010801
v 0.081343 0.008128 -0.002465
v 0.081334 0.009781 0.009529
v 0.081325 0.011420 0.021420
v 0.081312 0.013037 0.033202
v 0.081303 0.014648 0.044894
v 0.081612 0.008287 0.046589
v 0.081894 0.019166 -0.055692
v 0.081300 0.017057 -0.048575
v 0.081350 0.019277 -0.037845
v 0.081340 0.020890 -0.025641
v 0.081655 0.014890 -0.022252
v 0.081331 0.022490 -0.013541
v 0.081327 0.024085 -0.001535
v 0.081626 0.020245 0.008224
v 0.081616 0.021998 0.018213
v 0.081609 0.023745 0.028125
v 0.082066 0.015309 0.041941
v 0.082469 0.022091 0.048241
v 0.081659 0.028854 -0.051217
v 0.081648 0.030595 -0.040842
v 0.081637 0.032321 -0.030554
v 0.081627 0.034033 -0.020351
v 0.081849 0.026912 -0.005133
v 0.082076 0.031278 -0.003448
v 0.081318 0.025657 0.010360
v 0.081309 0.027217 0.022154
v 0.081296 0.028755 0.033841
v 0.081287 0.030288 0.045439
v 0.081584 0.027170 0.047688
v 0.081859 0.040168 -0.049439
v 0.081850 0.042016 -0.036808
v 0.081324 0.036756 -0.024527
v 0.082500 0.041622 -0.022878
v 0.081315 0.038276 -0.012528
v 0.081307 0.039783 -0.000630
v 0.081302 0.041286 0.011178
v 0.081294 0.042768 0.022877
v 0.081281 0.044229 0.034470
v 0.081571 0.044029 0.039137
v 0.082017 0.042222 0.048007
v 0.081630 0.047861 -0.048985
v 0.081623 0.049512 -0.038731
v 0.081612 0.051140 -0.028567
v 0.081602 0.052756 -0.018487
v 0.081300 0.053815 -0.011530
v 0.081819 0.047450 0.000396
v 0.081807 0.049223 0.012570
v 0.081795 0.050980 0.024635
v 0.081779 0.052713 0.036584
v 0.081272 0.045686 0.045976
v 0.081621 0.064025 -0.044660
v 0.081816 0.062384 -0.030892
v 0.081807 0.064102 -0.018554
v 0.082036 0.055926 -0.006884
v 0.081291 0.055245 0.000271
v 0.081282 0.056663 0.011974
v 0.081278 0.058078 0.023588
v 0.081554 0.060644 0.030699
v 0.081547 0.062191 0.040304
v 0.081652 0.058772 0.049671
v 0.081605 0.066449 -0.046798
v 0.081594 0.067996 -0.036673
v 0.081587 0.069540 -0.026625
v 0.081577 0.071062 -0.016665
v 0.081567 0.072572 -0.006785
v 0.081276 0.070468 0.001158
v 0.081267 0.071812 0.012767
v 0.081778 0.069153 0.017794
v 0.081759 0.070784 0.029674
v 0.081747 0.072418 0.041467
v 0.082876 0.069692 0.049516
v 0.082758 0.076328 -0.054841
v 0.081777 0.078340 -0.047348
v 0.082442 0.077556 -0.036877
v 0.082025 0.075964 -0.030948
v 0.081920 0.077613 -0.020778
v 0.081363 0.077620 -0.011846
v 0.082032 0.077329 0.001235
v 0.081550 0.075564 0.012741
v 0.081540 0.077038 0.022384
v 0.081394 0.078714 0.032872
v 0.081872 0.076007 0.042806
v 0.081270 0.074878 0.048828
f 722 1443 12
f 396 1602 846
f 396 1602 1443
f 1613 1602 1443
f 1613 1614 1441
f 1613 1602 846
f 205 1 12
f 144 1443 12
f 144 396 1443
f 253 1 73
f 412 1229 409
f 412 205 409
f 575 204 846
f 575 396 846
f 575 396 204
f 1420 1216 1614
f 1615 1623 846
f 1615 1216 1614
f 1466 1613 1441
f 1466 1613 1443
f 192 396 204
f 192 144 204
f 192 144 396
f 181 195 1
f 201 144 204
f 1442 1433 1229
f 1442 412 1229
f 1442 1433 1441
f 1442 1466 1441
f 1442 1466 1443
f 1479 1614 1441
f 214 722 12
f 214 412 722
f 1616 1615 1614
f 1616 1615 1623
f 1616 1624 1623
f 1616 1613 1614
f 1616 1624 1613
f 1625 1613 846
f 1625 1624 1613
f 1625 1624 1623
f 193 1 73
f 193 181 1
f 193 1420 1216
f 193 1615 1216
f 193 1615 846
f 84 144 12
f 84 201 12
f 84 201 144
f 198 195 1
f 198 201 195
f 198 1 12
f 198 201 12
f 197 204 846
f 197 193 846
f 197 201 204
f 197 193 195
f 197 201 195
f 785 412 722
f 785 1442 412
f 785 722 1443
f 785 1442 1443
f 1444 1433 1441
f 1444 1479 1441
f 1549 1479 1614
f 209 412 205
f 209 214 412
f 209 205 12
f 209 214 12
f 1431 1623 846
f 1431 1625 846
f 1431 1625 1623
f 373 193 73
f 194 181 195
f 194 193 195
f 194 193 181
f 1228 205 1
f 1228 205 409
f 1228 1229 409
f 1228 1433 1229
f 385 373 193
f 1240 1045 73
f 1240 253 1
f 1240 1228 1
f 1432 1444 1433
f 1432 1228 1433
f 1432 1240 1228
f 1432 1444 1479
f 1432 1240 1479
f 708 193 1420
f 708 385 193
f 1515 1549 1479
f 1515 1240 1479
f 451 253 73
f 451 1240 73
f 451 1240 253
f 1408 1515 1240
f 1408 1240 1045
f 1408 1515 1549
f 1408 1420 1614
f 1408 1549 1614
f 1408 385 373
f 1408 373 73
f 1408 1045 73
f 1408 708 1420
f 1408 708 385
