# https://github.com/mikedh/trimesh
v -0.03230404 -0.01505208 -0.02358443
v -0.02861040 -0.01877636 -0.02358443
v -0.02861040 -0.01505208 -0.02721972
v -0.03333319 -0.01505208 -0.01358443
v -0.02861040 -0.01977591 -0.01358443
v -0.03354697 -0.01505208 -0.00358443
v -0.02861040 -0.01999261 -0.00358443
v -0.03395703 -0.01505208 0.00641557
v -0.02861040 -0.02257392 0.00641557
v -0.02861040 -0.01505208 0.01221110
v -0.02861040 -0.00601203 -0.02358443
v -0.03201511 -0.00505208 -0.01358443
v -0.02861040 -0.00505208 -0.02253175
v -0.03334263 -0.00505208 -0.00358443
v -0.03414143 -0.00505208 0.00641557
v -0.02861040 -0.00505208 0.01162263
v -0.02916042 0.00494792 -0.01358443
v -0.02861040 0.00494792 -0.01677509
v -0.03393570 0.00494792 -0.00358443
v -0.03419007 0.00494792 0.00641557
v -0.02861040 0.00494792 0.01133788
v -0.02861040 0.00550528 -0.01358443
v -0.03341353 0.01494792 -0.00358443
v -0.02861040 0.01494792 -0.00842253
v -0.03323878 0.01494792 0.00641557
v -0.02861040 0.01494792 0.01104441
v -0.02861040 0.02050994 -0.00358443
v -0.02861040 0.01957941 0.00641557
v -0.02343347 -0.02505208 -0.01358443
v -0.01861040 -0.02987433 -0.01358443
v -0.01861040 -0.02505208 -0.01847008
v -0.02327343 -0.02505208 -0.00358443
v -0.01861040 -0.02971197 -0.00358443
v -0.02605851 -0.02505208 0.00641557
v -0.01861040 -0.02960346 0.00641557
v -0.01861040 -0.02505208 0.01096786
v -0.01861040 -0.01963230 -0.02358443
v -0.01861040 -0.01505208 -0.02810081
v -0.02426481 -0.01505208 0.01641557
v -0.01861040 -0.01955854 0.01641557
v -0.01861040 -0.01505208 0.02092203
v -0.02793129 -0.00505208 -0.02358443
v -0.01861040 -0.00505208 -0.02812722
v -0.02460029 -0.00505208 0.01641557
v -0.01861040 -0.00505208 0.02123150
v -0.02742318 0.00494792 -0.02358443
v -0.01861040 0.00494792 -0.02837786
v -0.02332097 0.00494792 0.01641557
v -0.01861040 0.00494792 0.02112201
v -0.02297303 0.01494792 -0.02358443
v -0.01861040 0.01494792 -0.02793657
v -0.02331984 0.01494792 -0.01358443
v -0.02300919 0.01494792 0.01641557
v -0.01861040 0.01494792 0.02079794
v -0.01861040 0.02022912 -0.02358443
v -0.02426557 0.02494792 -0.01358443
v -0.01861040 0.02494792 -0.01939431
v -0.02338190 0.02494792 -0.00358443
v -0.02071321 0.02494792 0.00641557
v -0.01861040 0.01936093 0.01641557
v -0.01861040 0.02494792 0.00852620
v -0.01861040 0.02987433 -0.01358443
v -0.01861040 0.02898553 -0.00358443
v -0.01861040 0.02705941 0.00641557
v -0.00861040 -0.02917110 -0.01358443
v -0.00861040 -0.02505208 -0.01780770
v -0.00861040 -0.02947700 -0.00358443
v -0.00861040 -0.02896696 0.00641557
v -0.01005024 -0.02505208 0.01641557
v -0.00861040 -0.02649181 0.01641557
v -0.00861040 -0.02505208 0.01785597
v -0.00861040 -0.01991269 -0.02358443
v -0.00861040 -0.01505208 -0.02833648
v -0.00861040 -0.01505208 0.02050672
v -0.00861040 -0.00505208 -0.02850625
v -0.01070727 -0.00505208 0.02641557
v -0.00861040 -0.00715856 0.02641557
v -0.00861040 -0.00505208 0.02851222
v -0.00861040 0.00494792 -0.02835988
v -0.01009235 0.00494792 0.02641557
v -0.00861040 0.00494792 0.02789556
v -0.00861040 0.01494792 -0.02851222
v -0.00861040 0.00643171 0.02641557
v -0.00861040 0.01494792 0.02040803
v -0.00861040 0.01991722 -0.02358443
v -0.00861040 0.02494792 -0.01742610
v -0.00861040 0.01896166 0.01641557
v -0.00861040 0.02494792 0.00891034
v -0.00861040 0.02875460 -0.01358443
v -0.00861040 0.02905377 -0.00358443
v -0.00861040 0.02743435 0.00641557
v 0.00138960 -0.02852892 -0.01358443
v 0.00138960 -0.02505208 -0.01763595
v 0.00138960 -0.02867200 -0.00358443
v 0.00138960 -0.02821458 0.00641557
v 0.00138960 -0.02626739 0.01641557
v 0.00138960 -0.02505208 0.01763110
v 0.00138960 -0.01957871 -0.02358443
v 0.00138960 -0.01505208 -0.02751214
v 0.00138960 -0.01505208 0.02007515
v 0.00138960 -0.00505208 -0.02779645
v 0.00138960 -0.00716623 0.02641557
v 0.00138960 -0.00505208 0.02829239
v 0.00138960 0.00494792 -0.02764229
v 0.00138960 0.00494792 0.02756165
v 0.00138960 0.01494792 -0.02732203
v 0.00138960 0.00625005 0.02641557
v 0.00138960 0.01494792 0.01996144
v 0.00138960 0.01873479 -0.02358443
v 0.00138960 0.02494792 -0.01534925
v 0.00138960 0.01817749 0.01641557
v 0.00138960 0.02494792 0.00905447
v 0.00138960 0.02668445 -0.01358443
v 0.00138960 0.02813742 -0.00358443
v 0.00138960 0.02758409 0.00641557
v 0.00551121 -0.02505208 -0.01358443
v 0.01138960 -0.02738065 -0.00358443
v 0.01138960 -0.02505208 -0.00643047
v 0.01138960 -0.02702107 0.00641557
v 0.00857769 -0.02505208 0.01641557
v 0.01138960 -0.02505208 0.01460389
v 0.01138960 -0.01794828 -0.02358443
v 0.01138960 -0.01505208 -0.02644151
v 0.01138960 -0.01889374 -0.01358443
v 0.01138960 -0.02332406 0.01641557
v 0.01078126 -0.01505208 0.02641557
v 0.01138960 -0.01579707 0.02641557
v 0.01138960 -0.01505208 0.02699339
v 0.01138960 -0.00505208 -0.02705107
v 0.01138960 -0.00505208 0.02806169
v 0.01138960 0.00494792 -0.02682851
v 0.01138960 0.00494792 0.02769646
v 0.01138960 0.01494792 -0.02601159
v 0.01128518 0.01494792 0.02641557
v 0.01138960 0.01494792 0.02651760
v 0.01138960 0.01740028 -0.02358443
v 0.00316791 0.02494792 -0.01358443
v 0.01138960 0.01813285 -0.01358443
v 0.01138960 0.02494792 -0.00390493
v 0.01138960 0.01690958 0.01641557
v 0.01138960 0.02494792 0.00765388
v 0.01138960 0.01503827 0.02641557
v 0.01138960 0.02525986 -0.00358443
v 0.01138960 0.02617991 0.00641557
v 0.02138960 -0.02567652 -0.00358443
v 0.02138960 -0.02505208 -0.00421985
v 0.02138960 -0.02515878 0.00641557
v 0.02138960 -0.02505208 0.00732110
v 0.01426637 -0.01505208 -0.02358443
v 0.02138960 -0.01701794 -0.01358443
v 0.02138960 -0.01505208 -0.01552879
v 0.02138960 -0.01950856 0.01641557
v 0.01471495 -0.01505208 0.02641557
v 0.02138960 -0.01505208 0.02079223
v 0.02130284 -0.00505208 -0.02358443
v 0.02138960 -0.00505208 -0.02344829
v 0.02030106 -0.00505208 0.02641557
v 0.02138960 -0.00505208 0.02530715
v 0.01467835 0.00494792 -0.02358443
v 0.02138960 0.00494792 -0.01587412
v 0.01875588 0.00494792 0.02641557
v 0.02138960 0.00494792 0.02435682
v 0.01383466 0.01494792 -0.02358443
v 0.02138960 0.01494792 -0.01525375
v 0.01192306 0.01494792 0.02641557
v 0.02138960 0.01494792 0.01963296
v 0.02138960 0.01660740 -0.01358443
v 0.01185938 0.02494792 -0.00358443
v 0.02138960 0.01771438 -0.00358443
v 0.01683678 0.02494792 0.00641557
v 0.02138960 0.02138570 0.00641557
v 0.02138960 0.01696028 0.01641557
v 0.02284337 -0.02505208 -0.00358443
v 0.02186978 -0.02505208 0.00641557
v 0.02579233 -0.01505208 -0.01358443
v 0.03105593 -0.01505208 -0.00358443
v 0.03044265 -0.01505208 0.00641557
v 0.02560201 -0.01505208 0.01641557
v 0.02920611 -0.00505208 -0.01358443
v 0.03138960 -0.01395285 -0.00358443
v 0.03138960 -0.00505208 -0.00808218
v 0.03138960 -0.01207029 0.00641557
v 0.02940618 -0.00505208 0.01641557
v 0.03138960 -0.00505208 0.01193490
v 0.02720748 0.00494792 -0.01358443
v 0.03138960 0.00494792 -0.00517190
v 0.02908159 0.00494792 0.01641557
v 0.03138960 0.00494792 0.01097061
v 0.02358904 0.01494792 -0.01358443
v 0.02989102 0.01494792 -0.00358443
v 0.03138960 0.00968048 -0.00358443
v 0.03077244 0.01494792 0.00641557
v 0.03138960 0.01259872 0.00641557
v 0.02472546 0.01494792 0.01641557
v 0.03419007 -0.00505208 -0.00358443
v 0.03350611 -0.00505208 0.00641557
v 0.03256451 0.00494792 -0.00358443
v 0.03302214 0.00494792 0.00641557
f 7 32 5
f 34 9 39
f 9 34 7
f 109 85 106
f 85 109 110
f 86 85 110
f 88 112 111
f 111 84 87
f 108 84 111
f 110 89 86
f 113 89 110
f 34 32 7
f 113 114 89
f 114 115 90
f 90 115 91
f 115 88 91
f 112 88 115
f 40 39 41
f 34 40 36
f 34 39 40
f 9 10 39
f 89 114 90
f 87 88 111
f 77 76 78
f 5 37 2
f 69 36 40
f 66 72 31
f 72 37 31
f 37 72 38
f 38 72 73
f 70 69 71
f 70 68 35
f 40 71 69
f 69 70 35
f 33 35 68
f 67 33 68
f 30 33 67
f 65 30 67
f 30 65 31
f 31 65 66
f 106 85 82
f 69 35 36
f 32 29 5
f 40 41 71
f 73 75 38
f 29 37 5
f 29 31 37
f 2 37 3
f 3 37 38
f 35 34 36
f 32 34 33
f 33 34 35
f 41 74 71
f 29 32 30
f 31 29 30
f 79 47 43
f 75 79 43
f 45 74 41
f 76 74 45
f 76 77 74
f 75 43 38
f 30 32 33
f 105 81 107
f 89 90 62
f 107 81 83
f 28 60 53
f 28 59 60
f 59 61 60
f 59 28 58
f 28 27 58
f 58 52 56
f 27 52 58
f 27 24 52
f 56 52 50
f 57 56 50
f 82 51 47
f 51 55 50
f 48 53 49
f 49 53 54
f 26 53 21
f 53 48 21
f 22 52 24
f 52 46 50
f 22 46 52
f 22 18 46
f 50 46 51
f 28 53 26
f 53 60 54
f 57 62 56
f 56 63 58
f 62 90 63
f 90 91 63
f 63 91 64
f 91 61 64
f 88 61 91
f 86 62 57
f 84 54 87
f 87 54 60
f 60 61 87
f 61 88 87
f 51 46 47
f 57 55 86
f 85 55 82
f 82 55 51
f 80 83 81
f 84 49 54
f 83 49 84
f 83 80 49
f 59 64 61
f 63 64 58
f 58 64 59
f 62 63 56
f 55 85 86
f 44 48 45
f 45 48 49
f 21 48 16
f 79 82 47
f 76 80 78
f 78 80 81
f 49 80 45
f 98 72 66
f 93 98 66
f 97 71 100
f 100 71 74
f 99 101 73
f 101 75 73
f 89 62 86
f 100 74 77
f 77 103 102
f 78 103 77
f 101 104 75
f 104 79 75
f 103 78 105
f 105 78 81
f 104 106 79
f 106 82 79
f 84 108 107
f 83 84 107
f 102 100 77
f 80 76 45
f 72 98 73
f 71 97 70
f 48 44 16
f 13 42 18
f 42 46 18
f 46 42 47
f 47 42 43
f 39 44 41
f 41 44 45
f 16 44 10
f 44 39 10
f 11 42 13
f 73 98 99
f 3 38 43
f 11 43 42
f 66 92 93
f 65 92 66
f 92 65 94
f 65 67 94
f 94 67 95
f 67 68 95
f 95 68 96
f 68 70 96
f 70 97 96
f 11 3 43
f 57 50 55
f 133 109 106
f 116 117 118
f 169 171 170
f 168 169 170
f 141 170 171
f 141 171 140
f 140 171 172
f 165 172 166
f 165 142 172
f 142 140 172
f 165 135 142
f 168 143 139
f 170 143 168
f 169 138 167
f 144 143 170
f 198 188 193
f 193 191 198
f 198 191 197
f 197 191 186
f 184 188 196
f 196 188 198
f 196 198 197
f 195 196 197
f 186 181 197
f 197 181 195
f 182 184 196
f 170 141 144
f 196 195 182
f 168 138 169
f 167 138 136
f 151 156 155
f 149 151 155
f 158 154 153
f 157 158 153
f 153 130 157
f 128 130 153
f 159 129 155
f 131 129 159
f 156 160 159
f 155 156 159
f 161 162 157
f 168 139 138
f 157 132 161
f 163 131 159
f 133 131 163
f 160 164 163
f 159 160 163
f 166 162 161
f 165 166 161
f 161 135 165
f 132 135 161
f 163 136 133
f 164 136 163
f 164 167 136
f 130 132 157
f 182 195 180
f 180 195 181
f 145 173 146
f 188 184 183
f 187 188 183
f 183 162 187
f 158 162 183
f 189 160 185
f 164 160 189
f 186 191 190
f 186 190 185
f 185 190 189
f 191 193 192
f 190 191 192
f 179 181 185
f 193 188 187
f 192 187 194
f 187 166 194
f 162 166 187
f 189 167 164
f 190 167 189
f 169 167 190
f 192 169 190
f 171 169 192
f 194 171 192
f 172 171 194
f 194 166 172
f 193 187 192
f 181 186 185
f 160 156 185
f 185 156 179
f 147 173 145
f 174 173 147
f 147 148 174
f 150 175 151
f 146 175 150
f 146 173 175
f 173 176 175
f 173 174 176
f 174 177 176
f 152 174 148
f 152 178 174
f 178 177 174
f 152 154 178
f 179 151 175
f 156 151 179
f 180 181 179
f 180 179 176
f 176 179 175
f 176 177 182
f 180 176 182
f 184 182 177
f 184 177 183
f 183 177 178
f 178 158 183
f 154 158 178
f 129 123 155
f 92 116 93
f 155 123 149
f 152 125 127
f 130 103 132
f 132 103 105
f 131 133 104
f 133 106 104
f 107 108 134
f 134 105 107
f 134 135 105
f 135 132 105
f 136 109 133
f 137 110 109
f 137 109 138
f 131 104 101
f 138 109 136
f 112 141 140
f 111 112 140
f 108 142 134
f 108 111 142
f 111 140 142
f 134 142 135
f 137 113 110
f 139 113 137
f 139 143 113
f 143 114 113
f 143 144 114
f 138 139 137
f 114 144 115
f 129 131 101
f 102 103 128
f 116 92 117
f 92 94 117
f 117 94 119
f 94 95 119
f 121 96 120
f 121 119 96
f 119 95 96
f 96 97 120
f 99 122 123
f 98 122 99
f 93 116 124
f 103 130 128
f 93 124 98
f 116 118 124
f 121 120 125
f 120 97 100
f 120 100 127
f 120 127 125
f 127 100 126
f 127 126 128
f 123 129 99
f 129 101 99
f 126 100 102
f 102 128 126
f 98 124 122
f 144 112 115
f 141 112 144
f 25 28 26
f 9 8 10
f 6 8 7
f 7 8 9
f 4 6 5
f 5 6 7
f 1 4 2
f 2 4 5
f 3 1 2
f 118 145 146
f 117 145 118
f 145 117 147
f 3 11 1
f 117 119 147
f 121 148 119
f 122 149 123
f 149 150 151
f 149 122 150
f 122 124 150
f 150 124 118
f 146 150 118
f 148 121 125
f 152 148 125
f 154 127 153
f 154 152 127
f 119 148 147
f 13 1 11
f 13 12 1
f 12 4 1
f 27 28 23
f 23 28 25
f 24 27 23
f 20 25 21
f 21 25 26
f 20 23 25
f 19 23 20
f 23 19 17
f 24 23 17
f 24 17 22
f 18 22 17
f 15 20 16
f 16 20 21
f 15 19 20
f 14 19 15
f 14 17 19
f 12 17 14
f 17 12 18
f 18 12 13
f 8 15 10
f 10 15 16
f 8 14 15
f 6 14 8
f 6 12 14
f 4 12 6
f 127 128 153
f 162 158 157

