# https://github.com/mikedh/trimesh
mtllib material.mtl
usemtl material_0
v 0.03740332 -0.00250438 0.01521059
v 0.03924811 -0.01327744 0.02252537
v 0.03479207 -0.01312198 0.01917062
v 0.04082991 -0.00249740 0.01782457
v 0.03781976 -0.00365556 0.01163385
v 0.04134734 -0.00389783 0.01459340
v 0.03536018 -0.01451864 0.01585987
v 0.03981899 -0.01432776 0.01917109
v 0.04216617 0.01819717 0.01260175
v 0.04305115 0.01547214 0.00877966
v 0.04159305 0.02679617 0.01449382
v 0.03867974 -0.02092682 0.02139232
v 0.04174586 -0.00817550 0.01241662
v 0.04198296 0.00500121 0.01268243
v 0.04004936 0.03780008 0.01940670
v 0.03921635 0.04385772 0.02071879
v 0.03805159 0.00539585 0.01357455
v 0.03871378 0.00499750 0.00999207
v 0.03830329 0.01890578 0.01028559
v 0.04228014 0.00616424 0.01779731
v 0.04151198 0.01790995 0.01616030
v 0.03731759 0.01787266 0.01291079
v 0.03931594 0.03792277 0.02112439
v 0.03374360 0.03717839 0.01792455
v 0.03952811 0.03646110 0.02249646
v 0.04100417 0.02569441 0.01779949
v 0.03598499 0.02580233 0.01399385
v 0.03680502 0.04688348 0.02938459
v 0.03742763 0.02659333 0.01113992
v 0.03647353 -0.02296494 0.02951981
v 0.03518027 0.03774727 0.01537852
v 0.03924374 0.03781329 0.02143410
v 0.03662406 -0.01583268 0.01180744
v 0.03270251 0.05217675 0.04036082
v 0.03927893 0.01073142 0.00558788
v 0.03886069 0.00019476 0.00664561
v 0.03370100 0.02156108 0.01617535
v 0.03210516 0.00268402 0.02109034
v -0.00043513 0.01372187 0.12349294
v -0.00047201 -0.00548899 0.11742389
v -0.00042931 0.00797166 0.12337895
v 0.03431971 -0.02202094 0.01811998
v 0.00146682 0.03953686 0.11239674
v 0.00132278 0.03526863 0.11824303
v 0.00329704 0.04422412 0.11292178
v 0.02556610 0.05736294 0.04595457
v 0.03487157 0.04514781 0.01782107
v 0.03106971 0.04311396 0.02407640
v 0.03194109 0.03949426 0.02089752
v 0.02763388 -0.03002235 0.03809470
v 0.00037757 0.02676715 0.12149604
v 0.02774688 -0.01756658 0.03287174
v -0.00013977 0.00046614 0.12233947
v 0.04193464 0.03184545 0.01263047
v 0.04305205 0.00697031 0.00893814
v 0.03705683 0.03873859 0.01165596
v 0.02367931 -0.02992026 0.04485868
v 0.03301043 0.03340118 0.01767432
v 0.00097425 -0.01035658 0.11888615
v 0.02469764 -0.03430917 0.04656189
v 0.00270234 -0.02329927 0.10695803
v 0.00186003 -0.01665535 0.11550841
v 0.03244750 -0.02844973 0.03948886
v 0.03060514 -0.00543303 0.02515851
v 0.01888838 -0.03653324 0.05709142
v 0.02087067 -0.03833837 0.05739631
v 0.00478730 -0.02719535 0.10716609
v 0.01869499 -0.04006195 0.06456623
v 0.00726446 -0.03317537 0.09957179
v 0.00570592 -0.03047435 0.09817895
v 0.03722855 -0.02244291 0.03328043
v 0.01293728 -0.03806962 0.07607995
v 0.00998848 -0.03772042 0.09041455
v 0.01389133 -0.04056792 0.07898571
v 0.04153626 -0.00335307 0.01992953
v 0.01849632 0.06386542 0.06707148
v 0.02239854 0.06116857 0.05564930
v 0.01894775 0.06102413 0.06065837
v 0.01790420 0.06047350 0.06298676
v 0.01516602 0.06422587 0.07714132
v 0.00936809 0.05900748 0.08837839
v 0.01114960 0.06179454 0.08893260
v 0.00913540 0.05916489 0.09522207
v 0.00670583 0.05486688 0.10215262
v 0.00514977 0.05167181 0.10145742
v 0.02033258 -0.01700711 0.02642690
v 0.02132156 -0.03012584 0.04345388
v 0.01964268 -0.01819848 0.02936786
v 0.02111864 -0.01019890 0.02060656
v 0.02682342 -0.00225952 0.01858659
v 0.02478362 -0.00071597 0.01248533
v 0.02879295 0.00975456 0.01306170
v 0.02381645 0.04287177 0.01843070
v 0.02367354 0.05400052 0.03855252
v 0.02636038 0.05294526 0.03803279
v 0.02500562 0.03565576 0.01117334
v 0.03868400 0.04340387 0.03096485
v 0.02656633 0.01056798 0.00742784
v 0.02666194 0.02397074 0.00695706
v 0.03865887 0.02613570 0.00723660
v 0.02548290 0.01091115 0.00771208
v 0.02389680 0.03716357 0.01343225
v 0.02352179 0.05260397 0.03789318
v 0.04053411 0.03619217 0.02459314
v 0.01862213 0.05708450 0.09122834
v 0.04589646 0.04543509 0.09815010
v 0.04041590 0.02391407 0.11456168
v 0.05668030 0.03822774 0.06533794
v 0.05269963 -0.02098204 0.07637342
v 0.05807991 -0.01441502 0.06002806
v 0.06037293 -0.00437225 0.05325748
v 0.04454535 -0.02081808 0.10111453
v 0.03869937 0.00798625 0.11940921
v 0.03946783 0.02438517 0.11738177
v 0.04958706 0.04814257 0.08697791
v 0.04820515 -0.02473218 0.08989871
v 0.03911393 0.00044608 0.11796212
v 0.06151557 0.01637599 0.05017155
v 0.05897366 0.03537040 0.05824011
v 0.05368218 0.04657279 0.07452809
v 0.04119912 0.03416160 0.11225171
v 0.06150163 0.00760974 0.05005325
v 0.05219063 -0.02444395 0.07772712
v 0.05455799 -0.02205345 0.07063600
v 0.05561250 0.04397532 0.06860467
v 0.04081612 -0.01048540 0.11262394
v 0.04450968 0.05578135 0.06725131
v 0.04182002 0.05804497 0.07751672
v 0.05652229 0.02195400 0.03817118
v 0.05365678 0.01460407 0.03034606
v 0.05782668 0.03125459 0.04835591
v 0.05337344 0.02013170 0.03090065
v 0.05290173 0.02917767 0.03380561
v 0.05170291 0.03638229 0.03794672
v 0.05006022 0.04297630 0.04421373
v 0.04873500 0.04709688 0.04962594
v 0.05339875 0.00522119 0.03051115
v 0.05804339 0.00199274 0.04178150
v 0.05242929 -0.00701771 0.03394246
v 0.05088276 -0.01599229 0.04039323
v 0.05142843 -0.01245416 0.03691078
v 0.04890645 -0.02268370 0.04798343
v 0.04750875 -0.02616951 0.05295687
v 0.04403458 -0.03253420 0.06665850
v 0.03604560 -0.03662947 0.07360041
v 0.03758027 -0.03504007 0.06538343
v 0.03875021 -0.03313505 0.05934963
v 0.04169640 -0.03469527 0.07538997
v 0.03182746 -0.01892691 0.11446621
v 0.03483886 -0.02882258 0.10276169
v 0.03309576 0.04543723 0.11137863
v 0.03211619 0.04121922 0.11521387
v 0.03513569 0.05152134 0.10360298
v 0.03706209 0.05529758 0.09602896
v 0.03447181 -0.03709510 0.07866653
v 0.03873105 0.05723678 0.08953127
v 0.03081040 -0.01238375 0.11902905
v 0.02988453 -0.00491007 0.12256607
v 0.02945227 0.00266885 0.12464979
v 0.03022465 0.02808535 0.12252595
v 0.02960478 0.01978156 0.12474957
v 0.02937740 0.00977441 0.12543739
v 0.03777307 -0.03356753 0.09130692
v 0.03619195 -0.03152253 0.09743130
v 0.03447258 0.06052126 0.07725974
v 0.03782133 0.05857820 0.06639071
v 0.04242977 0.05131814 0.04967009
v 0.03123272 0.05903741 0.09033688
v 0.01972039 -0.00661968 0.12243427
v 0.02208013 -0.01559213 0.11793855
v 0.01991619 0.00521648 0.12549686
v 0.02886118 -0.03525247 0.09263596
v 0.01935527 0.02914461 0.12273332
v 0.02588573 -0.02800179 0.10638952
v 0.02397493 -0.02408820 0.11102120
v 0.02153023 0.04170642 0.11606020
v 0.01041754 -0.01913381 0.11477572
v 0.02025635 0.02091346 0.12508269
v 0.02458692 0.04646062 0.11197995
v 0.02040278 0.03473857 0.12035999
v 0.02763571 0.05493888 0.10086010
v -0.04477747 -0.04284380 0.05080901
v -0.05584891 0.05490857 0.08625869
v -0.03587227 0.05865290 0.02556635
v -0.04935811 -0.04156256 0.06476466
v -0.05206622 -0.03883275 0.07305489
v -0.02834854 0.03032536 0.00216777
v -0.03040326 0.04775445 0.00873634
v -0.02741035 0.04623469 -0.00039564
v -0.03849502 -0.03803165 0.03178804
v -0.03576480 -0.03914915 -0.02910247
v -0.02089490 -0.04111014 -0.02180010
v -0.02101663 -0.04141950 -0.02143558
v -0.06133588 -0.00849939 0.10179637
v -0.06211815 -0.00002116 0.10432962
v -0.05519965 -0.03338810 0.08268052
v -0.05849979 0.04657737 0.09417355
v -0.05584968 0.05490664 0.08626086
v -0.06244245 0.01466691 0.10558257
v -0.02984821 -0.04087088 -0.02466551
v -0.03394017 -0.02884827 0.01810226
v -0.05796700 -0.02574331 0.09123644
v -0.02394456 0.05070960 -0.01085627
v -0.04144010 0.06591854 0.04263299
v -0.02554811 0.04792482 -0.00603001
v -0.02285777 -0.03575165 -0.01573221
v -0.02319849 -0.02889549 -0.01457151
v -0.01937402 -0.04783096 -0.02651449
v -0.05960701 -0.01914085 0.09634828
v -0.02752857 0.01075473 -0.00068130
v -0.05297890 0.06088502 0.07763766
v -0.04763002 0.06645680 0.06146996
v -0.06222555 0.02054943 0.10502955
v -0.02801067 -0.00034766 0.00058351
v -0.02581638 -0.02860722 -0.00660345
v -0.06121398 0.03192039 0.10215943
v -0.03124079 -0.02515088 0.00995815
v -0.05960717 0.04176158 0.09745417
v -0.02870684 -0.02506530 0.00225251
v -0.04945992 0.06522941 0.06701366
v -0.03760430 0.06170796 0.03089304
v -0.02794243 -0.00149374 0.00035612
v -0.04680145 -0.01046243 -0.00291700
v -0.03003056 -0.01721343 0.00642035
v -0.04449350 0.06707942 0.05194161
v -0.04832958 -0.01991155 0.00207855
v 0.04580631 0.01675414 0.11066300
v 0.04088099 0.02371829 0.11393166
v 0.04003650 0.01031934 0.11614741
v -0.04594823 -0.00296880 -0.00527130
v 0.05227450 -0.00925565 0.09568398
v 0.05552019 -0.00481863 0.09238227
v 0.04648853 -0.00773633 0.10529449
v 0.04493740 -0.01436158 0.10286283
v 0.05493142 -0.01228745 0.08638500
v -0.03133049 -0.02422513 0.01024785
v 0.05282178 0.02164606 0.10073418
v 0.05604669 0.02382393 0.09396426
v 0.04997858 0.03071331 0.10098448
v 0.05318860 0.00847030 0.10149505
v 0.04990950 0.00310975 0.10522284
v 0.04832638 -0.01939089 0.09258702
v 0.05088262 0.01361714 0.10495066
v 0.05637487 0.01271898 0.09606981
v 0.04355477 0.03561975 0.10614841
v 0.04702307 0.02600183 0.10709812
v 0.03943662 -0.00420222 0.11378387
v 0.03909148 -0.01429803 0.10877872
v 0.04384847 0.00142388 0.11163566
v -0.04526776 0.00558253 -0.00663678
v 0.05475081 -0.01774474 0.06577428
v 0.05864550 -0.00897301 0.07569625
v 0.05422462 -0.01877913 0.07291887
v 0.03911268 0.02986514 0.11319198
v 0.05038986 -0.02281233 0.08031096
v 0.05954327 0.00696363 0.08790295
v -0.03836510 -0.03634074 -0.02905360
v -0.03865281 -0.03754101 -0.02802740
v -0.04149683 -0.03018091 -0.01928454
v -0.04829277 -0.02111976 0.00146213
v 0.06013619 0.00125869 0.08311544
v -0.02285764 0.06171715 0.08224423
v -0.03593147 0.06410827 0.07408943
v -0.01841174 0.05702670 0.09175988
v -0.00837120 0.06046491 0.08584047
v 0.00905631 0.05126566 0.10176701
v 0.02573364 0.05049515 0.10215889
v 0.00333351 0.05441084 0.09728179
v 0.01762228 0.06075265 0.07574380
v 0.01932755 0.06062573 0.07055464
v 0.00004392 0.06359388 0.06028591
v 0.03507261 0.05704418 0.07398775
v -0.02089473 0.06564570 0.05245943
v -0.03974853 -0.02697521 -0.00964848
v -0.03217797 -0.03351206 -0.01678437
v -0.03217901 -0.02956732 -0.01019151
v -0.00958147 0.06505010 0.06506824
v -0.02802838 -0.02555695 0.00017917
v -0.02568726 -0.02884193 -0.00700112
v -0.01271754 0.06410174 0.07457606
v -0.03238386 0.06645659 0.06333636
v 0.03207747 0.05721642 0.08298803
v 0.00153548 0.06251833 0.07773320
v 0.02083625 0.05714124 0.08999923
v -0.03271335 0.05779401 0.08825652
v -0.00010490 0.05032016 0.10253584
v 0.01452412 0.06116364 0.06363194
v -0.00442533 0.06324419 0.05285627
v 0.02826422 0.05386023 0.09583721
v -0.02312480 -0.03497811 -0.01490642
v -0.02403785 0.06421614 0.04338749
v 0.02393281 0.04504989 0.10888398
v -0.02649489 0.05284815 0.09622283
v -0.05570334 0.05490586 0.08630895
v -0.03898081 -0.02487801 -0.00048540
v -0.02936961 -0.02480023 0.00426816
v 0.04812298 0.04971248 0.07106989
v 0.04288090 0.05353763 0.07098188
v 0.04638872 0.05109575 0.07637998
v 0.05313818 0.04410943 0.06997610
v 0.05085585 0.04660049 0.07676859
v 0.03323789 0.05398520 0.09300274
v 0.03977892 0.05337307 0.08710197
v 0.03725965 0.04914567 0.09869022
v 0.04543255 0.04640580 0.09287952
v 0.04152974 0.05441241 0.07561978
v 0.02980564 0.04774651 0.10480782
v 0.04115219 0.04476048 0.10071437
v 0.05517448 0.04044246 0.07483014
v 0.04647594 0.04177362 0.09727383
v 0.04773279 0.04712055 0.08687673
v 0.03681070 0.03926260 0.10936145
v 0.03083539 0.04136805 0.11071325
v 0.05232675 0.04105755 0.08609342
v -0.04007255 -0.02442109 0.00583085
v 0.04640365 0.04822754 0.05771848
v 0.03811426 0.05485194 0.06512284
v 0.05644542 0.03847505 0.06700388
v -0.02824613 0.01547551 -0.00134471
v -0.02866254 0.02445899 -0.00017653
v -0.02918027 0.03035854 0.00136862
v -0.02793229 0.03878409 -0.00275649
v -0.02690909 0.04386460 -0.00610708
v -0.04570476 -0.02009340 -0.11226190
v -0.01129483 -0.06708132 -0.04003832
v -0.05454465 -0.03412683 -0.09682851
v -0.04009927 -0.01506672 -0.11700743
v -0.01670853 -0.00277948 -0.12549680
v -0.02609975 -0.00653997 -0.12361529
v -0.00094978 0.00099319 -0.12535027
v 0.01604373 0.00178252 -0.12092297
v -0.03351430 -0.01051676 -0.12081753
v 0.02895325 -0.00026659 -0.11411111
v 0.03969377 -0.00465384 -0.10495098
v 0.04473538 -0.00827292 -0.09862057
v 0.04800210 -0.01175324 -0.09304067
v 0.05138513 -0.01810604 -0.08368330
v 0.05232398 -0.02332725 -0.07658393
v 0.05139821 -0.03063855 -0.06736185
v 0.04748008 -0.03889974 -0.05786355
v 0.04324686 -0.04427097 -0.05222911
v 0.03976871 -0.04769298 -0.04889028
v -0.04836639 -0.05665354 -0.06551520
v -0.05234988 -0.05197297 -0.07288818
v -0.04294645 -0.06059531 -0.05864320
v -0.03682897 -0.06348366 -0.05291884
v -0.05404392 -0.04879169 -0.07757390
v -0.05544646 -0.04368179 -0.08467729
v -0.02979830 -0.06557069 -0.04794486
v 0.03142475 -0.05397538 -0.04338869
v 0.02350657 -0.05837214 -0.04020641
v 0.00245197 -0.06539851 -0.03781653
v 0.01203008 -0.06291110 -0.03798031
v -0.02469299 -0.06648962 -0.04510978
v -0.02822334 0.00798217 -0.00128512
v -0.02286579 -0.03277255 -0.01764096
v -0.01416940 -0.02541266 0.01721377
v 0.00664598 -0.02528679 0.02901994
v -0.01542992 -0.02745454 0.02239313
v 0.00554649 -0.02121229 0.01413003
v 0.01019519 -0.02018962 -0.00079807
v 0.01477345 -0.01450621 0.01143090
v -0.00958281 -0.02443899 0.00993662
v 0.01684382 -0.01389905 -0.00105111
v -0.00577983 -0.05019320 -0.02636259
v -0.00871077 -0.04216814 -0.01983402
v 0.00704230 -0.02494501 -0.00644587
v 0.00506099 -0.02304565 -0.00040320
v -0.00455531 -0.02616036 -0.00062851
v 0.00846619 -0.02175743 0.02202244
v 0.00253279 -0.02352466 0.02032537
v 0.02322051 -0.00553787 -0.00809616
v 0.02114619 -0.00492092 0.00049605
v 0.00207323 -0.04401274 -0.02260789
v 0.03794406 0.00675835 -0.03598291
v 0.03180043 0.02155054 -0.02650949
v 0.02688538 0.01491504 -0.01275289
v 0.01261145 -0.02216801 -0.00828823
v 0.01794386 -0.02196331 -0.01419346
v 0.02093696 -0.01424645 -0.01123088
v 0.00393008 -0.02169954 0.00815021
v 0.01281903 -0.01695290 0.01579318
v -0.01581502 -0.03541231 -0.01364416
v 0.01856836 -0.00904527 0.01134826
v 0.02506685 -0.00045212 -0.00977242
v -0.01789244 -0.02614343 0.00099698
v 0.01062453 -0.02698078 0.03508114
v -0.01709560 -0.03276846 0.02991110
v -0.00930921 -0.03638296 -0.01439229
v 0.03131972 -0.01101120 -0.02528133
v 0.03392107 0.00086578 -0.02739683
v 0.02624631 0.01069604 -0.00997690
v 0.02548275 -0.02097234 -0.02192377
v 0.00854746 -0.03807501 -0.02034695
v 0.01378221 -0.03585752 -0.02141882
v 0.01255152 -0.03120324 -0.01724466
v 0.00036911 -0.03003472 -0.00935353
v -0.01713184 -0.03006479 -0.00689695
v 0.02141845 -0.00322250 0.01281506
v 0.02012081 -0.03360691 -0.02413522
v 0.02298036 0.00411598 0.00281209
v 0.01788902 -0.01663565 0.02652179
v 0.01700685 -0.02161326 0.03229537
v -0.04939399 0.02086385 -0.00770430
v -0.04368139 0.02692196 -0.00448908
v -0.05024619 0.01559419 -0.00856834
v -0.03552752 0.00068353 -0.00261349
v -0.04537561 0.00611031 -0.00673272
v -0.03861759 0.02898080 -0.00219473
v 0.02142636 0.05171447 -0.04650621
v 0.01763844 0.05517981 -0.04958292
v 0.01919894 0.05496522 -0.04105433
v -0.02678830 0.06385690 -0.05819249
v -0.03026104 0.06418106 -0.05087690
v -0.02032223 0.06646098 -0.05177484
v -0.03534644 0.05548696 -0.06700210
v -0.03870424 0.05800714 -0.05991396
v -0.03045096 0.06126702 -0.06173091
v -0.03475788 0.06146498 -0.05638139
v 0.02048520 0.05132359 -0.02916868
v 0.01089025 0.05903420 -0.03087402
v 0.01014320 0.05626621 -0.02399407
v -0.04182810 0.05229998 -0.06506842
v 0.01212316 0.06051197 -0.04382443
v 0.01368584 0.05885312 -0.03589053
v -0.04277784 0.05763092 -0.05294253
v -0.04683856 0.04972733 -0.06206485
v -0.04611650 0.05262675 -0.05897563
v 0.01314518 0.05705948 -0.05521556
v 0.00882032 0.06164949 -0.03673539
v -0.03742793 0.06124242 -0.04710713
v 0.00307464 0.06447060 -0.04939032
v 0.00490319 0.06206805 -0.03285371
v -0.03993816 0.04634136 -0.01520872
v -0.03702800 0.04794624 -0.01276958
v -0.02487182 0.04888407 -0.00806978
v 0.00921216 0.05932554 -0.05669264
v -0.05320837 0.04455896 -0.05738697
v 0.00226775 0.06472851 -0.04108137
v -0.04383848 0.05746447 -0.04582163
v -0.04862622 0.05336349 -0.05030445
v 0.00194358 0.06383306 -0.05449580
v 0.00116276 0.06016261 -0.06314062
v -0.05376445 0.04790377 -0.04855020
v -0.05655178 0.04216043 -0.05192300
v -0.00166083 0.06596320 -0.04826890
v -0.00390528 0.06506769 -0.03669371
v -0.05581930 0.04533984 -0.04060840
v -0.01027713 0.06611527 -0.05582981
v -0.04094774 0.04644464 0.00352787
v -0.04744172 0.04431501 0.00025102
v -0.04775504 0.04320866 0.00139060
v -0.00571987 0.06123508 -0.06515303
v -0.01205939 0.06270982 -0.06440332
v 0.03165937 0.02788088 -0.02975071
v 0.02699967 0.03919601 -0.02575622
v 0.02344532 0.02614393 -0.00946105
v 0.02334942 0.03723269 -0.01631837
v -0.01005553 0.05729195 -0.07136663
v 0.02023099 0.04850227 -0.02325847
v 0.01695667 0.03804815 -0.00826969
v -0.01361273 0.06708150 -0.05035169
v -0.05950415 0.03861461 -0.03949012
v -0.05943400 0.03621878 -0.04985844
v 0.01802143 0.04433281 -0.01529101
v -0.05288563 0.04862323 -0.03843755
v 0.00993603 0.04268421 -0.00656871
v -0.01628211 0.06058712 -0.06773063
v -0.04338070 0.05663452 -0.03885181
v -0.01687915 0.06517479 -0.05919572
v -0.01544274 0.06667716 -0.04332508
v -0.02171484 0.06353378 -0.06194349
v 0.02771796 0.04079099 -0.03133889
v 0.02545022 0.04644429 -0.03484392
v -0.05504484 0.04390468 -0.03246558
v -0.03060301 0.04591647 0.00930455
v -0.03023403 0.04747595 0.00821095
v 0.01525595 0.05051234 -0.01958543
v -0.02621640 0.05776445 -0.06919014
v 0.02173680 0.05176735 -0.03532995
v 0.00782400 0.05092753 -0.01472673
v -0.00757969 0.06282988 -0.02866914
v 0.00329330 0.05813544 -0.02283771
v -0.01283577 0.06532197 -0.03582320
v -0.01855965 0.06533092 -0.03748750
v -0.02556781 0.05571865 -0.01856893
v -0.01999687 0.06088639 -0.02546424
v -0.03119113 0.05649757 -0.02295537
v -0.02381357 0.06532809 -0.04197967
v -0.01583110 0.05483783 -0.01475632
v -0.01078500 0.05779109 -0.01867573
v -0.00010273 0.05376528 -0.01489807
v -0.00685301 0.06012640 -0.02300509
v -0.03801759 0.05979029 -0.03911857
v -0.02984951 0.06232201 -0.03567658
v -0.04836081 0.04983962 -0.03031413
v -0.00902606 0.05442128 -0.01403282
v -0.00159947 0.04833063 -0.00816994
v -0.03914206 0.05480542 -0.02704716
v -0.03740877 0.05080062 -0.01890652
v -0.02655520 0.04678106 -0.00298854
v -0.04088205 0.04498422 -0.00349164
v -0.02828806 0.04612359 0.00227071
v 0.01701184 0.04376890 -0.07273929
v -0.03701185 0.04597377 -0.07551239
v -0.03009532 0.03852114 -0.08701523
v 0.03247543 0.00826712 -0.10078450
v 0.02381862 0.03054581 -0.08345734
v 0.03307108 0.01731094 -0.08778583
v -0.02757670 0.01083813 -0.11110653
v -0.01776341 0.01170646 -0.11469046
v -0.02249279 0.01889803 -0.10738280
v 0.04270777 0.00477041 -0.04995495
v 0.04262181 -0.00412060 -0.04505411
v -0.04290956 0.04556113 -0.01360025
v -0.03531548 0.04622078 -0.00557915
v -0.04487746 0.04366844 -0.00777924
v -0.03482619 0.03385331 -0.08826475
v -0.02890946 0.02793287 -0.09698018
v 0.02733476 0.01225250 -0.10245027
v 0.03814001 0.01634272 -0.04204295
v -0.03818097 0.02352322 -0.09421215
v 0.01371568 0.04274111 -0.07788572
v 0.04928926 -0.01607946 -0.06369016
v 0.04624175 -0.01553825 -0.05284119
v -0.03541477 0.00664705 -0.10872438
v 0.01740197 0.02249468 -0.09984817
v -0.04429983 0.04283285 -0.07183816
v 0.00845200 0.04123615 -0.08398267
v 0.02174936 0.01148198 -0.10836200
v 0.04250900 0.00901232 -0.05492423
v -0.04176582 0.01523010 -0.09707105
v 0.03832115 0.01922692 -0.04736044
v -0.04522214 0.03086451 -0.08134397
v -0.03693229 -0.00059536 -0.11209075
v 0.04930995 -0.01118693 -0.06983121
v 0.01323297 0.02310217 -0.10187419
v -0.00302345 0.04937173 -0.07938374
v 0.00449969 0.03923933 -0.08847497
v 0.04473599 0.00440886 -0.06687041
v -0.05144911 0.03683595 -0.06780304
v -0.02892162 0.03648337 0.00402257
v 0.03076137 0.03700525 -0.04445747
v -0.04641276 0.03360856 -0.00329015
v 0.04805732 -0.00594911 -0.07607272
v -0.04974591 0.02439391 -0.08065612
v 0.00490866 0.02342879 -0.10507490
v -0.04568589 0.02614293 -0.00544494
v -0.04544934 0.00960433 -0.09680335
v 0.04005003 0.01679883 -0.05981515
v -0.04254919 0.04392762 -0.01481656
v -0.00056495 0.03948439 -0.09001202
v -0.04887355 0.00332828 -0.09609830
v 0.03435414 0.02877519 -0.05909587
v -0.05403942 0.01748995 -0.07853935
v 0.00590081 0.00990657 -0.11727817
v 0.02855211 0.04088897 -0.04766318
v 0.04157461 0.01265642 -0.06613569
v 0.04454417 0.00154220 -0.08178943
v -0.04712254 -0.00821372 -0.10487758
v -0.05582039 0.03228152 -0.06353652
v -0.01124005 0.04859147 -0.08164264
v -0.00886277 0.03350687 -0.09727437
v -0.00398511 0.02284503 -0.10717527
v -0.05479384 0.00339813 -0.08569301
v -0.05021188 -0.01902644 -0.10456434
v 0.03693410 0.02019085 -0.07206763
v -0.01682073 0.05239329 -0.07724325
v 0.02991554 0.03486484 -0.06267799
v -0.05843657 0.02702387 -0.06134028
v -0.00610220 0.01706324 -0.11232135
v -0.01372050 0.02831353 -0.10177972
v 0.04004169 0.00817312 -0.08593544
v -0.05898591 0.00717777 -0.07295885
v -0.05364253 -0.01999665 -0.09778727
v 0.05994664 -0.00444843 0.06120492
v 0.06170551 0.01037281 0.05817897
v 0.06243547 0.00572108 0.06973978
v -0.02011821 0.03923735 -0.09028121
v -0.05783005 -0.00489642 -0.08190509
v 0.03020246 0.03130087 -0.07004177
v 0.05323321 0.03420442 0.09262752
v -0.06024629 0.01730912 -0.06259191
v -0.00970175 0.01083609 -0.11716337
v 0.05634914 0.03040702 0.08869994
v 0.02175763 0.04615815 -0.06035014
v 0.05964798 0.02926343 0.07674845
v 0.06004976 0.02203245 0.08368511
v -0.05647866 -0.02283587 -0.09033309
v 0.06045931 0.00527240 0.05416805
v -0.05708772 -0.03031838 -0.08683319
v -0.03800019 -0.03060607 -0.02459895
v -0.04705061 -0.01910823 -0.02515075
v -0.04071146 -0.04642305 -0.04048363
v -0.05899603 -0.02569094 -0.07569923
v -0.06130665 -0.00053724 -0.06592254
v -0.06020402 -0.00644800 -0.07326914
v -0.06099414 -0.01310636 -0.06368008
v 0.06227301 0.01587948 0.07551760
v 0.06203897 0.00419015 0.07427630
v -0.03565218 -0.05073784 -0.03914006
v -0.06221603 0.00047884 -0.05465355
v -0.03934785 -0.00444559 -0.00798506
v -0.04312738 -0.01170567 -0.01567109
v -0.06235634 0.00761681 -0.04403470
v -0.06236895 0.02293251 -0.03433387
v -0.03204192 -0.03051174 -0.02030323
v -0.06127099 0.00771832 -0.03595234
v -0.05769615 -0.03246897 -0.06671944
v -0.03203323 -0.01495737 -0.00997224
v -0.06007006 -0.01251762 -0.04952029
v -0.02548410 -0.04909382 -0.03063881
v -0.05993868 0.01640510 -0.02488817
v -0.05566889 -0.03372114 -0.05690086
v -0.05883857 -0.01178034 -0.04294685
v -0.01708032 -0.06324076 -0.03853441
v -0.05833514 0.00325427 -0.02868566
v -0.05531626 0.01362897 -0.01572363
v 0.06089036 0.01450929 0.08368921
v -0.05382181 -0.02848291 -0.04495245
v -0.05458269 -0.01418554 -0.03339163
v 0.06244256 0.01586433 0.06469595
v 0.02737698 -0.04283423 -0.03409861
v -0.05489209 -0.00016364 -0.02332944
v 0.03102670 -0.03821866 -0.03501663
v 0.05922728 0.03177706 0.07252318
v -0.05202980 -0.04046424 -0.05384631
v 0.06124879 0.02488044 0.06685723
v 0.03473894 -0.03435766 -0.03718161
v -0.05150276 -0.00262223 -0.01937429
v 0.04011944 -0.03047312 -0.04268289
v 0.03838151 -0.01989291 -0.03731043
v -0.05247195 0.00977666 -0.01298969
v -0.05143135 -0.02776291 -0.03907855
v 0.03849746 -0.01081347 -0.03601851
v 0.04564295 -0.02248284 -0.05106954
v -0.04635807 -0.02993621 -0.03291959
v -0.04533796 -0.04504651 -0.04539848
v -0.06213644 0.01932251 -0.05134493
v -0.06185982 0.03110994 -0.04064818
v -0.05608067 0.03887569 -0.02671919
v -0.04955738 0.04524862 -0.02442175
v 0.05769727 -0.01125704 0.06228046
v -0.05896705 0.03366768 -0.02752440
v -0.05552931 0.02349765 -0.01549772
v -0.06161993 0.03074859 -0.03490142
v -0.06085513 0.02490292 -0.02706742
v -0.05119940 0.02923349 -0.01205409
v -0.05396198 0.03299885 -0.01763288
v -0.04730051 0.03554394 -0.01212870
v -0.05067293 0.04064618 -0.02025447
v -0.03306381 0.04896948 -0.01370941
v -0.03781494 0.03804113 -0.00682216
v -0.04152967 0.04469037 -0.01505793
v 0.06140403 0.02091882 0.06044850
v 0.04634826 0.02482053 0.03076418
v 0.02863628 0.02771465 0.01356943
v 0.03935028 0.03182873 0.02527194
v 0.05140449 0.03986427 0.04952307
v 0.04568398 0.04332430 0.04408695
v 0.05056383 0.04497905 0.05917374
v 0.02426801 0.00644054 0.01033689
v 0.02441908 0.01162011 0.00730391
v 0.02505625 0.02152995 0.00747427
v 0.03205449 0.04203694 0.02603379
v 0.02271476 0.04583071 0.02463576
v 0.03072978 0.04709244 0.03247600
v 0.02534634 0.00181565 0.01650461
v 0.02717812 0.00875060 0.01462042
v 0.00106473 0.04450803 0.01293639
v -0.02226414 0.04960065 0.01528153
v 0.01767907 0.03991866 0.01219990
v 0.01269261 0.03948994 0.00581186
v 0.00300865 0.04302039 0.00991575
v 0.01361482 0.05221543 0.03094736
v -0.01447467 0.06058785 0.03719186
v 0.00696079 0.05524838 0.03414076
v 0.04397502 0.04700258 0.04913496
v 0.02625908 0.03365986 0.01346336
v 0.02024117 0.03370512 0.00591752
v 0.05808010 0.03027677 0.05531030
v 0.05929438 0.01949372 0.05036306
v 0.05487032 0.03275929 0.04828366
v 0.05570173 0.03662985 0.05643072
v 0.03036097 0.05309451 0.04757906
v 0.02247793 0.05306308 0.03907531
v 0.01897169 0.05848028 0.05525455
v 0.02229554 0.02882610 0.00477786
v 0.03932558 0.05066504 0.05194853
v 0.05091844 0.01617936 0.03549711
v 0.04607336 0.01235316 0.03128652
v 0.03233153 0.02350366 0.01706027
v 0.02526667 0.03702885 0.01508813
v 0.02786684 -0.00512646 0.02506329
v 0.01957766 -0.01202421 0.02241528
v 0.04491943 0.03378003 0.03235259
v 0.04097894 0.03841200 0.03117484
v 0.02609134 -0.01521744 0.03205757
v 0.05229560 0.00180178 0.04052218
v 0.03541038 0.00691910 0.02433790
v 0.03793797 0.04425257 0.03485047
v 0.02934862 0.04978320 0.03677169
v 0.04807991 -0.01479524 0.04653492
v 0.04546446 -0.01161133 0.04180218
v 0.04886371 -0.00289244 0.03932786
v 0.03337244 0.01258755 0.02016275
v 0.00824507 0.05836779 0.04422509
v -0.00599372 0.06074846 0.04217480
v 0.04700916 0.03912667 0.03999785
v -0.00820233 0.05378152 0.02540579
v 0.05312630 -0.01090433 0.04917806
v 0.05236645 0.03221799 0.04236672
v 0.05191073 -0.01827320 0.05641348
v 0.03518586 -0.00478676 0.03059446
v 0.05572948 0.01750305 0.04203177
v -0.01908766 0.04829322 -0.00561903
v 0.02371268 0.01395069 -0.00153092
v 0.05796621 0.01010379 0.04627128
v 0.01386282 0.04891643 0.02509988
v 0.05713918 -0.00698118 0.05321056
v 0.01952866 0.03419008 -0.00786844
v 0.04630706 -0.02145831 0.05248507
v 0.01972873 0.03182102 -0.00433883
v -0.00251849 0.04487123 -0.00238766
v -0.01916425 0.04554825 0.00329700
v 0.02294314 0.02157053 -0.00256197
v 0.01100118 0.04051578 -0.00336931
v 0.02289257 0.02443839 0.00291956
v 0.00884224 0.04068482 0.00387633
v 0.01898979 0.02148633 0.12160463
v 0.02287977 0.00971068 0.12259988
v 0.02799036 0.02341153 0.12046404
v 0.03871374 -0.02026986 0.10404356
v 0.04150757 -0.02581785 0.09387872
v 0.04390099 -0.02208375 0.09635308
v 0.02868016 -0.03228384 0.09135555
v 0.03794020 -0.03122585 0.08587243
v 0.02892774 0.01217751 0.12167281
v 0.03485474 0.02506068 0.11753805
v 0.03612480 0.01392804 0.11871731
v 0.03088396 -0.03374021 0.08478390
v 0.03337216 -0.03410314 0.07702179
v 0.03810006 -0.03247747 0.07823551
v 0.04357429 -0.02771185 0.08621892
v 0.02966269 0.00339571 0.12073154
v 0.01902443 0.00080914 0.12135375
v 0.03534518 -0.03339040 0.07114161
v 0.04347705 -0.02982566 0.07441417
v 0.02545793 -0.00840309 0.11794887
v 0.02006544 -0.00780463 0.11846842
v 0.03724796 0.00330723 0.11733846
v 0.03110542 -0.00961793 0.11596072
v 0.04456941 -0.02858222 0.06729512
v 0.03803743 -0.03102968 0.06338364
v 0.02105211 -0.01448868 0.11479395
v 0.04816420 -0.02621960 0.07227681
v 0.02647187 -0.01849915 0.11142787
v 0.04422587 -0.02713475 0.06086171
v 0.04064245 -0.02663884 0.05520153
v 0.02760850 0.03597546 0.11538829
v 0.02127380 0.03747931 0.11506350
v 0.03271998 -0.01652845 0.11102723
v 0.02328030 -0.02190946 0.10865501
v 0.03242563 0.03537686 0.11421848
v 0.02026406 0.03216757 0.11801805
v 0.02653202 0.03007419 0.11855523
v 0.03018623 -0.02341941 0.04275629
v 0.00988173 -0.02995426 0.03911258
v 0.02949174 -0.02391765 0.10537350
v 0.01430621 -0.02681517 0.10302351
v 0.02995604 -0.02735832 0.10066590
v -0.05144745 0.00394652 0.10846784
v -0.05041348 0.01018847 0.10935508
v -0.01701316 -0.00012652 0.11607518
v 0.00897157 0.00712536 0.12135579
v -0.01921188 0.00428806 0.11649445
v -0.03602440 0.00785524 0.11312067
v -0.03593065 0.00097959 0.11214776
v 0.01198796 -0.03758269 0.07883428
v 0.01471134 -0.03340743 0.09192532
v -0.00628370 -0.03850601 0.08070619
v -0.02088088 -0.03953196 0.07767786
v -0.01234883 -0.03700923 0.08500770
v -0.03889120 -0.04022842 0.07290374
v 0.00608822 -0.00544194 0.11809337
v -0.02358299 -0.00431559 0.11356912
v 0.00081074 0.04203660 0.11032870
v -0.00853729 -0.04024846 0.07372397
v -0.03403207 -0.03748665 0.08116442
v -0.04641052 0.04898967 0.09564561
v -0.02092828 0.04797006 0.10233616
v -0.03515961 -0.04260406 0.06143301
v -0.04950115 -0.01098999 0.10438056
v -0.02350802 -0.01110669 0.11082228
v -0.00424059 -0.01259539 0.11344780
v -0.02619223 0.04136935 0.10656019
v 0.00707726 -0.03915809 0.06760188
v -0.03418401 -0.01461207 0.10655534
v -0.05428653 -0.02166099 0.09612446
v -0.01939768 -0.04207344 0.06166053
v 0.01754423 -0.03740534 0.07035493
v -0.01314584 -0.01995693 0.10724824
v -0.03763732 0.03801468 0.10603024
v -0.04443344 -0.01856233 0.10139132
v -0.01011214 0.03833981 0.11137099
v 0.00225068 -0.01726043 0.11134522
v -0.01979859 -0.04121165 0.05031782
v 0.00274349 0.03158702 0.11663207
v -0.03190096 -0.04240163 0.05093973
v -0.04322344 0.01390167 0.11138273
v -0.01489170 0.03126632 0.11410044
v -0.03295367 -0.02074944 0.10271105
v -0.00575692 -0.03988489 0.05405012
v -0.00382380 -0.02286535 0.10610337
v 0.01059063 -0.03710421 0.05630270
v -0.04895699 0.03458078 0.10477087
v 0.00228678 0.02626295 0.11853995
v -0.03499895 0.02987598 0.11039697
v -0.02790358 -0.02646993 0.09868509
v -0.00051167 0.01222720 0.12029493
v -0.04588861 -0.02740125 0.09328046
v -0.00977063 -0.03795817 0.04403934
v -0.00764705 -0.02719817 0.10120711
v 0.01648881 -0.03365794 0.05054115
v -0.00649169 -0.03299716 0.09331326
v -0.00772287 0.01866000 0.11869954
v -0.05138817 0.02766869 0.10674036
v -0.02768955 -0.03911893 0.03842662
v -0.02218701 -0.03197462 0.09304556
v 0.00450228 -0.02972723 0.09890562
v -0.03542978 0.02069568 0.11270080
v 0.02437880 -0.03081309 0.05021071
v -0.01102764 -0.03435289 0.03532344
v -0.03250187 0.01550428 0.11401954
v 0.01674181 -0.03063557 0.09723520
v -0.03641861 -0.03341917 0.08805393
vt 0.56458333 0.34821429
vt 0.56458333 0.34821429
vt 0.56458333 0.34821429
vt 0.56458333 0.34821429
vt 0.56458333 0.34821429
vt 0.56458333 0.34821429
vt 0.56458333 0.34821429
vt 0.56458333 0.34821429
vt 0.56458333 0.34821429
vt 0.56458333 0.34821429
vt 0.56458333 0.34821429
vt 0.56458333 0.34821429
vt 0.56458333 0.34821429
vt 0.56458333 0.34821429
vt 0.56458333 0.34821429
vt 0.56458333 0.34821429
vt 0.56458333 0.34821429
vt 0.56458333 0.34821429
vt 0.56458333 0.34821429
vt 0.56458333 0.34821429
vt 0.56458333 0.34821429
vt 0.56458333 0.34821429
vt 0.56458333 0.34821429
vt 0.56458333 0.34821429
vt 0.56458333 0.34821429
vt 0.56458333 0.34821429
vt 0.56458333 0.34821429
vt 0.56458333 0.34821429
vt 0.56458333 0.34821429
vt 0.56458333 0.34821429
vt 0.56458333 0.34821429
vt 0.56458333 0.34821429
vt 0.56458333 0.34821429
vt 0.56458333 0.34821429
vt 0.56458333 0.34821429
vt 0.56458333 0.34821429
vt 0.56458333 0.34821429
vt 0.56458333 0.34821429
vt 0.56458333 0.34821429
vt 0.56458333 0.34821429
vt 0.56458333 0.34821429
vt 0.56458333 0.34821429
vt 0.56458333 0.34821429
vt 0.56458333 0.34821429
vt 0.56458333 0.34821429
vt 0.56458333 0.34821429
vt 0.56458333 0.34821429
vt 0.56458333 0.34821429
vt 0.56458333 0.34821429
vt 0.56458333 0.34821429
vt 0.56458333 0.34821429
vt 0.56458333 0.34821429
vt 0.56458333 0.34821429
vt 0.56458333 0.34821429
vt 0.56458333 0.34821429
vt 0.56458333 0.34821429
vt 0.56458333 0.34821429
vt 0.56458333 0.34821429
vt 0.56458333 0.34821429
vt 0.56458333 0.34821429
vt 0.56458333 0.34821429
vt 0.56458333 0.34821429
vt 0.56458333 0.34821429
vt 0.56458333 0.34821429
vt 0.56458333 0.34821429
vt 0.56458333 0.34821429
vt 0.56458333 0.34821429
vt 0.56458333 0.34821429
vt 0.56458333 0.34821429
vt 0.56458333 0.34821429
vt 0.56458333 0.34821429
vt 0.56458333 0.34821429
vt 0.56458333 0.34821429
vt 0.56458333 0.34821429
vt 0.56458333 0.34821429
vt 0.56458333 0.34821429
vt 0.56458333 0.34821429
vt 0.56458333 0.34821429
vt 0.56458333 0.34821429
vt 0.56458333 0.34821429
vt 0.56458333 0.34821429
vt 0.56458333 0.34821429
vt 0.56458333 0.34821429
vt 0.56458333 0.34821429
vt 0.56458333 0.34821429
vt 0.56458333 0.34821429
vt 0.56458333 0.34821429
vt 0.56458333 0.34821429
vt 0.56458333 0.34821429
vt 0.56458333 0.34821429
vt 0.56458333 0.34821429
vt 0.56458333 0.34821429
vt 0.56458333 0.34821429
vt 0.56458333 0.34821429
vt 0.56458333 0.34821429
vt 0.56458333 0.34821429
vt 0.56458333 0.34821429
vt 0.56458333 0.34821429
vt 0.56458333 0.34821429
vt 0.56458333 0.34821429
vt 0.56458333 0.34821429
vt 0.56458333 0.34821429
vt 0.56458333 0.34821429
vt 0.56458333 0.34821429
vt 0.56458333 0.34821429
vt 0.56458333 0.34821429
vt 0.56458333 0.34821429
vt 0.56458333 0.34821429
vt 0.56458333 0.34821429
vt 0.56458333 0.34821429
vt 0.56458333 0.34821429
vt 0.56458333 0.34821429
vt 0.56458333 0.34821429
vt 0.56458333 0.34821429
vt 0.56458333 0.34821429
vt 0.56458333 0.34821429
vt 0.56458333 0.34821429
vt 0.56458333 0.34821429
vt 0.56458333 0.34821429
vt 0.56458333 0.34821429
vt 0.56458333 0.34821429
vt 0.56458333 0.34821429
vt 0.56458333 0.34821429
vt 0.56458333 0.34821429
vt 0.56458333 0.34821429
vt 0.56458333 0.34821429
vt 0.56458333 0.34821429
vt 0.56458333 0.34821429
vt 0.56458333 0.34821429
vt 0.56458333 0.34821429
vt 0.56458333 0.34821429
vt 0.56458333 0.34821429
vt 0.56458333 0.34821429
vt 0.56458333 0.34821429
vt 0.56458333 0.34821429
vt 0.56458333 0.34821429
vt 0.56458333 0.34821429
vt 0.56458333 0.34821429
vt 0.56458333 0.34821429
vt 0.56458333 0.34821429
vt 0.56458333 0.34821429
vt 0.56458333 0.34821429
vt 0.56458333 0.34821429
vt 0.56458333 0.34821429
vt 0.56458333 0.34821429
vt 0.56458333 0.34821429
vt 0.56458333 0.34821429
vt 0.56458333 0.34821429
vt 0.56458333 0.34821429
vt 0.56458333 0.34821429
vt 0.56458333 0.34821429
vt 0.56458333 0.34821429
vt 0.56458333 0.34821429
vt 0.56458333 0.34821429
vt 0.56458333 0.34821429
vt 0.56458333 0.34821429
vt 0.56458333 0.34821429
vt 0.56458333 0.34821429
vt 0.56458333 0.34821429
vt 0.56458333 0.34821429
vt 0.56458333 0.34821429
vt 0.56458333 0.34821429
vt 0.56458333 0.34821429
vt 0.56458333 0.34821429
vt 0.56458333 0.34821429
vt 0.56458333 0.34821429
vt 0.56458333 0.34821429
vt 0.56458333 0.34821429
vt 0.56458333 0.34821429
vt 0.56458333 0.34821429
vt 0.56458333 0.34821429
vt 0.56458333 0.34821429
vt 0.56458333 0.34821429
vt 0.56458333 0.34821429
vt 0.56458333 0.34821429
vt 0.56458333 0.34821429
vt 0.56458333 0.34821429
vt 0.56458333 0.34821429
vt 0.56458333 0.34821429
vt 0.56458333 0.34821429
vt 0.56458333 0.34821429
vt 0.16458333 0.34821429
vt 0.16458333 0.34821429
vt 0.16458333 0.34821429
vt 0.16458333 0.34821429
vt 0.16458333 0.34821429
vt 0.16458333 0.34821429
vt 0.16458333 0.34821429
vt 0.16458333 0.34821429
vt 0.16458333 0.34821429
vt 0.16458333 0.34821429
vt 0.16458333 0.34821429
vt 0.16458333 0.34821429
vt 0.16458333 0.34821429
vt 0.16458333 0.34821429
vt 0.16458333 0.34821429
vt 0.16458333 0.34821429
vt 0.16458333 0.34821429
vt 0.16458333 0.34821429
vt 0.16458333 0.34821429
vt 0.16458333 0.34821429
vt 0.16458333 0.34821429
vt 0.16458333 0.34821429
vt 0.16458333 0.34821429
vt 0.16458333 0.34821429
vt 0.16458333 0.34821429
vt 0.16458333 0.34821429
vt 0.16458333 0.34821429
vt 0.16458333 0.34821429
vt 0.16458333 0.34821429
vt 0.16458333 0.34821429
vt 0.16458333 0.34821429
vt 0.16458333 0.34821429
vt 0.16458333 0.34821429
vt 0.16458333 0.34821429
vt 0.16458333 0.34821429
vt 0.16458333 0.34821429
vt 0.16458333 0.34821429
vt 0.16458333 0.34821429
vt 0.16458333 0.34821429
vt 0.16458333 0.34821429
vt 0.16458333 0.34821429
vt 0.16458333 0.34821429
vt 0.16458333 0.34821429
vt 0.16458333 0.34821429
vt 0.16458333 0.34821429
vt 0.16458333 0.34821429
vt 0.16458333 0.34821429
vt 0.16458333 0.34821429
vt 0.16458333 0.34821429
vt 0.16458333 0.34821429
vt 0.16458333 0.34821429
vt 0.16458333 0.34821429
vt 0.16458333 0.34821429
vt 0.16458333 0.34821429
vt 0.16458333 0.34821429
vt 0.16458333 0.34821429
vt 0.16458333 0.34821429
vt 0.16458333 0.34821429
vt 0.16458333 0.34821429
vt 0.16458333 0.34821429
vt 0.16458333 0.34821429
vt 0.16458333 0.34821429
vt 0.16458333 0.34821429
vt 0.16458333 0.34821429
vt 0.16458333 0.34821429
vt 0.16458333 0.34821429
vt 0.16458333 0.34821429
vt 0.16458333 0.34821429
vt 0.16458333 0.34821429
vt 0.16458333 0.34821429
vt 0.16458333 0.34821429
vt 0.16458333 0.34821429
vt 0.16458333 0.34821429
vt 0.16458333 0.34821429
vt 0.16458333 0.34821429
vt 0.16458333 0.34821429
vt 0.16458333 0.34821429
vt 0.16458333 0.34821429
vt 0.16458333 0.34821429
vt 0.16458333 0.34821429
vt 0.16458333 0.34821429
vt 0.16458333 0.34821429
vt 0.16458333 0.34821429
vt 0.16458333 0.34821429
vt 0.16458333 0.34821429
vt 0.16458333 0.34821429
vt 0.16458333 0.34821429
vt 0.16458333 0.34821429
vt 0.16458333 0.34821429
vt 0.16458333 0.34821429
vt 0.16458333 0.34821429
vt 0.16458333 0.34821429
vt 0.16458333 0.34821429
vt 0.16458333 0.34821429
vt 0.16458333 0.34821429
vt 0.16458333 0.34821429
vt 0.16458333 0.34821429
vt 0.16458333 0.34821429
vt 0.16458333 0.34821429
vt 0.16458333 0.34821429
vt 0.16458333 0.34821429
vt 0.16458333 0.34821429
vt 0.16458333 0.34821429
vt 0.16458333 0.34821429
vt 0.16458333 0.34821429
vt 0.16458333 0.34821429
vt 0.16458333 0.34821429
vt 0.16458333 0.34821429
vt 0.16458333 0.34821429
vt 0.16458333 0.34821429
vt 0.16458333 0.34821429
vt 0.16458333 0.34821429
vt 0.16458333 0.34821429
vt 0.16458333 0.34821429
vt 0.16458333 0.34821429
vt 0.16458333 0.34821429
vt 0.16458333 0.34821429
vt 0.16458333 0.34821429
vt 0.16458333 0.34821429
vt 0.16458333 0.34821429
vt 0.16458333 0.34821429
vt 0.16458333 0.34821429
vt 0.16458333 0.34821429
vt 0.16458333 0.34821429
vt 0.16458333 0.34821429
vt 0.16458333 0.34821429
vt 0.16458333 0.34821429
vt 0.16458333 0.34821429
vt 0.16458333 0.34821429
vt 0.16458333 0.34821429
vt 0.16458333 0.34821429
vt 0.16458333 0.34821429
vt 0.16458333 0.34821429
vt 0.16458333 0.34821429
vt 0.16458333 0.34821429
vt 0.16458333 0.34821429
vt 0.16458333 0.34821429
vt 0.16458333 0.34821429
vt 0.16458333 0.34821429
vt 0.16458333 0.34821429
vt 0.16458333 0.34821429
vt 0.16458333 0.34821429
vt 0.16458333 0.34821429
vt 0.16458333 0.34821429
vt 0.16458333 0.34821429
vt 0.16458333 0.34821429
vt 0.16458333 0.34821429
vt 0.16458333 0.34821429
vt 0.16458333 0.34821429
vt 0.16458333 0.34821429
vt 0.16458333 0.34821429
vt 0.16458333 0.34821429
vt 0.16458333 0.34821429
vt 0.16458333 0.34821429
vt 0.16458333 0.34821429
vt 0.16458333 0.34821429
vt 0.16458333 0.34821429
vt 0.16458333 0.34821429
vt 0.16458333 0.34821429
vt 0.16458333 0.34821429
vt 0.16458333 0.34821429
vt 0.16458333 0.34821429
vt 0.16458333 0.34821429
vt 0.16458333 0.34821429
vt 0.16458333 0.34821429
vt 0.16458333 0.34821429
vt 0.16458333 0.34821429
vt 0.16458333 0.34821429
vt 0.16458333 0.34821429
vt 0.16458333 0.34821429
vt 0.16458333 0.34821429
vt 0.16458333 0.34821429
vt 0.16458333 0.34821429
vt 0.16458333 0.34821429
vt 0.16458333 0.34821429
vt 0.16458333 0.34821429
vt 0.16458333 0.34821429
vt 0.16458333 0.34821429
vt 0.16458333 0.34821429
vt 0.16458333 0.34821429
vt 0.16458333 0.34821429
vt 0.16458333 0.34821429
vt 0.16458333 0.34821429
vt 0.16458333 0.34821429
vt 0.16458333 0.34821429
vt 0.16458333 0.34821429
vt 0.16458333 0.34821429
vt 0.16458333 0.34821429
vt 0.16458333 0.34821429
vt 0.16458333 0.34821429
vt 0.16458333 0.34821429
vt 0.16458333 0.34821429
vt 0.16458333 0.34821429
vt 0.16458333 0.34821429
vt 0.16458333 0.34821429
vt 0.16458333 0.34821429
vt 0.16458333 0.34821429
vt 0.16458333 0.34821429
vt 0.16458333 0.34821429
vt 0.16458333 0.34821429
vt 0.16458333 0.34821429
vt 0.16458333 0.34821429
vt 0.16458333 0.34821429
vt 0.16458333 0.34821429
vt 0.16458333 0.34821429
vt 0.16458333 0.34821429
vt 0.16458333 0.34821429
vt 0.16458333 0.34821429
vt 0.16458333 0.34821429
vt 0.16458333 0.34821429
vt 0.16458333 0.34821429
vt 0.16458333 0.34821429
vt 0.16458333 0.34821429
vt 0.16458333 0.34821429
vt 0.16458333 0.34821429
vt 0.16458333 0.34821429
vt 0.16458333 0.34821429
vt 0.16458333 0.34821429
vt 0.16458333 0.34821429
vt 0.16458333 0.34821429
vt 0.16458333 0.34821429
vt 0.16458333 0.34821429
vt 0.16458333 0.34821429
vt 0.16458333 0.34821429
vt 0.16458333 0.34821429
vt 0.16458333 0.34821429
vt 0.16458333 0.34821429
vt 0.16458333 0.34821429
vt 0.16458333 0.34821429
vt 0.16458333 0.34821429
vt 0.16458333 0.34821429
vt 0.16458333 0.34821429
vt 0.16458333 0.34821429
vt 0.16458333 0.34821429
vt 0.16458333 0.34821429
vt 0.16458333 0.34821429
vt 0.16458333 0.34821429
vt 0.16458333 0.34821429
vt 0.16458333 0.34821429
vt 0.16458333 0.34821429
vt 0.16458333 0.34821429
vt 0.16458333 0.34821429
vt 0.16458333 0.34821429
vt 0.16458333 0.34821429
vt 0.16458333 0.34821429
vt 0.16458333 0.34821429
vt 0.16458333 0.34821429
vt 0.16458333 0.34821429
vt 0.16458333 0.34821429
vt 0.16458333 0.34821429
vt 0.16458333 0.34821429
vt 0.16458333 0.34821429
vt 0.16458333 0.34821429
vt 0.16458333 0.34821429
vt 0.16458333 0.34821429
vt 0.16458333 0.34821429
vt 0.16458333 0.34821429
vt 0.16458333 0.34821429
vt 0.16458333 0.34821429
vt 0.16458333 0.34821429
vt 0.16458333 0.34821429
vt 0.16458333 0.34821429
vt 0.16458333 0.34821429
vt 0.16458333 0.34821429
vt 0.16458333 0.34821429
vt 0.16458333 0.34821429
vt 0.16458333 0.34821429
vt 0.16458333 0.34821429
vt 0.16458333 0.34821429
vt 0.16458333 0.34821429
vt 0.16458333 0.34821429
vt 0.16458333 0.34821429
vt 0.16458333 0.34821429
vt 0.16458333 0.34821429
vt 0.16458333 0.34821429
vt 0.16458333 0.34821429
vt 0.16458333 0.34821429
vt 0.16458333 0.34821429
vt 0.16458333 0.34821429
vt 0.16458333 0.34821429
vt 0.16458333 0.34821429
vt 0.16458333 0.34821429
vt 0.16458333 0.34821429
vt 0.16458333 0.34821429
vt 0.16458333 0.34821429
vt 0.16458333 0.34821429
vt 0.16458333 0.34821429
vt 0.16458333 0.34821429
vt 0.16458333 0.34821429
vt 0.16458333 0.34821429
vt 0.16458333 0.34821429
vt 0.16458333 0.34821429
vt 0.16458333 0.34821429
vt 0.16458333 0.34821429
vt 0.16458333 0.34821429
vt 0.16458333 0.34821429
vt 0.16458333 0.34821429
vt 0.16458333 0.34821429
vt 0.16458333 0.34821429
vt 0.16458333 0.34821429
vt 0.16458333 0.34821429
vt 0.16458333 0.34821429
vt 0.16458333 0.34821429
vt 0.16458333 0.34821429
vt 0.16458333 0.34821429
vt 0.16458333 0.34821429
vt 0.16458333 0.34821429
vt 0.16458333 0.34821429
vt 0.16458333 0.34821429
vt 0.16458333 0.34821429
vt 0.16458333 0.34821429
vt 0.16458333 0.34821429
vt 0.16458333 0.34821429
vt 0.16458333 0.34821429
vt 0.16458333 0.34821429
vt 0.16458333 0.34821429
vt 0.16458333 0.34821429
vt 0.16458333 0.34821429
vt 0.16458333 0.34821429
vt 0.16458333 0.34821429
vt 0.16458333 0.34821429
vt 0.16458333 0.34821429
vt 0.16458333 0.34821429
vt 0.16458333 0.34821429
vt 0.16458333 0.34821429
vt 0.16458333 0.34821429
vt 0.16458333 0.34821429
vt 0.16458333 0.34821429
vt 0.16458333 0.34821429
vt 0.16458333 0.34821429
vt 0.16458333 0.34821429
vt 0.16458333 0.34821429
vt 0.16458333 0.34821429
vt 0.16458333 0.34821429
vt 0.16458333 0.34821429
vt 0.16458333 0.34821429
vt 0.16458333 0.34821429
vt 0.16458333 0.34821429
vt 0.16458333 0.34821429
vt 0.16458333 0.34821429
vt 0.16458333 0.34821429
vt 0.16458333 0.34821429
vt 0.16458333 0.34821429
vt 0.16458333 0.34821429
vt 0.16458333 0.34821429
vt 0.16458333 0.34821429
vt 0.16458333 0.34821429
vt 0.16458333 0.34821429
vt 0.16458333 0.34821429
vt 0.16458333 0.34821429
vt 0.16458333 0.34821429
vt 0.16458333 0.34821429
vt 0.16458333 0.34821429
vt 0.16458333 0.34821429
vt 0.16458333 0.34821429
vt 0.16458333 0.34821429
vt 0.16458333 0.34821429
vt 0.16458333 0.34821429
vt 0.16458333 0.34821429
vt 0.16458333 0.34821429
vt 0.16458333 0.34821429
vt 0.16458333 0.34821429
vt 0.16458333 0.34821429
vt 0.16458333 0.34821429
vt 0.16458333 0.34821429
vt 0.16458333 0.34821429
vt 0.16458333 0.34821429
vt 0.16458333 0.34821429
vt 0.16458333 0.34821429
vt 0.16458333 0.34821429
vt 0.16458333 0.34821429
vt 0.16458333 0.34821429
vt 0.16458333 0.34821429
vt 0.16458333 0.34821429
vt 0.16458333 0.34821429
vt 0.16458333 0.34821429
vt 0.16458333 0.34821429
vt 0.16458333 0.34821429
vt 0.16458333 0.34821429
vt 0.16458333 0.34821429
vt 0.16458333 0.34821429
vt 0.16458333 0.34821429
vt 0.16458333 0.34821429
vt 0.16458333 0.34821429
vt 0.16458333 0.34821429
vt 0.16458333 0.34821429
vt 0.16458333 0.34821429
vt 0.16458333 0.34821429
vt 0.16458333 0.34821429
vt 0.16458333 0.34821429
vt 0.16458333 0.34821429
vt 0.16458333 0.34821429
vt 0.16458333 0.34821429
vt 0.16458333 0.34821429
vt 0.16458333 0.34821429
vt 0.16458333 0.34821429
vt 0.16458333 0.34821429
vt 0.16458333 0.34821429
vt 0.16458333 0.34821429
vt 0.16458333 0.34821429
vt 0.16458333 0.34821429
vt 0.16458333 0.34821429
vt 0.16458333 0.34821429
vt 0.16458333 0.34821429
vt 0.16458333 0.34821429
vt 0.16458333 0.34821429
vt 0.16458333 0.34821429
vt 0.16458333 0.34821429
vt 0.16458333 0.34821429
vt 0.16458333 0.34821429
vt 0.16458333 0.34821429
vt 0.16458333 0.34821429
vt 0.16458333 0.34821429
vt 0.16458333 0.34821429
vt 0.16458333 0.34821429
vt 0.16458333 0.34821429
vt 0.16458333 0.34821429
vt 0.16458333 0.34821429
vt 0.16458333 0.34821429
vt 0.16458333 0.34821429
vt 0.16458333 0.34821429
vt 0.16458333 0.34821429
vt 0.16458333 0.34821429
vt 0.16458333 0.34821429
vt 0.16458333 0.34821429
vt 0.16458333 0.34821429
vt 0.16458333 0.34821429
vt 0.16458333 0.34821429
vt 0.16458333 0.34821429
vt 0.16458333 0.34821429
vt 0.16458333 0.34821429
vt 0.16458333 0.34821429
vt 0.16458333 0.34821429
vt 0.16458333 0.34821429
vt 0.16458333 0.34821429
vt 0.16458333 0.34821429
vt 0.16458333 0.34821429
vt 0.16458333 0.34821429
vt 0.16458333 0.34821429
vt 0.16458333 0.34821429
vt 0.16458333 0.34821429
vt 0.16458333 0.34821429
vt 0.16458333 0.34821429
vt 0.16458333 0.34821429
vt 0.16458333 0.34821429
vt 0.16458333 0.34821429
vt 0.16458333 0.34821429
vt 0.16458333 0.34821429
vt 0.16458333 0.34821429
vt 0.16458333 0.34821429
vt 0.16458333 0.34821429
vt 0.16458333 0.34821429
vt 0.16458333 0.34821429
vt 0.16458333 0.34821429
vt 0.16458333 0.34821429
vt 0.16458333 0.34821429
vt 0.16458333 0.34821429
vt 0.16458333 0.34821429
vt 0.16458333 0.34821429
vt 0.16458333 0.34821429
vt 0.16458333 0.34821429
vt 0.16458333 0.34821429
vt 0.16458333 0.34821429
vt 0.16458333 0.34821429
vt 0.16458333 0.34821429
vt 0.16458333 0.34821429
vt 0.16458333 0.34821429
vt 0.16458333 0.34821429
vt 0.16458333 0.34821429
vt 0.16458333 0.34821429
vt 0.16458333 0.34821429
vt 0.16458333 0.34821429
vt 0.16458333 0.34821429
vt 0.16458333 0.34821429
vt 0.16458333 0.34821429
vt 0.16458333 0.34821429
vt 0.16458333 0.34821429
vt 0.16458333 0.34821429
vt 0.16458333 0.34821429
vt 0.16458333 0.34821429
vt 0.16458333 0.34821429
vt 0.16458333 0.34821429
vt 0.16458333 0.34821429
vt 0.16458333 0.34821429
vt 0.16458333 0.34821429
vt 0.16458333 0.34821429
vt 0.16458333 0.34821429
vt 0.16458333 0.34821429
vt 0.16458333 0.34821429
vt 0.16458333 0.34821429
vt 0.16458333 0.34821429
vt 0.16458333 0.34821429
vt 0.16458333 0.34821429
vt 0.16458333 0.34821429
vt 0.16458333 0.34821429
vt 0.16458333 0.34821429
vt 0.16458333 0.34821429
vt 0.16458333 0.34821429
vt 0.16458333 0.34821429
vt 0.16458333 0.34821429
vt 0.16458333 0.34821429
vt 0.16458333 0.34821429
vt 0.16458333 0.34821429
vt 0.16458333 0.34821429
vt 0.16458333 0.34821429
vt 0.16458333 0.34821429
vt 0.16458333 0.34821429
vt 0.16458333 0.34821429
vt 0.16458333 0.34821429
vt 0.16458333 0.34821429
vt 0.16458333 0.34821429
vt 0.16458333 0.34821429
vt 0.16458333 0.34821429
vt 0.16458333 0.34821429
vt 0.16458333 0.34821429
vt 0.16458333 0.34821429
vt 0.16458333 0.34821429
vt 0.16458333 0.34821429
vt 0.16458333 0.34821429
vt 0.16458333 0.34821429
vt 0.16458333 0.34821429
vt 0.16458333 0.34821429
vt 0.16458333 0.34821429
vt 0.16458333 0.34821429
vt 0.16458333 0.34821429
vt 0.16458333 0.34821429
vt 0.16458333 0.34821429
vt 0.16458333 0.34821429
vt 0.16458333 0.34821429
vt 0.16458333 0.34821429
vt 0.16458333 0.34821429
vt 0.16458333 0.34821429
vt 0.16458333 0.34821429
vt 0.16458333 0.34821429
vt 0.16458333 0.34821429
vt 0.16458333 0.34821429
vt 0.16458333 0.34821429
vt 0.16458333 0.34821429
vt 0.16458333 0.34821429
vt 0.16458333 0.34821429
vt 0.16458333 0.34821429
vt 0.16458333 0.34821429
vt 0.16458333 0.34821429
vt 0.16458333 0.34821429
vt 0.16458333 0.34821429
vt 0.16458333 0.34821429
vt 0.16458333 0.34821429
vt 0.16458333 0.34821429
vt 0.16458333 0.34821429
vt 0.16458333 0.34821429
vt 0.16458333 0.34821429
vt 0.16458333 0.34821429
vt 0.16458333 0.34821429
vt 0.16458333 0.34821429
vt 0.16458333 0.34821429
vt 0.16458333 0.34821429
vt 0.16458333 0.34821429
vt 0.16458333 0.34821429
vt 0.16458333 0.34821429
vt 0.16458333 0.34821429
vt 0.16458333 0.34821429
vt 0.16458333 0.34821429
vt 0.16458333 0.34821429
vt 0.16458333 0.34821429
vt 0.16458333 0.34821429
vt 0.16458333 0.34821429
vt 0.16458333 0.34821429
vt 0.16458333 0.34821429
vt 0.16458333 0.34821429
vt 0.16458333 0.34821429
vt 0.16458333 0.34821429
vt 0.16458333 0.34821429
vt 0.16458333 0.34821429
vt 0.16458333 0.34821429
vt 0.16458333 0.34821429
vt 0.16458333 0.34821429
vt 0.16458333 0.34821429
vt 0.16458333 0.34821429
vt 0.16458333 0.34821429
vt 0.16458333 0.34821429
vt 0.16458333 0.34821429
vt 0.16458333 0.34821429
vt 0.16458333 0.34821429
vt 0.16458333 0.34821429
vt 0.16458333 0.34821429
vt 0.16458333 0.34821429
vt 0.16458333 0.34821429
vt 0.16458333 0.34821429
vt 0.16458333 0.34821429
vt 0.16458333 0.34821429
vt 0.16458333 0.34821429
vt 0.16458333 0.34821429
vt 0.16458333 0.34821429
vt 0.16458333 0.34821429
vt 0.16458333 0.34821429
vt 0.16458333 0.34821429
vt 0.16458333 0.34821429
vt 0.16458333 0.34821429
vt 0.16458333 0.34821429
vt 0.16458333 0.34821429
vt 0.16458333 0.34821429
vt 0.16458333 0.34821429
vt 0.16458333 0.34821429
vt 0.16458333 0.34821429
vt 0.16458333 0.34821429
vt 0.16458333 0.34821429
vt 0.16458333 0.34821429
vt 0.16458333 0.34821429
vt 0.16458333 0.34821429
vt 0.16458333 0.34821429
vt 0.16458333 0.34821429
vt 0.16458333 0.34821429
vt 0.16458333 0.34821429
vt 0.16458333 0.34821429
vt 0.16458333 0.34821429
vt 0.16458333 0.34821429
vt 0.16458333 0.34821429
vt 0.16458333 0.34821429
vt 0.16458333 0.34821429
vt 0.16458333 0.34821429
vt 0.16458333 0.34821429
vt 0.16458333 0.34821429
vt 0.16458333 0.34821429
vt 0.16458333 0.34821429
vt 0.16458333 0.34821429
vt 0.16458333 0.34821429
vt 0.16458333 0.34821429
vt 0.16458333 0.34821429
vt 0.16458333 0.34821429
vt 0.16458333 0.34821429
vt 0.16458333 0.34821429
vt 0.16458333 0.34821429
vt 0.16458333 0.34821429
vt 0.16458333 0.34821429
vt 0.16458333 0.34821429
vt 0.16458333 0.34821429
vt 0.16458333 0.34821429
vt 0.16458333 0.34821429
vt 0.16458333 0.34821429
vt 0.16458333 0.34821429
vt 0.16458333 0.34821429
vt 0.16458333 0.34821429
vt 0.16458333 0.34821429
vt 0.16458333 0.34821429
vt 0.16458333 0.34821429
vt 0.16458333 0.34821429
vt 0.16458333 0.34821429
vt 0.16458333 0.34821429
vt 0.16458333 0.34821429
vt 0.16458333 0.34821429
vt 0.16458333 0.34821429
vt 0.16458333 0.34821429
vt 0.16458333 0.34821429
vt 0.16458333 0.34821429
vt 0.16458333 0.34821429
f 1/1 2/2 3/3
f 4/4 2/2 1/1
f 5/5 6/6 4/4
f 5/5 4/4 1/1
f 7/7 8/8 6/6
f 9/9 10/10 11/11
f 6/6 12/12 13/13
f 7/7 6/6 5/5
f 9/9 14/14 10/10
f 14/14 13/13 10/10
f 15/15 11/11 10/10
f 8/8 12/12 6/6
f 7/7 3/3 8/8
f 2/2 8/8 3/3
f 15/15 10/10 16/16
f 17/17 14/14 18/18
f 18/18 14/14 9/9
f 18/18 9/9 19/19
f 17/17 20/20 14/14
f 17/17 21/21 20/20
f 22/22 21/21 17/17
f 22/22 9/9 21/21
f 23/23 15/15 16/16
f 22/22 19/19 9/9
f 24/24 25/25 26/26
f 24/24 26/26 27/27
f 27/27 26/26 11/11
f 28/28 23/23 16/16
f 27/27 11/11 29/29
f 30/30 12/12 8/8
f 29/29 11/11 15/15
f 29/29 15/15 31/31
f 24/24 31/31 15/15
f 23/23 24/24 15/15
f 14/14 6/6 13/13
f 24/24 32/32 25/25
f 14/14 4/4 6/6
f 32/32 24/24 23/23
f 23/23 24/24 23/23
f 7/7 33/33 3/3
f 28/28 16/16 34/34
f 35/35 36/36 19/19
f 37/37 22/22 38/38
f 36/36 18/18 19/19
f 39/39 40/40 41/41
f 33/33 42/42 3/3
f 43/43 44/44 45/45
f 46/46 47/47 48/48
f 47/47 49/49 48/48
f 3/3 42/42 50/50
f 43/43 51/51 44/44
f 17/17 3/3 52/52
f 47/47 24/24 49/49
f 41/41 40/40 53/53
f 47/47 31/31 24/24
f 54/54 16/16 10/10
f 55/55 10/10 13/13
f 47/47 56/56 31/31
f 18/18 1/1 17/17
f 18/18 36/36 5/5
f 52/52 3/3 50/50
f 18/18 5/5 1/1
f 52/52 50/50 57/57
f 56/56 29/29 31/31
f 24/24 58/58 49/49
f 40/40 59/59 53/53
f 57/57 50/50 60/60
f 40/40 61/61 59/59
f 59/59 61/61 62/62
f 30/30 63/63 12/12
f 38/38 22/22 64/64
f 43/43 39/39 51/51
f 65/65 57/57 66/66
f 57/57 60/60 66/66
f 61/61 67/67 62/62
f 66/66 68/68 65/65
f 61/61 69/69 67/67
f 61/61 70/70 69/69
f 5/5 36/36 33/33
f 71/71 63/63 30/30
f 72/72 65/65 68/68
f 56/56 35/35 29/29
f 70/70 73/73 69/69
f 74/74 72/72 68/68
f 24/24 27/27 58/58
f 2/2 4/4 75/75
f 74/74 73/73 72/72
f 22/22 17/17 64/64
f 29/29 35/35 19/19
f 76/76 77/77 78/78
f 27/27 37/37 58/58
f 5/5 33/33 7/7
f 76/76 78/78 79/79
f 17/17 1/1 3/3
f 78/78 77/77 46/46
f 29/29 19/19 22/22
f 76/76 79/79 80/80
f 46/46 48/48 78/78
f 81/81 82/82 80/80
f 81/81 83/83 82/82
f 30/30 2/2 71/71
f 20/20 75/75 4/4
f 64/64 17/17 52/52
f 83/83 81/81 84/84
f 84/84 81/81 85/85
f 85/85 45/45 84/84
f 22/22 37/37 27/27
f 45/45 85/85 43/43
f 22/22 27/27 29/29
f 2/2 30/30 8/8
f 14/14 20/20 4/4
f 86/86 57/57 87/87
f 86/86 52/52 57/57
f 57/57 65/65 87/87
f 87/87 65/65 88/88
f 86/86 88/88 89/89
f 87/87 88/88 86/86
f 61/61 40/40 70/70
f 79/79 81/81 80/80
f 70/70 72/72 73/73
f 43/43 40/40 39/39
f 86/86 64/64 52/52
f 90/90 38/38 64/64
f 90/90 91/91 92/92
f 90/90 92/92 38/38
f 92/92 37/37 38/38
f 93/93 94/94 95/95
f 93/93 95/95 48/48
f 96/96 49/49 58/58
f 97/97 25/25 28/28
f 96/96 48/48 49/49
f 96/96 93/93 48/48
f 98/98 99/99 92/92
f 21/21 9/9 26/26
f 94/94 78/78 95/95
f 99/99 37/37 92/92
f 99/99 58/58 37/37
f 56/56 100/100 35/35
f 90/90 64/64 86/86
f 91/91 90/90 86/86
f 98/98 92/92 91/91
f 86/86 89/89 91/91
f 91/91 89/89 101/101
f 91/91 101/101 98/98
f 96/96 102/102 103/103
f 96/96 103/103 93/93
f 93/93 103/103 94/94
f 94/94 103/103 78/78
f 32/32 23/23 28/28
f 78/78 103/103 79/79
f 32/32 28/28 25/25
f 104/104 25/25 97/97
f 99/99 96/96 58/58
f 98/98 101/101 99/99
f 101/101 102/102 96/96
f 101/101 96/96 99/99
f 105/105 85/85 81/81
f 9/9 11/11 26/26
f 106/106 107/107 108/108
f 109/109 110/110 111/111
f 112/112 109/109 107/107
f 113/113 107/107 114/114
f 106/106 108/108 115/115
f 112/112 116/116 109/109
f 113/113 117/117 107/107
f 108/108 118/118 119/119
f 115/115 108/108 120/120
f 114/114 107/107 121/121
f 109/109 111/111 122/122
f 116/116 123/123 109/109
f 108/108 109/109 118/118
f 28/28 34/34 97/97
f 109/109 123/123 124/124
f 108/108 125/125 120/120
f 109/109 122/122 118/118
f 47/47 46/46 34/34
f 34/34 16/16 47/47
f 117/117 126/126 107/107
f 108/108 119/119 125/125
f 126/126 112/112 107/107
f 109/109 124/124 110/110
f 16/16 56/56 47/47
f 121/121 107/107 106/106
f 120/120 127/127 128/128
f 120/120 128/128 115/115
f 122/122 129/129 118/118
f 130/130 129/129 122/122
f 118/118 129/129 119/119
f 119/119 129/129 131/131
f 100/100 54/54 10/10
f 132/132 129/129 130/130
f 13/13 33/33 36/36
f 129/129 133/133 131/131
f 129/129 132/132 133/133
f 133/133 134/134 131/131
f 56/56 54/54 100/100
f 135/135 119/119 131/131
f 13/13 36/36 55/55
f 131/131 134/134 135/135
f 119/119 135/135 136/136
f 35/35 55/55 36/36
f 35/35 10/10 55/55
f 136/136 125/125 119/119
f 16/16 54/54 56/56
f 127/127 120/120 125/125
f 125/125 136/136 127/127
f 100/100 10/10 35/35
f 130/130 122/122 137/137
f 138/138 122/122 111/111
f 122/122 138/138 137/137
f 138/138 139/139 137/137
f 12/12 33/33 13/13
f 12/12 42/42 33/33
f 138/138 111/111 139/139
f 110/110 140/140 111/111
f 63/63 50/50 42/42
f 42/42 12/12 63/63
f 139/139 111/111 141/141
f 111/111 140/140 141/141
f 140/140 110/110 142/142
f 110/110 124/124 143/143
f 110/110 143/143 142/142
f 143/143 124/124 144/144
f 145/145 66/66 146/146
f 63/63 147/147 60/60
f 123/123 116/116 148/148
f 124/124 123/123 148/148
f 144/144 124/124 148/148
f 112/112 149/149 150/150
f 121/121 151/151 152/152
f 151/151 106/106 153/153
f 106/106 154/154 153/153
f 155/155 74/74 68/68
f 115/115 128/128 156/156
f 117/117 157/157 126/126
f 117/117 158/158 157/157
f 158/158 117/117 159/159
f 75/75 139/139 2/2
f 139/139 141/141 2/2
f 160/160 161/161 114/114
f 113/113 162/162 159/159
f 115/115 154/154 106/106
f 145/145 155/155 68/68
f 154/154 115/115 156/156
f 161/161 113/113 114/114
f 163/163 148/148 116/116
f 116/116 112/112 164/164
f 163/163 116/116 164/164
f 112/112 150/150 164/164
f 149/149 112/112 126/126
f 126/126 157/157 149/149
f 117/117 113/113 159/159
f 66/66 145/145 68/68
f 160/160 114/114 121/121
f 121/121 152/152 160/160
f 137/137 139/139 75/75
f 162/162 113/113 161/161
f 121/121 106/106 151/151
f 127/127 165/165 128/128
f 60/60 146/146 66/66
f 20/20 137/137 75/75
f 130/130 137/137 21/21
f 130/130 21/21 132/132
f 21/21 26/26 132/132
f 137/137 20/20 21/21
f 127/127 166/166 165/165
f 132/132 26/26 133/133
f 133/133 26/26 25/25
f 148/148 155/155 145/145
f 46/46 77/77 166/166
f 133/133 25/25 104/104
f 148/148 145/145 146/146
f 147/147 146/146 60/60
f 133/133 104/104 134/134
f 165/165 166/166 76/76
f 134/134 97/97 135/135
f 165/165 76/76 80/80
f 144/144 146/146 147/147
f 135/135 97/97 136/136
f 166/166 77/77 76/76
f 136/136 97/97 34/34
f 136/136 167/167 127/127
f 147/147 143/143 144/144
f 167/167 166/166 127/127
f 63/63 60/60 50/50
f 104/104 97/97 134/134
f 167/167 46/46 166/166
f 136/136 34/34 167/167
f 34/34 46/46 167/167
f 63/63 143/143 147/147
f 165/165 168/168 156/156
f 156/156 168/168 154/154
f 165/165 156/156 128/128
f 168/168 165/165 80/80
f 143/143 63/63 71/71
f 168/168 80/80 82/82
f 142/142 71/71 140/140
f 142/142 143/143 71/71
f 169/169 53/53 59/59
f 169/169 59/59 170/170
f 53/53 169/169 171/171
f 2/2 140/140 71/71
f 74/74 155/155 172/172
f 173/173 44/44 51/51
f 69/69 172/172 174/174
f 73/73 172/172 69/69
f 69/69 174/174 175/175
f 146/146 144/144 148/148
f 44/44 176/176 45/45
f 175/175 67/67 69/69
f 67/67 175/175 177/177
f 141/141 140/140 2/2
f 170/170 59/59 177/177
f 177/177 59/59 62/62
f 178/178 39/39 41/41
f 179/179 84/84 45/45
f 178/178 173/173 51/51
f 173/173 180/180 44/44
f 44/44 180/180 176/176
f 45/45 176/176 179/179
f 157/157 175/175 149/149
f 84/84 179/179 181/181
f 169/169 158/158 159/159
f 181/181 83/83 84/84
f 170/170 175/175 157/157
f 39/39 178/178 51/51
f 82/82 181/181 168/168
f 172/172 73/73 74/74
f 155/155 148/148 163/163
f 181/181 82/82 83/83
f 176/176 180/180 152/152
f 171/171 178/178 41/41
f 175/175 170/170 177/177
f 177/177 62/62 67/67
f 171/171 41/41 53/53
f 178/178 171/171 162/162
f 178/178 162/162 161/161
f 153/153 179/179 151/151
f 180/180 160/160 152/152
f 173/173 161/161 160/160
f 171/171 169/169 159/159
f 181/181 154/154 168/168
f 172/172 155/155 163/163
f 169/169 170/170 158/158
f 181/181 153/153 154/154
f 181/181 179/179 153/153
f 180/180 173/173 160/160
f 175/175 174/174 149/149
f 174/174 150/150 149/149
f 171/171 159/159 162/162
f 170/170 157/157 158/158
f 179/179 176/176 151/151
f 172/172 163/163 164/164
f 174/174 172/172 150/150
f 151/151 176/176 152/152
f 173/173 178/178 161/161
f 172/172 164/164 150/150
f 182/182 183/183 184/184
f 185/185 186/186 183/183
f 187/187 188/188 189/189
f 182/182 184/184 190/190
f 191/191 192/192 193/193
f 194/194 195/195 183/183
f 186/186 196/196 183/183
f 197/197 198/198 183/183
f 195/195 199/199 183/183
f 200/200 191/191 193/193
f 190/190 184/184 201/201
f 196/196 202/202 183/183
f 187/187 189/189 203/203
f 183/183 204/204 184/184
f 203/203 189/189 205/205
f 206/206 207/207 208/208
f 202/202 209/209 183/183
f 201/201 184/184 210/210
f 183/183 211/211 212/212
f 183/183 212/212 204/204
f 199/199 213/213 183/183
f 201/201 210/210 214/214
f 206/206 215/215 207/207
f 213/213 216/216 183/183
f 210/210 184/184 187/187
f 201/201 214/214 217/217
f 216/216 218/218 183/183
f 215/215 219/219 207/207
f 209/209 194/194 183/183
f 211/211 220/220 212/212
f 187/187 184/184 188/188
f 184/184 204/204 221/221
f 222/222 223/223 224/224
f 217/217 214/214 219/219
f 204/204 212/212 225/225
f 218/218 197/197 183/183
f 219/219 214/214 207/207
f 185/185 183/183 182/182
f 223/223 226/226 224/224
f 227/227 228/228 229/229
f 230/230 223/223 222/222
f 231/231 232/232 233/233
f 231/231 233/233 234/234
f 235/235 232/232 231/231
f 226/226 236/236 224/224
f 237/237 238/238 239/239
f 232/232 240/240 241/241
f 235/235 231/231 242/242
f 237/237 243/243 244/244
f 239/239 245/245 246/246
f 241/241 243/243 229/229
f 232/232 241/241 233/233
f 233/233 247/247 248/248
f 241/241 229/229 249/249
f 241/241 249/249 233/233
f 244/244 243/243 240/240
f 250/250 230/230 222/222
f 233/233 249/249 247/247
f 251/251 252/252 253/253
f 243/243 246/246 227/227
f 245/245 254/254 246/246
f 252/252 235/235 253/253
f 243/243 227/227 229/229
f 243/243 241/241 240/240
f 253/253 235/235 255/255
f 256/256 240/240 232/232
f 246/246 228/228 227/227
f 237/237 239/239 246/246
f 230/230 250/250 257/257
f 258/258 259/259 257/257
f 256/256 244/244 240/240
f 237/237 246/246 243/243
f 231/231 234/234 242/242
f 235/235 242/242 255/255
f 223/223 230/230 257/257
f 246/246 254/254 228/228
f 252/252 232/232 235/235
f 238/238 237/237 244/244
f 260/260 223/223 257/257
f 261/261 232/232 252/252
f 261/261 256/256 232/232
f 259/259 260/260 257/257
f 234/234 233/233 248/248
f 211/211 262/262 263/263
f 264/264 265/265 262/262
f 266/266 267/267 268/268
f 264/264 262/262 211/211
f 269/269 270/270 271/271
f 258/258 191/191 200/200
f 272/272 270/270 269/269
f 225/225 273/273 204/204
f 274/274 275/275 276/276
f 277/277 271/271 273/273
f 278/278 276/276 279/279
f 263/263 280/280 281/281
f 264/264 268/268 265/265
f 277/277 273/273 225/225
f 277/277 269/269 271/271
f 263/263 281/281 212/212
f 272/272 269/269 282/282
f 262/262 283/283 280/280
f 265/265 284/284 283/283
f 220/220 263/263 212/212
f 285/285 264/264 211/211
f 262/262 280/280 263/263
f 286/286 268/268 264/264
f 283/283 269/269 277/277
f 266/266 268/268 286/286
f 265/265 283/283 262/262
f 287/287 288/288 271/271
f 183/183 285/285 211/211
f 289/289 284/284 265/265
f 276/276 275/275 290/290
f 276/276 290/290 279/279
f 281/281 277/277 225/225
f 273/273 288/288 291/291
f 267/267 266/266 292/292
f 212/212 281/281 225/225
f 273/273 291/291 204/204
f 280/280 283/283 277/277
f 270/270 272/272 287/287
f 271/271 288/288 273/273
f 293/293 286/286 264/264
f 268/268 289/289 265/265
f 282/282 269/269 284/284
f 293/293 264/264 285/285
f 270/270 287/287 271/271
f 211/211 263/263 220/220
f 294/294 285/285 183/183
f 280/280 277/277 281/281
f 295/295 274/274 296/296
f 267/267 289/289 268/268
f 284/284 269/269 283/283
f 297/297 298/298 299/299
f 259/259 275/275 274/274
f 300/300 297/297 301/301
f 289/289 267/267 302/302
f 297/297 299/299 301/301
f 303/303 304/304 305/305
f 298/298 306/306 299/299
f 302/302 267/267 307/307
f 305/305 304/304 308/308
f 272/272 282/282 306/306
f 302/302 307/307 304/304
f 267/267 292/292 307/307
f 300/300 301/301 309/309
f 282/282 303/303 306/306
f 305/305 310/310 311/311
f 308/308 310/310 305/305
f 282/282 302/302 303/303
f 306/306 311/311 299/299
f 304/304 312/312 308/308
f 274/274 276/276 278/278
f 299/299 311/311 301/301
f 307/307 292/292 313/313
f 282/282 284/284 302/302
f 307/307 313/313 304/304
f 304/304 313/313 312/312
f 301/301 311/311 314/314
f 275/275 200/200 290/290
f 306/306 303/303 311/311
f 308/308 245/245 310/310
f 284/284 289/289 302/302
f 308/308 312/312 245/245
f 315/315 295/295 296/296
f 316/316 317/317 298/298
f 316/316 298/298 297/297
f 317/317 272/272 298/298
f 311/311 303/303 305/305
f 295/295 260/260 259/259
f 298/298 272/272 306/306
f 300/300 309/309 318/318
f 303/303 302/302 304/304
f 319/319 214/214 210/210
f 320/320 319/319 210/210
f 187/187 320/320 210/210
f 274/274 278/278 296/296
f 321/321 320/320 187/187
f 322/322 321/321 187/187
f 323/323 322/322 187/187
f 203/203 323/323 187/187
f 324/324 325/325 326/326
f 327/327 325/325 324/324
f 328/328 325/325 329/329
f 330/330 325/325 328/328
f 331/331 325/325 330/330
f 332/332 325/325 327/327
f 329/329 325/325 332/332
f 333/333 325/325 331/331
f 334/334 325/325 333/333
f 335/335 325/325 334/334
f 336/336 325/325 335/335
f 337/337 325/325 336/336
f 338/338 325/325 337/337
f 339/339 325/325 338/338
f 259/259 258/258 200/200
f 340/340 325/325 339/339
f 341/341 325/325 340/340
f 342/342 325/325 341/341
f 295/295 315/315 260/260
f 325/325 343/343 344/344
f 345/345 343/343 325/325
f 346/346 345/345 325/325
f 325/325 344/344 347/347
f 325/325 347/347 348/348
f 349/349 346/346 325/325
f 350/350 325/325 342/342
f 351/351 325/325 350/350
f 352/352 325/325 353/353
f 354/354 349/349 325/325
f 325/325 348/348 326/326
f 353/353 325/325 351/351
f 319/319 355/355 214/214
f 214/214 356/356 207/207
f 207/207 356/356 208/208
f 357/357 358/358 359/359
f 360/360 361/361 362/362
f 219/219 363/363 217/217
f 361/361 364/364 362/362
f 365/365 366/366 208/208
f 367/367 368/368 369/369
f 360/360 370/370 371/371
f 372/372 373/373 364/364
f 357/357 371/371 358/358
f 367/367 361/361 368/368
f 259/259 200/200 275/275
f 365/365 374/374 366/366
f 259/259 274/274 295/295
f 375/375 376/376 377/377
f 378/378 379/379 380/380
f 369/369 368/368 381/381
f 360/360 362/362 382/382
f 208/208 366/366 383/383
f 364/364 384/384 362/362
f 383/383 206/206 208/208
f 367/367 378/378 361/361
f 372/372 385/385 373/373
f 360/360 382/382 370/370
f 386/386 369/369 363/363
f 371/371 370/370 358/358
f 359/359 387/387 388/388
f 374/374 389/389 366/366
f 390/390 391/391 392/392
f 359/359 358/358 387/387
f 383/383 366/366 389/389
f 369/369 381/381 363/363
f 258/258 257/257 191/191
f 364/364 373/373 384/384
f 380/380 393/393 372/372
f 217/217 357/357 359/359
f 363/363 357/357 217/217
f 394/394 395/395 396/396
f 217/217 359/359 201/201
f 378/378 380/380 361/361
f 394/394 396/396 374/374
f 393/393 390/390 372/372
f 362/362 384/384 382/382
f 374/374 397/397 389/389
f 374/374 396/396 397/397
f 315/315 226/226 260/260
f 215/215 206/206 398/398
f 368/368 361/361 381/381
f 389/389 397/397 383/383
f 361/361 380/380 364/364
f 384/384 373/373 399/399
f 395/395 379/379 396/396
f 236/236 226/226 315/315
f 395/395 400/400 379/379
f 385/385 392/392 373/373
f 206/206 383/383 398/398
f 363/363 371/371 357/357
f 396/396 378/378 397/397
f 373/373 392/392 401/401
f 373/373 401/401 399/399
f 382/382 402/402 370/370
f 370/370 403/403 358/358
f 390/390 392/392 385/385
f 390/390 385/385 372/372
f 358/358 403/403 387/387
f 382/382 384/384 402/402
f 219/219 215/215 386/386
f 315/315 296/296 236/236
f 396/396 379/379 378/378
f 370/370 402/402 403/403
f 391/391 377/377 392/392
f 400/400 393/393 379/379
f 398/398 386/386 215/215
f 381/381 361/361 360/360
f 397/397 378/378 367/367
f 380/380 372/372 364/364
f 363/363 381/381 360/360
f 398/398 383/383 369/369
f 383/383 397/397 369/369
f 379/379 393/393 380/380
f 398/398 369/369 386/386
f 391/391 375/375 377/377
f 363/363 360/360 371/371
f 397/397 367/367 369/369
f 219/219 386/386 363/363
f 404/404 320/320 405/405
f 406/406 320/320 404/404
f 319/319 320/320 406/406
f 223/223 260/260 226/226
f 407/407 355/355 408/408
f 355/355 319/319 406/406
f 214/214 355/355 407/407
f 405/405 321/321 409/409
f 320/320 321/321 405/405
f 408/408 355/355 406/406
f 410/410 411/411 412/412
f 413/413 414/414 415/415
f 416/416 417/417 418/418
f 418/418 419/419 413/413
f 418/418 417/417 419/419
f 420/420 421/421 422/422
f 416/416 423/423 417/417
f 412/412 424/424 425/425
f 420/420 425/425 421/421
f 413/413 419/419 414/414
f 417/417 426/426 419/419
f 411/411 424/424 412/412
f 423/423 427/427 428/428
f 411/411 429/429 424/424
f 423/423 428/428 417/417
f 417/417 428/428 426/426
f 425/425 430/430 421/421
f 424/424 430/430 425/425
f 414/414 419/419 431/431
f 200/200 193/193 290/290
f 429/429 432/432 424/424
f 421/421 430/430 433/433
f 426/426 431/431 419/419
f 191/191 290/290 192/192
f 434/434 435/435 436/436
f 429/429 437/437 432/432
f 427/427 438/438 428/428
f 424/424 432/432 430/430
f 430/430 439/439 433/433
f 426/426 440/440 431/431
f 428/428 438/438 441/441
f 430/430 432/432 439/439
f 428/428 441/441 426/426
f 437/437 442/442 432/432
f 437/437 443/443 442/442
f 438/438 444/444 441/441
f 426/426 441/441 440/440
f 438/438 445/445 444/444
f 432/432 442/442 446/446
f 433/433 439/439 447/447
f 441/441 444/444 448/448
f 432/432 446/446 439/439
f 443/443 449/449 442/442
f 439/439 446/446 447/447
f 441/441 448/448 440/440
f 450/450 451/451 452/452
f 453/453 454/454 443/443
f 455/455 456/456 457/457
f 442/442 449/449 446/446
f 457/457 456/456 458/458
f 459/459 454/454 453/453
f 443/443 454/454 449/449
f 458/458 460/460 461/461
f 446/446 462/462 447/447
f 445/445 463/463 444/444
f 445/445 464/464 463/463
f 461/461 460/460 465/465
f 449/449 462/462 446/446
f 456/456 460/460 458/458
f 444/444 463/463 448/448
f 448/448 466/466 440/440
f 465/465 467/467 461/461
f 459/459 468/468 454/454
f 440/440 466/466 469/469
f 454/454 470/470 449/449
f 462/462 471/471 447/447
f 468/468 472/472 454/454
f 473/473 474/474 420/420
f 473/473 420/420 456/456
f 466/466 448/448 475/475
f 476/476 477/477 450/450
f 450/450 452/452 476/476
f 456/456 420/420 460/460
f 448/448 463/463 475/475
f 454/454 472/472 470/470
f 465/465 478/478 467/467
f 465/465 460/460 478/478
f 468/468 479/479 472/472
f 472/472 479/479 418/418
f 449/449 470/470 462/462
f 462/462 470/470 415/415
f 420/420 474/474 480/480
f 467/467 478/478 481/481
f 472/472 413/413 470/470
f 460/460 420/420 478/478
f 472/472 418/418 413/413
f 474/474 410/410 480/480
f 479/479 416/416 418/418
f 470/470 413/413 415/415
f 410/410 412/412 480/480
f 478/478 422/422 481/481
f 480/480 425/425 420/420
f 480/480 412/412 425/425
f 420/420 422/422 478/478
f 482/482 483/483 447/447
f 483/483 481/481 422/422
f 484/484 447/447 471/471
f 483/483 433/433 447/447
f 485/485 484/484 471/471
f 486/486 487/487 488/488
f 471/471 462/462 415/415
f 489/489 415/415 414/414
f 203/203 490/490 486/486
f 491/491 482/482 487/487
f 482/482 447/447 484/484
f 492/492 483/483 493/493
f 494/494 495/495 431/431
f 496/496 466/466 475/475
f 497/497 498/498 492/492
f 488/488 487/487 495/495
f 466/466 496/496 469/469
f 481/481 498/498 467/467
f 422/422 421/421 483/483
f 491/491 497/497 493/493
f 492/492 481/481 483/483
f 483/483 421/421 433/433
f 496/496 499/499 469/469
f 495/495 489/489 431/431
f 487/487 482/482 484/484
f 491/491 493/493 482/482
f 493/493 483/483 482/482
f 500/500 488/488 499/499
f 490/490 491/491 486/486
f 487/487 484/484 485/485
f 497/497 492/492 493/493
f 486/486 491/491 487/487
f 431/431 489/489 414/414
f 495/495 485/485 489/489
f 495/495 487/487 485/485
f 435/435 501/501 436/436
f 488/488 500/500 486/486
f 469/469 494/494 440/440
f 499/499 494/494 469/469
f 499/499 488/488 495/495
f 489/489 471/471 415/415
f 492/492 498/498 481/481
f 499/499 495/495 494/494
f 490/490 497/497 491/491
f 489/489 485/485 471/471
f 494/494 431/431 440/440
f 451/451 450/450 502/502
f 502/502 477/477 503/503
f 437/437 429/429 504/504
f 505/505 416/416 506/506
f 507/507 508/508 509/509
f 502/502 450/450 477/477
f 510/510 511/511 328/328
f 510/510 512/512 511/511
f 513/513 375/375 514/514
f 435/435 515/515 516/516
f 516/516 503/503 501/501
f 455/455 457/457 376/376
f 517/517 502/502 516/516
f 518/518 506/506 519/519
f 519/519 512/512 510/510
f 508/508 507/507 520/520
f 513/513 376/376 375/375
f 521/521 376/376 513/513
f 518/518 505/505 506/506
f 423/423 416/416 505/505
f 329/329 510/510 328/328
f 522/522 519/519 510/510
f 333/333 507/507 334/334
f 522/522 518/518 519/519
f 523/523 504/504 508/508
f 520/520 507/507 333/333
f 517/517 516/516 515/515
f 455/455 376/376 521/521
f 443/443 437/437 523/523
f 523/523 437/437 504/504
f 524/524 514/514 525/525
f 329/329 522/522 510/510
f 524/524 525/525 339/339
f 526/526 522/522 329/329
f 527/527 508/508 520/520
f 513/513 514/514 524/524
f 456/456 455/455 521/521
f 527/527 523/523 508/508
f 528/528 505/505 518/518
f 516/516 502/502 503/503
f 423/423 505/505 528/528
f 528/528 518/518 522/522
f 529/529 443/443 523/523
f 338/338 524/524 339/339
f 517/517 451/451 502/502
f 530/530 520/520 333/333
f 529/529 523/523 527/527
f 531/531 521/521 513/513
f 332/332 526/526 329/329
f 527/527 520/520 530/530
f 532/532 522/522 526/526
f 533/533 456/456 521/521
f 435/435 516/516 501/501
f 534/534 528/528 522/522
f 535/535 526/526 332/332
f 423/423 528/528 427/427
f 473/473 456/456 533/533
f 536/536 513/513 524/524
f 533/533 521/521 531/531
f 535/535 532/532 526/526
f 534/534 522/522 532/532
f 536/536 524/524 338/338
f 537/537 527/527 530/530
f 538/538 443/443 529/529
f 539/539 529/529 527/527
f 540/540 531/531 513/513
f 541/541 427/427 528/528
f 540/540 513/513 536/536
f 331/331 530/530 333/333
f 541/541 528/528 534/534
f 476/476 452/452 542/542
f 539/539 527/527 537/537
f 543/543 473/473 533/533
f 452/452 544/544 542/542
f 538/538 453/453 443/443
f 331/331 537/537 530/530
f 474/474 473/473 543/543
f 539/539 538/538 529/529
f 540/540 536/536 545/545
f 546/546 534/534 532/532
f 541/541 534/534 546/546
f 547/547 537/537 331/331
f 544/544 548/548 542/542
f 327/327 535/535 332/332
f 549/549 546/546 532/532
f 550/550 533/533 531/531
f 337/337 536/536 338/338
f 550/550 531/531 540/540
f 549/549 532/532 535/535
f 549/549 535/535 327/327
f 544/544 451/451 551/551
f 438/438 427/427 541/541
f 544/544 551/551 548/548
f 545/545 536/536 337/337
f 451/451 517/517 551/551
f 547/547 539/539 537/537
f 550/550 543/543 533/533
f 551/551 517/517 515/515
f 452/452 451/451 544/544
f 552/552 538/538 539/539
f 553/553 546/546 549/549
f 554/554 543/543 550/550
f 434/434 551/551 515/515
f 552/552 539/539 547/547
f 459/459 453/453 538/538
f 555/555 541/541 546/546
f 556/556 547/547 331/331
f 553/553 549/549 327/327
f 474/474 543/543 557/557
f 558/558 550/550 540/540
f 559/559 540/540 545/545
f 559/559 558/558 540/540
f 560/560 553/553 327/327
f 445/445 438/438 561/561
f 515/515 435/435 434/434
f 561/561 438/438 541/541
f 562/562 538/538 552/552
f 561/561 541/541 555/555
f 562/562 459/459 538/538
f 330/330 556/556 331/331
f 555/555 546/546 553/553
f 554/554 557/557 543/543
f 324/324 560/560 327/327
f 558/558 554/554 550/550
f 563/563 562/562 552/552
f 410/410 474/474 557/557
f 552/552 547/547 564/564
f 336/336 545/545 337/337
f 468/468 459/459 562/562
f 565/565 553/553 560/560
f 564/564 547/547 556/556
f 555/555 553/553 565/565
f 563/563 552/552 564/564
f 566/566 560/560 324/324
f 567/567 554/554 558/558
f 568/568 468/468 562/562
f 565/565 560/560 566/566
f 557/557 554/554 569/569
f 336/336 559/559 545/545
f 570/570 561/561 555/555
f 570/570 445/445 561/561
f 567/567 558/558 559/559
f 571/571 564/564 556/556
f 569/569 554/554 567/567
f 572/572 562/562 563/563
f 573/573 567/567 559/559
f 445/445 570/570 464/464
f 571/571 556/556 330/330
f 574/574 555/555 565/565
f 574/574 570/570 555/555
f 575/575 565/565 566/566
f 410/410 557/557 569/569
f 568/568 562/562 572/572
f 576/576 577/577 578/578
f 573/573 559/559 336/336
f 572/572 564/564 571/571
f 572/572 563/563 564/564
f 573/573 336/336 335/335
f 579/579 568/568 572/572
f 575/575 566/566 324/324
f 580/580 574/574 565/565
f 468/468 568/568 479/479
f 580/580 565/565 575/575
f 581/581 569/569 567/567
f 411/411 410/410 569/569
f 579/579 479/479 568/568
f 582/582 311/311 310/310
f 464/464 570/570 583/583
f 584/584 571/571 330/330
f 583/583 570/570 574/574
f 309/309 314/314 585/585
f 326/326 575/575 324/324
f 572/572 571/571 584/584
f 586/586 411/411 569/569
f 509/509 567/567 573/573
f 509/509 581/581 567/567
f 309/309 301/301 314/314
f 511/511 572/572 584/584
f 509/509 573/573 335/335
f 579/579 572/572 511/511
f 587/587 585/585 588/588
f 334/334 509/509 335/335
f 586/586 569/569 581/581
f 589/589 575/575 326/326
f 582/582 239/239 238/238
f 429/429 411/411 586/586
f 580/580 575/575 589/589
f 506/506 479/479 579/579
f 508/508 581/581 509/509
f 586/586 581/581 508/508
f 328/328 584/584 330/330
f 512/512 579/579 511/511
f 590/590 577/577 576/576
f 416/416 479/479 506/506
f 511/511 584/584 328/328
f 506/506 579/579 519/519
f 519/519 579/579 512/512
f 504/504 429/429 586/586
f 504/504 586/586 508/508
f 507/507 509/509 334/334
f 348/348 591/591 326/326
f 592/592 593/593 594/594
f 595/595 596/596 597/597
f 595/595 597/597 591/591
f 598/598 596/596 595/595
f 578/578 599/599 600/600
f 601/601 594/594 346/346
f 598/598 602/602 596/596
f 603/603 408/408 604/604
f 314/314 311/311 582/582
f 592/592 604/604 593/593
f 595/595 591/591 348/348
f 592/592 594/594 601/601
f 601/601 346/346 349/349
f 605/605 606/606 602/602
f 407/407 408/408 603/603
f 607/607 604/604 592/592
f 603/603 604/604 607/607
f 608/608 606/606 605/605
f 607/607 592/592 601/601
f 609/609 598/598 595/595
f 610/610 407/407 603/603
f 611/611 605/605 602/602
f 354/354 601/601 349/349
f 611/611 602/602 598/598
f 608/608 605/605 611/611
f 612/612 607/607 601/601
f 610/610 603/603 607/607
f 609/609 595/595 348/348
f 612/612 601/601 354/354
f 347/347 609/609 348/348
f 611/611 598/598 609/609
f 613/613 606/606 608/608
f 214/214 407/407 610/610
f 356/356 610/610 607/607
f 614/614 611/611 609/609
f 309/309 585/585 587/587
f 344/344 609/609 347/347
f 214/214 610/610 356/356
f 325/325 612/612 354/354
f 615/615 611/611 614/614
f 585/585 582/582 238/238
f 615/615 608/608 611/611
f 612/612 356/356 607/607
f 616/616 612/612 325/325
f 617/617 608/608 615/615
f 613/613 608/608 617/617
f 208/208 356/356 612/612
f 208/208 612/612 616/616
f 614/614 609/609 344/344
f 208/208 616/616 325/325
f 208/208 325/325 365/365
f 618/618 613/613 617/617
f 352/352 365/365 325/325
f 374/374 365/365 352/352
f 353/353 374/374 352/352
f 600/600 619/619 256/256
f 620/620 615/615 614/614
f 394/394 374/374 353/353
f 621/621 617/617 615/615
f 622/622 599/599 578/578
f 395/395 394/394 353/353
f 351/351 395/395 353/353
f 621/621 615/615 620/620
f 623/623 395/395 351/351
f 600/600 256/256 261/261
f 624/624 618/618 617/617
f 400/400 395/395 623/623
f 350/350 623/623 351/351
f 343/343 614/614 344/344
f 624/624 617/617 621/621
f 599/599 588/588 619/619
f 400/400 623/623 625/625
f 626/626 309/309 587/587
f 400/400 625/625 393/393
f 620/620 614/614 627/627
f 350/350 625/625 623/623
f 342/342 625/625 350/350
f 628/628 318/318 626/626
f 627/627 614/614 343/343
f 629/629 393/393 625/625
f 342/342 629/629 625/625
f 630/630 618/618 624/624
f 390/390 393/393 629/629
f 631/631 390/390 629/629
f 341/341 629/629 342/342
f 632/632 390/390 631/631
f 631/631 629/629 341/341
f 578/578 600/600 252/252
f 633/633 618/618 630/630
f 588/588 238/238 244/244
f 630/630 624/624 621/621
f 390/390 632/632 391/391
f 599/599 619/619 600/600
f 634/634 621/621 620/620
f 391/391 632/632 635/635
f 340/340 631/631 341/341
f 622/622 628/628 599/599
f 636/636 632/632 631/631
f 634/634 620/620 627/627
f 636/636 635/635 632/632
f 636/636 631/631 340/340
f 637/637 621/621 634/634
f 345/345 627/627 343/343
f 514/514 391/391 635/635
f 638/638 634/634 627/627
f 375/375 391/391 514/514
f 593/593 621/621 637/637
f 585/585 314/314 582/582
f 593/593 630/630 621/621
f 639/639 640/640 464/464
f 638/638 637/637 634/634
f 639/639 464/464 583/583
f 638/638 627/627 345/345
f 514/514 635/635 636/636
f 597/597 574/574 580/580
f 596/596 583/583 574/574
f 633/633 630/630 593/593
f 639/639 583/583 596/596
f 596/596 574/574 597/597
f 514/514 636/636 525/525
f 408/408 633/633 593/593
f 339/339 636/636 340/340
f 525/525 636/636 339/339
f 597/597 580/580 589/589
f 594/594 637/637 638/638
f 346/346 638/638 345/345
f 602/602 639/639 596/596
f 597/597 589/589 591/591
f 640/640 639/639 602/602
f 591/591 589/589 326/326
f 593/593 637/637 594/594
f 604/604 408/408 593/593
f 346/346 594/594 638/638
f 606/606 640/640 602/602
f 475/475 641/641 642/642
f 643/643 252/252 251/251
f 475/475 644/644 641/641
f 618/618 406/406 645/645
f 646/646 647/647 644/644
f 645/645 648/648 649/649
f 588/588 585/585 238/238
f 645/645 406/406 404/404
f 606/606 613/613 647/647
f 633/633 406/406 618/618
f 645/645 404/404 648/648
f 633/633 408/408 406/406
f 649/649 648/648 650/650
f 464/464 640/640 463/463
f 619/619 588/588 244/244
f 644/644 649/649 641/641
f 640/640 646/646 463/463
f 640/640 606/606 646/646
f 404/404 405/405 648/648
f 647/647 645/645 644/644
f 647/647 613/613 645/645
f 576/576 252/252 643/643
f 463/463 646/646 475/475
f 644/644 645/645 649/649
f 599/599 587/587 588/588
f 649/649 651/651 641/641
f 606/606 647/647 646/646
f 646/646 644/644 475/475
f 613/613 618/618 645/645
f 323/323 203/203 652/652
f 405/405 650/650 648/648
f 576/576 578/578 252/252
f 318/318 309/309 626/626
f 649/649 650/650 651/651
f 653/653 323/323 654/654
f 652/652 486/486 500/500
f 622/622 655/655 628/628
f 405/405 409/409 653/653
f 405/405 653/653 650/650
f 652/652 203/203 486/486
f 619/619 244/244 256/256
f 322/322 323/323 653/653
f 650/650 654/654 651/651
f 641/641 651/651 642/642
f 582/582 245/245 239/239
f 642/642 654/654 500/500
f 323/323 652/652 654/654
f 650/650 653/653 654/654
f 642/642 500/500 499/499
f 642/642 499/499 496/496
f 642/642 496/496 475/475
f 651/651 654/654 642/642
f 409/409 322/322 653/653
f 409/409 321/321 322/322
f 654/654 652/652 500/500
f 656/656 657/657 658/658
f 659/659 660/660 661/661
f 662/662 663/663 664/664
f 665/665 666/666 667/667
f 668/668 662/662 669/669
f 670/670 188/188 671/671
f 672/672 673/673 674/674
f 675/675 676/676 677/677
f 667/667 666/666 675/675
f 661/661 660/660 678/678
f 679/679 680/680 673/673
f 681/681 682/682 683/683
f 671/671 188/188 184/184
f 582/582 310/310 245/245
f 684/684 683/683 659/659
f 685/685 686/686 687/687
f 291/291 221/221 204/204
f 657/657 664/664 688/688
f 669/669 662/662 664/664
f 316/316 678/678 689/689
f 577/577 682/682 655/655
f 690/690 691/691 692/692
f 679/679 673/673 693/693
f 628/628 587/587 599/599
f 694/694 695/695 668/668
f 402/402 695/695 694/694
f 657/657 688/688 680/680
f 291/291 676/676 221/221
f 656/656 658/658 696/696
f 696/696 658/658 697/697
f 681/681 683/683 684/684
f 698/698 402/402 694/694
f 690/690 692/692 656/656
f 699/699 700/700 691/691
f 697/697 665/665 701/701
f 675/675 677/677 686/686
f 693/693 673/673 672/672
f 702/702 667/667 675/675
f 703/703 704/704 705/705
f 689/689 685/685 317/317
f 669/669 664/664 706/706
f 655/655 682/682 681/681
f 705/705 700/700 699/699
f 657/657 680/680 679/679
f 403/403 402/402 698/698
f 577/577 622/622 578/578
f 684/684 659/659 661/661
f 666/666 674/674 670/670
f 600/600 261/261 252/252
f 687/687 707/707 287/287
f 622/622 577/577 655/655
f 677/677 676/676 708/708
f 701/701 665/665 667/667
f 706/706 664/664 692/692
f 702/702 675/675 686/686
f 699/699 691/691 690/690
f 316/316 661/661 678/678
f 287/287 707/707 288/288
f 692/692 664/664 657/657
f 686/686 677/677 707/707
f 696/696 697/697 709/709
f 626/626 587/587 628/628
f 666/666 672/672 674/674
f 670/670 671/671 710/710
f 694/694 668/668 669/669
f 711/711 705/705 699/699
f 710/710 671/671 184/184
f 707/707 677/677 708/708
f 685/685 687/687 317/317
f 656/656 696/696 712/712
f 628/628 655/655 681/681
f 694/694 669/669 700/700
f 700/700 669/669 706/706
f 708/708 676/676 291/291
f 703/703 711/711 713/713
f 316/316 689/689 317/317
f 709/709 697/697 701/701
f 698/698 694/694 714/714
f 701/701 667/667 702/702
f 715/715 690/690 656/656
f 377/377 376/376 457/457
f 490/490 203/203 716/716
f 715/715 656/656 712/712
f 497/497 490/490 716/716
f 716/716 203/203 205/205
f 401/401 377/377 717/717
f 628/628 681/681 684/684
f 717/717 377/377 457/457
f 392/392 377/377 401/401
f 718/718 699/699 690/690
f 709/709 701/701 660/660
f 719/719 670/670 710/710
f 498/498 497/497 716/716
f 720/720 576/576 643/643
f 721/721 458/458 461/461
f 665/665 672/672 666/666
f 665/665 693/693 672/672
f 718/718 690/690 715/715
f 658/658 657/657 679/679
f 722/722 703/703 713/713
f 457/457 458/458 721/721
f 272/272 687/687 287/287
f 457/457 721/721 723/723
f 724/724 498/498 716/716
f 300/300 684/684 661/661
f 205/205 189/189 725/725
f 658/658 679/679 693/693
f 726/726 717/717 457/457
f 318/318 684/684 300/300
f 720/720 699/699 718/718
f 727/727 461/461 467/467
f 714/714 694/694 700/700
f 317/317 687/687 272/272
f 725/725 716/716 205/205
f 691/691 700/700 706/706
f 628/628 684/684 318/318
f 666/666 670/670 719/719
f 726/726 457/457 723/723
f 691/691 706/706 692/692
f 300/300 661/661 297/297
f 712/712 696/696 709/709
f 297/297 661/661 316/316
f 702/702 686/686 685/685
f 663/663 726/726 728/728
f 188/188 725/725 189/189
f 660/660 701/701 678/678
f 663/663 717/717 726/726
f 719/719 710/710 675/675
f 713/713 720/720 643/643
f 467/467 498/498 724/724
f 725/725 724/724 716/716
f 656/656 692/692 657/657
f 461/461 727/727 721/721
f 712/712 709/709 659/659
f 682/682 718/718 715/715
f 401/401 717/717 663/663
f 682/682 715/715 712/712
f 729/729 467/467 724/724
f 703/703 705/705 711/711
f 288/288 708/708 291/291
f 727/727 467/467 729/729
f 720/720 718/718 590/590
f 689/689 701/701 702/702
f 221/221 710/710 184/184
f 726/726 723/723 688/688
f 729/729 724/724 725/725
f 723/723 721/721 673/673
f 663/663 728/728 664/664
f 399/399 401/401 662/662
f 728/728 726/726 688/688
f 674/674 725/725 188/188
f 722/722 698/698 703/703
f 686/686 707/707 687/687
f 662/662 401/401 663/663
f 659/659 709/709 660/660
f 678/678 701/701 689/689
f 674/674 188/188 670/670
f 688/688 723/723 680/680
f 689/689 702/702 685/685
f 721/721 727/727 729/729
f 676/676 710/710 221/221
f 704/704 698/698 714/714
f 697/697 693/693 665/665
f 658/658 693/693 697/697
f 590/590 718/718 577/577
f 721/721 729/729 673/673
f 384/384 399/399 668/668
f 683/683 712/712 659/659
f 729/729 725/725 674/674
f 577/577 718/718 682/682
f 680/680 723/723 673/673
f 666/666 719/719 675/675
f 673/673 729/729 674/674
f 695/695 384/384 668/668
f 707/707 708/708 288/288
f 675/675 710/710 676/676
f 705/705 714/714 700/700
f 704/704 714/714 705/705
f 384/384 695/695 402/402
f 682/682 712/712 683/683
f 720/720 590/590 576/576
f 711/711 720/720 713/713
f 664/664 728/728 688/688
f 399/399 662/662 668/668
f 730/730 731/731 732/732
f 733/733 734/734 735/735
f 736/736 737/737 734/734
f 732/732 731/731 738/738
f 732/732 738/738 739/739
f 733/733 735/735 234/234
f 738/738 740/740 739/739
f 736/736 741/741 737/737
f 735/735 242/242 234/234
f 739/739 740/740 228/228
f 742/742 743/743 741/741
f 737/737 744/744 734/734
f 741/741 743/743 737/737
f 738/738 731/731 745/745
f 734/734 744/744 735/735
f 228/228 740/740 229/229
f 735/735 744/744 242/242
f 731/731 746/746 745/745
f 742/742 747/747 743/743
f 738/738 745/745 740/740
f 743/743 748/748 737/737
f 737/737 748/748 744/744
f 746/746 749/749 745/745
f 746/746 750/750 749/749
f 745/745 751/751 740/740
f 740/740 751/751 229/229
f 711/711 699/699 720/720
f 744/744 748/748 255/255
f 744/744 255/255 242/242
f 749/749 752/752 745/745
f 747/747 753/753 743/743
f 743/743 753/753 748/748
f 251/251 713/713 643/643
f 745/745 752/752 751/751
f 747/747 754/754 753/753
f 750/750 755/755 749/749
f 748/748 756/756 255/255
f 229/229 751/751 249/249
f 753/753 756/756 748/748
f 755/755 757/757 749/749
f 754/754 758/758 753/753
f 757/757 752/752 749/749
f 752/752 247/247 751/751
f 754/754 759/759 758/758
f 751/751 247/247 249/249
f 292/292 760/760 313/313
f 292/292 761/761 760/760
f 753/753 758/758 756/756
f 752/752 757/757 762/762
f 255/255 756/756 253/253
f 755/755 763/763 757/757
f 313/313 760/760 764/764
f 313/313 764/764 312/312
f 758/758 713/713 756/756
f 759/759 722/722 758/758
f 761/761 765/765 766/766
f 387/387 767/767 768/768
f 761/761 766/766 760/760
f 752/752 762/762 247/247
f 758/758 722/722 713/713
f 756/756 713/713 251/251
f 757/757 763/763 769/769
f 767/767 722/722 759/759
f 703/703 698/698 704/704
f 763/763 770/770 769/769
f 756/756 251/251 253/253
f 247/247 762/762 248/248
f 757/757 769/769 762/762
f 760/760 766/766 764/764
f 770/770 771/771 769/769
f 698/698 767/767 403/403
f 312/312 254/254 245/245
f 312/312 764/764 254/254
f 698/698 722/722 767/767
f 765/765 730/730 766/766
f 766/766 732/732 764/764
f 762/762 733/733 248/248
f 766/766 730/730 732/732
f 762/762 769/769 733/733
f 764/764 739/739 254/254
f 767/767 387/387 403/403
f 764/764 732/732 739/739
f 769/769 771/771 733/733
f 248/248 733/733 234/234
f 733/733 771/771 734/734
f 772/772 773/773 199/199
f 771/771 736/736 734/734
f 774/774 775/775 776/776
f 739/739 228/228 254/254
f 772/772 777/777 773/773
f 778/778 777/777 772/772
f 779/779 780/780 781/781
f 779/779 736/736 780/780
f 774/774 776/776 778/778
f 746/746 775/775 774/774
f 782/782 781/781 783/783
f 778/778 776/776 777/777
f 195/195 772/772 199/199
f 292/292 266/266 286/286
f 185/185 784/784 186/186
f 785/785 746/746 774/774
f 294/294 293/293 285/285
f 741/741 736/736 779/779
f 786/786 774/774 778/778
f 778/778 772/772 195/195
f 785/785 774/774 786/786
f 787/787 292/292 286/286
f 788/788 781/781 782/782
f 788/788 779/779 781/781
f 750/750 746/746 785/785
f 782/782 789/789 784/784
f 790/790 293/293 294/294
f 791/791 286/286 293/293
f 197/197 294/294 198/198
f 784/784 789/789 186/186
f 782/782 783/783 789/789
f 791/791 787/787 286/286
f 761/761 292/292 787/787
f 791/791 293/293 790/790
f 792/792 784/784 185/185
f 792/792 788/788 782/782
f 792/792 782/782 784/784
f 790/790 294/294 197/197
f 793/793 778/778 195/195
f 742/742 741/741 779/779
f 794/794 785/785 786/786
f 194/194 793/793 195/195
f 795/795 750/750 785/785
f 787/787 791/791 796/796
f 793/793 786/786 778/778
f 795/795 785/785 794/794
f 796/796 791/791 790/790
f 797/797 779/779 788/788
f 798/798 794/794 786/786
f 799/799 209/209 202/202
f 798/798 786/786 793/793
f 800/800 788/788 792/792
f 801/801 779/779 797/797
f 801/801 742/742 779/779
f 797/797 788/788 800/800
f 197/197 796/796 790/790
f 755/755 750/750 795/795
f 182/182 792/792 185/185
f 802/802 795/795 794/794
f 803/803 796/796 197/197
f 781/781 780/780 783/783
f 804/804 793/793 194/194
f 805/805 761/761 787/787
f 806/806 755/755 795/795
f 804/804 798/798 793/793
f 742/742 801/801 747/747
f 731/731 775/775 746/746
f 802/802 794/794 798/798
f 805/805 787/787 796/796
f 802/802 806/806 795/795
f 807/807 797/797 800/800
f 808/808 761/761 805/805
f 765/765 761/761 808/808
f 809/809 792/792 182/182
f 809/809 800/800 792/792
f 777/777 810/810 773/773
f 209/209 804/804 194/194
f 803/803 197/197 218/218
f 811/811 805/805 796/796
f 807/807 800/800 809/809
f 811/811 808/808 805/805
f 812/812 802/802 798/798
f 811/811 796/796 803/803
f 812/812 798/798 804/804
f 813/813 797/797 807/807
f 814/814 755/755 806/806
f 771/771 780/780 736/736
f 815/815 801/801 797/797
f 218/218 816/816 803/803
f 359/359 388/388 201/201
f 813/813 815/815 797/797
f 817/817 765/765 808/808
f 754/754 747/747 801/801
f 814/814 806/806 802/802
f 818/818 811/811 803/803
f 799/799 804/804 209/209
f 754/754 801/801 815/815
f 819/819 802/802 812/812
f 763/763 755/755 814/814
f 812/812 804/804 799/799
f 775/775 820/820 776/776
f 818/818 803/803 816/816
f 765/765 817/817 730/730
f 816/816 218/218 216/216
f 814/814 802/802 819/819
f 807/807 809/809 182/182
f 817/817 808/808 811/811
f 821/821 812/812 799/799
f 822/822 813/813 807/807
f 190/190 807/807 182/182
f 823/823 814/814 819/819
f 824/824 754/754 815/815
f 783/783 825/825 789/789
f 821/821 799/799 202/202
f 821/821 819/819 812/812
f 822/822 815/815 813/813
f 826/826 811/811 818/818
f 827/827 816/816 216/216
f 827/827 818/818 816/816
f 770/770 763/763 814/814
f 826/826 817/817 811/811
f 828/828 822/822 807/807
f 828/828 807/807 190/190
f 829/829 823/823 819/819
f 830/830 814/814 823/823
f 783/783 780/780 825/825
f 826/826 730/730 817/817
f 824/824 815/815 822/822
f 770/770 814/814 830/830
f 831/831 826/826 818/818
f 829/829 819/819 821/821
f 196/196 821/821 202/202
f 754/754 824/824 759/759
f 831/831 818/818 827/827
f 829/829 830/830 823/823
f 213/213 827/827 216/216
f 832/832 759/759 824/824
f 190/190 822/822 828/828
f 833/833 824/824 822/822
f 833/833 822/822 190/190
f 776/776 834/834 777/777
f 835/835 770/770 830/830
f 831/831 827/827 810/810
f 836/836 829/829 821/821
f 777/777 834/834 810/810
f 832/832 824/824 768/768
f 820/820 730/730 826/826
f 388/388 833/833 190/190
f 835/835 830/830 825/825
f 825/825 830/830 829/829
f 810/810 827/827 213/213
f 771/771 770/770 835/835
f 836/836 821/821 196/196
f 771/771 835/835 780/780
f 834/834 826/826 831/831
f 776/776 820/820 834/834
f 768/768 824/824 833/833
f 387/387 833/833 388/388
f 199/199 810/810 213/213
f 810/810 834/834 831/831
f 201/201 388/388 190/190
f 820/820 826/826 834/834
f 730/730 820/820 731/731
f 767/767 759/759 832/832
f 731/731 820/820 775/775
f 789/789 829/829 836/836
f 768/768 767/767 832/832
f 825/825 829/829 789/789
f 186/186 836/836 196/196
f 773/773 810/810 199/199
f 780/780 835/835 825/825
f 186/186 789/789 836/836
f 387/387 768/768 833/833

