# https://github.com/mikedh/trimesh
mtllib material.mtl

o meshId0
usemtl material_0
v 0.01158149 -0.01792274 -0.07488080
v 0.01760615 -0.01807315 -0.05455863
v 0.01227176 -0.01962087 -0.05503916
v -0.05357172 0.04978511 -0.12451135
v -0.05497217 0.03500374 -0.12451112
v -0.05464679 0.04356793 -0.12451122
v 0.02244626 -0.01503923 -0.06541795
v 0.04410922 0.07004642 -0.12451237
v 0.03870480 0.07627799 -0.05637415
v 0.04609977 0.06719428 -0.05413852
v 0.02283896 -0.01359559 -0.08405808
v 0.02959686 -0.01015059 -0.07895695
v 0.03427081 0.08020756 -0.12451249
v 0.02587492 0.08573981 -0.12451255
v 0.02802708 0.08451324 -0.05733095
v 0.04195045 0.00165069 -0.12451106
v 0.03661086 -0.00383608 -0.12451092
v 0.02955409 -0.01226368 -0.05268253
v 0.04724955 0.00908167 -0.12451129
v 0.05132763 0.01744354 -0.12451142
v 0.04943218 0.01171949 -0.05713370
v -0.05312482 0.02291158 -0.12451084
v -0.05440941 0.02894506 -0.12451094
v 0.01139896 0.09099247 -0.12451255
v 0.01523975 0.09004739 -0.12451255
v 0.03287835 -0.00925530 -0.05819678
v 0.04234409 0.00171525 -0.09246317
v 0.03757498 -0.00527873 -0.05630310
v -0.05109003 0.01678582 -0.12451079
v 0.03480560 0.07977857 -0.05666130
v -0.04838876 0.01106100 -0.12451065
v -0.04547955 0.00627732 -0.12451057
v -0.03989991 -0.00062248 -0.12451048
v 0.01139310 0.09099582 -0.05791628
v 0.02113388 0.08797143 -0.05767599
v 0.03483778 -0.00556554 -0.09967499
v 0.03216606 -0.00741649 -0.12451082
v 0.03865134 0.07631921 -0.12451245
v 0.05204996 0.01838056 -0.05662435
v -0.03319659 -0.00664236 -0.12451047
v 0.00323901 0.09209295 -0.05799025
v 0.04727150 0.06530855 -0.12451230
v 0.04639776 0.00600655 -0.05745618
v 0.04266805 0.00057645 -0.05755375
v 0.05397532 0.04781540 -0.04738563
v 0.05479375 0.04199251 -0.04457153
v 0.05481615 0.04175223 -0.12451137
v -0.02675508 -0.01086110 -0.12451037
v 0.05347713 0.02355980 -0.05563183
v 0.05485014 0.03301019 -0.12451144
v 0.05461356 0.03028797 -0.05575478
v 0.00067440 -0.01807179 -0.09495831
v 0.00948674 -0.01712867 -0.09916177
v 0.00372153 -0.01886068 -0.07735594
v 0.01649199 -0.01601681 -0.08434817
v 0.05081233 0.05825739 -0.12451219
v 0.02087706 -0.01376902 -0.10452543
v 0.05237894 0.05405616 -0.12451236
v -0.00994167 -0.01691722 -0.12451037
v 0.05376782 0.04880410 -0.12451173
v 0.05499524 0.03818002 -0.11951387
v 0.05500622 0.03656989 -0.04179340
v 0.02104181 -0.01363820 -0.12451069
v 0.05254821 0.05345980 -0.04967481
v -0.00094657 -0.01781765 -0.12451041
v 0.04956346 0.06104724 -0.05228914
v -0.04989536 0.06034490 -0.12451157
v -0.05176753 0.05581441 -0.12451147
v 0.01045352 -0.01683012 -0.12451050
v 0.02688168 -0.01081384 -0.12451073
v -0.04094456 0.07393746 -0.12451188
v -0.04496160 0.06891785 -0.12451176
v -0.02615629 0.08557612 -0.12451220
v -0.03276778 0.08138088 -0.12451208
v -0.03698679 0.07791428 -0.12451199
v 0.00024950 0.09218337 -0.12451238
v -0.00440826 0.09204198 -0.12451246
v -0.01096748 0.09110375 -0.12451246
v -0.01633350 0.08971989 -0.12451234
v -0.02159516 0.08779202 -0.12451227
v -0.00448952 -0.01904427 -0.07406788
v -0.00322250 -0.02132303 -0.05289666
v 0.00385554 -0.02125578 -0.05299819
v -0.05484698 0.04137458 -0.06879269
v -0.00552789 -0.01761125 -0.10229329
v 0.03551798 -0.02469187 -0.00634163
v 0.02794144 -0.03116707 -0.00583500
v 0.02971824 -0.02052851 -0.02372447
v -0.05300988 0.05189171 -0.04908049
v 0.03117687 -0.01241041 -0.04544993
v 0.03894765 -0.00839572 -0.03512147
v 0.01098277 -0.07035439 0.02451258
v 0.00012874 -0.05487918 0.01089350
v 0.01211886 -0.06358638 0.02013803
v 0.04404208 -0.01003884 -0.01608768
v 0.04764343 0.00118727 -0.02930471
v 0.05007694 -0.00057074 -0.01521010
v -0.00422962 -0.07033144 0.02336988
v -0.00862696 -0.01785600 -0.08452107
v -0.01778409 -0.01495180 -0.10190929
v 0.03332654 -0.04271047 0.01575491
v 0.02863261 -0.03733597 0.00390103
v 0.03316827 -0.03701241 0.00872036
v 0.00609613 -0.03958352 -0.00628915
v 0.00668000 -0.03315689 -0.01655695
v 0.01791961 -0.02754604 -0.02192951
v 0.00001696 -0.03223207 -0.01946900
v 0.01021376 -0.02774194 -0.02652658
v 0.01783208 -0.02109983 -0.03920108
v 0.02667266 -0.01864335 -0.03357868
v 0.00038423 -0.02394572 -0.04104941
v 0.00993251 -0.02158313 -0.04633063
v -0.02504613 -0.01189736 -0.10129990
v 0.03102950 -0.07073237 0.03555746
v 0.03403837 -0.06090175 0.03223626
v 0.03803765 -0.07053272 0.04339661
v 0.04116767 -0.04872037 0.03335787
v 0.03933304 -0.03962655 0.02115348
v 0.04528562 -0.03491973 0.02837272
v 0.03218664 -0.01543766 -0.03212490
v 0.04017972 -0.05916501 0.03942424
v 0.04461543 -0.03172032 0.02247151
v 0.04005009 -0.02896018 0.00850802
v 0.04075564 -0.02025735 -0.00429296
v 0.04438607 -0.02155415 0.00633217
v 0.05218205 0.00878923 -0.02415406
v 0.05483359 -0.00273313 0.01033515
v 0.04651728 -0.06971642 0.06981433
v 0.04566843 -0.06952329 0.06035171
v 0.05231234 -0.04040775 0.06915195
v 0.01909484 -0.03851400 -0.00239674
v -0.03272774 -0.00729989 -0.09547480
v 0.04418853 -0.06939238 0.05464982
v 0.04491625 0.00202439 -0.04647499
v 0.02207987 -0.07003170 0.02857011
v 0.01923286 -0.05447365 0.01554020
v 0.04303716 -0.00407686 -0.03385906
v 0.01222673 -0.05417069 0.01231176
v 0.05064278 -0.03813495 0.05148033
v 0.04438652 -0.05305173 0.04343159
v 0.05179936 0.01439958 -0.04029018
v 0.02132686 -0.06192296 0.02273926
v 0.05424731 0.01696911 -0.02600090
v 0.04856834 -0.02268570 0.02054298
v 0.02225110 -0.01782401 -0.04483578
v 0.02621096 -0.05096653 0.01693976
v 0.05021156 -0.02669011 0.03359265
v 0.05221952 -0.03007129 0.05005044
v 0.04811753 -0.03474962 0.03672510
v -0.00008228 -0.02784226 -0.02925303
v 0.05499163 -0.01903013 0.05665184
v 0.00012201 -0.04591823 0.00131963
v 0.00915529 -0.04861332 0.00580207
v 0.02372860 -0.02795678 -0.01582417
v -0.04452083 0.00462286 -0.09601846
v 0.05490462 0.01551150 -0.01791965
v 0.05499856 -0.02195215 0.07074953
v 0.03940228 -0.01372642 -0.02019791
v 0.05484575 -0.00979361 0.02570273
v 0.05357505 0.02153816 -0.04195851
v 0.03751228 -0.04982267 0.02828854
v 0.00001560 -0.04106055 -0.00495963
v 0.05491104 0.02764892 -0.03318275
v -0.05498807 0.03578718 -0.08086327
v 0.01904984 -0.04195262 0.00212755
v -0.03672266 -0.00596422 -0.05787831
v -0.03187676 -0.01043307 -0.05412275
v -0.02383393 -0.01453541 -0.06351415
v -0.01836143 -0.01609805 -0.07315324
v -0.01766169 -0.01806484 -0.05445261
v -0.03716177 0.07773444 -0.05633067
v -0.01275477 -0.01953469 -0.05474831
v 0.00108123 -0.07039744 0.02324598
v 0.01754091 -0.07028855 0.02659920
v 0.03019242 -0.06923506 0.10503285
v 0.03678308 -0.06948169 0.09806559
v 0.03439910 -0.05915521 0.10423512
v 0.03044681 -0.05820224 0.10802270
v -0.00105061 -0.04143320 0.12207931
v 0.00707670 -0.04309766 0.12129916
v 0.00097169 -0.02672444 0.12449270
v 0.04893569 -0.03889116 0.08939544
v 0.04581660 -0.02572530 0.09994625
v 0.04386873 -0.04598391 0.09660223
v 0.05072213 -0.02485184 0.09078485
v 0.04091077 -0.04581963 0.10095178
v 0.03535432 -0.04248361 0.10799588
v 0.01001246 -0.02672779 0.12357783
v 0.04659580 -0.06000495 0.08374355
v 0.05085603 -0.04342360 0.08010810
v 0.03940393 -0.02624301 0.10789824
v 0.04302853 -0.02607940 0.10378142
v 0.01346217 -0.04793479 0.11902189
v 0.02049638 -0.04298937 0.11754671
v 0.02023411 -0.02673363 0.12064609
v 0.04106764 -0.06961931 0.09140612
v 0.05230013 -0.04015399 0.07329152
v 0.02576743 -0.04282429 0.11494943
v 0.02464265 -0.02667740 0.11868601
v 0.04357758 -0.07044413 0.08485867
v 0.03585086 -0.02698841 0.11119063
v 0.04593825 -0.06958698 0.07711516
v -0.03954903 -0.00162864 -0.08599210
v 0.05322393 -0.02451492 0.08332685
v 0.05444597 -0.02307320 0.07737756
v 0.00484506 -0.06931897 0.11586780
v 0.01368679 -0.06957252 0.11400227
v 0.00765111 -0.05865329 0.11799306
v 0.03117203 -0.02658090 0.11481915
v -0.00369864 -0.06917558 0.11600769
v 0.01959735 -0.06915645 0.11184654
v -0.00078406 0.02899677 0.01074386
v -0.00060939 0.03116982 0.01303085
v 0.01104811 0.03057935 0.01406457
v -0.00135985 0.02778303 0.00684527
v 0.05295626 0.03668551 0.05461387
v 0.05413083 0.00946946 0.05544557
v 0.05152078 0.02468042 0.04834972
v 0.04796246 0.02859136 0.04142170
v 0.04840468 0.03668546 0.04335351
v 0.04828160 0.02377665 0.03962638
v 0.04250935 0.02768604 0.03248380
v 0.03940549 0.03668517 0.03110488
v 0.01421434 0.02794358 0.01130061
v 0.02477811 0.02758772 0.01601998
v 0.03706550 0.03238089 0.02838527
v 0.03672766 0.02773925 0.02589866
v 0.03829928 0.02494591 0.02397478
v 0.04154223 0.02525834 0.02915326
v 0.03482648 0.02545479 0.02019282
v 0.03356861 0.03668508 0.02590119
v 0.00266691 0.03369267 0.01425601
v 0.02501287 0.02680151 0.00800085
v 0.02342082 0.03208888 0.01907214
v 0.05438336 0.03668582 0.06118885
v 0.01982919 0.03668489 0.01817354
v 0.01355073 0.03668488 0.01617337
v -0.00192098 0.03668483 0.01451443
v 0.05406862 -0.00116483 0.05028603
v 0.05373874 -0.00455874 0.03950797
v 0.05212783 0.00881242 0.04226379
v 0.05125854 0.01333073 0.04141154
v 0.04875262 0.01159806 0.02457614
v 0.04414692 0.01881801 0.02064874
v 0.04734026 0.01833013 0.03239052
v 0.04098843 0.02168877 0.01852046
v 0.05424326 -0.00521630 0.02389424
v 0.05495897 -0.01543281 0.04389334
v 0.03999020 0.02293516 0.00909802
v 0.03048581 0.02874590 -0.00304868
v -0.01697639 0.02915533 -0.00070275
v 0.03368975 0.02589224 0.00437881
v 0.04514153 0.01794334 0.01543907
v 0.05279324 -0.00019614 0.03448912
v 0.04484165 0.02774387 -0.01089362
v 0.04228952 0.02495769 -0.00259551
v 0.05140691 0.00575356 0.01954885
v 0.05163579 0.00758919 0.01320583
v 0.04811956 0.01329708 0.01785557
v 0.05250235 0.01650304 -0.00747656
v 0.04897993 0.01528620 0.00763923
v 0.05499637 0.03168793 0.06849117
v 0.05118287 0.02189163 -0.01243623
v 0.05034674 0.02693442 -0.01801633
v 0.04717885 0.02146021 -0.00241159
v 0.01099682 0.03329441 -0.00722877
v 0.00394218 0.03501141 -0.00866952
v 0.00968146 0.03074740 -0.00337807
v -0.03084707 0.08272291 -0.05713732
v 0.04546871 0.03387393 -0.01969412
v 0.04205874 0.03565969 -0.01875906
v 0.04514072 0.04342321 -0.02790395
v 0.05100359 0.03189144 -0.02514163
v 0.02480755 0.03084536 -0.00567522
v 0.05376180 0.04442146 -0.04109316
v -0.05042283 0.05918071 -0.05173296
v 0.03516327 0.03763700 -0.01715887
v 0.03928988 0.03064042 -0.01069122
v 0.02506909 0.03665270 -0.01311822
v -0.05233487 0.01935522 -0.05806498
v 0.03521029 0.05222544 -0.02721144
v 0.03219223 0.04269657 -0.02027904
v 0.04024447 0.04505057 -0.02565173
v 0.03547311 0.06792590 -0.03653510
v 0.03935852 0.06833657 -0.04043942
v 0.02984923 0.07692353 -0.04224801
v 0.01319322 0.08375446 -0.04134374
v 0.02210437 0.08592843 -0.05187154
v 0.01579654 0.08667628 -0.04781461
v 0.00090211 0.07634345 -0.03184701
v 0.01170859 0.07299399 -0.03079702
v 0.00901724 0.07973675 -0.03546191
v 0.04784502 0.05544455 -0.03861971
v 0.05185311 0.05222288 -0.04357279
v 0.04200506 0.06320871 -0.03831592
v 0.01004661 0.08923435 -0.04996149
v 0.02054117 0.06919540 -0.03052080
v 0.03278961 0.07930645 -0.04965717
v 0.03914080 0.07254305 -0.04596389
v 0.01809541 0.07775249 -0.03655025
v 0.01752191 0.06141448 -0.02532102
v 0.02709502 0.06011190 -0.02765363
v 0.04601936 0.06318202 -0.04403537
v 0.00545781 0.08340707 -0.03859227
v 0.04123027 0.05625562 -0.03280599
v 0.03035751 0.06504654 -0.03166150
v 0.00914976 0.08640361 -0.04368256
v 0.03063972 0.06858576 -0.03415346
v 0.04250901 0.07015038 -0.04825817
v 0.00267814 0.08929018 -0.04758566
v -0.00442443 0.08479594 -0.04017903
v 0.04921988 0.06030751 -0.04806244
v -0.01004375 0.04145874 -0.01400309
v 0.00239713 0.03859186 -0.01159664
v 0.00660735 0.04349298 -0.01479950
v 0.05000811 0.04017083 -0.03080315
v 0.01668523 0.04376147 -0.01642630
v -0.00028710 0.05070162 -0.01772266
v 0.00792797 0.06401782 -0.02489030
v -0.00258073 0.09126888 -0.05323628
v -0.00758328 0.08970278 -0.04997232
v -0.00257526 0.06860239 -0.02708973
v -0.04407045 0.07005207 -0.05415411
v -0.04712636 0.06554930 -0.05365449
v -0.05462334 0.02863905 -0.04196345
v -0.00174981 0.09215946 -0.05795520
v 0.04518360 -0.07063658 0.06055439
v 0.04104403 -0.07064071 0.04861433
v 0.01004042 -0.07070859 0.11436835
v 0.01750903 -0.07294149 0.10992485
v 0.02990628 -0.07241571 0.10249504
v -0.02407375 0.08652093 -0.05659644
v -0.01936871 0.08866334 -0.05773963
v -0.00883068 0.09147485 -0.05796834
v 0.05469613 0.03668610 0.07538566
v -0.05484856 0.03668581 0.06534509
v -0.05265852 0.03668561 0.05357977
v -0.05499834 0.03668589 0.07059578
v 0.05400933 0.03668618 0.08003423
v 0.05209662 0.03668632 0.08716958
v 0.05068884 0.03668640 0.09087443
v 0.04635741 0.03668655 0.09913859
v 0.04321438 0.03668662 0.10354583
v 0.03427382 0.03668678 0.11252545
v 0.02822819 0.03668686 0.11670503
v 0.02493837 0.03668689 0.11852477
v 0.01817492 0.03668693 0.12141845
v 0.00961177 0.03668696 0.12367043
v 0.00030158 0.03668698 0.12451252
v -0.00492012 0.03668697 0.12428201
v -0.01471384 0.03668693 0.12250609
v -0.02206664 0.03668687 0.11987498
v -0.03394320 0.03668673 0.11279066
v -0.04009153 0.03668663 0.10715726
v -0.04463150 0.03668651 0.10164419
v -0.04890045 0.03668638 0.09467559
v -0.05275067 0.03668620 0.08507263
v -0.05436927 0.03668606 0.07786188
v -0.04676719 0.00660039 -0.05656229
v -0.04464224 0.00334303 -0.05801764
v -0.01762760 0.03668486 0.01738551
v -0.05018448 0.03668546 0.04695994
v -0.03674810 0.03668505 0.02855954
v -0.04084041 0.03668514 0.03263957
v -0.01760077 -0.06953745 0.11261461
v -0.02312279 -0.06947352 0.10993396
v -0.02954431 -0.07090642 0.10452913
v -0.02785819 -0.06949537 0.10680996
v -0.03435618 -0.07020070 0.10052945
v -0.00880230 -0.06952269 0.11523323
v -0.03608613 0.06995790 -0.03886915
v -0.03369223 0.07398582 -0.04139373
v -0.03967385 0.07267459 -0.04719549
v -0.05245189 0.03548133 -0.03148349
v -0.04792009 0.03623582 -0.02484828
v -0.04722268 0.05132370 -0.03479841
v -0.02507603 0.03870216 -0.01493879
v -0.01883871 0.04426301 -0.01719241
v -0.03286232 0.06126943 -0.03069360
v -0.01907117 0.06936675 -0.03020064
v -0.03285241 0.06704089 -0.03422340
v -0.01443688 0.08771221 -0.04912183
v -0.03087911 0.07934692 -0.04719127
v -0.04900048 0.05527836 -0.04029518
v -0.04207616 0.06328809 -0.03846918
v -0.04846371 0.06113070 -0.04702299
v -0.05231826 0.04788012 -0.03992663
v -0.01269380 0.05544791 -0.02133405
v -0.00786936 0.06397461 -0.02486484
v -0.02459565 0.07607950 -0.03791033
v -0.02572292 0.08376159 -0.05070249
v -0.03939020 0.06053961 -0.03410555
v -0.03410098 0.04276207 -0.02106992
v -0.05456952 0.04409852 -0.04564135
v -0.01582474 0.08150434 -0.03967070
v -0.01068904 0.08704491 -0.04547103
v -0.04414162 0.06839004 -0.04880545
v -0.01791437 0.08407093 -0.04450265
v -0.02245091 0.06411984 -0.02812610
v -0.03477873 0.03777085 -0.01714492
v -0.04184623 0.04325766 -0.02538275
v -0.00807454 0.07477476 -0.03138862
v -0.03324222 0.04928907 -0.02477525
v -0.00782161 0.07852659 -0.03416779
v -0.04230644 0.03549618 -0.01877191
v -0.05368662 0.03023775 -0.03010583
v -0.05500611 0.03723085 -0.04222590
v -0.01148915 0.03582551 -0.00997191
v -0.05085948 0.02147392 -0.01091021
v -0.05129283 0.01011891 0.00962589
v -0.04616046 0.01842361 0.00877893
v -0.05226894 0.00977539 0.04385053
v -0.05053459 0.00732780 0.02821788
v -0.05321098 -0.00181188 0.03721235
v -0.04237404 0.02287522 0.02694879
v -0.04511308 0.01874521 0.02599610
v -0.04845484 0.01578817 0.03296420
v -0.05456027 0.00288632 0.05840553
v -0.05498042 -0.01838827 0.05431730
v -0.05453522 -0.00779018 0.05210862
v -0.05340282 0.00026529 0.04416183
v -0.03521472 0.02511551 0.01931322
v -0.04329009 0.01968946 0.01972060
v -0.04641403 0.03208603 -0.01858332
v -0.05034105 0.02871010 -0.02034017
v -0.04884758 0.01254433 0.01575956
v -0.04181369 0.02683384 0.03102006
v -0.03728256 0.02640111 0.02512258
v -0.01703660 0.02737154 0.00876220
v -0.05489368 -0.00798723 0.02362590
v -0.05483499 -0.00848137 0.02262240
v -0.05021803 0.00863815 0.01977706
v -0.03950520 0.02312983 0.00935216
v -0.02868043 0.02621511 0.00986213
v -0.03389972 0.02508168 0.01093125
v -0.05349235 0.00368424 0.01028805
v -0.05487494 0.01329325 -0.01633388
v -0.05423497 0.01473641 -0.01255027
v -0.01117127 0.03182780 -0.00526599
v -0.03366708 0.02641737 0.00204477
v -0.04694768 0.02209770 -0.00342611
v -0.03047632 0.03034051 -0.00630314
v -0.04126219 0.02689399 -0.00578885
v -0.03333251 0.03311012 -0.01144944
v -0.03848672 0.02577222 -0.00038891
v -0.05313812 0.02423120 0.05388149
v -0.05500196 -0.02183710 0.07043604
v -0.05487394 0.03320549 -0.06753303
v -0.05107078 0.02476710 0.04708379
v -0.04927292 0.02495984 0.04264645
v -0.01923447 0.03264808 0.01744938
v -0.01253100 0.02890090 0.01277032
v -0.04732364 0.03144967 0.04098943
v -0.03992340 0.03022967 0.03062296
v -0.02342674 0.02911043 0.01736471
v -0.02518197 0.03170679 0.01983553
v -0.01515349 -0.02672588 0.12237122
v -0.00547662 -0.02723349 0.12421157
v -0.01923730 -0.02710940 0.12101942
v -0.02755946 -0.02663580 0.11710850
v -0.03172256 -0.02657846 0.11443273
v -0.03709610 -0.02637719 0.11010338
v -0.04264703 -0.02656472 0.10419904
v -0.04723049 -0.02598692 0.09766603
v -0.04914710 -0.02573819 0.09415342
v -0.05172141 -0.02456153 0.08824451
v -0.05374804 -0.02412834 0.08112346
v -0.05370197 -0.02612729 0.05600729
v -0.05483055 0.00304669 -0.00031368
v -0.03688537 -0.04852586 0.10483686
v -0.04341171 -0.05311544 0.09461708
v -0.03960345 -0.04870800 0.10168323
v -0.04783559 -0.04370895 0.08982222
v -0.05032347 -0.04122474 0.08401953
v -0.04900884 -0.05240068 0.08071338
v -0.00664636 -0.04214209 0.12152727
v -0.04142283 -0.06968420 0.09067955
v -0.01946756 -0.04555651 0.11744274
v -0.01353565 -0.05366625 0.11778168
v -0.02629750 -0.04299882 0.11459206
v -0.05325256 -0.03402421 0.07376396
v -0.04929003 -0.05652452 0.07257625
v -0.03170053 -0.04275528 0.11099441
v -0.05171813 -0.04239883 0.06507822
v -0.03235988 -0.05351881 0.10771818
v -0.04650132 -0.06975708 0.06997981
v -0.04383589 -0.06966960 0.08510736
v -0.04926153 0.01139944 -0.05762178
v 0.04018784 -0.07398793 0.08497603
v 0.03014187 -0.08228288 0.08312157
v 0.03635081 -0.07870320 0.08035559
v 0.02603697 -0.08126117 0.04673249
v 0.02122564 -0.08490282 0.05013664
v 0.01839747 -0.08257193 0.04255220
v 0.01696986 -0.08975143 0.07106711
v 0.01227668 -0.08995843 0.08027368
v 0.01062617 -0.09087850 0.07636877
v 0.02467704 -0.08625321 0.06098809
v 0.01839683 -0.08832914 0.05883772
v 0.01208904 -0.08533762 0.04433354
v 0.00523248 -0.08882874 0.05030026
v -0.00148049 -0.08628085 0.04348860
v 0.01981698 -0.07906183 0.10130350
v 0.00448831 -0.08062380 0.10466148
v 0.01442416 -0.08497218 0.09417307
v 0.02999773 -0.08247527 0.05627656
v 0.03824294 -0.07767989 0.06108705
v 0.04024846 -0.07664669 0.07182369
v 0.03441728 -0.08131677 0.06709857
v 0.01349378 -0.09060489 0.06627080
v 0.00297956 -0.09202404 0.06547239
v 0.02859746 -0.08489680 0.06656080
v 0.00618514 -0.08433861 0.09856896
v 0.01062197 -0.08976179 0.05618092
v 0.00820636 -0.07839205 0.03206534
v 0.01646703 -0.08127690 0.03911058
v 0.00523322 -0.08302875 0.03801736
v 0.02122259 -0.07427833 0.10662552
v 0.01189253 -0.07740711 0.10712125
v 0.00583618 -0.08908631 0.08774345
v -0.00224507 -0.08599015 0.09601285
v 0.00063965 -0.08952703 0.08728129
v 0.02535791 -0.08532520 0.08120984
v 0.02399206 -0.08185449 0.09315687
v 0.01768564 -0.08724233 0.08563622
v 0.03173625 -0.08276550 0.07569748
v 0.02468127 -0.07492098 0.03532065
v 0.03751273 -0.07672772 0.05493077
v 0.01981751 -0.07434987 0.03166491
v 0.03245637 -0.07827442 0.04885274
v 0.03441716 -0.07421704 0.09501576
v -0.00131880 -0.07999262 0.03321494
v 0.00437525 -0.07470774 0.02735331
v 0.00523223 -0.09121703 0.05982548
v 0.04246641 -0.07392258 0.07698655
v 0.00279570 -0.09159648 0.07772567
v -0.02406993 -0.01612132 -0.04886419
v -0.00127429 -0.09218338 0.06748322
v -0.00148989 -0.07521377 0.11130761
v -0.00217738 -0.09050363 0.05536071
v -0.03705018 -0.00725786 -0.04657879
v -0.04513120 -0.00425404 -0.02567628
v -0.04498003 0.00096512 -0.04155440
v -0.05266912 -0.02465159 0.04367148
v -0.00766210 -0.08979748 0.08455360
v -0.02801686 -0.05395883 0.02113669
v -0.02148992 -0.05759671 0.01950007
v -0.03134666 -0.05605821 0.02592381
v -0.04134086 -0.07509305 0.07668489
v -0.02467375 -0.07564186 0.10273948
v -0.02753775 -0.07779586 0.09712138
v -0.03963496 -0.05259538 0.03383495
v -0.03921678 -0.06999154 0.04464446
v -0.04339226 -0.06965811 0.05266846
v -0.02284285 -0.08770331 0.06855419
v -0.03191221 -0.08300705 0.07087618
v -0.02477432 -0.08621883 0.06103881
v -0.02051573 -0.08336473 0.04575735
v -0.01839380 -0.08607642 0.05047432
v -0.02620374 -0.08331940 0.05211392
v -0.04797637 -0.06023678 0.06186122
v -0.03248914 -0.07713434 0.09243749
v -0.02338568 -0.08427414 0.08803925
v -0.03190670 -0.07982644 0.08721349
v -0.03316746 -0.08162174 0.07715811
v -0.01644185 -0.07591996 0.10715816
v -0.03748633 -0.07621778 0.08556163
v -0.02736840 -0.07946344 0.04460623
v -0.04617905 -0.01026176 -0.00936219
v -0.04814354 -0.03238596 0.03382580
v -0.05150469 -0.02309753 0.03365685
v -0.03316802 -0.08174322 0.06265171
v -0.01261613 -0.08417696 0.09672303
v -0.00967393 -0.07559699 0.10977893
v -0.02051448 -0.08173257 0.09645837
v -0.04827797 -0.04397119 0.04726013
v -0.04477990 -0.07063399 0.05875459
v -0.01696284 -0.08790878 0.08401027
v -0.01945799 -0.08832809 0.07810994
v -0.03797608 -0.07689992 0.05683582
v -0.03797477 -0.07316670 0.04757485
v -0.00759776 -0.09154316 0.07441625
v -0.03209788 -0.08155420 0.05783907
v -0.03812349 -0.07806651 0.06287102
v -0.00967642 -0.08689723 0.09223796
v -0.00882975 -0.09142566 0.06518198
v -0.02949495 -0.03353631 -0.00047624
v -0.03105928 -0.04260139 0.01295591
v -0.03570566 -0.03265994 0.00644451
v -0.01497510 -0.08949466 0.05964519
v -0.00309423 -0.08130261 0.10386925
v -0.03454958 -0.06993016 0.03839744
v -0.04241128 -0.07456853 0.06690687
v -0.02802479 -0.08473634 0.07696513
v -0.05022925 -0.03399776 0.04432800
v -0.00819776 -0.07693280 0.03034785
v -0.05024611 0.00620198 -0.02893575
v -0.05223191 0.00990991 -0.02607833
v -0.01470034 -0.07038289 0.02562673
v -0.01526681 -0.09020751 0.06703895
v -0.03428592 -0.04278352 0.01703763
v -0.03440155 -0.07719144 0.04966834
v -0.01929512 -0.07354210 0.03051857
v -0.01334524 -0.08135667 0.03774854
v -0.03745872 -0.07886320 0.07406115
v -0.03932093 -0.01006824 -0.02921523
v -0.01491307 -0.02050177 -0.04551749
v -0.00967764 -0.08727129 0.04766121
v -0.01952159 -0.02758807 -0.02050495
v -0.00879501 -0.03698625 -0.00946803
v -0.01453441 -0.04007462 -0.00272974
v -0.02321836 -0.07469605 0.03404820
v -0.02704905 -0.06995001 0.03165492
v -0.03084071 -0.01382485 -0.04055101
v -0.02111803 -0.04109655 0.00237772
v -0.02333222 -0.04700840 0.01079504
v -0.04432382 -0.03714750 0.02857762
v -0.01748948 -0.06619114 0.02390162
v -0.04023554 -0.03876835 0.02179980
v -0.00791650 -0.05854127 0.01509903
v -0.01322587 -0.05679319 0.01500098
v -0.03536096 -0.05054310 0.02598644
v -0.00820407 -0.05050212 0.00757766
v -0.00677924 -0.04643240 0.00276718
v -0.00902168 -0.02978511 -0.02247360
v -0.04303589 -0.02909876 0.01500059
v -0.02374580 -0.03286099 -0.00728725
v -0.02209613 -0.02082368 -0.03428923
v -0.02671836 -0.02398754 -0.02037282
v -0.04414314 -0.02184444 0.00623423
v -0.01203787 -0.02528813 -0.03170049
v -0.01848561 -0.02218053 -0.03484683
v -0.04415716 -0.04904700 0.03978262
v -0.04898994 0.00877798 -0.04478870
v -0.03519480 -0.01917828 -0.01732885
v -0.04193014 -0.01493867 -0.01159492
v -0.05270954 0.01708207 -0.03931203
f 1 2 3
f 4 5 6
f 1 7 2
f 8 9 10
f 7 11 12
f 13 14 15
f 16 17 5
f 7 12 18
f 19 20 21
f 5 22 23
f 24 25 5
f 26 27 28
f 5 29 22
f 25 14 5
f 13 30 9
f 5 31 29
f 18 12 26
f 14 13 5
f 5 32 31
f 30 13 15
f 5 33 32
f 25 34 35
f 36 37 17
f 13 38 5
f 20 39 21
f 38 8 5
f 5 40 33
f 24 41 34
f 8 42 5
f 15 14 35
f 27 26 17
f 27 43 44
f 27 16 43
f 45 46 47
f 5 48 40
f 49 50 51
f 52 53 54
f 1 53 55
f 42 56 5
f 55 53 57
f 56 58 5
f 5 59 48
f 58 60 5
f 28 27 44
f 50 61 62
f 61 47 46
f 60 47 5
f 53 63 57
f 60 58 64
f 50 62 51
f 5 65 59
f 53 1 54
f 47 50 5
f 57 11 55
f 58 56 66
f 67 4 68
f 58 66 64
f 67 5 4
f 5 69 65
f 70 37 36
f 56 42 66
f 42 10 66
f 71 5 72
f 72 5 67
f 50 20 5
f 5 63 69
f 60 64 45
f 73 5 74
f 36 17 26
f 74 5 75
f 75 5 71
f 76 5 77
f 19 43 16
f 19 21 43
f 77 5 78
f 78 5 79
f 79 5 80
f 80 5 73
f 42 8 10
f 24 5 76
f 20 19 5
f 5 70 63
f 11 57 12
f 16 27 17
f 81 54 82
f 5 37 70
f 8 38 9
f 54 83 82
f 19 16 5
f 5 17 37
f 1 3 54
f 57 70 12
f 5 84 6
f 36 12 70
f 49 39 20
f 65 85 59
f 52 85 65
f 7 55 11
f 54 3 83
f 38 13 9
f 1 55 7
f 24 34 25
f 12 36 26
f 46 62 61
f 86 87 88
f 89 68 4
f 90 28 91
f 92 93 94
f 95 96 97
f 92 98 93
f 18 26 28
f 91 28 44
f 99 100 59
f 101 102 103
f 104 105 106
f 59 100 48
f 105 107 108
f 106 109 110
f 111 3 112
f 100 113 48
f 114 115 116
f 117 118 119
f 106 110 120
f 116 115 121
f 118 122 119
f 123 124 125
f 97 126 127
f 128 129 130
f 101 103 118
f 104 106 131
f 48 132 40
f 116 121 133
f 86 88 124
f 91 44 134
f 111 83 3
f 135 94 136
f 91 134 137
f 93 138 94
f 129 133 139
f 133 121 140
f 97 141 126
f 135 136 142
f 126 143 127
f 122 125 144
f 109 112 145
f 135 146 114
f 135 142 146
f 138 136 94
f 97 96 141
f 147 144 127
f 139 147 148
f 129 148 130
f 149 119 147
f 114 146 115
f 107 150 108
f 130 148 151
f 93 152 153
f 112 3 2
f 118 123 122
f 118 103 123
f 137 134 96
f 131 106 154
f 131 154 87
f 142 136 146
f 102 86 103
f 93 153 138
f 155 31 32
f 44 43 134
f 109 145 110
f 143 156 127
f 134 21 96
f 145 112 2
f 134 43 21
f 130 151 157
f 105 108 106
f 125 97 144
f 88 158 124
f 125 124 95
f 147 127 159
f 121 117 140
f 141 160 126
f 96 21 39
f 121 115 161
f 126 160 143
f 121 161 117
f 102 87 86
f 152 162 153
f 88 120 158
f 124 158 95
f 96 49 141
f 129 139 148
f 96 39 49
f 143 163 156
f 133 140 139
f 5 23 164
f 143 160 163
f 141 49 160
f 153 162 104
f 119 144 147
f 160 49 51
f 145 18 90
f 115 146 101
f 2 18 145
f 103 86 123
f 120 110 90
f 145 90 110
f 122 144 119
f 146 136 102
f 115 101 161
f 136 138 165
f 160 51 163
f 150 111 112
f 153 165 138
f 33 132 166
f 2 7 18
f 136 165 102
f 163 51 62
f 120 91 158
f 161 101 118
f 120 90 91
f 144 97 127
f 150 112 108
f 113 167 132
f 168 169 170
f 148 159 151
f 95 158 137
f 161 118 117
f 122 123 125
f 125 95 97
f 113 168 167
f 162 107 104
f 117 119 140
f 123 86 124
f 107 105 104
f 108 109 106
f 153 131 165
f 153 104 131
f 95 137 96
f 165 131 102
f 90 18 28
f 140 119 149
f 91 137 158
f 74 75 171
f 139 140 147
f 154 106 120
f 172 81 82
f 146 102 101
f 148 147 159
f 108 112 109
f 173 98 92
f 154 88 87
f 154 120 88
f 94 135 174
f 94 174 92
f 140 149 147
f 131 87 102
f 175 176 177
f 32 33 155
f 175 177 178
f 179 180 181
f 182 183 184
f 182 185 183
f 177 186 187
f 180 188 181
f 189 190 182
f 191 187 192
f 193 194 195
f 196 182 184
f 192 187 186
f 177 187 178
f 128 197 190
f 193 195 188
f 176 196 184
f 186 176 184
f 194 198 199
f 200 189 196
f 176 186 177
f 198 178 201
f 180 193 188
f 182 196 189
f 194 199 195
f 202 128 190
f 155 33 203
f 186 183 192
f 182 204 185
f 178 187 201
f 130 197 128
f 113 100 168
f 168 100 169
f 182 190 204
f 204 197 205
f 206 207 208
f 197 157 205
f 198 209 199
f 197 130 157
f 200 202 189
f 206 208 180
f 206 179 210
f 206 180 179
f 198 201 209
f 208 207 193
f 207 211 194
f 208 193 180
f 207 194 193
f 211 175 198
f 211 198 194
f 175 178 198
f 184 183 186
f 202 190 189
f 187 191 201
f 190 197 204
f 212 213 214
f 214 215 212
f 216 217 218
f 219 220 216
f 219 216 218
f 218 221 219
f 222 220 219
f 221 222 219
f 223 220 222
f 224 214 225
f 224 215 214
f 33 40 132
f 226 222 227
f 228 227 229
f 230 227 228
f 231 223 226
f 214 213 232
f 215 224 233
f 234 231 226
f 235 217 216
f 223 222 226
f 222 221 229
f 227 222 229
f 226 227 234
f 234 236 231
f 214 236 234
f 234 227 225
f 237 236 214
f 225 227 230
f 232 237 214
f 237 232 238
f 234 225 214
f 239 240 241
f 221 218 242
f 242 241 243
f 228 229 244
f 244 229 245
f 246 230 228
f 159 247 248
f 249 225 230
f 215 250 251
f 99 169 100
f 252 225 249
f 253 249 246
f 252 250 233
f 99 52 81
f 48 113 132
f 240 248 254
f 255 250 252
f 255 252 256
f 247 257 254
f 230 246 249
f 258 159 156
f 259 243 257
f 163 260 156
f 258 260 261
f 253 243 259
f 218 217 242
f 262 239 217
f 263 260 163
f 248 239 151
f 239 248 240
f 229 221 245
f 264 256 265
f 243 241 240
f 263 264 265
f 254 243 240
f 266 267 268
f 243 245 242
f 159 258 247
f 261 259 258
f 243 254 257
f 74 269 73
f 245 243 244
f 228 244 246
f 62 263 163
f 254 248 247
f 270 255 264
f 225 233 224
f 271 270 272
f 99 59 85
f 253 246 244
f 256 252 249
f 273 270 264
f 252 233 225
f 272 270 273
f 253 244 243
f 261 265 253
f 274 251 250
f 62 264 263
f 265 261 263
f 275 273 264
f 276 68 89
f 271 277 278
f 261 253 259
f 275 264 62
f 247 258 257
f 266 268 274
f 249 253 265
f 270 278 255
f 259 257 258
f 271 278 270
f 267 266 279
f 157 151 262
f 249 265 256
f 278 274 250
f 245 221 242
f 278 277 274
f 261 260 263
f 156 260 258
f 255 256 264
f 280 22 29
f 235 262 217
f 239 262 151
f 242 217 241
f 241 217 239
f 274 268 251
f 233 250 215
f 274 279 266
f 277 279 274
f 278 250 255
f 151 159 248
f 159 127 156
f 281 282 283
f 284 285 286
f 287 288 289
f 271 272 283
f 290 291 292
f 293 275 294
f 295 293 285
f 289 288 296
f 275 62 46
f 291 297 292
f 288 286 298
f 286 299 298
f 297 300 292
f 301 302 297
f 293 294 303
f 290 292 304
f 296 288 35
f 296 34 41
f 281 283 305
f 286 285 299
f 172 170 99
f 172 99 81
f 169 99 170
f 302 306 297
f 302 281 306
f 296 35 34
f 275 45 294
f 275 46 45
f 287 307 292
f 308 300 297
f 308 284 286
f 297 306 308
f 295 272 293
f 285 284 295
f 285 293 303
f 304 292 307
f 285 309 299
f 304 310 311
f 309 303 312
f 285 303 309
f 292 300 287
f 298 299 9
f 9 299 309
f 10 309 312
f 9 30 298
f 281 305 306
f 81 52 54
f 313 314 315
f 283 272 305
f 75 71 171
f 273 316 272
f 304 307 310
f 85 52 99
f 314 267 315
f 267 317 315
f 294 312 303
f 288 15 35
f 45 64 294
f 267 279 317
f 288 298 15
f 318 315 319
f 310 307 296
f 315 317 301
f 312 294 66
f 279 282 317
f 310 320 321
f 318 319 322
f 294 64 66
f 315 301 319
f 306 284 308
f 306 305 284
f 310 296 320
f 309 10 9
f 307 287 289
f 298 30 15
f 312 66 10
f 322 319 290
f 305 272 295
f 279 277 282
f 307 289 296
f 300 286 287
f 308 286 300
f 317 282 281
f 323 72 324
f 325 22 280
f 76 326 41
f 305 295 284
f 317 302 301
f 320 41 326
f 317 281 302
f 316 273 275
f 272 316 293
f 277 283 282
f 76 77 326
f 319 291 290
f 319 301 291
f 277 271 283
f 320 296 41
f 316 275 293
f 286 288 287
f 301 297 291
f 133 129 327
f 129 128 327
f 133 328 116
f 328 133 327
f 329 330 207
f 207 330 211
f 331 176 175
f 331 196 176
f 203 33 166
f 175 211 330
f 206 329 207
f 25 35 14
f 80 332 333
f 326 77 334
f 70 57 63
f 72 323 71
f 76 41 24
f 49 20 50
f 77 78 334
f 47 60 45
f 50 47 61
f 53 52 65
f 69 53 65
f 63 53 69
f 335 235 236
f 336 236 337
f 338 236 336
f 335 236 339
f 339 236 340
f 340 236 341
f 341 236 342
f 342 236 343
f 343 236 344
f 344 236 345
f 345 236 346
f 346 236 347
f 347 236 348
f 348 236 349
f 349 236 350
f 350 236 351
f 351 236 352
f 352 236 353
f 353 236 354
f 354 236 355
f 78 79 334
f 355 236 356
f 356 236 357
f 357 236 358
f 358 236 338
f 359 155 360
f 236 238 361
f 220 223 236
f 236 223 231
f 337 236 362
f 363 236 361
f 334 79 333
f 364 236 363
f 362 236 364
f 216 220 236
f 235 216 236
f 236 237 238
f 365 366 367
f 366 368 367
f 367 368 369
f 206 210 329
f 329 210 370
f 321 311 310
f 371 372 373
f 79 80 333
f 374 375 376
f 377 313 378
f 379 380 381
f 382 333 332
f 372 383 373
f 384 385 386
f 387 384 386
f 388 313 389
f 378 313 388
f 89 387 386
f 381 380 390
f 391 382 332
f 392 393 379
f 394 387 89
f 395 311 396
f 389 318 322
f 385 371 397
f 72 67 324
f 393 377 378
f 392 379 381
f 395 396 398
f 378 388 399
f 397 371 373
f 396 311 321
f 386 385 397
f 400 377 393
f 376 401 392
f 402 389 322
f 393 378 403
f 89 386 276
f 402 322 290
f 371 381 390
f 392 381 371
f 382 398 396
f 383 391 269
f 171 373 383
f 269 391 332
f 382 396 321
f 387 374 376
f 402 290 404
f 390 395 398
f 399 388 389
f 385 392 371
f 380 389 402
f 171 383 269
f 386 397 324
f 403 378 399
f 400 393 401
f 399 389 380
f 404 290 304
f 405 400 401
f 276 386 324
f 397 373 323
f 324 397 323
f 404 304 311
f 323 373 171
f 371 390 372
f 380 402 404
f 383 390 398
f 379 399 380
f 403 399 379
f 382 321 333
f 384 376 385
f 395 380 404
f 334 320 326
f 334 321 320
f 387 376 384
f 74 171 269
f 333 321 334
f 392 385 376
f 80 73 332
f 374 387 406
f 332 73 269
f 394 406 387
f 407 406 394
f 395 404 311
f 391 383 398
f 391 398 382
f 372 390 383
f 313 408 314
f 401 393 392
f 393 403 379
f 313 315 318
f 390 380 395
f 389 313 318
f 376 375 401
f 409 410 411
f 412 413 414
f 415 416 417
f 338 336 418
f 338 418 419
f 336 412 418
f 420 419 418
f 420 412 421
f 415 422 423
f 424 425 409
f 416 423 426
f 417 427 415
f 417 413 412
f 415 427 428
f 251 429 215
f 413 430 431
f 428 422 415
f 423 422 411
f 413 432 430
f 422 433 411
f 414 413 431
f 415 423 416
f 413 416 432
f 434 435 422
f 429 251 434
f 425 406 409
f 436 437 430
f 409 406 438
f 432 426 410
f 410 436 432
f 406 437 438
f 425 374 406
f 439 267 408
f 439 268 267
f 435 251 440
f 430 432 436
f 406 407 437
f 441 409 411
f 251 442 440
f 411 443 441
f 439 408 442
f 424 375 425
f 438 436 410
f 408 444 442
f 375 374 425
f 444 400 405
f 444 443 445
f 444 405 424
f 336 446 412
f 338 419 447
f 412 420 418
f 412 414 421
f 413 417 416
f 432 416 426
f 405 401 424
f 4 6 394
f 325 448 22
f 444 424 443
f 377 400 444
f 443 424 441
f 424 401 375
f 435 433 422
f 423 411 426
f 438 410 409
f 436 438 437
f 435 440 433
f 251 435 434
f 439 251 268
f 440 445 433
f 426 411 410
f 164 448 84
f 267 314 408
f 421 414 420
f 442 251 439
f 433 443 411
f 433 445 443
f 446 449 412
f 442 445 440
f 445 442 444
f 6 84 394
f 414 431 419
f 444 408 313
f 444 313 377
f 441 424 409
f 450 417 449
f 420 414 419
f 449 417 412
f 213 212 451
f 452 215 429
f 337 446 336
f 337 362 446
f 360 203 166
f 362 449 446
f 453 449 362
f 453 362 364
f 449 453 450
f 453 364 454
f 453 427 450
f 427 453 454
f 361 238 213
f 427 454 428
f 455 429 428
f 452 429 455
f 212 452 451
f 454 363 456
f 212 215 452
f 417 450 427
f 454 364 363
f 456 363 361
f 361 451 456
f 455 454 456
f 455 428 454
f 455 456 451
f 428 429 422
f 451 452 455
f 361 213 451
f 429 434 422
f 232 213 238
f 350 457 458
f 341 183 185
f 84 448 407
f 350 351 457
f 341 342 183
f 351 352 459
f 351 459 457
f 342 343 183
f 343 192 183
f 352 460 459
f 343 191 192
f 343 344 191
f 352 353 460
f 353 461 460
f 344 201 191
f 353 462 461
f 344 345 209
f 344 209 201
f 353 354 462
f 354 463 462
f 345 199 209
f 345 346 199
f 354 355 463
f 355 464 463
f 346 195 199
f 346 347 195
f 355 356 464
f 347 188 195
f 356 465 464
f 347 348 188
f 235 335 262
f 356 466 465
f 262 335 157
f 356 357 466
f 348 181 188
f 357 467 466
f 335 205 157
f 348 349 181
f 335 339 205
f 339 204 205
f 357 358 467
f 339 340 204
f 340 185 204
f 358 447 467
f 349 350 181
f 350 458 181
f 358 338 447
f 340 341 185
f 468 419 431
f 431 430 437
f 431 437 469
f 407 394 84
f 394 89 4
f 463 470 462
f 471 472 464
f 473 471 464
f 474 475 473
f 457 476 458
f 477 369 471
f 464 472 463
f 472 369 470
f 459 478 479
f 460 478 459
f 480 478 460
f 459 479 457
f 473 464 465
f 481 482 475
f 324 67 276
f 483 480 460
f 171 71 323
f 484 482 481
f 466 473 465
f 484 481 447
f 475 474 467
f 474 473 466
f 470 485 483
f 486 482 484
f 487 477 473
f 164 23 448
f 467 474 466
f 471 369 472
f 481 475 467
f 477 471 473
f 365 370 479
f 23 22 448
f 476 210 179
f 488 31 359
f 155 203 360
f 447 481 467
f 370 210 476
f 463 472 470
f 5 164 84
f 461 483 460
f 365 479 478
f 487 473 475
f 366 365 478
f 479 370 476
f 480 366 478
f 486 487 475
f 462 483 461
f 470 483 462
f 458 179 181
f 482 486 475
f 476 179 458
f 368 366 483
f 483 366 480
f 369 368 485
f 479 476 457
f 470 369 485
f 485 368 483
f 489 490 491
f 492 493 494
f 495 496 497
f 498 495 499
f 500 501 502
f 503 504 505
f 506 498 493
f 507 508 509
f 359 31 155
f 510 497 511
f 489 200 196
f 506 509 512
f 505 504 513
f 500 514 501
f 499 495 510
f 499 510 514
f 515 516 517
f 518 519 503
f 503 519 504
f 175 330 518
f 520 521 522
f 520 513 521
f 518 330 519
f 508 128 202
f 506 512 498
f 523 524 525
f 512 526 495
f 527 135 114
f 116 328 114
f 328 327 528
f 276 67 68
f 135 527 529
f 516 494 500
f 328 528 530
f 516 500 517
f 328 530 114
f 524 531 503
f 114 492 527
f 494 493 500
f 493 498 499
f 531 196 331
f 515 517 532
f 280 29 488
f 515 532 533
f 488 29 31
f 514 534 501
f 135 529 174
f 327 507 528
f 114 530 492
f 526 490 523
f 526 523 495
f 508 535 491
f 330 329 519
f 531 331 503
f 511 497 536
f 497 496 520
f 489 531 490
f 167 168 537
f 519 329 504
f 493 499 500
f 511 536 538
f 489 196 531
f 535 200 489
f 132 167 166
f 535 202 200
f 527 516 529
f 508 526 509
f 497 520 536
f 524 505 525
f 504 329 539
f 327 508 507
f 501 534 540
f 535 489 491
f 541 542 543
f 327 128 508
f 527 492 516
f 174 515 92
f 495 523 496
f 174 529 515
f 508 491 526
f 528 506 530
f 509 526 512
f 514 510 534
f 525 520 496
f 524 503 505
f 525 505 520
f 529 516 515
f 92 515 533
f 516 492 494
f 528 507 506
f 490 531 524
f 510 511 534
f 530 506 492
f 431 544 468
f 92 533 173
f 499 514 500
f 503 331 518
f 490 524 523
f 517 500 502
f 507 509 506
f 517 502 532
f 508 202 535
f 331 175 518
f 520 545 536
f 526 491 490
f 546 547 548
f 495 497 510
f 523 525 496
f 492 506 493
f 520 522 545
f 520 505 513
f 534 511 538
f 498 512 495
f 549 487 486
f 550 367 551
f 552 553 554
f 555 556 557
f 558 559 560
f 551 367 369
f 561 486 484
f 551 369 562
f 563 564 565
f 566 365 367
f 567 562 477
f 558 560 568
f 569 570 571
f 557 556 572
f 573 574 575
f 576 577 561
f 545 578 579
f 521 513 504
f 580 577 581
f 538 536 582
f 583 584 580
f 545 585 578
f 539 329 370
f 549 567 487
f 538 582 586
f 587 588 589
f 583 572 584
f 559 590 557
f 521 504 591
f 592 568 581
f 567 477 487
f 593 486 577
f 579 594 555
f 173 533 98
f 521 573 585
f 570 576 595
f 533 596 98
f 574 566 575
f 597 569 598
f 369 477 562
f 596 533 532
f 98 596 599
f 521 591 573
f 559 557 560
f 586 600 590
f 589 588 601
f 581 553 592
f 568 560 602
f 563 575 551
f 596 603 599
f 568 602 581
f 555 594 556
f 585 573 578
f 596 532 604
f 578 563 579
f 596 604 603
f 536 545 582
f 593 549 486
f 586 582 600
f 563 551 564
f 539 370 574
f 532 502 604
f 605 549 593
f 560 583 602
f 564 551 562
f 541 606 542
f 172 111 607
f 560 557 583
f 502 608 604
f 580 584 577
f 605 565 549
f 564 567 565
f 590 555 557
f 609 610 611
f 502 501 608
f 579 563 594
f 604 612 603
f 590 600 555
f 603 612 613
f 573 563 578
f 594 565 556
f 166 167 614
f 501 540 608
f 572 556 605
f 575 550 551
f 575 566 550
f 572 605 584
f 565 567 549
f 591 504 539
f 574 365 566
f 608 558 604
f 582 579 600
f 574 370 365
f 604 568 612
f 591 574 573
f 591 539 574
f 522 585 545
f 540 534 538
f 608 559 558
f 582 545 579
f 604 558 568
f 556 565 605
f 579 555 600
f 608 540 590
f 615 616 587
f 608 590 559
f 540 538 590
f 602 580 581
f 468 484 419
f 612 568 592
f 594 563 565
f 583 557 572
f 522 521 585
f 584 593 577
f 584 605 593
f 570 617 576
f 573 575 563
f 538 586 590
f 566 367 550
f 602 583 580
f 564 562 567
f 581 577 554
f 554 553 581
f 618 599 603
f 613 612 592
f 613 618 603
f 548 553 552
f 589 601 619
f 620 621 615
f 622 548 552
f 419 484 447
f 152 623 624
f 625 610 609
f 626 619 617
f 627 615 587
f 166 614 541
f 616 621 547
f 595 468 544
f 598 571 469
f 623 620 615
f 611 615 627
f 597 542 569
f 628 609 614
f 614 609 629
f 630 570 569
f 609 611 627
f 150 107 631
f 431 571 544
f 107 625 631
f 543 542 597
f 607 631 537
f 537 631 632
f 546 548 622
f 468 561 484
f 541 543 360
f 552 554 633
f 93 623 152
f 166 541 360
f 469 571 431
f 616 547 546
f 634 543 597
f 589 619 626
f 172 607 170
f 615 621 616
f 616 546 588
f 170 607 537
f 570 595 571
f 614 629 635
f 162 152 624
f 571 595 544
f 636 630 569
f 619 552 633
f 626 617 570
f 576 561 468
f 598 469 437
f 488 543 634
f 546 622 601
f 614 635 606
f 360 543 359
f 597 598 637
f 637 598 437
f 359 543 488
f 587 616 588
f 636 626 630
f 635 627 587
f 601 622 552
f 162 624 610
f 634 597 637
f 609 627 629
f 619 633 617
f 637 437 325
f 488 634 280
f 624 623 611
f 595 576 468
f 537 632 628
f 280 634 637
f 617 633 576
f 610 624 611
f 587 589 636
f 629 627 635
f 588 546 601
f 168 170 537
f 611 623 615
f 606 635 636
f 325 280 637
f 630 626 570
f 631 625 632
f 619 601 552
f 407 325 437
f 561 577 486
f 542 636 569
f 618 613 547
f 98 599 620
f 167 537 628
f 448 325 407
f 625 107 610
f 576 554 577
f 547 613 592
f 93 98 620
f 633 554 576
f 606 636 542
f 598 569 571
f 541 614 606
f 167 628 614
f 636 589 626
f 632 625 628
f 628 625 609
f 635 587 636
f 107 162 610
f 607 150 631
f 548 592 553
f 621 618 547
f 620 599 621
f 623 93 620
f 83 111 82
f 621 599 618
f 547 592 548
f 111 150 607
f 82 111 172

