# https://github.com/mikedh/trimesh
mtllib material.mtl

o meshId0
usemtl material_0
v -0.04536063 -0.00442715 -0.05848949
v -0.05014047 -0.01459584 -0.12350137
v -0.04932869 -0.01157165 -0.05841620
v -0.02781827 -0.08470909 -0.12350106
v -0.01809710 -0.08918746 -0.05879061
v -0.02802905 -0.08457392 -0.05833690
v -0.04726293 -0.00912689 -0.12350136
v -0.03243127 -0.08169224 -0.12350108
v -0.03429344 -0.08025128 -0.05775644
v -0.00818032 0.01717609 -0.10666244
v -0.00002685 0.01798214 -0.09682645
v -0.00449987 0.01759436 -0.12350117
v -0.01625641 0.08763630 0.05238863
v -0.02261925 0.08740061 0.06230422
v -0.01408058 0.09020704 0.06272785
v -0.01334038 -0.09061918 -0.12350097
v -0.01139561 -0.09105416 -0.05890580
v -0.00437899 0.08976821 0.05223748
v -0.01179236 0.08767371 0.04897263
v -0.04053525 -0.00008927 -0.12350135
v -0.00359654 -0.09214734 -0.12350090
v -0.00324853 -0.09215066 -0.05897545
v -0.04139432 0.00103073 -0.05761043
v -0.01829390 -0.08913461 -0.12350104
v 0.00534180 0.01751454 -0.12350111
v -0.00814741 0.01823693 -0.07962493
v 0.00113390 0.01890422 -0.07856051
v -0.01444324 0.01676004 -0.08186887
v -0.01590610 0.01767423 -0.06468593
v -0.03521989 0.00516266 -0.10128423
v -0.03997137 0.00090005 -0.09403031
v -0.03131604 0.00914973 -0.07623645
v -0.01553698 0.07897605 0.03433355
v -0.01211811 0.08398686 0.04077345
v -0.00672523 0.08032297 0.03334699
v -0.05475432 -0.03197698 -0.12350106
v -0.05500091 -0.03624478 -0.11850332
v -0.05491477 -0.03379019 -0.06288198
v -0.03453112 0.00792467 -0.05835941
v -0.02467097 0.01473354 -0.05711232
v -0.05231818 -0.02028232 -0.12350138
v -0.05387552 -0.02616850 -0.12350134
v -0.05249928 -0.01930827 -0.05215920
v -0.05479286 -0.04213833 -0.04564032
v -0.05419402 -0.02671438 -0.04920543
v -0.00582614 0.09028725 0.08225849
v 0.00309457 0.08830088 0.08948996
v 0.00288058 0.09071175 0.08137102
v -0.01069250 0.01674200 -0.12350120
v -0.01929683 0.01433032 -0.10502686
v -0.05248680 -0.05376836 -0.12350128
v -0.05345591 -0.05024205 -0.04934179
v -0.01925209 0.08267849 0.09453904
v -0.02071317 0.07746732 0.10193985
v -0.01116385 0.07874030 0.10463749
v -0.02358145 0.01244595 -0.12350127
v -0.02755681 0.01093582 -0.08852796
v -0.03778636 0.00489317 -0.05878393
v -0.00417928 0.08774477 0.09074459
v -0.03066184 0.00869753 -0.09688932
v -0.05043631 -0.05923796 -0.05276349
v -0.02841911 0.00984140 -0.12350126
v -0.05056713 -0.05894665 -0.12350124
v -0.01954937 0.01481996 -0.08706821
v -0.05468489 -0.04323135 -0.12350066
v -0.04800854 -0.06412385 -0.12350124
v -0.04723404 -0.06539799 -0.05395913
v -0.00610719 0.07022343 0.02254624
v -0.00523666 0.07611576 0.02800831
v -0.00062577 0.07027961 0.02219195
v -0.04496577 -0.06895309 -0.12350125
v -0.03708645 0.00334527 -0.12350133
v -0.04344478 -0.07096899 -0.05541577
v -0.00201197 0.02088153 -0.05712696
v -0.03991927 -0.07510113 -0.12350119
v -0.00968215 0.01989865 -0.05812051
v -0.03740611 0.07781520 0.05770842
v -0.03035584 0.08356202 0.06234337
v -0.02783470 0.08340190 0.05432346
v -0.03647211 -0.07843957 -0.12350114
v 0.00009499 0.05779948 0.01263530
v -0.00982556 0.05801903 0.01413353
v -0.01751556 0.04330743 0.00200060
v -0.01774733 0.03446022 -0.01022054
v -0.02589130 0.03218578 -0.00726470
v -0.02096011 0.06997286 0.02698762
v -0.01100547 0.07029732 0.02352489
v -0.02427693 0.05835335 0.02090396
v -0.01176201 0.02415058 -0.03601244
v -0.00390701 0.02381564 -0.04145197
v -0.01487288 0.01927608 -0.05288467
v -0.04135351 0.07465561 0.05932011
v -0.03682386 0.07948662 0.06619362
v -0.02874326 0.08483683 0.06941916
v -0.02035051 0.08861764 0.06933391
v -0.01116150 0.08505230 0.09453946
v -0.04788611 0.03164168 0.03096845
v -0.05116184 0.02817728 0.03963513
v -0.04975906 0.04340227 0.05189724
v -0.00703296 0.03186781 -0.01979570
v -0.00000500 0.03463025 -0.01590657
v 0.00007236 0.02971351 -0.02560757
v -0.04459779 0.01113764 -0.01312670
v -0.04861979 -0.00448760 -0.03416318
v -0.04873839 0.00987815 -0.00285551
v -0.03089168 0.01278849 -0.04543176
v -0.04392413 0.04462512 0.03444038
v -0.04285176 0.03388033 0.02022128
v -0.04622300 0.02776191 0.02025397
v -0.02946255 0.02502574 -0.01560132
v -0.02016091 0.02378844 -0.02936003
v -0.02987457 0.01914888 -0.02758839
v -0.05320802 0.00296975 0.00167286
v -0.05274625 -0.00575178 -0.01635037
v -0.05491449 -0.00268561 0.00108271
v -0.02670354 0.07582122 0.09980028
v -0.02438712 0.07272062 0.10537813
v -0.03587839 0.06967495 0.03879715
v -0.02540812 0.06985184 0.02948849
v -0.03332053 0.05889505 0.02910827
v -0.04357218 0.07340225 0.06884499
v -0.03675421 0.00953635 -0.03932775
v -0.04298051 0.00082124 -0.04649685
v -0.04745311 -0.00624971 -0.04749246
v -0.04015492 0.05313411 0.03414534
v -0.01614032 0.05822888 0.01638869
v -0.01027884 0.03864047 -0.00740654
v -0.03939874 0.06961501 0.04366161
v -0.04540853 0.06945340 0.05810548
v -0.04935244 0.05569198 0.06503530
v -0.04652089 0.06966104 0.06882250
v -0.03122437 0.04187838 0.01140294
v -0.02583259 0.04510775 0.00976515
v -0.03205701 0.03519620 0.00401156
v -0.05017168 0.01985364 0.02074653
v -0.05484295 0.00712386 0.01867518
v -0.04771873 0.04724836 0.04729392
v -0.02163251 0.01914771 -0.04134564
v -0.04090048 0.02372265 0.00107833
v -0.04576058 0.02151221 0.00904289
v -0.03737085 0.07508899 0.08749332
v -0.03135128 0.07713399 0.09289236
v -0.02593503 0.08088519 0.09204938
v -0.03034773 0.01653812 -0.03364386
v -0.02262140 0.08685647 0.07839959
v -0.01022193 0.09060606 0.07751018
v -0.01608563 0.02972741 -0.01966635
v -0.05274922 0.03764489 0.06802205
v -0.05498115 0.01681738 0.04782615
v -0.05500247 0.02189460 0.06974113
v -0.04316013 0.06966669 0.05109449
v -0.00587052 0.09142321 0.06101748
v 0.00447725 0.08984021 0.05254066
v -0.03717130 0.04047052 0.01762340
v -0.02856317 0.08027000 0.04681706
v -0.02318242 0.08057167 0.04165959
v -0.00689070 0.04915125 0.00494026
v -0.05284216 -0.01784007 -0.04109452
v -0.03579487 0.01458024 -0.02736598
v -0.00003717 0.04449450 -0.00134449
v -0.05490835 -0.01556824 -0.01890907
v -0.03563957 0.02942311 0.00065813
v -0.03496899 0.02154214 -0.01389825
v -0.05377979 0.01998457 0.04149226
v -0.03263466 0.05170006 0.02274210
v -0.02012813 0.05032005 0.01120197
v -0.05419447 -0.02129176 -0.03475793
v -0.02655619 0.06955911 0.10672320
v -0.00001569 0.02655475 -0.03352145
v -0.01495110 0.08653189 0.08902953
v -0.00478762 0.08532616 0.04107801
v 0.00373154 0.08423658 0.03891776
v -0.01321702 0.09068756 0.06981695
v -0.00075025 0.09215066 0.06985810
v -0.03420639 0.07062271 0.09928317
v -0.04215221 0.00915701 -0.02433677
v -0.05491755 -0.02938559 -0.03593706
v -0.04358122 0.07038908 0.08386679
v -0.03047670 0.08191767 0.08248602
v -0.01932692 0.07490175 0.03108273
v -0.05034775 0.04625594 0.07905990
v -0.04593978 0.06953476 0.07613096
v -0.04994509 0.05210464 0.07438862
v -0.00106854 0.04136619 0.12109034
v -0.00592514 0.02722695 0.12316521
v 0.00104703 0.02666286 0.12350127
v -0.02997194 0.05347496 0.10864934
v -0.02631383 0.04275799 0.11363817
v -0.04893910 0.03883662 0.08840495
v -0.05218993 0.02435030 0.08594323
v -0.03954896 0.04643409 0.10145877
v -0.03602986 0.04201047 0.10647000
v -0.03467392 0.06960770 0.09952115
v -0.04387227 0.04592941 0.09561087
v -0.04803768 0.02593556 0.09527168
v -0.01001645 0.04367093 0.11969106
v -0.01906910 0.04328891 0.11707663
v -0.01375177 0.02724495 0.12173837
v -0.03788029 0.02689384 0.10835943
v -0.04127327 0.02609330 0.10489263
v -0.02472849 0.02660307 0.11765533
v -0.04656463 0.05395271 0.08667142
v -0.04587050 0.02567171 0.09887849
v -0.03929342 0.06940160 0.09353153
v -0.05390497 0.02405851 0.07939303
v -0.05458102 0.02344345 0.07520455
v -0.00535707 0.06926615 0.11482362
v -0.00101619 0.05193675 0.11903229
v 0.00610165 0.06941893 0.11468770
v -0.01839215 0.06946394 0.11129396
v -0.03111641 0.02651668 0.11387040
v -0.02553931 0.08442805 0.08318827
v -0.03913213 0.07733793 0.07374921
v -0.02465387 -0.02691994 0.01225963
v -0.01206632 -0.02968941 0.01252769
v -0.02170947 -0.02917650 0.01550214
v -0.05500018 -0.03174303 0.06750226
v -0.05461469 -0.03674137 0.06189032
v -0.05463408 -0.03674135 0.07509656
v -0.05263493 -0.02425493 0.05087638
v -0.05115955 -0.03674136 0.04827336
v -0.05306992 -0.03674119 0.05401676
v -0.04976757 -0.02529320 0.04291110
v -0.04473219 -0.03155248 0.03594071
v -0.04234586 -0.03674132 0.03337902
v -0.04603162 -0.02543437 0.03536780
v -0.03407113 -0.03673987 0.02531382
v -0.04152751 -0.02728271 0.02995135
v -0.00486041 -0.02843546 0.00901243
v -0.03770644 -0.02420923 0.01948175
v -0.00764140 -0.03674116 0.01402044
v -0.00267120 -0.03374932 0.01326638
v 0.00500539 -0.03674141 0.01371684
v 0.00074597 -0.03124594 0.01205648
v -0.03439401 -0.03077926 0.02458629
v -0.03529105 -0.02642157 0.02189015
v -0.00381897 0.07070635 0.11429044
v 0.00381420 0.07073683 0.11426801
v -0.00017702 0.07495475 0.11054835
v -0.03798743 0.07554900 0.05194331
v -0.02254241 -0.03367748 0.01805183
v -0.02205468 -0.03674140 0.01810536
v -0.03099753 -0.02688134 0.00155009
v -0.01548898 -0.02882744 -0.00040722
v -0.02124664 -0.02737743 0.00502114
v -0.04521984 -0.02000183 0.02763871
v -0.05005483 -0.01333319 0.03530114
v -0.05395276 0.00013957 0.04853141
v -0.05262599 -0.00405089 0.04020060
v -0.01836222 -0.03511009 -0.01113353
v -0.01940128 -0.03074069 -0.00533983
v -0.03322725 -0.02884938 -0.00532743
v -0.04163767 -0.02825966 -0.00951435
v -0.04476174 -0.02529630 -0.00740300
v -0.03670061 -0.03292963 -0.01343453
v -0.05016863 -0.01314520 0.00722392
v -0.04894256 -0.01151844 0.01856165
v -0.05176905 -0.00469549 0.01893543
v -0.05425353 0.00793746 0.04183767
v -0.05323428 0.00236827 0.02957078
v -0.05061072 -0.00780446 0.02978721
v -0.04608671 -0.01645264 0.01713007
v -0.04713815 -0.01570900 0.02623497
v -0.01135681 0.07071704 0.11301962
v -0.03306817 -0.02538708 0.00929269
v -0.05249989 -0.03035433 -0.02769199
v -0.05118635 -0.02194885 -0.01342568
v -0.05210132 -0.00636778 0.01234432
v -0.03974652 -0.02256200 0.01578004
v -0.03999446 -0.02299159 0.00810782
v -0.04206222 -0.03571782 -0.01974924
v -0.04815594 -0.03454702 -0.02439990
v -0.03973737 -0.04525733 -0.02644297
v -0.03447565 -0.03748034 -0.01766531
v -0.04757017 -0.02121832 -0.00362782
v -0.05345060 -0.01536748 -0.01040145
v -0.05486412 0.00227530 0.06136249
v -0.03146697 0.07417478 0.03943457
v 0.00219390 -0.03434423 -0.00885997
v 0.00219288 -0.03031416 -0.00309832
v -0.05075687 -0.03827066 -0.03144467
v -0.00649585 -0.03905353 -0.01307584
v -0.00231972 0.07997520 0.10467631
v -0.05300220 -0.04581032 -0.04078662
v -0.00391464 -0.02786320 0.00488064
v 0.01196479 -0.02832717 0.00169475
v -0.00403176 -0.07610758 -0.03279502
v -0.01136690 -0.07559969 -0.03353361
v 0.00034358 -0.08124307 -0.03679581
v -0.01111054 -0.08913387 -0.05120606
v -0.03305404 -0.04143786 -0.02060591
v -0.03497810 -0.04769939 -0.02560618
v -0.00764264 -0.08151589 -0.03782621
v -0.01934284 -0.08490679 -0.04788601
v -0.02372232 -0.08617491 -0.05553822
v -0.00198084 -0.08505688 -0.04118637
v -0.02947567 -0.07880698 -0.04568177
v -0.01601680 -0.07862523 -0.03748967
v -0.02246903 -0.06899329 -0.03196956
v -0.03592246 -0.07158575 -0.04140374
v -0.04090292 -0.07178420 -0.04880250
v -0.02483870 -0.06029422 -0.02789726
v -0.03477322 -0.06170848 -0.03287803
v -0.01036098 -0.08533476 -0.04333385
v -0.02301699 -0.07677142 -0.03876340
v -0.03318801 -0.06833819 -0.03630934
v -0.03536806 -0.07754385 -0.05067804
v -0.00178892 -0.09013522 -0.05036543
v -0.00224255 -0.08842288 -0.04657611
v -0.05102516 -0.05159887 -0.04145077
v -0.04229004 -0.06433950 -0.04059694
v -0.03994665 -0.05996808 -0.03508923
v -0.04753928 -0.05432805 -0.03822943
v -0.04591509 -0.06629653 -0.05040297
v 0.00212370 -0.04123566 -0.01424788
v -0.00658139 -0.04355321 -0.01578791
v -0.02056751 -0.03867725 -0.01476142
v -0.00515479 -0.05526930 -0.02107741
v 0.00063836 -0.05787033 -0.02214288
v -0.01278708 -0.04638515 -0.01805856
v -0.01383030 -0.06147498 -0.02546665
v 0.00531410 0.08744659 0.04576004
v -0.00905260 -0.06906696 -0.02885733
v 0.00094138 -0.06733604 -0.02726912
v -0.02734094 0.07257705 0.03359099
v 0.00388380 -0.09135766 -0.05467443
v 0.04485891 -0.03674147 0.03666516
v 0.03072549 -0.03674133 0.02286520
v 0.03966151 -0.03674145 0.03038313
v -0.03549257 -0.03674128 0.11055268
v -0.03136753 -0.03674126 0.11369670
v -0.02420376 -0.03674126 0.11791744
v -0.01883288 -0.03674127 0.12020209
v -0.04835402 -0.03674131 0.09477749
v -0.04307642 -0.03674130 0.10276454
v -0.03923466 -0.03674129 0.10706834
v -0.05263879 -0.03674133 0.08459350
v -0.05064318 -0.03674132 0.09000499
v 0.05124503 -0.03674136 0.04852480
v 0.05372365 -0.03674104 0.05673035
v 0.05499588 -0.03674139 0.06890555
v -0.01042536 -0.03674125 0.12252794
v 0.00297417 0.08146483 0.10256950
v 0.00202260 -0.03674126 0.12347481
v 0.00732270 -0.03674126 0.12303531
v 0.01250243 -0.03674125 0.12207080
v 0.02421891 -0.03674127 0.11790197
v 0.02879667 -0.03674128 0.11537038
v 0.03317634 -0.03674127 0.11239110
v 0.03767949 -0.03674129 0.10859061
v 0.04168176 -0.03674130 0.10440904
v 0.04867202 -0.03674132 0.09412949
v 0.05167278 -0.03674133 0.08735652
v 0.05325840 -0.03674135 0.08230661
v 0.05477477 -0.03674137 0.07364544
v 0.05464680 -0.03674135 0.06229766
v 0.01793642 -0.03674142 0.01650230
v 0.01989197 0.01402599 -0.12350101
v 0.02849360 0.00977339 -0.12350094
v 0.05479142 -0.03234135 -0.12350069
v 0.05110000 -0.01687997 -0.12350078
v 0.03580216 0.00448251 -0.12350089
v 0.04464177 -0.00514650 -0.12350083
v 0.04803488 -0.01045190 -0.12350078
v 0.05494131 -0.03990756 -0.12350063
v 0.05447563 -0.04489898 -0.12350070
v 0.05289556 -0.05234115 -0.12350069
v 0.04955504 -0.06109839 -0.12350065
v 0.04551311 -0.06812001 -0.12350068
v 0.03893944 -0.07610964 -0.12350072
v 0.03532248 -0.07940959 -0.12350073
v 0.03146073 -0.08237664 -0.12350073
v 0.02597551 -0.08576056 -0.12350072
v 0.01962719 -0.08865719 -0.12350079
v 0.00963398 -0.09139638 -0.12350085
v 0.00521328 -0.09201674 -0.12350086
v 0.05389630 -0.02604208 -0.08958102
v 0.01644889 -0.08973421 -0.05883802
v 0.04108437 -0.00053519 -0.10271829
v 0.01959654 0.01424061 -0.10294855
v 0.02755678 0.01047724 -0.10242517
v 0.00834119 0.01717526 -0.10416365
v 0.05104669 -0.05771727 -0.05223506
v 0.02025298 0.06945472 0.11043917
v 0.02785356 0.06944072 0.10581902
v 0.02318163 0.07300071 0.10583901
v 0.03101055 0.06951101 0.10320807
v 0.02998483 0.07379200 0.09958924
v 0.03723571 0.06952620 0.09642289
v 0.04031747 0.07516915 0.07962359
v 0.04534053 0.06953865 0.07907557
v 0.04592660 0.07052115 0.07243495
v 0.04141881 0.06962918 0.08968833
v 0.04383285 0.06961477 0.08411340
v 0.01396534 0.07071803 0.11226139
v 0.01479402 -0.04198514 -0.01595370
v 0.01094409 -0.05786533 -0.02312170
v 0.01343619 -0.08933950 -0.05355208
v 0.01314924 -0.09064914 -0.05888230
v 0.02948464 -0.07288727 -0.03818933
v 0.02038646 -0.07048704 -0.03229112
v 0.01462854 -0.08270047 -0.04151609
v 0.05180355 -0.03906688 -0.03385580
v 0.04489198 -0.03592682 -0.02227765
v 0.04784210 -0.05031565 -0.03574108
v 0.02970917 -0.06878689 -0.03479743
v 0.03730361 -0.06007453 -0.03340629
v 0.02714401 -0.06366903 -0.03047604
v 0.00468379 -0.08432769 -0.04052335
v 0.00922694 -0.08572220 -0.04352621
v 0.02372309 -0.08431060 -0.05061254
v 0.01623130 -0.03334001 -0.00880961
v 0.02314989 -0.04071401 -0.01693356
v 0.02324255 -0.04752223 -0.02118022
v 0.00311727 -0.08902436 -0.04792202
v 0.05500246 -0.03730028 -0.04322285
v 0.05384462 -0.04335390 -0.04139840
v 0.05430886 -0.04598856 -0.04750532
v 0.03084015 -0.07684890 -0.04385189
v 0.03299481 -0.03558986 -0.01520861
v 0.00785514 -0.06802655 -0.02810031
v 0.04425554 -0.06838113 -0.05000947
v 0.04718914 -0.06137150 -0.04490958
v 0.03951708 -0.06788782 -0.04107213
v 0.01731382 -0.08447670 -0.04567712
v 0.05002354 -0.05140219 -0.03937582
v 0.02033164 -0.05999940 -0.02634591
v 0.03921427 -0.07302410 -0.04789190
v 0.03998245 -0.03868765 -0.02143429
v 0.04966119 -0.06088776 -0.05326368
v 0.02410750 -0.08667511 -0.05856972
v 0.00799814 -0.07385905 -0.03171778
v 0.03348371 -0.04906338 -0.02571936
v 0.01609074 -0.06863739 -0.02990300
v 0.03233025 -0.07893067 -0.04902342
v 0.03497637 -0.07875980 -0.05327464
v 0.05123873 -0.03104920 -0.02567447
v 0.03813841 -0.07687320 -0.05716126
v 0.04673019 -0.06623984 -0.05483975
v 0.00631829 -0.07958851 -0.03577155
v 0.02836671 -0.08436622 -0.05830705
v 0.04306577 -0.06244984 -0.03975140
v 0.00645338 -0.09186914 -0.05893677
v 0.04348145 -0.07089779 -0.05537318
v 0.04313353 -0.04499437 -0.02842599
v 0.02957390 -0.02661533 0.00410017
v 0.02736219 -0.02885879 -0.00308288
v 0.03567248 -0.03127775 -0.01070292
v 0.02333078 -0.03178117 -0.00778517
v 0.04201244 -0.02239067 0.00532761
v 0.04658480 -0.01963163 0.00286862
v 0.04424911 -0.01937955 0.01175163
v 0.05215598 -0.00777511 0.00918967
v 0.05279050 -0.01956664 -0.01459673
v 0.05490084 -0.01226663 -0.01425323
v 0.05150753 -0.00469699 0.02170031
v 0.04797657 -0.01412813 0.01449045
v 0.03755974 -0.02615364 -0.00139101
v 0.04589871 -0.02411333 -0.00673845
v 0.04302716 -0.02783057 -0.01005224
v 0.05100586 -0.02101116 -0.01142464
v 0.04889401 -0.01559789 0.00627664
v 0.05499478 0.02182671 0.06953253
v 0.05418440 -0.00444318 0.05353696
v 0.05497877 0.01839172 0.05358811
v 0.05349947 -0.02810223 0.05529010
v 0.05245451 -0.00651453 0.04149467
v 0.05227198 -0.00261157 0.03431904
v 0.05435896 0.00655762 0.04876013
v 0.05200844 -0.02421930 0.04872359
v 0.05490702 0.01052330 0.02903981
v 0.04877882 -0.02631395 0.04121407
v 0.04591212 -0.02187884 0.03179097
v 0.05040326 -0.01386021 0.03732688
v 0.04934180 -0.01101484 0.02795624
v 0.04594650 -0.01652321 0.01859422
v 0.04085237 -0.02544834 0.02736423
v 0.04041336 -0.02271328 0.02093410
v 0.01324067 0.08534259 0.09294644
v 0.02071880 0.07990877 0.09835145
v 0.02088794 0.08244649 0.09371635
v 0.03664748 -0.02417384 0.01164231
v 0.03484593 -0.02579570 0.00272226
v 0.03016439 -0.02624159 0.01542276
v 0.03288426 0.08227622 0.06580404
v 0.03525437 0.07958265 0.07888895
v 0.03959806 0.07675534 0.07503650
v 0.03986148 0.07653981 0.06209368
v 0.02165136 -0.02710485 0.00949330
v 0.02718328 0.08544572 0.06381100
v 0.03481073 0.07946759 0.05624187
v 0.01767605 0.08219718 0.04049874
v 0.02887077 0.08153509 0.05036362
v 0.02619862 0.07651467 0.03775192
v 0.05488772 0.00144751 0.00884387
v 0.00967264 0.09056285 0.07831097
v 0.01260836 0.08853225 0.08473410
v 0.01614360 0.08888754 0.07959615
v 0.00617477 0.09155634 0.06254206
v 0.01788916 0.07604470 0.10529657
v 0.02189373 -0.02803288 0.01400090
v 0.01718195 -0.03133253 0.01519560
v 0.04329643 -0.03058827 0.03375137
v 0.03710073 -0.02875425 0.02598711
v 0.02793519 -0.03064009 0.02003196
v 0.03494996 0.07215676 0.04060854
v 0.02960582 0.07054095 0.03318875
v 0.01177468 0.08918481 0.05395688
v 0.03190725 0.07745088 0.09151565
v 0.00807760 0.02724518 0.12288840
v 0.01619761 0.02719793 0.12104827
v 0.02348465 0.02663006 0.11825441
v 0.02828095 0.02661468 0.11568685
v 0.03168149 0.02704519 0.11343444
v 0.03936119 0.02620518 0.10693758
v 0.01900930 0.08648828 0.05151475
v 0.01493653 0.08601668 0.04665471
v 0.03254141 0.07906687 0.08696254
v 0.03797229 0.07432786 0.08795068
v 0.04258626 0.02648798 0.10328321
v 0.04662693 0.02557744 0.09767987
v 0.05043048 0.02544094 0.09040619
v 0.00904491 0.08467678 0.09609536
v 0.00967199 0.07800242 0.10596800
v 0.01334313 0.08075570 0.10106413
v 0.05218447 0.02434807 0.08591428
v 0.05389850 0.02403943 0.07936206
v 0.05454953 0.02349637 0.07530821
v 0.05482301 0.00334555 0.01067846
v 0.03425671 0.00669800 -0.08042829
v 0.03521724 0.00728742 -0.05873258
v 0.02817652 0.01077346 -0.08391906
v 0.03095944 0.01050625 -0.06065230
v 0.02334910 0.01540148 -0.05717843
v 0.05473423 -0.03133351 -0.04777910
v 0.05229588 -0.01986519 -0.08690093
v 0.05305391 -0.02193597 -0.05753069
v 0.05135347 -0.01645818 -0.05800383
v 0.04095012 0.00230777 -0.05171700
v 0.04389939 -0.00358955 -0.08771750
v 0.05283684 -0.05252245 -0.06238025
v 0.04811219 -0.00913831 -0.05848521
v 0.02823254 0.08479235 0.07428861
v 0.01336543 0.01675859 -0.08692368
v 0.01846149 0.01555077 -0.08093438
v 0.00959506 0.01925220 -0.06445695
v 0.01900747 0.08873840 0.06223175
v 0.02120993 0.08824284 0.07074027
v 0.01264675 0.01989883 -0.05281663
v 0.03390641 0.07722970 0.04803034
v 0.03619726 0.04502856 0.10550334
v 0.04473190 0.05295655 0.09123117
v 0.04189283 0.05314906 0.09604297
v 0.05165632 0.04067551 0.07729764
v 0.04905277 0.05670062 0.07395177
v 0.04947385 0.04140348 0.08562531
v 0.00967101 0.09133513 0.07086617
v 0.04651482 0.06946123 0.06647751
v 0.05169513 0.04299715 0.06537902
v 0.02252742 0.04283300 0.11564258
v 0.02463540 0.05358524 0.11212324
v 0.04204436 0.07054050 0.04967490
v 0.00738152 0.05926218 0.11689662
v 0.01353186 0.05360945 0.11679070
v 0.02190855 0.08574479 0.08429297
v 0.02288287 0.07057463 0.02852169
v 0.00687722 0.02514657 -0.03584876
v 0.01331236 0.02375099 -0.03601057
v 0.03820454 0.06972747 0.04194389
v 0.04376767 0.04768594 0.03682894
v 0.03678830 0.01575738 -0.02237790
v 0.03682701 0.02850115 0.00118107
v 0.04033963 0.02056215 -0.00549291
v 0.02985154 0.01324309 -0.04648996
v 0.01970238 0.02260493 -0.03300488
v 0.02342856 0.02578354 -0.02134321
v 0.03772823 0.00937346 -0.03669767
v 0.04188368 0.00349106 -0.04118666
v 0.03649345 0.04005595 0.01616827
v 0.03100124 0.03257059 -0.00100485
v 0.03220233 0.04443319 0.01532632
v 0.04703813 -0.00224272 -0.03582796
v 0.04331125 0.00821191 -0.02310003
v 0.04893633 -0.00041955 -0.02278178
v 0.05376465 0.02560985 0.05484411
v 0.04489387 0.06939449 0.05605593
v 0.05166301 0.01867519 0.02523899
v 0.02509757 0.05966949 0.02248563
v 0.03022915 0.05625675 0.02404486
v 0.02678466 0.05094359 0.01646517
v 0.04024923 0.03164363 0.01187028
v 0.04271208 0.04317921 0.03045366
v 0.04461928 0.03574787 0.02676470
v 0.02102402 0.03048882 -0.01452360
v 0.02185586 0.03897918 -0.00078165
v 0.05202840 0.03123066 0.04974977
v 0.02184101 0.01827814 -0.04438691
v 0.05365315 -0.01326705 -0.02464458
v 0.05146925 -0.00626613 -0.02359595
v 0.00393259 0.02205562 -0.04892898
v 0.03574344 0.00827891 -0.04821242
v 0.04730764 0.03590745 0.03453930
v 0.04709152 0.04361571 0.04200212
v 0.03585261 0.05575787 0.02984911
v 0.03285652 0.01305582 -0.03864996
v 0.01061563 0.07988785 0.03372493
v 0.01257388 0.04919739 0.00653588
v 0.01590330 0.05787048 0.01600437
v 0.02447952 0.04308534 0.00637557
v 0.02939233 0.02505970 -0.01561926
v 0.05086128 -0.01248502 -0.04320186
v 0.04751004 0.01935722 0.01053834
v 0.04896402 0.02375112 0.02291375
v 0.01452777 0.03272142 -0.01501528
v 0.01695811 0.07545815 0.03060134
v 0.05319637 -0.01886521 -0.03989651
v 0.00585988 0.03744349 -0.01042523
v 0.00985298 0.04476139 0.00063599
v 0.01141893 0.03102518 -0.01976342
v 0.01496653 0.03810965 -0.00619838
v 0.00615760 0.07027834 0.02260797
v 0.00711521 0.06262818 0.01731630
v 0.01117466 0.07290523 0.02590414
v 0.01818005 0.06990954 0.02565656
v 0.04468627 0.01708334 -0.00152145
v 0.04283502 0.07220979 0.05583215
v 0.00819666 0.07785814 0.03049259
f 1 2 3
f 4 5 6
f 2 1 7
f 8 6 9
f 10 11 12
f 13 14 15
f 5 16 17
f 13 18 19
f 20 7 1
f 16 21 17
f 21 22 17
f 4 6 8
f 20 1 23
f 5 24 16
f 12 11 25
f 11 26 27
f 26 28 29
f 30 31 32
f 33 34 35
f 36 37 38
f 39 40 32
f 41 42 43
f 37 44 38
f 42 45 43
f 46 47 48
f 10 49 50
f 42 36 45
f 36 38 45
f 44 51 52
f 53 54 55
f 56 57 50
f 20 23 58
f 39 32 31
f 10 50 28
f 59 47 46
f 57 56 60
f 51 61 52
f 10 28 26
f 30 60 62
f 26 11 10
f 39 31 58
f 51 63 61
f 28 50 64
f 44 37 65
f 50 57 64
f 43 3 2
f 63 66 61
f 66 67 61
f 68 69 70
f 66 71 67
f 72 20 31
f 71 73 67
f 74 27 26
f 71 75 73
f 28 64 29
f 30 32 60
f 74 26 76
f 77 78 79
f 75 9 73
f 75 80 9
f 20 58 31
f 60 32 57
f 30 72 31
f 26 29 76
f 41 43 2
f 57 40 64
f 57 32 40
f 64 40 29
f 68 81 82
f 83 84 85
f 86 87 88
f 89 90 91
f 92 93 77
f 14 94 95
f 53 55 96
f 97 98 99
f 100 101 102
f 103 104 105
f 106 39 58
f 107 108 109
f 33 35 69
f 106 58 23
f 110 111 112
f 113 114 115
f 116 117 54
f 118 119 120
f 121 93 92
f 122 123 124
f 90 74 76
f 118 120 125
f 87 68 126
f 127 100 84
f 107 109 97
f 86 88 119
f 118 125 128
f 68 82 126
f 129 130 131
f 132 133 134
f 87 126 88
f 135 113 136
f 129 137 99
f 89 91 138
f 139 103 140
f 141 142 143
f 111 138 144
f 90 76 91
f 95 145 146
f 133 85 134
f 100 147 84
f 148 149 150
f 119 88 120
f 111 144 112
f 128 107 151
f 151 137 129
f 152 153 18
f 132 134 154
f 155 79 156
f 102 89 100
f 81 157 82
f 122 23 123
f 105 104 158
f 105 158 114
f 112 159 110
f 81 160 157
f 114 161 115
f 154 134 162
f 23 1 123
f 128 125 107
f 110 159 163
f 126 82 157
f 104 43 158
f 148 99 164
f 76 29 91
f 91 40 138
f 163 159 139
f 88 165 120
f 126 157 166
f 140 105 109
f 114 167 161
f 124 3 104
f 154 162 108
f 116 168 117
f 102 169 89
f 99 98 164
f 170 53 96
f 87 69 68
f 35 171 172
f 151 107 137
f 114 158 167
f 104 3 43
f 109 135 97
f 109 105 135
f 124 1 3
f 120 165 125
f 126 166 133
f 158 45 167
f 138 106 144
f 91 29 40
f 87 33 69
f 173 174 152
f 147 111 84
f 100 89 147
f 126 133 88
f 169 90 89
f 138 40 106
f 85 110 134
f 141 175 142
f 148 164 149
f 43 45 158
f 139 159 176
f 167 177 161
f 140 103 105
f 134 110 162
f 129 99 130
f 160 127 157
f 162 139 108
f 139 176 103
f 170 59 46
f 147 89 111
f 88 132 165
f 45 38 167
f 167 44 177
f 166 157 83
f 88 133 132
f 108 140 109
f 97 135 136
f 144 122 112
f 167 38 44
f 83 133 166
f 116 54 53
f 85 84 110
f 112 122 159
f 34 19 171
f 97 136 98
f 125 165 108
f 170 96 59
f 135 114 113
f 141 178 175
f 160 101 127
f 105 114 135
f 141 143 179
f 165 154 108
f 98 136 164
f 157 127 83
f 165 132 154
f 116 175 168
f 130 99 148
f 106 40 39
f 84 111 110
f 162 110 163
f 108 139 140
f 106 23 144
f 164 136 149
f 107 97 137
f 113 115 136
f 133 83 85
f 125 108 107
f 89 138 111
f 159 124 176
f 159 122 124
f 127 101 100
f 127 84 83
f 176 104 103
f 180 156 33
f 176 124 104
f 144 23 122
f 123 1 124
f 137 97 99
f 162 163 139
f 68 70 81
f 181 182 183
f 184 185 186
f 168 187 188
f 189 181 190
f 191 192 193
f 131 130 183
f 194 189 195
f 196 197 198
f 199 191 200
f 193 192 187
f 196 198 185
f 197 188 201
f 202 181 189
f 191 194 200
f 194 195 203
f 202 194 204
f 174 46 48
f 197 201 198
f 204 178 202
f 204 191 193
f 194 191 204
f 188 187 199
f 183 130 148
f 194 203 200
f 195 189 190
f 190 181 205
f 205 183 206
f 207 208 209
f 187 192 199
f 183 148 206
f 146 170 46
f 207 210 196
f 206 148 150
f 208 207 196
f 131 121 92
f 210 197 196
f 188 211 201
f 178 182 181
f 208 196 184
f 192 191 199
f 178 181 202
f 188 199 211
f 179 143 212
f 210 168 197
f 194 202 189
f 184 196 185
f 168 193 187
f 182 131 183
f 178 141 213
f 181 183 205
f 93 213 94
f 168 188 197
f 214 215 216
f 217 218 219
f 220 221 222
f 223 221 220
f 221 223 224
f 78 94 14
f 221 224 225
f 223 226 224
f 227 224 228
f 229 215 214
f 230 214 216
f 34 13 19
f 231 232 233
f 215 234 232
f 227 228 235
f 180 33 87
f 34 171 35
f 215 229 234
f 216 235 236
f 218 220 222
f 224 227 225
f 224 226 228
f 237 238 239
f 235 228 236
f 240 77 79
f 241 227 235
f 236 228 230
f 242 227 241
f 241 235 216
f 231 242 241
f 230 216 236
f 241 216 215
f 231 241 215
f 232 231 215
f 243 244 245
f 246 223 247
f 248 249 247
f 250 251 252
f 253 252 254
f 255 252 253
f 256 257 258
f 95 146 173
f 259 248 149
f 249 259 260
f 247 249 261
f 261 249 260
f 262 230 246
f 263 262 246
f 262 263 257
f 264 237 239
f 265 245 214
f 266 254 267
f 256 258 268
f 265 269 270
f 265 243 245
f 251 244 243
f 261 257 263
f 243 252 251
f 260 136 268
f 271 272 273
f 250 252 255
f 274 250 255
f 275 256 267
f 267 276 266
f 92 129 131
f 267 256 268
f 218 248 220
f 276 268 115
f 115 268 136
f 220 247 223
f 247 220 248
f 248 277 149
f 256 262 257
f 15 173 152
f 266 276 161
f 223 246 226
f 249 248 259
f 278 155 156
f 226 246 228
f 250 279 280
f 262 256 275
f 230 228 246
f 263 247 261
f 79 14 13
f 272 266 281
f 161 276 115
f 260 259 149
f 136 260 149
f 272 253 254
f 250 282 279
f 230 269 265
f 230 265 214
f 271 253 272
f 177 266 161
f 55 239 283
f 55 264 239
f 266 272 254
f 214 245 229
f 281 266 284
f 229 245 285
f 254 270 275
f 280 286 244
f 257 261 258
f 284 266 177
f 280 244 251
f 271 274 255
f 86 180 87
f 265 270 243
f 275 269 262
f 255 253 271
f 270 269 275
f 251 250 280
f 150 277 217
f 252 243 270
f 252 270 254
f 149 277 150
f 240 79 155
f 263 246 247
f 276 267 268
f 258 261 260
f 248 218 217
f 254 275 267
f 286 285 244
f 278 156 180
f 258 260 268
f 217 277 248
f 230 262 269
f 94 212 145
f 285 245 244
f 287 288 289
f 92 77 240
f 290 17 22
f 291 273 292
f 289 288 293
f 294 295 290
f 289 293 296
f 294 297 295
f 290 5 17
f 288 298 293
f 288 299 298
f 300 301 297
f 302 292 303
f 290 295 5
f 290 304 294
f 296 293 304
f 305 299 306
f 298 294 304
f 297 301 307
f 308 309 290
f 281 284 310
f 311 300 312
f 273 272 313
f 35 172 69
f 311 313 310
f 300 311 301
f 311 314 301
f 314 311 310
f 94 145 95
f 310 61 314
f 295 6 5
f 299 305 298
f 302 306 299
f 292 273 303
f 279 282 315
f 293 298 304
f 282 316 315
f 296 304 309
f 273 312 303
f 310 284 61
f 282 250 317
f 316 318 315
f 284 44 52
f 302 303 306
f 94 179 212
f 284 52 61
f 318 319 315
f 295 297 307
f 298 305 294
f 273 313 312
f 317 320 282
f 316 282 320
f 313 272 281
f 143 116 53
f 316 320 318
f 250 274 317
f 295 307 6
f 143 53 170
f 317 291 320
f 318 320 321
f 317 274 291
f 171 18 322
f 319 323 324
f 307 301 9
f 278 240 155
f 319 318 323
f 325 278 180
f 307 9 6
f 303 312 306
f 78 14 79
f 320 302 321
f 304 290 309
f 294 305 297
f 301 314 73
f 320 291 302
f 318 321 323
f 306 300 305
f 301 73 9
f 314 61 67
f 314 67 73
f 308 22 326
f 305 300 297
f 324 323 287
f 291 292 302
f 306 312 300
f 323 321 299
f 323 288 287
f 182 178 213
f 284 177 44
f 308 290 22
f 281 310 313
f 312 313 311
f 142 175 116
f 274 273 291
f 93 94 78
f 323 299 288
f 321 302 299
f 271 273 274
f 128 278 118
f 325 119 278
f 118 278 119
f 237 264 207
f 210 264 168
f 86 325 180
f 168 175 193
f 204 193 175
f 18 15 152
f 175 178 204
f 264 210 207
f 207 209 237
f 9 80 8
f 24 5 4
f 37 36 65
f 49 10 12
f 56 50 49
f 60 56 62
f 30 62 72
f 65 51 44
f 327 328 329
f 54 168 264
f 233 227 242
f 233 242 231
f 218 221 233
f 222 221 218
f 330 218 331
f 331 218 332
f 332 218 333
f 333 218 233
f 334 218 335
f 335 218 336
f 336 218 330
f 146 46 174
f 219 218 337
f 337 218 338
f 338 218 334
f 339 233 327
f 340 233 339
f 341 233 340
f 143 142 116
f 333 233 342
f 59 283 343
f 342 233 344
f 54 264 55
f 344 233 345
f 345 233 346
f 346 233 347
f 325 86 119
f 347 233 348
f 348 233 349
f 349 233 350
f 350 233 351
f 351 233 352
f 352 233 353
f 353 233 354
f 354 233 355
f 355 233 341
f 327 233 328
f 341 340 356
f 328 233 357
f 225 227 221
f 221 227 233
f 42 41 65
f 8 65 4
f 80 65 8
f 151 129 92
f 75 65 80
f 51 65 63
f 117 168 54
f 36 42 65
f 65 49 12
f 65 12 25
f 71 65 75
f 66 65 71
f 358 65 25
f 359 65 358
f 63 65 66
f 360 65 361
f 121 213 93
f 362 65 359
f 363 65 362
f 59 55 283
f 364 65 363
f 151 92 240
f 361 65 364
f 365 65 360
f 366 65 365
f 367 65 366
f 368 65 367
f 369 65 368
f 370 65 369
f 371 65 370
f 372 65 371
f 95 173 15
f 373 65 372
f 65 20 72
f 7 20 65
f 374 65 373
f 375 65 374
f 376 65 375
f 21 65 376
f 65 72 62
f 16 65 21
f 24 65 16
f 19 18 171
f 4 65 24
f 65 62 56
f 2 7 65
f 41 2 65
f 145 170 146
f 65 56 49
f 361 377 360
f 374 378 375
f 362 379 363
f 380 381 359
f 358 380 359
f 382 380 358
f 151 240 128
f 25 382 358
f 11 382 25
f 383 368 367
f 384 385 386
f 386 385 387
f 386 387 388
f 388 387 389
f 237 209 238
f 390 391 392
f 393 394 391
f 393 391 390
f 238 209 395
f 212 143 170
f 396 315 397
f 378 398 399
f 128 240 278
f 400 401 402
f 403 404 405
f 406 401 400
f 407 408 406
f 402 409 410
f 121 131 182
f 411 398 378
f 412 396 413
f 414 396 397
f 410 409 415
f 308 415 309
f 416 417 418
f 397 315 319
f 419 400 402
f 96 55 59
f 420 412 413
f 397 319 421
f 413 396 414
f 422 423 424
f 425 402 410
f 156 13 34
f 415 308 326
f 319 324 421
f 417 426 383
f 427 397 421
f 410 415 398
f 422 424 428
f 420 413 429
f 414 397 427
f 383 426 430
f 431 411 378
f 418 417 383
f 407 406 424
f 421 324 432
f 413 414 433
f 419 402 425
f 79 13 156
f 427 421 434
f 424 406 400
f 182 213 121
f 430 423 422
f 432 324 287
f 425 410 398
f 428 435 436
f 77 93 78
f 433 429 413
f 434 421 432
f 289 432 287
f 437 403 417
f 433 414 427
f 438 428 436
f 173 146 174
f 398 415 326
f 430 422 439
f 403 405 426
f 432 289 440
f 438 436 441
f 426 405 442
f 422 428 438
f 424 400 419
f 427 434 401
f 443 326 22
f 417 403 426
f 439 422 444
f 444 422 438
f 440 289 409
f 409 289 296
f 442 407 424
f 433 427 408
f 434 432 401
f 445 429 433
f 404 429 445
f 401 432 440
f 213 179 94
f 398 326 399
f 408 427 401
f 445 433 407
f 419 425 411
f 428 424 419
f 399 326 443
f 401 440 402
f 145 212 170
f 14 95 15
f 402 440 409
f 433 408 407
f 406 408 401
f 445 407 405
f 405 407 442
f 426 442 423
f 442 424 423
f 411 435 419
f 426 423 430
f 436 435 411
f 431 436 411
f 441 436 431
f 409 296 309
f 428 419 435
f 404 445 405
f 396 279 315
f 409 309 415
f 411 425 398
f 446 286 447
f 280 279 412
f 448 449 420
f 447 412 449
f 450 451 452
f 453 454 455
f 453 456 457
f 450 458 459
f 450 459 451
f 460 461 459
f 429 404 460
f 460 404 461
f 461 404 437
f 461 437 454
f 462 451 454
f 459 458 460
f 453 462 454
f 463 464 465
f 460 448 429
f 448 420 429
f 404 403 437
f 417 416 437
f 341 356 463
f 213 141 179
f 464 463 356
f 356 466 464
f 437 455 454
f 464 467 468
f 464 468 469
f 464 469 465
f 470 467 466
f 13 15 18
f 437 416 455
f 465 469 471
f 472 473 474
f 474 473 475
f 412 447 280
f 468 471 469
f 476 477 478
f 33 156 34
f 479 480 481
f 450 482 483
f 468 475 456
f 449 412 420
f 478 484 482
f 468 456 471
f 485 486 487
f 485 487 488
f 478 452 476
f 478 482 452
f 286 489 285
f 490 485 491
f 286 280 447
f 489 446 484
f 450 483 458
f 476 456 475
f 447 449 448
f 492 493 494
f 448 458 447
f 462 453 457
f 458 448 460
f 476 457 456
f 453 455 495
f 466 467 464
f 474 470 472
f 474 467 470
f 456 495 471
f 468 467 474
f 475 468 474
f 473 477 475
f 47 59 343
f 477 476 475
f 451 459 461
f 456 453 495
f 496 497 498
f 152 174 499
f 446 447 483
f 451 461 454
f 457 452 451
f 451 462 457
f 482 484 446
f 458 483 447
f 286 446 489
f 395 384 500
f 476 452 457
f 482 450 452
f 412 279 396
f 482 446 483
f 501 502 234
f 480 386 388
f 234 229 285
f 356 340 466
f 340 339 466
f 466 339 470
f 339 472 470
f 339 503 472
f 339 327 503
f 327 329 503
f 502 233 234
f 478 477 504
f 503 329 504
f 328 505 329
f 473 504 477
f 504 329 505
f 494 506 507
f 489 501 285
f 285 501 234
f 472 503 473
f 473 503 504
f 153 499 508
f 504 505 501
f 328 502 505
f 328 357 502
f 505 502 501
f 478 504 501
f 357 233 502
f 509 480 388
f 501 484 478
f 234 233 232
f 501 489 484
f 335 336 200
f 336 199 200
f 48 47 497
f 336 330 199
f 330 211 199
f 330 331 211
f 331 201 211
f 331 332 201
f 332 333 201
f 333 198 201
f 333 342 198
f 342 185 198
f 342 344 185
f 344 186 185
f 344 510 186
f 344 345 510
f 345 346 510
f 346 511 510
f 346 512 511
f 346 347 512
f 347 513 512
f 347 348 513
f 487 390 392
f 348 514 513
f 500 386 480
f 153 152 499
f 348 349 514
f 349 515 514
f 349 350 515
f 508 516 517
f 350 351 515
f 518 509 519
f 351 520 515
f 351 352 520
f 352 521 520
f 217 219 150
f 219 206 150
f 352 522 521
f 352 353 522
f 219 205 206
f 523 524 525
f 219 337 205
f 353 526 522
f 353 354 526
f 337 190 205
f 337 338 190
f 354 527 526
f 354 355 527
f 355 528 527
f 338 334 195
f 338 195 190
f 334 203 195
f 355 341 463
f 355 463 528
f 334 335 203
f 335 200 203
f 471 495 529
f 529 495 455
f 530 381 531
f 531 532 533
f 532 531 381
f 48 497 496
f 533 532 534
f 374 373 431
f 430 439 369
f 439 444 369
f 523 525 479
f 360 377 535
f 377 536 537
f 360 535 416
f 365 360 416
f 366 365 416
f 441 372 371
f 418 366 416
f 361 538 536
f 361 536 377
f 539 379 531
f 531 379 530
f 540 379 539
f 530 362 359
f 481 480 509
f 444 370 369
f 322 508 517
f 438 370 444
f 438 371 370
f 537 535 377
f 441 371 438
f 343 524 523
f 541 367 418
f 375 378 399
f 431 378 374
f 361 364 542
f 538 361 542
f 443 375 399
f 376 375 443
f 542 540 539
f 22 376 443
f 21 376 22
f 383 367 541
f 364 363 542
f 543 486 485
f 518 519 390
f 367 366 418
f 544 545 380
f 430 368 383
f 441 431 373
f 343 239 524
f 382 11 27
f 542 363 540
f 382 27 544
f 382 544 380
f 538 537 536
f 430 369 368
f 27 546 544
f 380 545 381
f 372 441 373
f 547 498 548
f 379 362 530
f 381 545 532
f 363 379 540
f 546 549 544
f 546 27 74
f 493 491 550
f 545 544 549
f 545 534 532
f 530 359 381
f 534 545 549
f 418 383 541
f 520 551 515
f 552 553 521
f 153 508 322
f 552 521 522
f 554 555 556
f 557 496 498
f 551 385 514
f 393 389 553
f 558 555 559
f 512 560 511
f 561 560 513
f 552 393 553
f 385 561 514
f 559 555 554
f 394 393 552
f 514 561 513
f 550 491 562
f 559 528 463
f 554 528 559
f 554 556 527
f 555 558 392
f 515 551 514
f 493 490 491
f 526 556 522
f 513 560 512
f 528 554 527
f 389 551 520
f 563 209 208
f 527 556 526
f 564 209 563
f 395 209 564
f 553 389 520
f 391 394 556
f 384 395 564
f 521 553 520
f 556 394 552
f 510 208 184
f 555 391 556
f 563 208 510
f 385 384 561
f 497 481 565
f 564 563 510
f 392 391 555
f 560 564 511
f 384 564 560
f 557 498 547
f 566 494 507
f 510 184 186
f 564 510 511
f 556 552 522
f 387 385 551
f 561 384 560
f 389 387 551
f 549 567 568
f 569 562 570
f 283 239 343
f 571 572 573
f 574 575 576
f 539 577 578
f 579 580 581
f 582 583 584
f 465 559 463
f 585 586 558
f 585 559 465
f 529 587 471
f 588 589 590
f 172 322 517
f 591 592 593
f 594 595 580
f 596 586 585
f 572 580 579
f 549 568 597
f 569 550 562
f 486 390 487
f 598 599 529
f 546 600 549
f 531 601 539
f 497 479 481
f 539 578 582
f 597 568 575
f 602 603 596
f 604 569 570
f 542 539 582
f 574 576 605
f 606 517 492
f 607 608 609
f 608 588 590
f 172 517 606
f 605 576 577
f 585 558 559
f 581 590 589
f 322 18 153
f 572 579 591
f 577 610 571
f 592 604 570
f 603 586 596
f 542 582 538
f 581 589 604
f 609 608 590
f 602 596 587
f 535 598 529
f 611 582 584
f 584 612 613
f 613 593 602
f 611 584 599
f 518 390 486
f 538 582 611
f 547 548 490
f 547 490 493
f 549 597 534
f 614 594 576
f 615 492 494
f 567 169 102
f 597 575 574
f 610 594 580
f 616 599 598
f 617 160 618
f 102 619 568
f 613 602 587
f 617 618 607
f 576 594 610
f 611 599 616
f 612 593 613
f 455 535 529
f 587 596 471
f 581 604 592
f 101 160 617
f 615 494 566
f 571 573 583
f 599 613 587
f 90 169 567
f 595 607 609
f 609 590 581
f 533 597 574
f 616 598 535
f 534 597 533
f 537 611 616
f 591 593 612
f 567 102 568
f 537 538 611
f 524 395 500
f 620 617 607
f 471 596 585
f 535 537 616
f 548 565 543
f 518 481 509
f 577 571 583
f 416 535 455
f 571 610 580
f 575 619 614
f 491 485 488
f 471 585 465
f 573 572 591
f 575 568 619
f 621 622 70
f 488 487 392
f 620 607 595
f 602 570 603
f 599 584 613
f 579 581 592
f 90 567 600
f 621 623 624
f 573 625 584
f 615 606 492
f 571 580 572
f 592 570 602
f 622 621 624
f 609 581 580
f 584 625 612
f 574 605 601
f 81 70 622
f 614 617 620
f 622 624 608
f 625 591 612
f 573 591 625
f 624 615 566
f 74 90 600
f 507 569 604
f 588 624 566
f 601 605 577
f 570 562 603
f 603 562 586
f 600 567 549
f 531 574 601
f 608 624 588
f 172 171 322
f 533 574 531
f 101 617 619
f 566 507 589
f 565 481 518
f 593 592 602
f 578 577 583
f 619 617 614
f 614 620 594
f 594 620 595
f 589 507 604
f 575 614 576
f 74 600 546
f 160 81 618
f 583 573 584
f 525 500 480
f 588 566 589
f 595 609 580
f 618 81 622
f 599 587 529
f 577 576 610
f 539 601 577
f 102 101 619
f 591 579 592
f 622 608 607
f 618 622 607
f 578 583 582
f 562 626 586
f 569 507 506
f 626 558 586
f 543 565 518
f 494 550 506
f 500 384 386
f 47 343 523
f 174 557 499
f 517 516 492
f 548 543 490
f 47 523 479
f 479 525 480
f 623 615 624
f 239 238 524
f 488 558 626
f 47 479 497
f 557 48 496
f 492 516 493
f 509 388 389
f 508 547 516
f 174 48 557
f 491 626 562
f 498 497 565
f 519 393 390
f 499 547 508
f 499 557 547
f 498 565 548
f 623 606 615
f 494 493 550
f 509 389 519
f 490 543 485
f 543 518 486
f 488 392 558
f 389 393 519
f 70 69 627
f 70 627 621
f 491 488 626
f 621 627 623
f 627 69 172
f 627 172 606
f 525 524 500
f 516 547 493
f 506 550 569
f 627 606 623
f 524 238 395

