# https://github.com/mikedh/trimesh
mtllib material.mtl
usemtl material_0
v -0.01237369 0.03265813 -0.05469785
v -0.00508691 0.03029873 -0.05689773
v -0.01494253 0.03033482 -0.05409468
v -0.01360739 0.03272216 -0.05173394
v -0.01387227 0.03401751 -0.03241536
v -0.01493389 0.03220600 -0.02996266
v 0.00256836 0.03280451 -0.02660666
v -0.01063240 0.03258810 -0.02774933
v 0.00242233 0.03258631 -0.05386968
v 0.00408071 0.03034671 -0.05192433
v -0.00072861 0.03030352 -0.05635759
v -0.00056762 0.03254980 -0.05573675
v 0.00120163 0.03502985 -0.02709677
v -0.01387227 0.03401787 -0.03241555
v -0.00639528 0.03498243 -0.02736424
v -0.01382572 0.03414114 -0.03160354
v 0.00799286 0.03365318 -0.03661573
v 0.00801450 0.03216122 -0.03024304
v 0.00982850 0.03128612 -0.03681973
v 0.00542831 0.03480454 -0.02824741
v 0.00758326 0.03343853 -0.03842480
v -0.01363939 0.03417907 -0.03243616
v -0.01329446 0.03419893 -0.03249157
v -0.01370037 0.03416677 -0.03243068
v 0.00137656 0.03200623 -0.03562354
v 0.00746893 0.03347544 -0.03839203
v -0.00854284 0.03217248 -0.03637910
v -0.00536502 -0.03915581 -0.00297216
v -0.00481475 -0.03917507 -0.00293455
v 0.00120013 -0.03930961 -0.00289521
v -0.00790966 -0.03891744 -0.00343225
v 0.00120014 0.04003026 -0.00355646
v -0.00494564 0.03912598 -0.00295973
v -0.00936926 0.03857261 -0.00400601
v -0.01492894 0.02601108 -0.02196495
v -0.01499546 0.03554060 -0.01109551
v -0.01529587 0.02789945 -0.02226402
v -0.01479460 0.03277703 -0.03232203
v -0.01497132 0.03303797 -0.03240648
v -0.01479638 0.03279902 -0.03216719
v -0.01479972 0.03276198 -0.03242227
v -0.01497156 0.03303056 -0.03246003
v -0.01466859 0.03141538 -0.05326789
v -0.01519645 0.03185421 -0.04687651
v 0.01855456 0.03009510 -0.01643076
v 0.01811039 0.03494145 -0.01620153
v 0.01887702 0.03401771 -0.01076003
v 0.01862418 0.03635148 -0.01068923
v 0.01757311 0.03334444 -0.01915033
v 0.01759296 0.02359425 -0.02128304
v -0.01498962 0.03174267 -0.03325440
v -0.01388741 0.03236358 -0.02920310
v -0.01493067 0.03037997 -0.05236802
v -0.01482380 0.03177388 -0.03417511
v 0.01820469 0.03617105 -0.00790104
v 0.00060033 0.03981508 -0.00833193
v -0.00579995 0.04018848 -0.00714980
v 0.00060033 0.04052893 -0.00531101
v -0.00513119 0.04031511 -0.00425765
v -0.01415378 0.03681714 -0.01623567
v -0.00436688 0.03915427 -0.00293150
v -0.01296491 0.03813205 -0.00815573
v -0.01259178 0.03862917 -0.01048792
v -0.01566858 0.03548953 -0.01843654
v -0.01489008 0.03538327 -0.02111898
v -0.01713348 0.03078000 -0.03859490
v -0.01734758 0.03097008 -0.03156538
v -0.00127585 0.02899941 -0.06803308
v 0.00098156 0.01755660 -0.06856249
v -0.00234671 0.01980891 -0.06954946
v 0.00114023 0.02924582 -0.06690441
v -0.01497138 0.03303796 -0.03240641
v -0.00825882 0.04012777 -0.00589865
v -0.01700807 0.03204326 -0.02204664
v -0.01581425 0.03471054 -0.01425489
v 0.00200872 0.02384313 -0.06702881
v 0.01042299 -0.00157885 -0.04639108
v 0.00569092 0.02072844 -0.06018787
v 0.01091414 0.01068945 -0.04420004
v -0.00007321 0.00816432 -0.06979333
v 0.00194942 0.00607098 -0.06849310
v -0.01222569 0.03740740 -0.00600791
v 0.00298737 0.02880558 -0.06510076
v 0.00405018 0.01853306 -0.06467674
v 0.00567304 0.02913155 -0.05860488
v 0.01295244 0.01087945 -0.03755685
v -0.01656181 0.03169016 -0.03826655
v -0.01666904 0.03073890 -0.05775253
v -0.01739044 0.02897585 -0.05677335
v 0.00060033 0.03704931 -0.01554858
v -0.01084209 0.03369549 -0.02722566
v 0.00060033 0.03547913 -0.02014581
v -0.00479789 0.01397228 -0.07033184
v -0.00232942 0.00795789 -0.07047896
v 0.00059920 0.03385993 -0.02603801
v -0.01402612 0.03158982 -0.06250355
v -0.01399619 0.03133479 -0.05489236
v -0.00174947 -0.00206024 -0.07054940
v -0.00479968 -0.00538534 -0.07079912
v 0.01600420 0.00387274 -0.02793706
v 0.01669472 0.01584497 -0.02511112
v -0.00539977 0.03158814 -0.06435548
v -0.00539959 0.03126998 -0.05746038
v -0.01490212 0.03458474 -0.01008516
v -0.01525969 0.01586750 -0.02815168
v -0.01493157 0.00539469 -0.02896481
v -0.01738406 0.00325335 -0.03703697
v -0.01729173 0.02583476 -0.03189592
v 0.00078802 -0.00132003 -0.06949273
v -0.01551432 -0.00050166 -0.03164661
v -0.01708711 -0.00210358 -0.03523099
v -0.01554395 0.01049159 -0.03052381
v -0.01699222 0.01597116 -0.03307248
v -0.00479962 0.02911655 -0.06840980
v 0.00339501 0.00781368 -0.06665646
v -0.01710327 0.02912150 -0.06068791
v -0.01629145 0.02890572 -0.06389409
v -0.01424630 0.03004314 -0.06590293
v -0.01330258 0.02884567 -0.06720505
v 0.01321112 -0.00089203 -0.03679124
v -0.01136668 0.03079117 -0.06605395
v -0.00540001 0.02909990 -0.06842690
v 0.00450991 0.00104810 -0.06486247
v 0.00610637 -0.00090072 -0.06076947
v -0.00955344 0.02888390 -0.06825135
v 0.01344489 0.00834656 -0.03607979
v -0.00692380 0.03290909 -0.02618355
v -0.00931210 0.03049203 -0.05712882
v -0.00435747 0.03031424 -0.05753268
v -0.01289846 0.00589506 -0.06973351
v -0.01137460 0.00820442 -0.07014182
v -0.01045395 -0.00382418 -0.07047244
v -0.01692237 0.01397402 -0.06383116
v -0.01299573 0.01959614 -0.06867088
v -0.01600469 0.01114515 -0.06665163
v -0.01551993 0.02119961 -0.06647106
v -0.00871904 0.01226091 -0.07032303
v -0.01720466 -0.00869347 -0.06239766
v -0.00773664 0.01921613 -0.06977065
v -0.00539978 0.01473882 -0.07027256
v -0.00539960 0.00446530 -0.07083562
v 0.00261550 -0.00602243 -0.06778342
v -0.01652862 -0.01037734 -0.06552051
v -0.01737387 -0.02925241 -0.05714221
v -0.01444871 0.00733730 -0.06877297
v 0.00197636 -0.03322145 -0.02610453
v 0.00120067 -0.03394958 -0.02603424
v -0.01203907 -0.03349584 -0.02791264
v -0.01497139 -0.03309763 -0.03238997
v -0.01476122 -0.03290792 -0.03183133
v -0.01479972 -0.03282160 -0.03240598
v -0.01479972 -0.03282162 -0.03240608
v -0.01497150 -0.03309020 -0.03244366
v -0.01482386 -0.03212379 -0.03093202
v -0.01439680 -0.03229463 -0.02985672
v -0.01487793 -0.03201688 -0.03222799
v -0.01465000 -0.03228157 -0.03103206
v -0.01498962 -0.03180271 -0.03323864
v -0.01483918 -0.03181024 -0.03406595
v -0.01539071 -0.03004741 -0.05417452
v -0.01499433 -0.03132638 -0.03729838
v -0.01492293 -0.03125029 -0.03848792
v -0.01483871 -0.03138375 -0.03800706
v -0.01518519 -0.03166861 -0.05647959
v -0.01493086 -0.03045082 -0.05233553
v 0.00059920 -0.03982542 -0.00843464
v 0.00059914 -0.04052961 -0.00587054
v -0.00776190 -0.04025172 -0.00545977
v 0.00059979 -0.04043335 -0.00419959
v -0.01464618 -0.03698405 -0.01482454
v -0.01430524 -0.03659478 -0.01704981
v -0.01142515 -0.03918558 -0.00928166
v -0.01265157 -0.03847667 -0.00795910
v -0.01020128 -0.03931056 -0.00534541
v -0.01259709 -0.03720617 -0.00638765
v -0.01738454 -0.03011550 -0.03677054
v -0.01631678 -0.03389619 -0.01672632
v -0.01738227 -0.02925401 -0.03114317
v -0.01615919 -0.03473324 -0.01946168
v -0.01497139 -0.03309771 -0.03239001
v -0.01647545 -0.03148592 -0.04261222
v -0.01465167 -0.03709398 -0.01253542
v -0.01491732 -0.03516107 -0.01058999
v -0.01663627 -0.03091626 -0.05572275
v 0.00060039 -0.03552365 -0.02015826
v -0.00539966 -0.03167346 -0.06446812
v -0.00539960 -0.03131143 -0.05742723
v -0.01174356 -0.03166907 -0.06387565
v -0.01399483 -0.03138486 -0.05476804
v -0.01625784 -0.02899216 -0.06395910
v -0.01501371 -0.02979804 -0.06549567
v -0.01481618 -0.03118805 -0.06340194
v -0.01032390 -0.02898772 -0.06810248
v -0.01271190 -0.02904948 -0.06742854
v -0.00539978 -0.02921434 -0.06840152
v -0.01692886 -0.02911725 -0.06170201
v 0.01483356 0.03298741 -0.02673091
v 0.00972038 0.03084671 -0.04414492
v 0.01250159 0.03374338 -0.02860196
v -0.01552607 -0.02654561 -0.02446457
v -0.01726485 -0.02699791 -0.03090570
v -0.01715607 -0.01524104 -0.03398082
v -0.01510722 -0.00873846 -0.02949290
v -0.01491798 -0.01669368 -0.02596563
v -0.01489473 -0.03468028 -0.01001331
v -0.01140453 -0.03039934 -0.05673731
v -0.01502247 -0.01616094 -0.06762652
v -0.01043750 -0.00991809 -0.07024999
v -0.01325585 -0.00993455 -0.06937496
v -0.00539960 -0.01478226 -0.07026044
v -0.01201428 -0.02273405 -0.06866676
v -0.01490493 -0.00385296 -0.06844120
v -0.00539966 -0.00536199 -0.07080507
v 0.00481152 0.03084253 -0.05915617
v 0.00145267 0.03158630 -0.06200856
v 0.00870322 0.03219667 -0.04119221
v -0.00196375 0.03039747 -0.06699923
v -0.01413186 -0.02282838 -0.06762967
v 0.00224404 0.03008729 -0.06526656
v 0.00060033 -0.03654816 -0.01584984
v 0.01868682 -0.00774043 -0.02718507
v 0.01609789 -0.00508750 -0.02772996
v 0.01865523 0.00060848 -0.02786566
v 0.01865422 0.02188116 -0.02217601
v 0.01867079 0.01260340 -0.02605656
v 0.01693009 -0.01843238 -0.02405930
v 0.01867633 -0.01867085 -0.02380814
v 0.01774239 -0.02510020 -0.02043743
v 0.01846962 -0.02936052 -0.01709961
v 0.01885020 0.00722919 -0.02629098
v 0.01883303 -0.03439457 -0.01034420
v 0.00929593 -0.03201253 -0.03276864
v 0.00744103 -0.03259582 -0.02799365
v 0.00933575 -0.03144465 -0.03626709
v 0.00920390 -0.03205455 -0.03187454
v 0.00449793 -0.03044960 -0.05274623
v 0.00881850 -0.03121049 -0.03854825
v 0.00745439 -0.03256781 -0.02829600
v 0.00808202 -0.03243820 -0.02911037
v 0.00900279 -0.03216746 -0.03115027
v 0.00140105 -0.03036025 -0.05715869
v 0.00110124 -0.03010097 -0.05735398
v -0.00570471 -0.03035596 -0.05846737
v -0.01194139 -0.03006052 -0.05762768
v 0.00133716 -0.03040743 -0.05613065
v -0.00479962 -0.03102174 -0.05734773
v -0.00479962 -0.03102173 -0.05736003
v -0.00479962 -0.03104709 -0.05948889
v -0.00479962 -0.02951904 -0.06830026
v -0.00479962 -0.03053768 -0.06713925
v 0.00120049 -0.04056404 -0.00541688
v 0.00120019 -0.03622872 -0.01799809
v 0.00120085 -0.04015086 -0.00748603
v 0.01256823 -0.04013032 -0.00670772
v 0.01178800 -0.03955117 -0.00348284
v 0.01563155 -0.03631463 -0.01798264
v 0.01653873 -0.03837168 -0.01035982
v 0.01509338 -0.03961289 -0.00619840
v 0.01449799 -0.03893119 -0.00409947
v 0.01763581 -0.03582764 -0.01626104
v 0.01728284 -0.03732125 -0.00620554
v 0.01767456 -0.03795617 -0.00760614
v 0.01852738 -0.03581392 -0.01320567
v 0.01784312 -0.03355975 -0.01822021
v 0.00810569 -0.03444798 -0.02413458
v 0.01250284 -0.03379924 -0.02859996
v 0.00705277 -0.03361214 -0.02798285
v 0.00901352 -0.03227442 -0.03724663
v 0.00772350 -0.03203984 -0.04438575
v 0.00407969 -0.03145983 -0.05353687
v 0.00302796 -0.03165720 -0.05935143
v -0.00074012 -0.03121965 -0.05683477
v 0.00475244 -0.03108211 -0.05866732
v 0.01231949 -0.03172927 -0.03524987
v 0.01377456 -0.03077631 -0.03174408
v 0.00563972 -0.02927866 -0.05867232
v 0.00250869 -0.03023024 -0.06485355
v 0.00413917 -0.02924150 -0.06284638
v 0.00180023 -0.02925769 -0.06638294
v 0.00029789 -0.03065456 -0.06597605
v 0.00012820 -0.02902166 -0.06755208
v -0.00334294 -0.02902042 -0.06835809
v 0.00907146 -0.03148346 -0.03700082
v 0.01564967 0.03628893 -0.01791326
v 0.01744019 0.03712885 -0.01315374
v 0.00935846 -0.03192038 -0.03356706
v 0.01345157 -0.00876936 -0.03604111
v 0.01308810 -0.01060085 -0.03707137
v 0.01149141 -0.01047433 -0.03646936
v 0.01188981 -0.00833009 -0.03578095
v 0.01126151 -0.01104250 -0.04305162
v 0.00918864 -0.01096368 -0.04367959
v 0.00489138 -0.01586439 -0.06308204
v 0.00585096 -0.01568892 -0.06035210
v 0.00073187 -0.01735793 -0.06872982
v 0.00297849 -0.01741053 -0.06660055
v -0.00268288 -0.01340955 -0.07020673
v 0.01066106 -0.01013127 -0.04509330
v -0.00479962 -0.01450632 -0.07028093
v -0.00006731 -0.01109546 -0.06963997
v 0.00863635 -0.00857322 -0.04563218
v 0.00844120 0.00090673 -0.04623974
v 0.01161688 0.01039123 -0.03668027
v 0.00871920 0.00865296 -0.04555022
v 0.01188480 0.00887617 -0.03580225
v 0.00984811 0.01077432 -0.04255259
v 0.00044667 0.03130001 -0.05662690
v 0.00242495 0.03032979 -0.05547609
v 0.00452327 0.03132276 -0.05223829
v 0.00907325 0.03207817 -0.03140419
v 0.00728177 0.03253878 -0.02816285
v 0.00921594 0.03202815 -0.03227652
v 0.01396238 0.03913249 -0.00394947
v 0.01098066 0.04033241 -0.00474244
v 0.00919353 0.03130651 -0.03702498
v -0.00479961 0.03094970 -0.05737536
v -0.00479973 0.03095090 -0.05733884
v -0.00479973 0.03097494 -0.05956747
v 0.01151883 0.03980305 -0.00816096
v 0.00120049 0.04022321 -0.00710428
v 0.00447666 0.03037607 -0.05283158
v 0.00898325 0.03219730 -0.03737601
v 0.00463420 0.03381927 -0.02659079
v 0.00844698 0.03325754 -0.02970839
v 0.00120013 0.03578395 -0.01917183
v 0.01475173 0.03956277 -0.00731678
v 0.01786530 0.03764127 -0.00773229
v -0.00923991 -0.00167779 0.06960420
v -0.00891328 -0.00317087 0.06980727
v -0.00485444 -0.00292033 0.06960148
v -0.01066637 -0.00003348 0.06939286
v -0.00217807 0.00022382 0.06920417
v -0.00586856 -0.00403702 0.06897147
v -0.00712097 -0.00323835 0.06916665
v -0.00377333 0.00199218 0.06916431
v -0.02739931 0.00033595 -0.00461571
v -0.02739943 0.00304454 -0.00901483
v -0.02693141 0.00132466 -0.00542226
v -0.00935805 0.00147784 0.06916745
v -0.00392699 0.00333334 0.06970871
v -0.00617790 0.00425611 0.06938822
v -0.00944191 0.00267445 0.06896874
v -0.00650835 0.00330664 0.06959122
v -0.00943410 0.00235391 0.07083385
v -0.00739432 0.00325131 0.07002846
v -0.00914562 -0.00201816 0.07003312
v -0.00363875 -0.00301201 0.07005787
v -0.00683355 -0.00382276 0.07083564
v -0.00365394 0.00200886 0.07003213
v -0.00943750 -0.00236140 0.07083435
v -0.00290001 0.00038552 0.07075276
v -0.00597716 -0.00017915 0.06993341
v -0.00638557 -0.00216795 0.06993485
v -0.00555301 -0.00188119 0.06993360
v -0.00401896 0.00118850 0.06993393
v -0.00415135 0.00059092 0.06993280
v -0.00683355 0.00381389 0.07083371
v -0.00599992 0.00257056 0.06993210
v -0.00739986 0.00118201 0.07083106
v -0.00623441 0.00183044 0.06993243
v -0.02739931 0.00034823 0.04538417
v -0.02739954 0.00305965 0.04098975
v -0.02693129 0.00243431 0.04348008
v -0.00819492 0.00018896 0.06993289
v -0.00486553 0.00094448 0.06993265
v -0.00734580 0.00190206 0.06993242
v -0.00815892 0.00193833 0.06993231
v -0.00680274 0.00020818 0.06993331
v -0.00405282 -0.00069113 0.06993313
v -0.00487197 -0.00095979 0.06993314
v -0.02739931 -0.02465766 0.02039052
v -0.02739931 -0.02194612 0.01599612
v -0.02693129 -0.02257171 0.01848621
v -0.00746673 -0.00140591 0.06993326
v -0.00735879 -0.00193105 0.06993373
v -0.00799972 -0.00212493 0.06993437
v -0.00898910 0.00021838 0.06993276
v -0.00841892 -0.00042661 0.06993438
v -0.00594723 -0.00259673 0.06993346
v -0.00415135 -0.00131924 0.06993329
v -0.02739991 0.01585733 -0.00893851
v -0.02739991 0.00847175 -0.00881907
v -0.02690018 0.00925597 -0.00863505
v -0.02689899 0.01315111 -0.00877221
v -0.00660026 -0.00041730 0.06993387
v -0.02739991 0.00538406 -0.00471962
v -0.02689708 0.00628855 -0.00583343
v -0.00763244 0.00127327 0.06993364
v -0.00563800 0.00175245 0.06993294
v -0.02689732 0.01610576 0.00919765
v -0.02690000 0.01294786 0.00475088
v -0.02690006 0.01033310 0.00250026
v -0.02689535 -0.02578670 0.03062048
v -0.02740002 -0.02353929 0.03658634
v -0.02689994 -0.02059568 0.03772085
v -0.02689934 -0.02620514 0.02862142
v -0.01789976 0.00749438 -0.00752708
v -0.01789976 0.01144605 -0.00906182
v -0.00788355 -0.00306444 0.06873370
v -0.00679636 0.00337696 0.06873211
v -0.00963444 0.00239591 0.06870952
v -0.00981617 -0.00348536 0.06811259
v -0.00673533 0.00486900 0.06809240
v -0.00308204 -0.00076584 0.06873313
v -0.00164759 -0.00110479 0.06810900
v -0.01789976 0.00776555 0.00090934
v -0.01789976 0.00576700 -0.00390881
v -0.02739991 0.00685342 0.00069546
v -0.00572151 -0.00483377 0.06810733
v -0.00343073 -0.00387722 0.06810459
v -0.01789976 0.01346434 -0.00864070
v -0.00953663 -0.00256887 0.06163361
v -0.00989276 -0.00207557 0.06395395
v -0.00982046 -0.00349954 0.06480289
v -0.01789976 -0.00669369 0.03459351
v -0.02739990 -0.00618210 0.03449079
v -0.01789976 -0.01269495 0.02981658
v -0.00163794 -0.00110611 0.06480815
v -0.00159866 -0.00110663 0.06165334
v -0.02690000 -0.01441585 0.02783127
v -0.00250244 0.00109331 0.06163282
v -0.01789970 -0.02365736 0.03413928
v -0.01789987 -0.02577052 0.03068892
v -0.01083172 -0.00202466 0.06811675
v -0.01085615 -0.00202462 0.06481431
v -0.01673401 -0.02408665 -0.01968334
v -0.01787526 -0.02021801 -0.02123553
v -0.01664472 -0.01686602 -0.02350518
v -0.00989282 0.00206331 0.06395281
v -0.01161689 0.00246837 0.06163237
v -0.00953663 0.00255582 0.06163231
v -0.00765115 0.00562999 0.06163165
v -0.00551856 0.00571453 0.06163161
v -0.01172984 -0.00226569 0.06163355
v -0.00941354 -0.00493167 0.06163419
v -0.00096971 0.00192095 0.06163254
v -0.00201792 -0.00381601 0.06163401
v -0.00551862 -0.00572766 0.06163447
v -0.00694049 -0.00566921 0.05913418
v -0.01185656 -0.00156223 0.05913308
v -0.00314462 -0.00469289 0.05913397
v -0.00078452 -0.00094429 0.05913307
v -0.01773311 -0.00944325 -0.02535844
v -0.01666416 -0.00569792 -0.02649013
v -0.01671625 -0.01205424 -0.02517707
v -0.00439823 0.00348922 0.05913197
v -0.00314486 0.00467845 0.05913173
v -0.00293958 0.00210382 0.05913223
v -0.00576723 0.00566309 0.05913140
v -0.00840199 0.00348890 0.05913194
v -0.00318152 -0.00242017 0.05913339
v -0.01838244 -0.01422229 -0.02274035
v -0.01838840 -0.00134426 -0.02508727
v -0.01117242 0.00304015 0.05913217
v -0.01029206 0.00101104 0.05913256
v -0.00439823 -0.00350319 0.05913367
v -0.00840199 -0.00350339 0.05913373
v -0.00743485 -0.00341311 0.05413174
v -0.00374604 -0.00237239 0.05413419
v -0.00250340 -0.00101113 0.05457959
v -0.00374627 0.00235544 0.05413287
v -0.00719393 0.00345447 0.05413075
v -0.00942815 0.00185180 0.05413301
v -0.01036942 -0.00063824 0.05457702
v -0.00163990 0.00109414 0.06479956
v -0.00250268 0.00109397 0.06395654
v -0.00333137 0.00380451 0.06311376
v -0.00651431 0.00406783 0.06395085
v -0.00480986 0.00462115 0.06480248
v -0.00981772 0.00350436 0.06481187
v -0.00164986 0.00109507 0.06811304
v -0.01790715 0.01946037 -0.02159109
v -0.01837886 0.02718852 -0.01532788
v -0.01790000 0.02794236 -0.01597278
v -0.01819790 0.00915169 -0.02479492
v -0.01686002 0.00503598 -0.02654532
v -0.01673425 0.01982385 -0.02212332
v -0.01664437 0.02674775 -0.01778028
v -0.00566340 -0.00484523 0.06310211
v -0.00382042 -0.00417416 0.06481123
v -0.00692964 -0.00487148 0.06481151
v -0.01659233 -0.03253954 0.04676557
v -0.01837927 -0.03206155 0.04484171
v -0.01674766 -0.03722357 0.04058347
v -0.01661349 0.01245530 -0.02505884
v -0.01789976 0.00096735 -0.01048897
v -0.01789976 -0.00249909 -0.00920114
v -0.01789976 -0.00283367 -0.00767014
v -0.01789976 0.00000949 -0.00505047
v -0.01789976 0.00273264 -0.00742271
v -0.01789970 -0.02220047 0.01717081
v -0.01789976 -0.02562093 0.01986489
v -0.01789964 -0.02327577 0.01934038
v -0.01789982 -0.02358707 0.01474117
v -0.01789976 -0.02665271 0.01487609
v -0.01789976 -0.02773634 0.01782026
v -0.01789987 0.00097971 0.03951083
v -0.01789976 -0.00123815 0.03961284
v -0.01789987 -0.00275341 0.04265778
v -0.01789981 0.00002983 0.04492422
v -0.01789976 0.00274282 0.04265324
v -0.01789982 0.02420490 0.01441902
v -0.01789976 0.02220003 0.01671976
v -0.01789976 0.02714645 0.01536260
v -0.01789988 0.02319735 0.01930545
v -0.01789976 0.02550406 0.01988033
v -0.01836408 -0.04236576 0.01963521
v -0.01806605 -0.04020944 0.00152480
v -0.01663077 -0.04325513 0.00901891
v -0.01789988 0.02727230 0.01872903
v -0.02740002 -0.00084621 -0.01338036
v -0.02693141 -0.00246942 -0.00921468
v -0.02739937 -0.00038337 -0.01111869
v -0.02739931 -0.00309497 -0.00672418
v -0.02689541 0.02608811 0.00479572
v -0.02740002 0.02350415 -0.00232086
v -0.02690000 0.02283729 -0.00091530
v -0.02689994 0.01858537 -0.00527236
v -0.02739991 0.02805078 0.00513717
v -0.02689994 0.02604392 0.00685770
v -0.02739979 0.02277933 0.01146709
v -0.02690006 0.01916722 0.01119053
v -0.02739990 -0.02474312 0.02404893
v -0.02689946 -0.02584020 0.02657429
v -0.02689946 -0.02353424 0.02375345
v -0.02739996 -0.01737255 0.02330597
v -0.02689970 -0.01998299 0.02293811
v -0.02740002 -0.01083593 0.03082203
v -0.02739990 -0.01589247 0.04320411
v -0.02689529 -0.01349248 0.04290841
v -0.02689565 -0.00591808 0.03890094
v -0.02689976 -0.00581284 0.03710118
v -0.02689940 -0.01149319 0.04332604
v -0.02739990 -0.00848747 0.04307418
v -0.01789988 0.01709994 0.01019386
v -0.01789976 0.01265986 0.00444897
v -0.01675260 -0.04227006 0.02935831
v -0.01686007 -0.04136799 0.03208068
v -0.01807583 -0.03701791 0.03924616
v -0.02689833 0.02307670 0.01076716
v -0.01789976 0.02450530 0.00971634
v -0.01819778 -0.04091254 0.03015568
v -0.01789976 0.02609668 0.00478189
v -0.01789976 0.01904326 0.01117331
v -0.01789976 0.02515162 0.00244824
v -0.01789976 0.01801934 -0.00573091
v -0.01789976 -0.00590931 0.03889824
v -0.01789981 -0.01356084 0.04289253
v -0.01789976 -0.01047854 0.04322429
v -0.01789976 -0.00584724 0.03674682
v -0.01789976 -0.00877372 0.04266909
v -0.01789976 -0.01607776 0.02515592
v -0.01789976 -0.02437764 0.02437511
v -0.01789976 -0.02125605 0.02294983
v -0.01789976 -0.01851674 0.02329502
v -0.01789970 -0.02610373 0.02760686
v -0.01789976 -0.01862052 0.03953816
v -0.01673377 -0.04371107 0.02219669
v -0.01838249 0.01418696 0.05700579
v -0.01773304 0.00940827 0.05962399
v -0.01664466 0.01683084 0.05777080
v -0.01671624 0.01201936 0.05944241
v -0.01838601 0.02708920 0.04965921
v -0.01787532 0.02018288 0.05550106
v -0.01669473 0.04397063 0.01790069
v -0.01836396 0.04233068 0.01463035
v -0.01664496 0.04359951 0.02286643
v -0.01661313 0.03027955 0.04903560
v -0.01673413 0.02405160 0.05394892
v -0.01819778 0.03515769 0.04171166
v -0.01838619 0.03912237 0.03304644
v -0.01659239 0.03250448 -0.01249994
v -0.01685989 0.03527501 0.04335780
v -0.01658833 0.03293370 0.04631386
v -0.01676136 0.00041891 0.06110864
v -0.01666427 0.00566266 0.06075592
v -0.01666403 0.03892183 0.03760096
v -0.01817990 0.04215552 0.02511657
v -0.01683915 0.04262409 0.02787852
v -0.01679004 0.04093286 0.03315436
v -0.01686037 0.03923732 -0.00267472
v -0.01674760 0.03718860 -0.00631796
v -0.01838631 0.03330202 -0.00885632
v -0.01673377 0.04367610 0.01206893
v -0.01664454 -0.02678281 0.05204592
v -0.01669443 -0.02266558 0.05485000
v -0.01838571 -0.01858649 0.05519292
v -0.01819790 0.04087755 0.00410986
v -0.01675267 0.04223485 0.00490716
v -0.01669455 -0.04400546 0.01636493
v -0.01673413 -0.01745582 0.05751428
v -0.01819802 -0.00918653 0.05906050
v -0.01661360 -0.01249025 0.05932442
v -0.01686002 0.04133282 0.00218481
v -0.01838839 0.00130928 0.05935282
v -0.01686001 -0.00507104 0.06081089
v -0.01678998 -0.04096781 0.00111128
v -0.02729548 -0.01996245 0.00145821
v -0.01940048 -0.02058959 0.00027876
v -0.02736843 -0.01958849 -0.00293191
v -0.01939798 -0.02045482 -0.00173626
v -0.01939882 -0.01736161 -0.00353347
v -0.02729905 -0.01494177 -0.00181239
v -0.01939989 -0.01468106 -0.00039351
v -0.02739979 -0.01722608 -0.00362809
v -0.01940084 -0.01897627 0.00218705
v -0.01666415 -0.03895690 -0.00333531
v -0.01815731 -0.01769952 -0.00054044
v -0.01941771 0.01100074 0.00631302
v -0.01979423 0.00845174 0.00385829
v -0.01976747 0.00454373 0.00206697
v -0.01977158 0.00071795 0.00140819
v -0.01978863 -0.01521903 0.02123630
v -0.01940179 -0.00990002 0.02887695
v -0.01970363 -0.01568481 0.01574173
v -0.01838321 -0.03472568 -0.00712380
v -0.01970369 -0.00817724 0.00368586
v -0.01941127 -0.01247115 0.00807790
v -0.01941145 -0.00411922 0.00229185
v -0.01975823 -0.01309676 0.00837262
v -0.01971871 -0.01298673 0.02602856
v -0.01979411 -0.00848699 0.03040725
v -0.02638996 0.02228184 -0.00517777
v -0.02640093 0.02789522 0.00248209
v -0.02640111 0.03087604 0.01086003
v -0.02739990 0.03006594 0.02230196
v -0.02640105 0.03139880 0.01973707
v -0.02640087 0.02942176 0.02840677
v -0.02740014 0.02455878 0.03529066
v -0.02640033 0.02510240 0.03617844
v -0.01685989 -0.03530997 -0.00909227
v -0.02739990 0.02078728 0.03947356
v -0.02639640 0.02056466 0.04101012
v -0.02640105 0.01512439 0.04478184
v -0.02740002 0.00941545 0.04616278
v -0.02640117 0.01107357 0.04664148
v -0.02640105 0.00239126 0.04856458
v -0.02739990 0.00081124 0.04764605
v -0.02640099 -0.00648212 0.04798674
v -0.01676131 -0.00045401 -0.02684308
v -0.02640075 -0.01484077 0.04495408
v -0.02639646 -0.02261487 0.03911287
v -0.02640546 0.00783518 0.00345233
v -0.02640296 0.01196284 0.00687194
v -0.02639873 0.00304132 0.00167005
v -0.02640987 -0.00169774 0.00143400
v -0.02739984 -0.00703401 0.00190325
v -0.01658822 -0.03296888 -0.01204838
v -0.02639914 -0.00930447 0.00438240
v -0.02739978 -0.01188851 0.00526767
v -0.02640808 -0.01393548 0.00970925
v -0.02739990 -0.01616384 0.01262837
v -0.02639831 -0.01573112 0.01837165
v -0.02739984 -0.01654821 0.01997172
v -0.02640450 -0.01375758 0.02488204
v -0.02640295 -0.01199794 0.02739370
v -0.01839978 -0.02811091 0.03352151
v -0.01840008 -0.02495238 0.03805732
v -0.01839996 -0.00448339 -0.01508405
v -0.01839990 -0.02092317 -0.00778331
v -0.01839990 -0.02926995 0.00291435
v -0.01839978 -0.01335567 0.04679666
v -0.01839996 0.00444810 0.04934952
v -0.01839996 0.03202575 0.02270810
v -0.01839990 0.02923482 0.03135128
v -0.01839984 0.00904840 -0.01410280
v -0.01838578 -0.02712438 -0.01539359
v -0.01839990 0.02807595 0.00074393
v -0.01839996 0.03231804 0.01363046
v -0.01839984 0.01318271 0.04685844
v -0.01839984 0.01733099 -0.01037834
v -0.01839978 -0.03206086 0.01155760
v -0.01839990 -0.03154747 0.02511540
v -0.01840008 0.02416238 0.03888591
v -0.01661313 -0.03031460 -0.01477010
v -0.01940048 0.02480973 -0.00229329
v -0.01940054 0.01939616 -0.00770409
v -0.01940060 0.02923597 0.00538562
v -0.01940042 0.03147981 0.01843373
v -0.01940060 0.02987255 0.02714967
v -0.01940048 0.02312345 0.03853975
v -0.01940030 0.01946385 0.04193522
v -0.01940024 0.01126073 0.04657016
v -0.01940012 0.00262036 0.04854622
v -0.01940000 -0.00622871 0.04803883
v -0.01939989 -0.01458677 0.04508787
v -0.01939965 -0.02306871 0.03862382
v -0.02739943 0.02534210 0.02037830
v -0.02739978 0.01521539 0.02414158
v -0.02739991 -0.02082250 -0.00520787
v -0.02739954 -0.00308252 0.04327555
v -0.02739943 0.02191104 0.01826951
v -0.02739990 0.01651303 0.01429376
v -0.02739990 -0.01834865 0.00250344
v -0.02739978 0.00966187 0.03081677
v -0.02739931 0.00113011 0.03906079
v -0.02740002 -0.03010118 0.01196361
v -0.02739990 -0.03033356 0.02069134
v -0.02739931 -0.02808864 0.01828182
v -0.02693141 -0.02746299 0.01579185
v -0.02737117 -0.01576705 0.00182423
v -0.02739943 -0.02387614 0.01406718
v -0.02693129 0.02253670 0.01577953
v -0.02739991 -0.00945060 -0.01189738
v -0.02740002 -0.02459386 -0.00102512
v -0.02739943 0.02612363 0.01405482
v -0.02692944 0.02773657 0.01758292
v -0.01939726 -0.01565371 0.00168499
v -0.02693916 -0.00159092 0.03980081
v -0.01940692 0.01507817 0.02016985
v -0.01941014 0.00102461 0.03249074
v -0.01970375 0.00944632 0.02969620
v -0.01975817 0.01306156 0.02589301
v -0.01971245 0.01422922 0.01048526
v 0.02120029 0.03481588 -0.00978696
v 0.02119993 0.03198375 -0.01307884
v 0.02120029 0.03773037 -0.00552058
v -0.01976741 -0.00457887 0.03219861
v 0.02120041 0.04012457 -0.00094144
v 0.02120023 0.04196657 0.00388787
v 0.02120017 0.04322950 0.00889934
v 0.02119517 0.04394832 0.01461526
v 0.02120023 0.04388502 0.02040631
v 0.02159917 0.04317560 0.02564429
v 0.02159911 0.04185902 0.03071402
v 0.02159893 0.03994959 0.03559158
v 0.02159905 0.03747407 0.04020799
v 0.02159893 0.03446861 0.04449727
v 0.02120041 0.03091971 0.04845395
v 0.02159905 0.02704143 0.05185855
v 0.02120041 0.02374200 0.05419503
v 0.02120053 0.01915333 0.05676356
v 0.02120054 0.01429115 0.05876679
v 0.02120060 0.00922498 0.06017570
v 0.02120030 0.00402721 0.06097047
v 0.02120042 -0.00122816 0.06114021
v 0.02120012 -0.00905281 0.06021976
v 0.02119934 -0.01409792 0.05884446
v 0.02120328 -0.01957907 0.05658846
v 0.02120030 -0.02470184 0.05358543
v 0.02120006 -0.02887189 0.05038240
v 0.02119994 -0.03201902 0.04734456
v -0.01975698 0.00379623 0.03240473
v 0.02120030 -0.03485151 0.04405223
v 0.02120030 -0.03776557 0.03978578
v 0.02120030 -0.04015994 0.03520657
v 0.02720105 -0.03776553 0.03978464
v 0.02740001 -0.04237891 0.02836053
v 0.02720076 -0.02741019 0.05159523
v 0.02740001 -0.02329818 0.05430548
v 0.02120018 -0.04200139 0.03037743
v 0.02120006 -0.04326456 0.02536606
v 0.02720070 -0.04397334 0.01972904
v -0.01977176 -0.00075311 0.03285743
v 0.02740001 -0.03572183 0.04254474
v 0.02119517 -0.04398341 0.01965023
v -0.01978815 0.01562361 0.01532748
v 0.02724755 -0.01045687 0.05987043
v 0.02539992 -0.01665414 0.05732555
v 0.02240002 -0.01757822 0.05694298
v 0.02740001 -0.03711539 -0.00619840
v 0.02740001 -0.04296978 0.00843379
v 0.02720045 -0.04194383 0.00370582
v 0.02720105 0.00963960 0.06008439
v 0.02739990 0.00342563 0.06082174
v 0.02740001 0.01862631 0.05679368
v 0.02720081 0.03541514 0.04325980
v 0.02740001 0.03779088 0.03929399
v 0.02720081 0.02825397 0.05087923
v 0.02740013 -0.01736134 -0.02311379
v 0.02720093 -0.02364073 -0.02001667
v 0.02719640 -0.03186752 -0.01326564
v 0.02740001 0.04318013 0.02451800
v 0.02740001 -0.00200769 -0.02664653
v 0.02720093 -0.00906700 -0.02595128
v 0.02720045 0.04231320 0.02922416
v 0.02740001 0.04196790 0.00457101
v -0.02640105 0.01461938 -0.01078722
v 0.02739989 0.01851100 -0.02258240
v 0.02720117 0.03514842 -0.00935272
v 0.02720093 0.03806146 -0.00496025
v -0.02640093 0.00623993 -0.01376404
v 0.02720081 0.01557142 -0.02403869
v -0.02640093 -0.00263745 -0.01428213
v -0.02640087 -0.01130614 -0.01230063
v -0.02640069 -0.01907570 -0.00797767
v 0.02720057 0.02905468 -0.01592614
v -0.02639640 -0.02390493 -0.00343744
v -0.02640093 -0.02767413 0.00200437
v 0.02720094 -0.00076346 0.06115049
v -0.02640093 -0.02953162 0.00605631
v -0.02640105 -0.03145055 0.01473944
v 0.02719551 0.04400562 0.01828765
v 0.02720081 0.04339892 0.00984341
v -0.02640093 -0.03086820 0.02361263
v 0.02720081 0.00141499 -0.02686776
v 0.02120030 -0.04395282 0.01451660
v -0.02640087 -0.02783143 0.03196975
v 0.02120041 -0.04228343 0.00481424
v 0.02120017 -0.04051291 -0.00013752
v 0.02120041 -0.03816443 -0.00484320
v -0.02640445 0.01372237 0.00938347
v 0.02120035 -0.03527181 -0.00923507
v -0.02639831 0.01569595 0.01589385
v 0.02120041 -0.03187628 -0.01325065
v 0.02120065 -0.02802634 -0.01683247
v 0.02120059 -0.02377646 -0.01992968
v -0.02640808 0.01390050 0.02455624
v 0.02120053 -0.01918781 -0.02249818
v 0.02120053 -0.00925970 -0.02591041
v 0.02120065 -0.00406183 -0.02670506
v -0.02639932 0.00926951 0.02988307
v 0.02120065 0.00119401 -0.02687474
v -0.02640999 0.00166258 0.03283154
v 0.02120053 0.00643258 -0.02641618
v 0.02120065 0.01157867 -0.02533662
v -0.02639884 -0.00307648 0.03259559
v 0.02120041 0.01655935 -0.02365104
v 0.02120035 0.02130398 -0.02138334
v -0.02640558 -0.00787015 0.03081306
v 0.02120029 0.02574404 -0.01856653
v 0.02120017 0.02930631 -0.01568805
v -0.01940048 0.00748548 -0.01348542
v -0.01940060 -0.00133408 -0.01436384
v -0.01940037 -0.01004944 -0.01275245
v -0.01940048 -0.02143609 -0.00599744
v -0.01940036 -0.02482983 -0.00233621
v -0.01940036 -0.02946043 0.00586903
v -0.01940013 -0.03143242 0.01451022
v -0.01940000 -0.03092056 0.02335923
v -0.01939989 -0.02796525 0.03171566
v 0.02120077 -0.01432572 -0.02450117
v 0.02120041 -0.04345055 0.00994194
v 0.01186388 0.01026372 -0.04340279
v 0.01438366 0.00877385 -0.03816878
v 0.01237558 0.00102138 -0.04518329
v 0.01161849 0.00828748 -0.04529308
v 0.01441180 -0.00893423 -0.03805013
v 0.01211434 -0.00800244 -0.04509376
v 0.01121848 0.00842760 -0.03448784
v 0.01105355 -0.01058220 -0.03511014
v 0.01164817 -0.00907122 -0.03544741
v 0.01343744 -0.01032998 -0.03825410
v 0.01383250 -0.00913339 -0.03694697
v 0.01352798 0.00981619 -0.03728374
v 0.01146029 -0.00961527 -0.04480011
v 0.00870537 -0.00179224 -0.04523956
v 0.01145577 0.00848441 -0.03613186
v 0.01028257 -0.01187243 -0.03728287
v 0.00801711 -0.01058058 -0.04502241
v 0.01087402 0.01120510 -0.03579412
v 0.01108497 0.01032088 -0.03736032
v 0.00824135 0.01082943 -0.04471400
v 0.01127916 -0.00165429 -0.03671441
v 0.00948327 0.01034094 -0.04266629
v 0.00888382 -0.00856802 -0.04464611
v 0.00786470 0.00680063 -0.04605248
v 0.00786470 -0.00686737 -0.04604901
v 0.00813894 -0.03149427 -0.03838295
v 0.00740610 -0.03128712 -0.04085364
v 0.00350926 -0.03043933 -0.05351739
v -0.01429726 -0.03220390 -0.03236320
v -0.01431848 -0.03209162 -0.03234691
v -0.01498933 -0.03068491 -0.04502729
v -0.01442267 -0.03047085 -0.05188328
v -0.01310750 -0.03266128 -0.05405719
v -0.01211007 -0.03040681 -0.05587068
v 0.00468753 -0.03263207 -0.03854885
v -0.00177492 -0.03189499 -0.03914083
v 0.00209747 -0.03271545 -0.05018901
v -0.00771513 -0.03164043 -0.05674915
v -0.00377901 -0.03270490 -0.05612498
v 0.00059817 -0.03272483 -0.05500991
v -0.00125827 -0.03038164 -0.05663044
v 0.00129531 -0.03205101 -0.03584597
v -0.00499864 -0.03193073 -0.03560209
v -0.00922831 -0.03236411 -0.03654767
v -0.00574954 -0.03202444 -0.04307948
v -0.01498933 -0.03158874 -0.03461960
v 0.00638525 -0.03262613 -0.02794436
v 0.00873433 -0.03206628 -0.03125720
v 0.00816486 -0.03086682 -0.04248844
v 0.00205331 -0.03306946 -0.02654408
v -0.00739845 -0.03040431 -0.05694847
v -0.01145222 -0.03266875 -0.05109704
v -0.00506653 -0.03292393 -0.02643750
v -0.01283224 -0.03248514 -0.02872622
v 0.00664918 -0.03470619 -0.02925189
v 0.00836526 -0.03235471 -0.03760316
v 0.00814967 -0.03149768 -0.03838643
v 0.00809656 -0.03377992 -0.03597674
v 0.00351189 -0.03267445 -0.05208828
v 0.00116883 -0.03159625 -0.05545040
v -0.01429714 -0.03220522 -0.03236325
v -0.01102270 -0.03482984 -0.02852945
v 0.00602178 -0.03343625 -0.03737243
v -0.01341207 -0.03447136 -0.03072547
v -0.01382138 -0.03269302 -0.05135844
v -0.00623639 -0.03501193 -0.02729161
v 0.00213818 -0.03504731 -0.02712290
v 0.00192861 -0.03247476 -0.03475198
v 0.00273250 -0.03389104 -0.03274345
v -0.01158096 -0.03370893 -0.03528270
v -0.01107337 -0.03467345 -0.03081754
v -0.00917663 -0.03411433 -0.03261369
v 0.00350045 -0.03503928 -0.02891612
vt 0.46723790 0.34821429
vt 0.46723790 0.34821429
vt 0.46723790 0.34821429
vt 0.46723790 0.34821429
vt 0.46723790 0.34821429
vt 0.46723790 0.34821429
vt 0.46723790 0.34821429
vt 0.46723790 0.34821429
vt 0.46723790 0.34821429
vt 0.46723790 0.34821429
vt 0.46723790 0.34821429
vt 0.46723790 0.34821429
vt 0.46723790 0.34821429
vt 0.46723790 0.34821429
vt 0.46723790 0.34821429
vt 0.46723790 0.34821429
vt 0.46723790 0.34821429
vt 0.46723790 0.34821429
vt 0.46723790 0.34821429
vt 0.46723790 0.34821429
vt 0.46723790 0.34821429
vt 0.46723790 0.34821429
vt 0.46723790 0.34821429
vt 0.46723790 0.34821429
vt 0.46723790 0.34821429
vt 0.46723790 0.34821429
vt 0.46723790 0.34821429
vt 0.27368952 0.34821429
vt 0.27368952 0.34821429
vt 0.27368952 0.34821429
vt 0.27368952 0.34821429
vt 0.27368952 0.34821429
vt 0.27368952 0.34821429
vt 0.27368952 0.34821429
vt 0.27368952 0.34821429
vt 0.27368952 0.34821429
vt 0.27368952 0.34821429
vt 0.27368952 0.34821429
vt 0.27368952 0.34821429
vt 0.27368952 0.34821429
vt 0.27368952 0.34821429
vt 0.27368952 0.34821429
vt 0.27368952 0.34821429
vt 0.27368952 0.34821429
vt 0.27368952 0.34821429
vt 0.27368952 0.34821429
vt 0.27368952 0.34821429
vt 0.27368952 0.34821429
vt 0.27368952 0.34821429
vt 0.27368952 0.34821429
vt 0.27368952 0.34821429
vt 0.27368952 0.34821429
vt 0.27368952 0.34821429
vt 0.27368952 0.34821429
vt 0.27368952 0.34821429
vt 0.27368952 0.34821429
vt 0.27368952 0.34821429
vt 0.27368952 0.34821429
vt 0.27368952 0.34821429
vt 0.27368952 0.34821429
vt 0.27368952 0.34821429
vt 0.27368952 0.34821429
vt 0.27368952 0.34821429
vt 0.27368952 0.34821429
vt 0.27368952 0.34821429
vt 0.27368952 0.34821429
vt 0.27368952 0.34821429
vt 0.27368952 0.34821429
vt 0.27368952 0.34821429
vt 0.27368952 0.34821429
vt 0.27368952 0.34821429
vt 0.27368952 0.34821429
vt 0.27368952 0.34821429
vt 0.27368952 0.34821429
vt 0.27368952 0.34821429
vt 0.27368952 0.34821429
vt 0.27368952 0.34821429
vt 0.27368952 0.34821429
vt 0.27368952 0.34821429
vt 0.27368952 0.34821429
vt 0.27368952 0.34821429
vt 0.27368952 0.34821429
vt 0.27368952 0.34821429
vt 0.27368952 0.34821429
vt 0.27368952 0.34821429
vt 0.27368952 0.34821429
vt 0.27368952 0.34821429
vt 0.27368952 0.34821429
vt 0.27368952 0.34821429
vt 0.27368952 0.34821429
vt 0.27368952 0.34821429
vt 0.27368952 0.34821429
vt 0.27368952 0.34821429
vt 0.27368952 0.34821429
vt 0.27368952 0.34821429
vt 0.27368952 0.34821429
vt 0.27368952 0.34821429
vt 0.27368952 0.34821429
vt 0.27368952 0.34821429
vt 0.27368952 0.34821429
vt 0.27368952 0.34821429
vt 0.27368952 0.34821429
vt 0.27368952 0.34821429
vt 0.27368952 0.34821429
vt 0.27368952 0.34821429
vt 0.27368952 0.34821429
vt 0.27368952 0.34821429
vt 0.27368952 0.34821429
vt 0.27368952 0.34821429
vt 0.27368952 0.34821429
vt 0.27368952 0.34821429
vt 0.27368952 0.34821429
vt 0.27368952 0.34821429
vt 0.27368952 0.34821429
vt 0.27368952 0.34821429
vt 0.27368952 0.34821429
vt 0.27368952 0.34821429
vt 0.27368952 0.34821429
vt 0.27368952 0.34821429
vt 0.27368952 0.34821429
vt 0.27368952 0.34821429
vt 0.27368952 0.34821429
vt 0.27368952 0.34821429
vt 0.27368952 0.34821429
vt 0.27368952 0.34821429
vt 0.27368952 0.34821429
vt 0.27368952 0.34821429
vt 0.27368952 0.34821429
vt 0.27368952 0.34821429
vt 0.27368952 0.34821429
vt 0.27368952 0.34821429
vt 0.27368952 0.34821429
vt 0.27368952 0.34821429
vt 0.27368952 0.34821429
vt 0.27368952 0.34821429
vt 0.27368952 0.34821429
vt 0.27368952 0.34821429
vt 0.27368952 0.34821429
vt 0.27368952 0.34821429
vt 0.27368952 0.34821429
vt 0.27368952 0.34821429
vt 0.27368952 0.34821429
vt 0.27368952 0.34821429
vt 0.27368952 0.34821429
vt 0.27368952 0.34821429
vt 0.27368952 0.34821429
vt 0.27368952 0.34821429
vt 0.27368952 0.34821429
vt 0.27368952 0.34821429
vt 0.27368952 0.34821429
vt 0.27368952 0.34821429
vt 0.27368952 0.34821429
vt 0.27368952 0.34821429
vt 0.27368952 0.34821429
vt 0.27368952 0.34821429
vt 0.27368952 0.34821429
vt 0.27368952 0.34821429
vt 0.27368952 0.34821429
vt 0.27368952 0.34821429
vt 0.27368952 0.34821429
vt 0.27368952 0.34821429
vt 0.27368952 0.34821429
vt 0.27368952 0.34821429
vt 0.27368952 0.34821429
vt 0.27368952 0.34821429
vt 0.27368952 0.34821429
vt 0.27368952 0.34821429
vt 0.27368952 0.34821429
vt 0.27368952 0.34821429
vt 0.27368952 0.34821429
vt 0.27368952 0.34821429
vt 0.27368952 0.34821429
vt 0.27368952 0.34821429
vt 0.27368952 0.34821429
vt 0.27368952 0.34821429
vt 0.27368952 0.34821429
vt 0.27368952 0.34821429
vt 0.27368952 0.34821429
vt 0.27368952 0.34821429
vt 0.27368952 0.34821429
vt 0.27368952 0.34821429
vt 0.27368952 0.34821429
vt 0.27368952 0.34821429
vt 0.27368952 0.34821429
vt 0.27368952 0.34821429
vt 0.27368952 0.34821429
vt 0.27368952 0.34821429
vt 0.27368952 0.34821429
vt 0.27368952 0.34821429
vt 0.27368952 0.34821429
vt 0.27368952 0.34821429
vt 0.27368952 0.34821429
vt 0.27368952 0.34821429
vt 0.27368952 0.34821429
vt 0.27368952 0.34821429
vt 0.27368952 0.34821429
vt 0.27368952 0.34821429
vt 0.27368952 0.34821429
vt 0.27368952 0.34821429
vt 0.27368952 0.34821429
vt 0.27368952 0.34821429
vt 0.27368952 0.34821429
vt 0.27368952 0.34821429
vt 0.27368952 0.34821429
vt 0.27368952 0.34821429
vt 0.27368952 0.34821429
vt 0.27368952 0.34821429
vt 0.27368952 0.34821429
vt 0.27368952 0.34821429
vt 0.27368952 0.34821429
vt 0.27368952 0.34821429
vt 0.27368952 0.34821429
vt 0.27368952 0.34821429
vt 0.27368952 0.34821429
vt 0.27368952 0.34821429
vt 0.27368952 0.34821429
vt 0.27368952 0.34821429
vt 0.27368952 0.34821429
vt 0.27368952 0.34821429
vt 0.27368952 0.34821429
vt 0.27368952 0.34821429
vt 0.27368952 0.34821429
vt 0.27368952 0.34821429
vt 0.27368952 0.34821429
vt 0.27368952 0.34821429
vt 0.27368952 0.34821429
vt 0.27368952 0.34821429
vt 0.27368952 0.34821429
vt 0.27368952 0.34821429
vt 0.27368952 0.34821429
vt 0.27368952 0.34821429
vt 0.27368952 0.34821429
vt 0.27368952 0.34821429
vt 0.27368952 0.34821429
vt 0.27368952 0.34821429
vt 0.27368952 0.34821429
vt 0.27368952 0.34821429
vt 0.27368952 0.34821429
vt 0.27368952 0.34821429
vt 0.27368952 0.34821429
vt 0.27368952 0.34821429
vt 0.27368952 0.34821429
vt 0.27368952 0.34821429
vt 0.27368952 0.34821429
vt 0.27368952 0.34821429
vt 0.27368952 0.34821429
vt 0.27368952 0.34821429
vt 0.27368952 0.34821429
vt 0.27368952 0.34821429
vt 0.27368952 0.34821429
vt 0.27368952 0.34821429
vt 0.27368952 0.34821429
vt 0.27368952 0.34821429
vt 0.27368952 0.34821429
vt 0.27368952 0.34821429
vt 0.27368952 0.34821429
vt 0.27368952 0.34821429
vt 0.27368952 0.34821429
vt 0.27368952 0.34821429
vt 0.27368952 0.34821429
vt 0.27368952 0.34821429
vt 0.27368952 0.34821429
vt 0.27368952 0.34821429
vt 0.27368952 0.34821429
vt 0.27368952 0.34821429
vt 0.27368952 0.34821429
vt 0.27368952 0.34821429
vt 0.27368952 0.34821429
vt 0.27368952 0.34821429
vt 0.27368952 0.34821429
vt 0.27368952 0.34821429
vt 0.27368952 0.34821429
vt 0.27368952 0.34821429
vt 0.27368952 0.34821429
vt 0.27368952 0.34821429
vt 0.27368952 0.34821429
vt 0.27368952 0.34821429
vt 0.27368952 0.34821429
vt 0.27368952 0.34821429
vt 0.27368952 0.34821429
vt 0.27368952 0.34821429
vt 0.27368952 0.34821429
vt 0.27368952 0.34821429
vt 0.27368952 0.34821429
vt 0.27368952 0.34821429
vt 0.27368952 0.34821429
vt 0.27368952 0.34821429
vt 0.27368952 0.34821429
vt 0.27368952 0.34821429
vt 0.27368952 0.34821429
vt 0.27368952 0.34821429
vt 0.27368952 0.34821429
vt 0.27368952 0.34821429
vt 0.27368952 0.34821429
vt 0.27368952 0.34821429
vt 0.27368952 0.34821429
vt 0.27368952 0.34821429
vt 0.27368952 0.34821429
vt 0.27368952 0.34821429
vt 0.27368952 0.34821429
vt 0.27368952 0.34821429
vt 0.27368952 0.34821429
vt 0.27368952 0.34821429
vt 0.27368952 0.34821429
vt 0.27368952 0.34821429
vt 0.27368952 0.34821429
vt 0.27368952 0.34821429
vt 0.27368952 0.34821429
vt 0.27368952 0.34821429
vt 0.27368952 0.34821429
vt 0.27368952 0.34821429
vt 0.27368952 0.34821429
vt 0.27368952 0.34821429
vt 0.27368952 0.34821429
vt 0.27368952 0.34821429
vt 0.27368952 0.34821429
vt 0.27368952 0.34821429
vt 0.27368952 0.34821429
vt 0.27368952 0.34821429
vt 0.27368952 0.34821429
vt 0.27368952 0.34821429
vt 0.27368952 0.34821429
vt 0.27368952 0.34821429
vt 0.27368952 0.34821429
vt 0.27368952 0.34821429
vt 0.27368952 0.34821429
vt 0.27368952 0.34821429
vt 0.08014113 0.34821429
vt 0.08014113 0.34821429
vt 0.08014113 0.34821429
vt 0.08014113 0.34821429
vt 0.08014113 0.34821429
vt 0.08014113 0.34821429
vt 0.08014113 0.34821429
vt 0.08014113 0.34821429
vt 0.08014113 0.34821429
vt 0.08014113 0.34821429
vt 0.08014113 0.34821429
vt 0.08014113 0.34821429
vt 0.08014113 0.34821429
vt 0.08014113 0.34821429
vt 0.08014113 0.34821429
vt 0.08014113 0.34821429
vt 0.08014113 0.34821429
vt 0.08014113 0.34821429
vt 0.08014113 0.34821429
vt 0.08014113 0.34821429
vt 0.08014113 0.34821429
vt 0.08014113 0.34821429
vt 0.08014113 0.34821429
vt 0.08014113 0.34821429
vt 0.08014113 0.34821429
vt 0.08014113 0.34821429
vt 0.08014113 0.34821429
vt 0.08014113 0.34821429
vt 0.08014113 0.34821429
vt 0.08014113 0.34821429
vt 0.08014113 0.34821429
vt 0.08014113 0.34821429
vt 0.08014113 0.34821429
vt 0.08014113 0.34821429
vt 0.08014113 0.34821429
vt 0.08014113 0.34821429
vt 0.08014113 0.34821429
vt 0.08014113 0.34821429
vt 0.08014113 0.34821429
vt 0.08014113 0.34821429
vt 0.08014113 0.34821429
vt 0.08014113 0.34821429
vt 0.08014113 0.34821429
vt 0.08014113 0.34821429
vt 0.08014113 0.34821429
vt 0.08014113 0.34821429
vt 0.08014113 0.34821429
vt 0.08014113 0.34821429
vt 0.08014113 0.34821429
vt 0.08014113 0.34821429
vt 0.08014113 0.34821429
vt 0.08014113 0.34821429
vt 0.08014113 0.34821429
vt 0.08014113 0.34821429
vt 0.08014113 0.34821429
vt 0.08014113 0.34821429
vt 0.08014113 0.34821429
vt 0.08014113 0.34821429
vt 0.08014113 0.34821429
vt 0.08014113 0.34821429
vt 0.08014113 0.34821429
vt 0.08014113 0.34821429
vt 0.08014113 0.34821429
vt 0.08014113 0.34821429
vt 0.08014113 0.34821429
vt 0.08014113 0.34821429
vt 0.08014113 0.34821429
vt 0.08014113 0.34821429
vt 0.08014113 0.34821429
vt 0.08014113 0.34821429
vt 0.08014113 0.34821429
vt 0.08014113 0.34821429
vt 0.08014113 0.34821429
vt 0.08014113 0.34821429
vt 0.08014113 0.34821429
vt 0.08014113 0.34821429
vt 0.08014113 0.34821429
vt 0.08014113 0.34821429
vt 0.08014113 0.34821429
vt 0.08014113 0.34821429
vt 0.08014113 0.34821429
vt 0.08014113 0.34821429
vt 0.08014113 0.34821429
vt 0.08014113 0.34821429
vt 0.08014113 0.34821429
vt 0.08014113 0.34821429
vt 0.08014113 0.34821429
vt 0.08014113 0.34821429
vt 0.08014113 0.34821429
vt 0.08014113 0.34821429
vt 0.08014113 0.34821429
vt 0.08014113 0.34821429
vt 0.08014113 0.34821429
vt 0.08014113 0.34821429
vt 0.08014113 0.34821429
vt 0.08014113 0.34821429
vt 0.08014113 0.34821429
vt 0.08014113 0.34821429
vt 0.08014113 0.34821429
vt 0.08014113 0.34821429
vt 0.08014113 0.34821429
vt 0.08014113 0.34821429
vt 0.08014113 0.34821429
vt 0.08014113 0.34821429
vt 0.08014113 0.34821429
vt 0.08014113 0.34821429
vt 0.08014113 0.34821429
vt 0.08014113 0.34821429
vt 0.08014113 0.34821429
vt 0.08014113 0.34821429
vt 0.08014113 0.34821429
vt 0.08014113 0.34821429
vt 0.08014113 0.34821429
vt 0.08014113 0.34821429
vt 0.08014113 0.34821429
vt 0.08014113 0.34821429
vt 0.08014113 0.34821429
vt 0.08014113 0.34821429
vt 0.08014113 0.34821429
vt 0.08014113 0.34821429
vt 0.08014113 0.34821429
vt 0.08014113 0.34821429
vt 0.08014113 0.34821429
vt 0.08014113 0.34821429
vt 0.08014113 0.34821429
vt 0.08014113 0.34821429
vt 0.08014113 0.34821429
vt 0.08014113 0.34821429
vt 0.08014113 0.34821429
vt 0.08014113 0.34821429
vt 0.08014113 0.34821429
vt 0.08014113 0.34821429
vt 0.08014113 0.34821429
vt 0.08014113 0.34821429
vt 0.08014113 0.34821429
vt 0.08014113 0.34821429
vt 0.08014113 0.34821429
vt 0.08014113 0.34821429
vt 0.08014113 0.34821429
vt 0.08014113 0.34821429
vt 0.08014113 0.34821429
vt 0.08014113 0.34821429
vt 0.08014113 0.34821429
vt 0.08014113 0.34821429
vt 0.08014113 0.34821429
vt 0.08014113 0.34821429
vt 0.08014113 0.34821429
vt 0.08014113 0.34821429
vt 0.08014113 0.34821429
vt 0.08014113 0.34821429
vt 0.08014113 0.34821429
vt 0.08014113 0.34821429
vt 0.08014113 0.34821429
vt 0.08014113 0.34821429
vt 0.08014113 0.34821429
vt 0.08014113 0.34821429
vt 0.08014113 0.34821429
vt 0.08014113 0.34821429
vt 0.08014113 0.34821429
vt 0.08014113 0.34821429
vt 0.08014113 0.34821429
vt 0.08014113 0.34821429
vt 0.08014113 0.34821429
vt 0.08014113 0.34821429
vt 0.08014113 0.34821429
vt 0.08014113 0.34821429
vt 0.08014113 0.34821429
vt 0.08014113 0.34821429
vt 0.08014113 0.34821429
vt 0.08014113 0.34821429
vt 0.08014113 0.34821429
vt 0.08014113 0.34821429
vt 0.08014113 0.34821429
vt 0.08014113 0.34821429
vt 0.08014113 0.34821429
vt 0.08014113 0.34821429
vt 0.08014113 0.34821429
vt 0.08014113 0.34821429
vt 0.08014113 0.34821429
vt 0.08014113 0.34821429
vt 0.08014113 0.34821429
vt 0.08014113 0.34821429
vt 0.08014113 0.34821429
vt 0.08014113 0.34821429
vt 0.08014113 0.34821429
vt 0.08014113 0.34821429
vt 0.08014113 0.34821429
vt 0.08014113 0.34821429
vt 0.08014113 0.34821429
vt 0.08014113 0.34821429
vt 0.08014113 0.34821429
vt 0.08014113 0.34821429
vt 0.08014113 0.34821429
vt 0.08014113 0.34821429
vt 0.08014113 0.34821429
vt 0.08014113 0.34821429
vt 0.08014113 0.34821429
vt 0.08014113 0.34821429
vt 0.08014113 0.34821429
vt 0.08014113 0.34821429
vt 0.08014113 0.34821429
vt 0.08014113 0.34821429
vt 0.08014113 0.34821429
vt 0.08014113 0.34821429
vt 0.08014113 0.34821429
vt 0.08014113 0.34821429
vt 0.08014113 0.34821429
vt 0.08014113 0.34821429
vt 0.08014113 0.34821429
vt 0.08014113 0.34821429
vt 0.08014113 0.34821429
vt 0.08014113 0.34821429
vt 0.08014113 0.34821429
vt 0.08014113 0.34821429
vt 0.08014113 0.34821429
vt 0.08014113 0.34821429
vt 0.08014113 0.34821429
vt 0.08014113 0.34821429
vt 0.08014113 0.34821429
vt 0.08014113 0.34821429
vt 0.08014113 0.34821429
vt 0.08014113 0.34821429
vt 0.08014113 0.34821429
vt 0.08014113 0.34821429
vt 0.08014113 0.34821429
vt 0.08014113 0.34821429
vt 0.08014113 0.34821429
vt 0.08014113 0.34821429
vt 0.08014113 0.34821429
vt 0.08014113 0.34821429
vt 0.08014113 0.34821429
vt 0.08014113 0.34821429
vt 0.08014113 0.34821429
vt 0.08014113 0.34821429
vt 0.08014113 0.34821429
vt 0.08014113 0.34821429
vt 0.08014113 0.34821429
vt 0.08014113 0.34821429
vt 0.08014113 0.34821429
vt 0.08014113 0.34821429
vt 0.08014113 0.34821429
vt 0.08014113 0.34821429
vt 0.08014113 0.34821429
vt 0.08014113 0.34821429
vt 0.08014113 0.34821429
vt 0.08014113 0.34821429
vt 0.08014113 0.34821429
vt 0.08014113 0.34821429
vt 0.08014113 0.34821429
vt 0.08014113 0.34821429
vt 0.08014113 0.34821429
vt 0.08014113 0.34821429
vt 0.08014113 0.34821429
vt 0.08014113 0.34821429
vt 0.08014113 0.34821429
vt 0.08014113 0.34821429
vt 0.08014113 0.34821429
vt 0.08014113 0.34821429
vt 0.08014113 0.34821429
vt 0.08014113 0.34821429
vt 0.08014113 0.34821429
vt 0.08014113 0.34821429
vt 0.08014113 0.34821429
vt 0.08014113 0.34821429
vt 0.08014113 0.34821429
vt 0.08014113 0.34821429
vt 0.08014113 0.34821429
vt 0.08014113 0.34821429
vt 0.08014113 0.34821429
vt 0.08014113 0.34821429
vt 0.08014113 0.34821429
vt 0.08014113 0.34821429
vt 0.08014113 0.34821429
vt 0.08014113 0.34821429
vt 0.08014113 0.34821429
vt 0.08014113 0.34821429
vt 0.08014113 0.34821429
vt 0.08014113 0.34821429
vt 0.08014113 0.34821429
vt 0.08014113 0.34821429
vt 0.08014113 0.34821429
vt 0.08014113 0.34821429
vt 0.08014113 0.34821429
vt 0.08014113 0.34821429
vt 0.08014113 0.34821429
vt 0.08014113 0.34821429
vt 0.08014113 0.34821429
vt 0.08014113 0.34821429
vt 0.08014113 0.34821429
vt 0.08014113 0.34821429
vt 0.08014113 0.34821429
vt 0.08014113 0.34821429
vt 0.08014113 0.34821429
vt 0.08014113 0.34821429
vt 0.08014113 0.34821429
vt 0.08014113 0.34821429
vt 0.08014113 0.34821429
vt 0.08014113 0.34821429
vt 0.08014113 0.34821429
vt 0.08014113 0.34821429
vt 0.08014113 0.34821429
vt 0.08014113 0.34821429
vt 0.08014113 0.34821429
vt 0.08014113 0.34821429
vt 0.08014113 0.34821429
vt 0.08014113 0.34821429
vt 0.08014113 0.34821429
vt 0.08014113 0.34821429
vt 0.08014113 0.34821429
vt 0.08014113 0.34821429
vt 0.08014113 0.34821429
vt 0.08014113 0.34821429
vt 0.08014113 0.34821429
vt 0.08014113 0.34821429
vt 0.08014113 0.34821429
vt 0.08014113 0.34821429
vt 0.08014113 0.34821429
vt 0.08014113 0.34821429
vt 0.08014113 0.34821429
vt 0.08014113 0.34821429
vt 0.08014113 0.34821429
vt 0.08014113 0.34821429
vt 0.08014113 0.34821429
vt 0.08014113 0.34821429
vt 0.08014113 0.34821429
vt 0.08014113 0.34821429
vt 0.08014113 0.34821429
vt 0.08014113 0.34821429
vt 0.08014113 0.34821429
vt 0.08014113 0.34821429
vt 0.08014113 0.34821429
vt 0.08014113 0.34821429
vt 0.08014113 0.34821429
vt 0.08014113 0.34821429
vt 0.08014113 0.34821429
vt 0.08014113 0.34821429
vt 0.08014113 0.34821429
vt 0.08014113 0.34821429
vt 0.08014113 0.34821429
vt 0.08014113 0.34821429
vt 0.08014113 0.34821429
vt 0.08014113 0.34821429
vt 0.08014113 0.34821429
vt 0.08014113 0.34821429
vt 0.08014113 0.34821429
vt 0.08014113 0.34821429
vt 0.08014113 0.34821429
vt 0.08014113 0.34821429
vt 0.08014113 0.34821429
vt 0.08014113 0.34821429
vt 0.08014113 0.34821429
vt 0.08014113 0.34821429
vt 0.08014113 0.34821429
vt 0.08014113 0.34821429
vt 0.08014113 0.34821429
vt 0.08014113 0.34821429
vt 0.08014113 0.34821429
vt 0.08014113 0.34821429
vt 0.08014113 0.34821429
vt 0.08014113 0.34821429
vt 0.08014113 0.34821429
vt 0.08014113 0.34821429
vt 0.08014113 0.34821429
vt 0.08014113 0.34821429
vt 0.08014113 0.34821429
vt 0.08014113 0.34821429
vt 0.08014113 0.34821429
vt 0.08014113 0.34821429
vt 0.08014113 0.34821429
vt 0.08014113 0.34821429
vt 0.08014113 0.34821429
vt 0.08014113 0.34821429
vt 0.08014113 0.34821429
vt 0.08014113 0.34821429
vt 0.08014113 0.34821429
vt 0.08014113 0.34821429
vt 0.08014113 0.34821429
vt 0.08014113 0.34821429
vt 0.08014113 0.34821429
vt 0.08014113 0.34821429
vt 0.08014113 0.34821429
vt 0.08014113 0.34821429
vt 0.08014113 0.34821429
vt 0.08014113 0.34821429
vt 0.08014113 0.34821429
vt 0.08014113 0.34821429
vt 0.08014113 0.34821429
vt 0.08014113 0.34821429
vt 0.08014113 0.34821429
vt 0.08014113 0.34821429
vt 0.08014113 0.34821429
vt 0.08014113 0.34821429
vt 0.08014113 0.34821429
vt 0.08014113 0.34821429
vt 0.08014113 0.34821429
vt 0.08014113 0.34821429
vt 0.08014113 0.34821429
vt 0.08014113 0.34821429
vt 0.08014113 0.34821429
vt 0.08014113 0.34821429
vt 0.08014113 0.34821429
vt 0.08014113 0.34821429
vt 0.08014113 0.34821429
vt 0.08014113 0.34821429
vt 0.08014113 0.34821429
vt 0.08014113 0.34821429
vt 0.08014113 0.34821429
vt 0.08014113 0.34821429
vt 0.08014113 0.34821429
vt 0.08014113 0.34821429
vt 0.08014113 0.34821429
vt 0.08014113 0.34821429
vt 0.08014113 0.34821429
vt 0.08014113 0.34821429
vt 0.08014113 0.34821429
vt 0.08014113 0.34821429
vt 0.08014113 0.34821429
vt 0.08014113 0.34821429
vt 0.08014113 0.34821429
vt 0.08014113 0.34821429
vt 0.08014113 0.34821429
vt 0.08014113 0.34821429
vt 0.08014113 0.34821429
vt 0.08014113 0.34821429
vt 0.08014113 0.34821429
vt 0.08014113 0.34821429
vt 0.08014113 0.34821429
vt 0.08014113 0.34821429
vt 0.08014113 0.34821429
vt 0.08014113 0.34821429
vt 0.08014113 0.34821429
vt 0.08014113 0.34821429
vt 0.08014113 0.34821429
vt 0.08014113 0.34821429
vt 0.08014113 0.34821429
vt 0.08014113 0.34821429
vt 0.08014113 0.34821429
vt 0.08014113 0.34821429
vt 0.08014113 0.34821429
vt 0.08014113 0.34821429
vt 0.08014113 0.34821429
vt 0.08014113 0.34821429
vt 0.08014113 0.34821429
vt 0.08014113 0.34821429
vt 0.08014113 0.34821429
vt 0.08014113 0.34821429
vt 0.08014113 0.34821429
vt 0.08014113 0.34821429
vt 0.08014113 0.34821429
vt 0.08014113 0.34821429
vt 0.08014113 0.34821429
vt 0.08014113 0.34821429
vt 0.08014113 0.34821429
vt 0.08014113 0.34821429
vt 0.08014113 0.34821429
vt 0.08014113 0.34821429
vt 0.08014113 0.34821429
vt 0.08014113 0.34821429
vt 0.08014113 0.34821429
vt 0.08014113 0.34821429
vt 0.08014113 0.34821429
vt 0.08014113 0.34821429
vt 0.08014113 0.34821429
vt 0.08014113 0.34821429
vt 0.08014113 0.34821429
vt 0.08014113 0.34821429
vt 0.08014113 0.34821429
vt 0.08014113 0.34821429
vt 0.08014113 0.34821429
vt 0.08014113 0.34821429
vt 0.08014113 0.34821429
vt 0.08014113 0.34821429
vt 0.08014113 0.34821429
vt 0.08014113 0.34821429
vt 0.08014113 0.34821429
vt 0.08014113 0.34821429
vt 0.08014113 0.34821429
vt 0.08014113 0.34821429
vt 0.08014113 0.34821429
vt 0.08014113 0.34821429
vt 0.08014113 0.34821429
vt 0.08014113 0.34821429
vt 0.08014113 0.34821429
vt 0.08014113 0.34821429
vt 0.08014113 0.34821429
vt 0.08014113 0.34821429
vt 0.08014113 0.34821429
vt 0.08014113 0.34821429
vt 0.08014113 0.34821429
vt 0.08014113 0.34821429
vt 0.08014113 0.34821429
vt 0.08014113 0.34821429
vt 0.08014113 0.34821429
vt 0.08014113 0.34821429
vt 0.08014113 0.34821429
vt 0.08014113 0.34821429
vt 0.08014113 0.34821429
vt 0.08014113 0.34821429
vt 0.08014113 0.34821429
vt 0.08014113 0.34821429
vt 0.08014113 0.34821429
vt 0.08014113 0.34821429
vt 0.08014113 0.34821429
vt 0.08014113 0.34821429
vt 0.08014113 0.34821429
vt 0.08014113 0.34821429
vt 0.46723790 0.34821429
vt 0.46723790 0.34821429
vt 0.46723790 0.34821429
vt 0.46723790 0.34821429
vt 0.46723790 0.34821429
vt 0.46723790 0.34821429
vt 0.46723790 0.34821429
vt 0.46723790 0.34821429
vt 0.46723790 0.34821429
vt 0.46723790 0.34821429
vt 0.46723790 0.34821429
vt 0.46723790 0.34821429
vt 0.46723790 0.34821429
vt 0.46723790 0.34821429
vt 0.46723790 0.34821429
vt 0.46723790 0.34821429
vt 0.46723790 0.34821429
vt 0.46723790 0.34821429
vt 0.46723790 0.34821429
vt 0.46723790 0.34821429
vt 0.46723790 0.34821429
vt 0.46723790 0.34821429
vt 0.46723790 0.34821429
vt 0.46723790 0.34821429
vt 0.46723790 0.34821429
vt 0.46723790 0.34821429
vt 0.46723790 0.34821429
vt 0.46723790 0.34821429
vt 0.46723790 0.34821429
vt 0.46723790 0.34821429
vt 0.46723790 0.34821429
vt 0.46723790 0.34821429
vt 0.46723790 0.34821429
vt 0.46723790 0.34821429
vt 0.46723790 0.34821429
vt 0.46723790 0.34821429
vt 0.46723790 0.34821429
vt 0.46723790 0.34821429
vt 0.46723790 0.34821429
vt 0.46723790 0.34821429
vt 0.46723790 0.34821429
vt 0.46723790 0.34821429
vt 0.46723790 0.34821429
vt 0.46723790 0.34821429
vt 0.46723790 0.34821429
vt 0.46723790 0.34821429
vt 0.46723790 0.34821429
vt 0.46723790 0.34821429
vt 0.46723790 0.34821429
vt 0.46723790 0.34821429
vt 0.46723790 0.34821429
vt 0.46723790 0.34821429
vt 0.46723790 0.34821429
vt 0.46723790 0.34821429
vt 0.46723790 0.34821429
vt 0.46723790 0.34821429
vt 0.46723790 0.34821429
vt 0.46723790 0.34821429
vt 0.46723790 0.34821429
vt 0.46723790 0.34821429
vt 0.46723790 0.34821429
vt 0.46723790 0.34821429
vt 0.46723790 0.34821429
vt 0.46723790 0.34821429
vt 0.46723790 0.34821429
vt 0.46723790 0.34821429
vt 0.46723790 0.34821429
vt 0.46723790 0.34821429
vt 0.46723790 0.34821429
vt 0.46723790 0.34821429
vt 0.46723790 0.34821429
vt 0.46723790 0.34821429
vt 0.46723790 0.34821429
f 1/1 2/2 3/3
f 1/1 3/3 4/4
f 4/4 3/3 5/5
f 5/5 3/3 6/6
f 6/6 7/7 8/8
f 9/9 10/10 11/11
f 12/12 11/11 2/2
f 2/2 1/1 12/12
f 8/8 7/7 13/13
f 5/5 14/14 4/4
f 15/15 8/8 13/13
f 6/6 8/8 16/16
f 16/16 5/5 6/6
f 17/17 18/18 19/19
f 13/13 7/7 20/20
f 17/17 19/19 21/21
f 20/20 7/7 18/18
f 17/17 20/20 18/18
f 11/11 12/12 9/9
f 22/22 4/4 14/14
f 4/4 22/22 1/1
f 11/11 3/3 2/2
f 23/23 16/16 15/15
f 24/24 16/16 23/23
f 20/20 15/15 13/13
f 25/25 23/23 20/20
f 6/6 19/19 18/18
f 15/15 20/20 23/23
f 20/20 26/26 25/25
f 17/17 26/26 20/20
f 9/9 26/26 21/21
f 27/27 1/1 22/22
f 27/27 22/22 23/23
f 25/25 27/27 23/23
f 25/25 26/26 9/9
f 6/6 18/18 7/7
f 10/10 3/3 11/11
f 12/12 25/25 9/9
f 19/19 3/3 10/10
f 1/1 25/25 12/12
f 27/27 25/25 1/1
f 8/8 15/15 16/16
f 16/16 24/24 14/14
f 16/16 14/14 5/5
f 5/5 14/14 5/5
f 5/5 5/5 5/5
f 24/24 22/22 14/14
f 21/21 10/10 9/9
f 19/19 10/10 21/21
f 28/28 29/29 30/30
f 31/31 28/28 30/30
f 32/32 33/33 34/34
f 35/35 36/36 37/37
f 38/38 39/39 40/40
f 38/38 41/41 39/39
f 42/42 39/39 41/41
f 43/43 44/44 41/41
f 45/45 46/46 47/47
f 46/46 48/48 47/47
f 49/49 45/45 50/50
f 51/51 52/52 53/53
f 53/53 54/54 51/51
f 53/53 43/43 41/41
f 47/47 48/48 55/55
f 54/54 53/53 41/41
f 49/49 46/46 45/45
f 52/52 54/54 41/41
f 56/56 57/57 58/58
f 57/57 59/59 58/58
f 58/58 59/59 32/32
f 57/57 56/56 60/60
f 32/32 59/59 61/61
f 36/36 62/62 63/63
f 64/64 65/65 66/66
f 64/64 60/60 65/65
f 64/64 66/66 67/67
f 60/60 63/63 57/57
f 68/68 69/69 70/70
f 71/71 69/69 68/68
f 66/66 65/65 72/72
f 57/57 63/63 73/73
f 73/73 59/59 57/57
f 64/64 67/67 74/74
f 64/64 74/74 75/75
f 61/61 34/34 33/33
f 71/71 76/76 69/69
f 77/77 78/78 79/79
f 80/80 69/69 81/81
f 64/64 75/75 36/36
f 62/62 82/82 34/34
f 60/60 64/64 36/36
f 76/76 83/83 84/84
f 83/83 76/76 71/71
f 63/63 62/62 73/73
f 84/84 85/85 78/78
f 63/63 60/60 36/36
f 73/73 34/34 59/59
f 62/62 34/34 73/73
f 83/83 85/85 84/84
f 78/78 86/86 79/79
f 59/59 34/34 61/61
f 87/87 44/44 88/88
f 66/66 89/89 67/67
f 66/66 88/88 89/89
f 87/87 72/72 44/44
f 72/72 87/87 66/66
f 88/88 66/66 87/87
f 90/90 60/60 56/56
f 91/91 40/40 65/65
f 92/92 65/65 60/60
f 93/93 70/70 94/94
f 65/65 40/40 72/72
f 40/40 39/39 72/72
f 65/65 92/92 95/95
f 90/90 92/92 60/60
f 91/91 65/65 95/95
f 72/72 42/42 41/41
f 72/72 41/41 44/44
f 96/96 44/44 43/43
f 96/96 43/43 97/97
f 93/93 98/98 99/99
f 100/100 86/86 101/101
f 102/102 97/97 103/103
f 96/96 97/97 102/102
f 104/104 82/82 62/62
f 70/70 80/80 94/94
f 104/104 62/62 36/36
f 105/105 106/106 35/35
f 93/93 94/94 98/98
f 67/67 107/107 108/108
f 98/98 80/80 109/109
f 110/110 106/106 105/105
f 111/111 110/110 112/112
f 112/112 110/110 105/105
f 107/107 113/113 108/108
f 114/114 70/70 93/93
f 111/111 112/112 113/113
f 49/49 78/78 85/85
f 108/108 35/35 37/37
f 112/112 105/105 113/113
f 107/107 111/111 113/113
f 105/105 35/35 113/113
f 69/69 115/115 81/81
f 94/94 80/80 98/98
f 113/113 35/35 108/108
f 108/108 74/74 67/67
f 37/37 36/36 75/75
f 75/75 74/74 37/37
f 74/74 108/108 37/37
f 116/116 88/88 117/117
f 117/117 118/118 119/119
f 100/100 120/120 86/86
f 119/119 118/118 121/121
f 122/122 121/121 102/102
f 117/117 88/88 96/96
f 118/118 117/117 96/96
f 118/118 96/96 121/121
f 123/123 78/78 124/124
f 121/121 125/125 119/119
f 121/121 96/96 102/102
f 122/122 125/125 121/121
f 88/88 116/116 89/89
f 126/126 86/86 120/120
f 88/88 44/44 96/96
f 91/91 52/52 40/40
f 127/127 52/52 91/91
f 40/40 52/52 41/41
f 95/95 127/127 91/91
f 128/128 103/103 97/97
f 53/53 128/128 97/97
f 43/43 53/53 97/97
f 129/129 103/103 128/128
f 130/130 131/131 132/132
f 116/116 117/117 133/133
f 131/131 130/130 134/134
f 134/134 125/125 131/131
f 135/135 117/117 136/136
f 131/131 125/125 137/137
f 138/138 116/116 133/133
f 137/137 125/125 139/139
f 137/137 140/140 141/141
f 78/78 101/101 86/86
f 49/49 50/50 78/78
f 138/138 89/89 116/116
f 80/80 81/81 109/109
f 133/133 117/117 135/135
f 137/137 139/139 140/140
f 139/139 125/125 122/122
f 81/81 142/142 109/109
f 133/133 135/135 143/143
f 140/140 139/139 122/122
f 89/89 138/138 144/144
f 131/131 137/137 141/141
f 117/117 119/119 136/136
f 78/78 50/50 101/101
f 69/69 76/76 115/115
f 115/115 84/84 123/123
f 136/136 119/119 134/134
f 145/145 136/136 134/134
f 145/145 134/134 130/130
f 76/76 84/84 115/115
f 136/136 145/145 135/135
f 134/134 119/119 125/125
f 70/70 69/69 80/80
f 78/78 77/77 124/124
f 146/146 147/147 148/148
f 148/148 149/149 150/150
f 151/151 150/150 149/149
f 152/152 151/151 149/149
f 149/149 153/153 152/152
f 154/154 155/155 148/148
f 142/142 115/115 123/123
f 156/156 154/154 157/157
f 158/158 156/156 159/159
f 81/81 115/115 142/142
f 160/160 161/161 162/162
f 84/84 78/78 123/123
f 114/114 68/68 70/70
f 154/154 158/158 161/161
f 160/160 162/162 163/163
f 159/159 163/163 161/161
f 156/156 152/152 159/159
f 159/159 152/152 163/163
f 160/160 163/163 152/152
f 160/160 152/152 164/164
f 165/165 160/160 164/164
f 166/166 167/167 168/168
f 168/168 167/167 169/169
f 169/169 30/30 29/29
f 170/170 171/171 172/172
f 170/170 172/172 173/173
f 174/174 31/31 175/175
f 175/175 173/173 174/174
f 173/173 172/172 174/174
f 31/31 168/168 169/169
f 172/172 166/166 168/168
f 176/176 177/177 178/178
f 179/179 180/180 170/170
f 177/177 176/176 179/179
f 179/179 181/181 180/180
f 31/31 174/174 168/168
f 177/177 179/179 182/182
f 170/170 182/182 179/179
f 182/182 183/183 177/177
f 183/183 182/182 173/173
f 172/172 171/171 166/166
f 168/168 174/174 172/172
f 31/31 169/169 29/29
f 170/170 173/173 182/182
f 144/144 184/184 181/181
f 181/181 153/153 180/180
f 181/181 152/152 153/153
f 144/144 181/181 179/179
f 144/144 179/179 176/176
f 181/181 164/164 152/152
f 171/171 148/148 147/147
f 149/149 148/148 180/180
f 147/147 185/185 171/171
f 171/171 185/185 166/166
f 171/171 170/170 148/148
f 148/148 170/170 180/180
f 186/186 187/187 188/188
f 164/164 188/188 189/189
f 189/189 188/188 187/187
f 190/190 191/191 192/192
f 193/193 191/191 194/194
f 184/184 192/192 164/164
f 193/193 195/195 186/186
f 181/181 184/184 164/164
f 192/192 196/196 190/190
f 192/192 184/184 196/196
f 192/192 188/188 164/164
f 192/192 191/191 193/193
f 193/193 188/188 192/192
f 193/193 186/186 188/188
f 144/144 196/196 184/184
f 89/89 144/144 107/107
f 107/107 176/176 178/178
f 89/89 107/107 67/67
f 144/144 176/176 107/107
f 197/197 198/198 199/199
f 183/183 200/200 177/177
f 200/200 201/201 177/177
f 177/177 201/201 178/178
f 202/202 201/201 200/200
f 203/203 202/202 200/200
f 106/106 110/110 204/204
f 110/110 202/202 203/203
f 110/110 111/111 202/202
f 204/204 110/110 203/203
f 111/111 107/107 202/202
f 204/204 200/200 183/183
f 202/202 107/107 201/201
f 203/203 200/200 204/204
f 107/107 178/178 201/201
f 35/35 104/104 36/36
f 35/35 106/106 104/104
f 106/106 205/205 104/104
f 106/106 204/204 205/205
f 204/204 183/183 205/205
f 205/205 183/183 173/173
f 175/175 205/205 173/173
f 150/150 157/157 148/148
f 156/156 157/157 150/150
f 152/152 156/156 150/150
f 206/206 165/165 189/189
f 187/187 206/206 189/189
f 189/189 165/165 164/164
f 191/191 190/190 207/207
f 208/208 209/209 132/132
f 210/210 211/211 208/208
f 207/207 212/212 209/209
f 213/213 132/132 141/141
f 196/196 144/144 138/138
f 212/212 207/207 135/135
f 132/132 131/131 141/141
f 211/211 209/209 208/208
f 210/210 208/208 213/213
f 214/214 215/215 216/216
f 217/217 71/71 68/68
f 211/211 218/218 209/209
f 196/196 138/138 143/143
f 132/132 209/209 130/130
f 207/207 143/143 135/135
f 209/209 212/212 130/130
f 212/212 145/145 130/130
f 212/212 135/135 145/145
f 143/143 138/138 133/133
f 213/213 208/208 132/132
f 219/219 71/71 217/217
f 218/218 207/207 209/209
f 190/190 143/143 207/207
f 195/195 193/193 210/210
f 193/193 194/194 211/211
f 194/194 218/218 211/211
f 190/190 196/196 143/143
f 194/194 191/191 218/218
f 193/193 211/211 210/210
f 191/191 207/207 218/218
f 220/220 167/167 166/166
f 220/220 166/166 185/185
f 147/147 220/220 185/185
f 122/122 141/141 140/140
f 56/56 58/58 90/90
f 95/95 92/92 90/90
f 221/221 222/222 223/223
f 101/101 50/50 224/224
f 225/225 101/101 224/224
f 71/71 219/219 83/83
f 226/226 222/222 221/221
f 227/227 226/226 221/221
f 100/100 101/101 225/225
f 223/223 100/100 225/225
f 228/228 226/226 227/227
f 222/222 100/100 223/223
f 228/228 227/227 229/229
f 50/50 45/45 224/224
f 230/230 45/45 47/47
f 224/224 45/45 230/230
f 225/225 224/224 230/230
f 223/223 225/225 230/230
f 221/221 223/223 230/230
f 227/227 221/221 230/230
f 227/227 230/230 231/231
f 229/229 227/227 231/231
f 232/232 233/233 234/234
f 232/232 235/235 233/233
f 233/233 147/147 146/146
f 236/236 234/234 237/237
f 238/238 147/147 233/233
f 239/239 233/233 240/240
f 241/241 242/242 243/243
f 85/85 83/83 219/219
f 198/198 214/214 216/216
f 160/160 165/165 244/244
f 236/236 242/242 241/241
f 236/236 241/241 245/245
f 241/241 243/243 206/206
f 206/206 243/243 244/244
f 206/206 244/244 165/165
f 246/246 187/187 247/247
f 186/186 248/248 187/187
f 187/187 248/248 247/247
f 195/195 249/249 250/250
f 186/186 195/195 250/250
f 251/251 252/252 253/253
f 220/220 147/147 252/252
f 220/220 252/252 251/251
f 167/167 220/220 251/251
f 167/167 251/251 30/30
f 167/167 30/30 169/169
f 251/251 253/253 254/254
f 30/30 251/251 255/255
f 255/255 251/251 254/254
f 254/254 256/256 257/257
f 254/254 258/258 255/255
f 259/259 255/255 258/258
f 260/260 257/257 256/256
f 261/261 259/259 262/262
f 262/262 257/257 260/260
f 263/263 260/260 264/264
f 262/262 259/259 258/258
f 262/262 258/258 257/257
f 262/262 263/263 231/231
f 263/263 262/262 260/260
f 253/253 256/256 254/254
f 257/257 258/258 254/254
f 147/147 265/265 252/252
f 265/265 266/266 256/256
f 256/256 253/253 252/252
f 267/267 265/265 147/147
f 266/266 265/265 267/267
f 256/256 252/252 265/265
f 268/268 266/266 267/267
f 269/269 270/270 271/271
f 270/270 269/269 268/268
f 269/269 266/266 268/268
f 272/272 246/246 270/270
f 197/197 49/49 198/198
f 270/270 246/246 186/186
f 271/271 270/270 186/186
f 269/269 273/273 274/274
f 275/275 274/274 276/276
f 273/273 269/269 271/271
f 273/273 277/277 278/278
f 278/278 277/277 279/279
f 280/280 271/271 186/186
f 280/280 250/250 281/281
f 250/250 249/249 282/282
f 274/274 275/275 260/260
f 266/266 274/274 260/260
f 274/274 266/266 269/269
f 274/274 273/273 278/278
f 276/276 274/274 278/278
f 277/277 273/273 271/271
f 279/279 280/280 281/281
f 279/279 277/277 280/280
f 271/271 280/280 277/277
f 260/260 275/275 264/264
f 250/250 282/282 281/281
f 256/256 266/266 260/260
f 280/280 186/186 250/250
f 261/261 262/262 231/231
f 264/264 228/228 229/229
f 263/263 229/229 231/231
f 263/263 264/264 229/229
f 235/235 232/232 267/267
f 240/240 235/235 267/267
f 114/114 217/217 68/68
f 239/239 240/240 267/267
f 238/238 239/239 267/267
f 147/147 238/238 267/267
f 283/283 236/236 268/268
f 234/234 283/283 268/268
f 199/199 284/284 285/285
f 286/286 234/234 268/268
f 199/199 285/285 197/197
f 232/232 286/286 268/268
f 267/267 232/232 268/268
f 49/49 197/197 46/46
f 268/268 236/236 270/270
f 215/215 214/214 219/219
f 272/272 241/241 246/246
f 270/270 245/245 272/272
f 236/236 245/245 270/270
f 246/246 206/206 187/187
f 241/241 206/206 246/246
f 287/287 288/288 289/289
f 287/287 289/289 290/290
f 288/288 291/291 289/289
f 292/292 289/289 291/291
f 278/278 293/293 294/294
f 295/295 279/279 281/281
f 279/279 295/295 296/296
f 288/288 226/226 228/228
f 228/228 275/275 294/294
f 228/228 294/294 288/288
f 288/288 222/222 226/226
f 102/102 219/219 217/217
f 281/281 297/297 295/295
f 288/288 294/294 291/291
f 288/288 287/287 222/222
f 298/298 294/294 124/124
f 287/287 120/120 222/222
f 294/294 298/298 291/291
f 215/215 219/219 102/102
f 296/296 295/295 142/142
f 281/281 282/282 297/297
f 297/297 249/249 299/299
f 300/300 297/297 98/98
f 296/296 142/142 293/293
f 228/228 264/264 275/275
f 297/297 299/299 99/99
f 300/300 98/98 109/109
f 142/142 295/295 109/109
f 120/120 100/100 222/222
f 295/295 297/297 300/300
f 124/124 293/293 123/123
f 298/298 124/124 77/77
f 297/297 99/99 98/98
f 295/295 300/300 109/109
f 282/282 249/249 297/297
f 275/275 276/276 294/294
f 294/294 276/276 278/278
f 293/293 142/142 123/123
f 219/219 214/214 85/85
f 198/198 216/216 199/199
f 296/296 278/278 279/279
f 294/294 293/293 124/124
f 278/278 296/296 293/293
f 213/213 93/93 99/99
f 85/85 214/214 198/198
f 213/213 99/99 210/210
f 210/210 99/99 299/299
f 210/210 299/299 249/249
f 210/210 249/249 195/195
f 77/77 301/301 298/298
f 298/298 301/301 292/292
f 298/298 292/292 291/291
f 77/77 302/302 301/301
f 86/86 126/126 303/303
f 79/79 304/304 77/77
f 126/126 120/120 305/305
f 287/287 290/290 120/120
f 303/303 126/126 305/305
f 306/306 79/79 303/303
f 79/79 86/86 303/303
f 85/85 198/198 49/49
f 302/302 77/77 304/304
f 304/304 79/79 306/306
f 307/307 308/308 309/309
f 310/310 311/311 312/312
f 32/32 313/313 314/314
f 314/314 58/58 32/32
f 311/311 127/127 95/95
f 310/310 315/315 311/311
f 316/316 103/103 317/317
f 318/318 102/102 103/103
f 318/318 103/103 316/316
f 93/93 213/213 141/141
f 93/93 141/141 122/122
f 93/93 122/122 114/114
f 58/58 314/314 319/319
f 114/114 122/122 102/102
f 102/102 318/318 317/317
f 186/186 246/246 248/248
f 320/320 58/58 319/319
f 129/129 308/308 307/307
f 129/129 307/307 317/317
f 308/308 321/321 309/309
f 129/129 317/317 103/103
f 315/315 309/309 321/321
f 322/322 309/309 315/315
f 311/311 323/323 324/324
f 312/312 311/311 324/324
f 311/311 95/95 323/323
f 315/315 312/312 322/322
f 322/322 312/312 324/324
f 58/58 320/320 325/325
f 95/95 90/90 325/325
f 325/325 90/90 58/58
f 102/102 217/217 114/114
f 285/285 284/284 326/326
f 285/285 327/327 48/48
f 285/285 48/48 46/46
f 285/285 46/46 197/197
f 326/326 314/314 313/313
f 326/326 313/313 327/327
f 326/326 327/327 285/285
f 327/327 313/313 55/55
f 55/55 48/48 327/327
f 314/314 326/326 319/319
f 326/326 284/284 319/319
f 319/319 284/284 320/320
f 284/284 325/325 320/320
f 102/102 307/307 215/215
f 317/317 307/307 102/102
f 307/307 309/309 215/215
f 309/309 216/216 215/215
f 216/216 309/309 322/322
f 284/284 199/199 323/323
f 199/199 324/324 323/323
f 322/322 199/199 216/216
f 325/325 284/284 95/95
f 95/95 284/284 323/323
f 199/199 322/322 324/324
f 328/328 329/329 330/330
f 331/331 329/329 328/328
f 332/332 330/330 333/333
f 333/333 330/330 329/329
f 334/334 333/333 331/331
f 333/333 329/329 331/331
f 335/335 332/332 334/334
f 332/332 333/333 334/334
f 336/336 337/337 338/338
f 334/334 331/331 339/339
f 332/332 335/335 340/340
f 339/339 341/341 335/335
f 335/335 341/341 340/340
f 331/331 342/342 339/339
f 339/339 342/342 341/341
f 341/341 342/342 343/343
f 341/341 343/343 340/340
f 332/332 343/343 330/330
f 331/331 328/328 342/342
f 340/340 343/343 332/332
f 342/342 328/328 343/343
f 344/344 345/345 346/346
f 346/346 347/347 348/348
f 349/349 347/347 346/346
f 346/346 350/350 344/344
f 348/348 350/350 346/346
f 349/349 351/351 347/347
f 352/352 353/353 354/354
f 351/351 355/355 356/356
f 351/351 356/356 352/352
f 357/357 358/358 359/359
f 353/353 359/359 350/350
f 351/351 357/357 359/359
f 360/360 357/357 344/344
f 355/355 351/351 359/359
f 361/361 362/362 363/363
f 354/354 348/348 347/347
f 359/359 352/352 356/356
f 351/351 354/354 347/347
f 359/359 344/344 364/364
f 364/364 344/344 350/350
f 358/358 357/357 360/360
f 359/359 365/365 355/355
f 360/360 344/344 366/366
f 344/344 367/367 366/366
f 352/352 359/359 368/368
f 359/359 353/353 368/368
f 351/351 352/352 369/369
f 352/352 370/370 369/369
f 371/371 372/372 373/373
f 352/352 354/354 370/370
f 348/348 374/374 375/375
f 348/348 353/353 374/374
f 353/353 350/350 374/374
f 350/350 376/376 374/374
f 364/364 350/350 377/377
f 350/350 378/378 377/377
f 350/350 359/359 378/378
f 359/359 364/364 378/378
f 376/376 348/348 375/375
f 348/348 376/376 350/350
f 348/348 379/379 353/353
f 348/348 354/354 379/379
f 354/354 380/380 370/370
f 381/381 382/382 383/383
f 354/354 351/351 380/380
f 381/381 383/383 384/384
f 351/351 369/369 380/380
f 353/353 385/385 368/368
f 353/353 352/352 385/385
f 344/344 359/359 367/367
f 386/386 387/387 382/382
f 359/359 388/388 367/367
f 359/359 366/366 388/388
f 359/359 360/360 366/366
f 359/359 389/389 360/360
f 390/390 391/391 392/392
f 359/359 358/358 389/389
f 365/365 359/359 356/356
f 349/349 357/357 351/351
f 344/344 357/357 345/345
f 393/393 394/394 395/395
f 345/345 357/357 349/349
f 396/396 394/394 393/393
f 383/383 397/397 398/398
f 383/383 382/382 397/397
f 399/399 400/400 401/401
f 399/399 401/401 402/402
f 403/403 400/400 404/404
f 405/405 404/404 399/399
f 386/386 406/406 407/407
f 386/386 408/408 406/406
f 399/399 409/409 410/410
f 384/384 383/383 398/398
f 387/387 386/386 407/407
f 384/384 398/398 411/411
f 405/405 399/399 410/410
f 412/412 402/402 413/413
f 387/387 407/407 397/397
f 382/382 387/387 397/397
f 414/414 402/402 412/412
f 415/415 416/416 417/417
f 404/404 405/405 418/418
f 419/419 404/404 418/418
f 416/416 420/420 417/417
f 399/399 402/402 409/409
f 421/421 404/404 419/419
f 393/393 395/395 422/422
f 393/393 422/422 423/423
f 401/401 424/424 402/402
f 402/402 424/424 425/425
f 413/413 402/402 425/425
f 426/426 427/427 428/428
f 413/413 425/425 429/429
f 429/429 430/430 413/413
f 430/430 429/429 431/431
f 432/432 430/430 431/431
f 433/433 432/432 431/431
f 412/412 434/434 435/435
f 436/436 433/433 421/421
f 436/436 421/421 437/437
f 437/437 421/421 419/419
f 437/437 435/435 438/438
f 438/438 435/435 439/439
f 434/434 430/430 440/440
f 437/437 438/438 441/441
f 442/442 437/437 441/441
f 443/443 444/444 445/445
f 435/435 434/434 440/440
f 439/439 435/435 440/440
f 436/436 437/437 442/442
f 439/439 441/441 438/438
f 446/446 447/447 448/448
f 449/449 447/447 446/446
f 448/448 447/447 442/442
f 450/450 449/449 446/446
f 448/448 442/442 451/451
f 452/452 453/453 443/443
f 454/454 449/449 450/450
f 451/451 442/442 441/441
f 454/454 450/450 455/455
f 456/456 451/451 441/441
f 439/439 456/456 441/441
f 457/457 456/456 439/439
f 454/454 455/455 440/440
f 440/440 455/455 457/457
f 440/440 457/457 439/439
f 456/456 457/457 458/458
f 456/456 458/458 459/459
f 460/460 451/451 459/459
f 448/448 451/451 460/460
f 461/461 448/448 460/460
f 446/446 448/448 461/461
f 451/451 456/456 459/459
f 460/460 459/459 461/461
f 450/450 446/446 462/462
f 446/446 461/461 462/462
f 455/455 450/450 462/462
f 463/463 455/455 462/462
f 464/464 455/455 463/463
f 465/465 466/466 467/467
f 465/465 467/467 468/468
f 468/468 469/469 465/465
f 470/470 469/469 468/468
f 465/465 471/471 466/466
f 469/469 471/471 465/465
f 472/472 473/473 474/474
f 403/403 471/471 469/469
f 470/470 403/403 469/469
f 443/443 475/475 476/476
f 401/401 403/403 470/470
f 477/477 474/474 478/478
f 433/433 467/467 421/421
f 468/468 467/467 433/433
f 453/453 475/475 443/443
f 470/470 468/468 433/433
f 431/431 470/470 433/433
f 467/467 466/466 421/421
f 412/412 413/413 434/434
f 414/414 412/412 435/435
f 437/437 479/479 435/435
f 418/418 479/479 419/419
f 419/419 479/479 437/437
f 479/479 418/418 480/480
f 479/479 480/480 435/435
f 414/414 435/435 480/480
f 480/480 481/481 414/414
f 481/481 409/409 414/414
f 480/480 409/409 481/481
f 410/410 409/409 480/480
f 482/482 483/483 484/484
f 418/418 410/410 480/480
f 405/405 410/410 418/418
f 409/409 402/402 414/414
f 424/424 401/401 429/429
f 425/425 424/424 429/429
f 434/434 413/413 430/430
f 464/464 463/463 458/458
f 457/457 455/455 464/464
f 458/458 457/457 464/464
f 454/454 440/440 430/430
f 449/449 454/454 432/432
f 447/447 436/436 442/442
f 454/454 430/430 432/432
f 433/433 436/436 447/447
f 449/449 433/433 447/447
f 432/432 433/433 449/449
f 401/401 400/400 403/403
f 471/471 404/404 466/466
f 466/466 404/404 421/421
f 403/403 404/404 471/471
f 401/401 470/470 431/431
f 429/429 401/401 431/431
f 475/475 485/485 476/476
f 486/486 487/487 488/488
f 486/486 488/488 489/489
f 486/486 489/489 490/490
f 491/491 492/492 493/493
f 494/494 495/495 496/496
f 494/494 496/496 492/492
f 494/494 492/492 491/491
f 497/497 498/498 499/499
f 497/497 499/499 500/500
f 497/497 500/500 501/501
f 502/502 503/503 504/504
f 504/504 503/503 505/505
f 504/504 505/505 506/506
f 507/507 508/508 509/509
f 504/504 506/506 510/510
f 511/511 512/512 513/513
f 511/511 514/514 512/512
f 515/515 516/516 517/517
f 517/517 516/516 518/518
f 516/516 381/381 518/518
f 518/518 381/381 384/384
f 519/519 520/520 521/521
f 519/519 515/515 520/520
f 390/390 521/521 522/522
f 523/523 524/524 525/525
f 523/523 396/396 524/524
f 475/475 472/472 485/485
f 526/526 523/523 527/527
f 523/523 525/525 527/527
f 420/420 416/416 528/528
f 526/526 420/420 528/528
f 394/394 529/529 395/395
f 529/529 530/530 395/395
f 453/453 472/472 475/475
f 531/531 416/416 532/532
f 529/529 533/533 530/530
f 529/529 534/534 533/533
f 473/473 472/472 453/453
f 391/391 390/390 535/535
f 536/536 391/391 535/535
f 392/392 391/391 536/536
f 406/406 392/392 536/536
f 484/484 537/537 538/538
f 408/408 392/392 406/406
f 485/485 472/472 477/477
f 539/539 537/537 484/484
f 540/540 521/521 541/541
f 521/521 520/520 541/541
f 539/539 542/542 537/537
f 520/520 543/543 541/541
f 390/390 522/522 535/535
f 522/522 544/544 535/535
f 483/483 542/542 539/539
f 520/520 515/515 543/543
f 522/522 521/521 544/544
f 515/515 545/545 543/543
f 521/521 540/540 544/544
f 540/540 541/541 544/544
f 515/515 517/517 545/545
f 517/517 546/546 545/545
f 517/517 518/518 546/546
f 518/518 384/384 546/546
f 384/384 411/411 546/546
f 398/398 406/406 411/411
f 398/398 407/407 406/406
f 398/398 397/397 407/407
f 411/411 406/406 546/546
f 546/546 406/406 536/536
f 546/546 536/536 545/545
f 545/545 536/536 535/535
f 545/545 541/541 543/543
f 507/507 542/542 483/483
f 427/427 452/452 428/428
f 545/545 535/535 544/544
f 545/545 544/544 541/541
f 534/534 531/531 547/547
f 531/531 532/532 547/547
f 530/530 533/533 548/548
f 533/533 549/549 548/548
f 532/532 550/550 547/547
f 532/532 415/415 550/550
f 533/533 551/551 549/549
f 532/532 416/416 415/415
f 533/533 534/534 551/551
f 534/534 547/547 551/551
f 420/420 526/526 552/552
f 417/417 420/420 552/552
f 525/525 553/553 554/554
f 525/525 524/524 553/553
f 526/526 527/527 552/552
f 527/527 555/555 552/552
f 524/524 556/556 553/553
f 524/524 396/396 556/556
f 527/527 554/554 555/555
f 527/527 525/525 554/554
f 396/396 393/393 423/423
f 396/396 423/423 556/556
f 395/395 557/557 422/422
f 395/395 530/530 557/557
f 530/530 548/548 557/557
f 554/554 423/423 555/555
f 555/555 423/423 552/552
f 554/554 553/553 423/423
f 553/553 556/556 423/423
f 552/552 423/423 422/422
f 537/537 542/542 558/558
f 552/552 422/422 417/417
f 417/417 422/422 557/557
f 417/417 557/557 548/548
f 417/417 548/548 415/415
f 415/415 548/548 550/550
f 550/550 549/549 547/547
f 550/550 548/548 549/549
f 547/547 549/549 551/551
f 542/542 507/507 558/558
f 477/477 472/472 474/474
f 559/559 560/560 561/561
f 561/561 560/560 562/562
f 563/563 559/559 564/564
f 565/565 566/566 567/567
f 568/568 564/564 569/569
f 563/563 564/564 568/568
f 570/570 563/563 568/568
f 563/563 570/570 571/571
f 474/474 572/572 478/478
f 573/573 570/570 568/568
f 573/573 568/568 574/574
f 575/575 576/576 560/560
f 573/573 577/577 571/571
f 566/566 571/571 578/578
f 578/578 571/571 579/579
f 579/579 571/571 580/580
f 577/577 580/580 571/571
f 578/578 579/579 567/567
f 581/581 582/582 583/583
f 584/584 566/566 565/565
f 585/585 483/483 482/482
f 586/586 587/587 585/585
f 588/588 566/566 584/584
f 589/589 588/588 584/584
f 564/564 559/559 561/561
f 558/558 507/507 590/590
f 566/566 588/588 583/583
f 591/591 587/587 586/586
f 592/592 587/587 591/591
f 570/570 573/573 571/571
f 588/588 589/589 581/581
f 593/593 592/592 591/591
f 581/581 589/589 594/594
f 587/587 592/592 595/595
f 566/566 578/578 567/567
f 592/592 593/593 596/596
f 588/588 581/581 583/583
f 575/575 592/592 596/596
f 572/572 583/583 582/582
f 474/474 583/583 572/572
f 473/473 583/583 474/474
f 595/595 592/592 560/560
f 560/560 592/592 575/575
f 508/508 597/597 509/509
f 587/587 483/483 585/585
f 559/559 595/595 560/560
f 560/560 576/576 562/562
f 569/569 564/564 561/561
f 598/598 599/599 600/600
f 600/600 601/601 602/602
f 600/600 599/599 601/601
f 603/603 602/602 604/604
f 603/603 605/605 602/602
f 598/598 606/606 599/599
f 607/607 597/597 508/508
f 605/605 600/600 602/602
f 604/604 602/602 608/608
f 606/606 608/608 599/599
f 602/602 601/601 608/608
f 601/601 599/599 608/608
f 609/609 610/610 611/611
f 612/612 609/609 611/611
f 613/613 614/614 615/615
f 507/507 616/616 508/508
f 617/617 618/618 619/619
f 616/616 607/607 508/508
f 620/620 618/618 617/617
f 620/620 615/615 618/618
f 613/613 621/621 614/614
f 621/621 622/622 614/614
f 516/516 623/623 381/381
f 624/624 623/623 516/516
f 519/519 624/624 516/516
f 625/625 624/624 519/519
f 626/626 625/625 519/519
f 627/627 625/625 626/626
f 628/628 627/627 626/626
f 629/629 628/628 626/626
f 630/630 628/628 629/629
f 607/607 616/616 631/631
f 632/632 630/630 629/629
f 633/633 630/630 632/632
f 634/634 633/633 632/632
f 635/635 634/634 632/632
f 636/636 634/634 635/635
f 637/637 636/636 635/635
f 638/638 637/637 635/635
f 639/639 637/637 638/638
f 640/640 444/444 443/443
f 641/641 639/639 638/638
f 529/529 641/641 638/638
f 642/642 641/641 529/529
f 476/476 640/640 443/443
f 394/394 642/642 529/529
f 408/408 643/643 644/644
f 643/643 408/408 645/645
f 645/645 408/408 646/646
f 408/408 647/647 646/646
f 616/616 648/648 631/631
f 647/647 649/649 646/646
f 647/647 650/650 649/649
f 650/650 651/651 649/649
f 651/651 650/650 652/652
f 652/652 653/653 651/651
f 653/653 652/652 654/654
f 653/653 654/654 655/655
f 655/655 654/654 528/528
f 655/655 528/528 656/656
f 657/657 483/483 658/658
f 453/453 452/452 659/659
f 660/660 616/616 661/661
f 662/662 595/595 663/663
f 664/664 665/665 571/571
f 453/453 659/659 666/666
f 667/667 616/616 660/660
f 566/566 664/664 571/571
f 583/583 668/668 669/669
f 559/559 663/663 595/595
f 670/670 663/663 559/559
f 583/583 669/669 566/566
f 453/453 666/666 473/473
f 473/473 666/666 671/671
f 672/672 507/507 673/673
f 669/669 664/664 566/566
f 563/563 670/670 559/559
f 658/658 483/483 662/662
f 539/539 484/484 483/483
f 662/662 483/483 587/587
f 674/674 670/670 563/563
f 452/452 667/667 660/660
f 673/673 507/507 483/483
f 616/616 667/667 648/648
f 648/648 667/667 675/675
f 616/616 507/507 672/672
f 673/673 483/483 657/657
f 473/473 671/671 668/668
f 661/661 616/616 672/672
f 571/571 674/674 563/563
f 473/473 668/668 583/583
f 665/665 674/674 571/571
f 659/659 452/452 660/660
f 662/662 587/587 595/595
f 676/676 668/668 677/677
f 678/678 668/668 676/676
f 669/669 668/668 678/678
f 679/679 669/669 678/678
f 664/664 669/669 679/679
f 680/680 664/664 679/679
f 665/665 664/664 680/680
f 681/681 665/665 680/680
f 674/674 665/665 681/681
f 682/682 674/674 681/681
f 670/670 674/674 682/682
f 683/683 670/670 682/682
f 663/663 670/670 683/683
f 684/684 663/663 683/683
f 662/662 663/663 684/684
f 685/685 662/662 684/684
f 675/675 427/427 426/426
f 667/667 427/427 675/675
f 686/686 662/662 685/685
f 658/658 662/662 686/686
f 687/687 658/658 686/686
f 676/676 677/677 623/623
f 624/624 676/676 623/623
f 678/678 676/676 624/624
f 625/625 678/678 624/624
f 679/679 678/678 625/625
f 627/627 679/679 625/625
f 628/628 679/679 627/627
f 680/680 679/679 628/628
f 630/630 680/680 628/628
f 681/681 680/680 630/630
f 682/682 681/681 633/633
f 633/633 681/681 630/630
f 634/634 682/682 633/633
f 683/683 682/682 634/634
f 636/636 683/683 634/634
f 637/637 683/683 636/636
f 684/684 683/683 637/637
f 639/639 684/684 637/637
f 667/667 452/452 427/427
f 685/685 684/684 639/639
f 641/641 685/685 639/639
f 507/507 509/509 590/590
f 686/686 685/685 641/641
f 642/642 686/686 641/641
f 687/687 686/686 642/642
f 688/688 689/689 629/629
f 605/605 690/690 600/600
f 691/691 638/638 361/361
f 514/514 647/647 336/336
f 692/692 689/689 688/688
f 390/390 693/693 521/521
f 336/336 647/647 408/408
f 521/521 693/693 692/692
f 693/693 689/689 692/692
f 650/650 694/694 652/652
f 695/695 416/416 696/696
f 386/386 336/336 408/408
f 697/697 698/698 699/699
f 700/700 697/697 699/699
f 511/511 513/513 337/337
f 699/699 698/698 371/371
f 701/701 694/694 650/650
f 371/371 698/698 523/523
f 702/702 697/697 700/700
f 695/695 696/696 362/362
f 703/703 521/521 692/692
f 704/704 690/690 605/605
f 523/523 698/698 396/396
f 704/704 605/605 603/603
f 337/337 336/336 386/386
f 362/362 361/361 638/638
f 705/705 697/697 702/702
f 511/511 337/337 386/386
f 695/695 362/362 635/635
f 654/654 526/526 528/528
f 428/428 443/443 445/445
f 694/694 705/705 702/702
f 635/635 362/362 638/638
f 452/452 443/443 428/428
f 647/647 701/701 650/650
f 603/603 701/701 647/647
f 514/514 603/603 647/647
f 704/704 603/603 514/514
f 396/396 698/698 394/394
f 706/706 521/521 703/703
f 626/626 688/688 629/629
f 382/382 511/511 386/386
f 598/598 705/705 694/694
f 519/519 521/521 706/706
f 632/632 695/695 635/635
f 534/534 529/529 638/638
f 516/516 515/515 519/519
f 381/381 511/511 382/382
f 519/519 706/706 626/626
f 694/694 702/702 652/652
f 511/511 704/704 514/514
f 691/691 534/534 638/638
f 598/598 694/694 606/606
f 626/626 706/706 707/707
f 629/629 695/695 632/632
f 690/690 705/705 600/600
f 600/600 705/705 598/598
f 701/701 603/603 604/604
f 701/701 604/604 708/708
f 531/531 534/534 691/691
f 689/689 695/695 629/629
f 652/652 702/702 372/372
f 694/694 701/701 708/708
f 694/694 708/708 606/606
f 707/707 688/688 626/626
f 526/526 371/371 523/523
f 608/608 606/606 708/708
f 709/709 531/531 691/691
f 372/372 371/371 654/654
f 654/654 371/371 526/526
f 652/652 372/372 654/654
f 696/696 416/416 531/531
f 696/696 531/531 709/709
f 608/608 708/708 604/604
f 392/392 693/693 390/390
f 621/621 655/655 656/656
f 621/621 613/613 655/655
f 613/613 653/653 655/655
f 613/613 615/615 653/653
f 615/615 651/651 653/653
f 615/615 620/620 651/651
f 620/620 617/617 651/651
f 617/617 649/649 651/651
f 617/617 619/619 646/646
f 617/617 646/646 649/649
f 619/619 612/612 646/646
f 612/612 645/645 646/646
f 612/612 611/611 645/645
f 611/611 610/610 643/643
f 611/611 643/643 645/645
f 610/610 644/644 643/643
f 610/610 609/609 644/644
f 618/618 615/615 614/614
f 618/618 614/614 619/619
f 619/619 614/614 609/609
f 609/609 614/614 710/710
f 710/710 614/614 711/711
f 710/710 711/711 712/712
f 612/612 619/619 609/609
f 710/710 712/712 713/713
f 714/714 609/609 710/710
f 715/715 716/716 572/572
f 582/582 715/715 572/572
f 717/717 715/715 582/582
f 581/581 717/717 582/582
f 711/711 614/614 718/718
f 719/719 717/717 581/581
f 594/594 719/719 581/581
f 720/720 719/719 594/594
f 589/589 720/720 594/594
f 721/721 720/720 589/589
f 584/584 721/721 589/589
f 722/722 721/721 584/584
f 565/565 722/722 584/584
f 723/723 722/722 565/565
f 567/567 723/723 565/565
f 724/724 723/723 567/567
f 579/579 724/724 567/567
f 725/725 724/724 579/579
f 580/580 725/725 579/579
f 726/726 725/725 580/580
f 577/577 726/726 580/580
f 727/727 726/726 577/577
f 573/573 727/727 577/577
f 728/728 727/727 573/573
f 574/574 728/728 573/573
f 729/729 728/728 574/574
f 568/568 729/729 574/574
f 730/730 729/729 568/568
f 569/569 730/730 568/568
f 731/731 730/730 569/569
f 732/732 731/731 569/569
f 561/561 732/732 569/569
f 733/733 732/732 561/561
f 562/562 733/733 561/561
f 734/734 733/733 562/562
f 576/576 734/734 562/562
f 735/735 734/734 576/576
f 575/575 735/735 576/576
f 736/736 735/735 575/575
f 596/596 736/736 575/575
f 737/737 736/736 596/596
f 593/593 737/737 596/596
f 738/738 737/737 593/593
f 739/739 738/738 591/591
f 591/591 738/738 593/593
f 586/586 739/739 591/591
f 740/740 739/739 586/586
f 585/585 740/740 586/586
f 741/741 740/740 585/585
f 482/482 741/741 585/585
f 742/742 741/741 482/482
f 513/513 487/487 486/486
f 513/513 512/512 487/487
f 512/512 488/488 487/487
f 512/512 514/514 488/488
f 514/514 489/489 488/488
f 706/706 703/703 502/502
f 703/703 503/503 502/502
f 703/703 692/692 503/503
f 692/692 505/505 503/503
f 718/718 614/614 622/622
f 706/706 502/502 504/504
f 696/696 709/709 497/497
f 709/709 498/498 497/497
f 709/709 499/499 498/498
f 709/709 691/691 499/499
f 691/691 500/500 499/499
f 702/702 700/700 495/495
f 700/700 496/496 495/495
f 700/700 699/699 496/496
f 702/702 495/495 494/494
f 743/743 712/712 711/711
f 742/742 744/744 745/745
f 740/740 741/741 742/742
f 731/731 732/732 730/730
f 739/739 737/737 738/738
f 740/740 737/737 739/739
f 746/746 747/747 745/745
f 748/748 747/747 746/746
f 749/749 750/750 740/740
f 751/751 748/748 746/746
f 752/752 748/748 751/751
f 742/742 749/749 740/740
f 753/753 748/748 752/752
f 754/754 743/743 711/711
f 755/755 749/749 742/742
f 756/756 753/753 752/752
f 710/710 757/757 714/714
f 745/745 755/755 742/742
f 747/747 755/755 745/745
f 750/750 758/758 759/759
f 760/760 758/758 737/737
f 759/759 758/758 760/760
f 760/760 737/737 740/740
f 750/750 759/759 760/760
f 754/754 711/711 718/718
f 750/750 760/760 740/740
f 761/761 762/762 763/763
f 764/764 765/765 766/766
f 767/767 766/766 768/768
f 769/769 766/766 767/767
f 768/768 766/766 761/761
f 770/770 761/761 771/771
f 768/768 761/761 770/770
f 771/771 761/761 772/772
f 768/768 770/770 773/773
f 774/774 770/770 775/775
f 773/773 770/770 774/774
f 776/776 768/768 773/773
f 773/773 774/774 777/777
f 623/623 778/778 381/381
f 777/777 774/774 779/779
f 780/780 777/777 779/779
f 781/781 777/777 780/780
f 778/778 782/782 381/381
f 381/381 782/782 511/511
f 779/779 774/774 783/783
f 750/750 749/749 755/755
f 782/782 784/784 511/511
f 750/750 755/755 748/748
f 765/765 750/750 766/766
f 761/761 750/750 762/762
f 784/784 785/785 511/511
f 511/511 785/785 704/704
f 766/766 750/750 761/761
f 762/762 750/750 748/748
f 785/785 786/786 704/704
f 704/704 786/786 690/690
f 758/758 750/750 765/765
f 748/748 755/755 747/747
f 780/780 779/779 787/787
f 786/786 788/788 690/690
f 690/690 788/788 705/705
f 788/788 789/789 705/705
f 790/790 758/758 765/765
f 762/762 748/748 753/753
f 789/789 791/791 705/705
f 705/705 791/791 697/697
f 791/791 792/792 697/697
f 793/793 773/773 777/777
f 794/794 793/793 777/777
f 697/697 792/792 698/698
f 792/792 795/795 698/698
f 796/796 783/783 774/774
f 797/797 753/753 756/756
f 762/762 753/753 797/797
f 795/795 798/798 698/698
f 799/799 762/762 797/797
f 763/763 762/762 799/799
f 698/698 798/798 394/394
f 798/798 642/642 394/394
f 800/800 763/763 799/799
f 801/801 763/763 800/800
f 761/761 763/763 801/801
f 644/644 392/392 408/408
f 802/802 392/392 644/644
f 802/802 693/693 392/392
f 803/803 761/761 801/801
f 772/772 761/761 803/803
f 804/804 693/693 802/802
f 805/805 772/772 803/803
f 806/806 772/772 805/805
f 771/771 772/772 806/806
f 807/807 771/771 806/806
f 804/804 689/689 693/693
f 689/689 804/804 808/808
f 809/809 771/771 807/807
f 770/770 771/771 809/809
f 775/775 770/770 809/809
f 810/810 775/775 809/809
f 811/811 775/775 810/810
f 695/695 689/689 808/808
f 695/695 808/808 812/812
f 774/774 775/775 811/811
f 813/813 774/774 811/811
f 796/796 774/774 813/813
f 695/695 812/812 814/814
f 815/815 796/796 813/813
f 816/816 796/796 815/815
f 783/783 796/796 816/816
f 416/416 695/695 814/814
f 817/817 416/416 814/814
f 818/818 783/783 816/816
f 819/819 783/783 818/818
f 528/528 817/817 820/820
f 528/528 416/416 817/817
f 779/779 783/783 819/819
f 821/821 779/779 819/819
f 787/787 779/779 821/821
f 528/528 820/820 656/656
f 822/822 787/787 821/821
f 716/716 787/787 822/822
f 668/668 671/671 677/677
f 780/780 787/787 716/716
f 715/715 780/780 716/716
f 781/781 780/780 715/715
f 717/717 781/781 715/715
f 677/677 671/671 823/823
f 671/671 666/666 823/823
f 720/720 781/781 717/717
f 777/777 781/781 720/720
f 721/721 777/777 720/720
f 666/666 659/659 823/823
f 823/823 659/659 824/824
f 794/794 777/777 721/721
f 722/722 794/794 721/721
f 793/793 794/794 722/722
f 824/824 659/659 825/825
f 659/659 660/660 825/825
f 723/723 793/793 722/722
f 773/773 793/793 723/723
f 825/825 660/660 826/826
f 724/724 773/773 723/723
f 776/776 773/773 724/724
f 725/725 776/776 724/724
f 826/826 660/660 827/827
f 660/660 661/661 827/827
f 726/726 776/776 725/725
f 768/768 776/776 726/726
f 827/827 661/661 828/828
f 661/661 672/672 828/828
f 727/727 768/768 726/726
f 767/767 768/768 727/727
f 828/828 672/672 829/829
f 728/728 767/767 727/727
f 729/729 767/767 728/728
f 672/672 673/673 829/829
f 829/829 673/673 830/830
f 769/769 767/767 729/729
f 730/730 769/769 729/729
f 673/673 657/657 830/830
f 830/830 657/657 831/831
f 732/732 769/769 730/730
f 766/766 769/769 732/732
f 657/657 658/658 831/831
f 831/831 658/658 687/687
f 733/733 766/766 732/732
f 623/623 677/677 778/778
f 764/764 766/766 733/733
f 734/734 764/764 733/733
f 677/677 823/823 778/778
f 778/778 823/823 782/782
f 735/735 764/764 734/734
f 765/765 764/764 735/735
f 790/790 765/765 735/735
f 782/782 823/823 784/784
f 823/823 824/824 784/784
f 736/736 790/790 735/735
f 737/737 790/790 736/736
f 784/784 824/824 785/785
f 824/824 825/825 785/785
f 758/758 790/790 737/737
f 719/719 720/720 717/717
f 785/785 825/825 786/786
f 825/825 826/826 786/786
f 832/832 810/810 809/809
f 797/797 833/833 799/799
f 371/371 493/493 492/492
f 786/786 826/826 788/788
f 826/826 827/827 788/788
f 788/788 827/827 789/789
f 371/371 373/373 493/493
f 373/373 491/491 493/493
f 789/789 828/828 791/791
f 827/827 828/828 789/789
f 373/373 372/372 491/491
f 791/791 828/828 792/792
f 828/828 829/829 792/792
f 699/699 492/492 496/496
f 699/699 371/371 492/492
f 792/792 829/829 795/795
f 829/829 830/830 795/795
f 372/372 494/494 491/491
f 795/795 830/830 798/798
f 372/372 702/702 494/494
f 361/361 501/501 500/500
f 830/830 831/831 798/798
f 361/361 363/363 501/501
f 798/798 831/831 642/642
f 831/831 687/687 642/642
f 363/363 362/362 501/501
f 691/691 361/361 500/500
f 622/622 621/621 656/656
f 362/362 497/497 501/501
f 622/622 656/656 820/820
f 362/362 696/696 497/497
f 688/688 510/510 506/506
f 688/688 707/707 510/510
f 718/718 622/622 820/820
f 692/692 688/688 505/505
f 718/718 820/820 817/817
f 707/707 504/504 510/510
f 754/754 718/718 817/817
f 688/688 506/506 505/505
f 707/707 706/706 504/504
f 754/754 817/817 814/814
f 338/338 490/490 489/489
f 743/743 754/754 814/814
f 338/338 337/337 490/490
f 514/514 336/336 489/489
f 337/337 486/486 490/490
f 743/743 814/814 812/812
f 337/337 513/513 486/486
f 336/336 338/338 489/489
f 712/712 743/743 812/812
f 744/744 742/742 482/482
f 484/484 744/744 482/482
f 712/712 812/812 808/808
f 713/713 712/712 808/808
f 745/745 744/744 484/484
f 746/746 745/745 484/484
f 538/538 746/746 484/484
f 751/751 746/746 538/538
f 537/537 751/751 538/538
f 752/752 751/751 537/537
f 710/710 713/713 808/808
f 710/710 808/808 804/804
f 558/558 752/752 537/537
f 757/757 710/710 804/804
f 756/756 752/752 558/558
f 590/590 756/756 558/558
f 797/797 756/756 590/590
f 833/833 797/797 590/590
f 714/714 757/757 804/804
f 714/714 804/804 802/802
f 509/509 833/833 590/590
f 799/799 833/833 509/509
f 597/597 799/799 509/509
f 800/800 799/799 597/597
f 801/801 800/800 607/607
f 607/607 800/800 597/597
f 609/609 714/714 802/802
f 609/609 802/802 644/644
f 631/631 801/801 607/607
f 716/716 822/822 572/572
f 572/572 822/822 478/478
f 803/803 801/801 631/631
f 822/822 821/821 478/478
f 648/648 803/803 631/631
f 478/478 821/821 477/477
f 821/821 819/819 477/477
f 805/805 803/803 648/648
f 675/675 805/805 648/648
f 819/819 818/818 477/477
f 477/477 818/818 485/485
f 806/806 805/805 675/675
f 818/818 816/816 485/485
f 426/426 806/806 675/675
f 485/485 815/815 476/476
f 816/816 815/815 485/485
f 807/807 806/806 426/426
f 815/815 813/813 476/476
f 809/809 807/807 426/426
f 476/476 813/813 640/640
f 640/640 811/811 444/444
f 813/813 811/811 640/640
f 428/428 809/809 426/426
f 832/832 809/809 428/428
f 811/811 810/810 444/444
f 444/444 810/810 445/445
f 445/445 832/832 428/428
f 810/810 832/832 445/445
f 834/834 835/835 836/836
f 837/837 834/834 836/836
f 838/838 839/839 836/836
f 838/838 836/836 835/835
f 840/840 841/841 842/842
f 839/839 838/838 843/843
f 843/843 838/838 844/844
f 845/845 844/844 838/838
f 845/845 838/838 835/835
f 835/835 834/834 845/845
f 846/846 847/847 839/839
f 839/839 847/847 836/836
f 836/836 847/847 837/837
f 839/839 843/843 846/846
f 840/840 842/842 848/848
f 849/849 850/850 841/841
f 850/850 843/843 841/841
f 844/844 842/842 843/843
f 843/843 842/842 841/841
f 851/851 852/852 853/853
f 845/845 848/848 854/854
f 845/845 854/854 844/844
f 852/852 851/851 848/848
f 844/844 854/854 842/842
f 834/834 852/852 845/845
f 845/845 852/852 848/848
f 834/834 855/855 852/852
f 837/837 853/853 855/855
f 837/837 855/855 834/834
f 848/848 851/851 840/840
f 846/846 856/856 847/847
f 837/837 847/847 853/853
f 846/846 850/850 856/856
f 843/843 850/850 846/846
f 853/853 852/852 855/855
f 853/853 847/847 857/857
f 857/857 847/847 858/858
f 848/848 842/842 854/854
f 847/847 856/856 858/858
f 858/858 856/856 850/850
f 859/859 860/860 861/861
f 862/862 863/863 864/864
f 864/864 865/865 862/862
f 866/866 865/865 867/867
f 868/868 869/869 870/870
f 866/866 871/871 872/872
f 866/866 867/867 871/871
f 873/873 872/872 874/874
f 875/875 876/876 869/869
f 876/876 877/877 878/878
f 878/878 866/866 872/872
f 879/879 880/880 881/881
f 882/882 861/861 874/874
f 880/880 879/879 883/883
f 882/882 884/884 864/864
f 878/878 885/885 866/866
f 882/882 874/874 884/884
f 883/883 879/879 886/886
f 882/882 859/859 861/861
f 864/864 863/863 879/879
f 882/882 879/879 859/859
f 864/864 884/884 867/867
f 886/886 879/879 887/887
f 863/863 887/887 879/879
f 879/879 881/881 859/859
f 867/867 865/865 864/864
f 888/888 881/881 880/880
f 889/889 890/890 859/859
f 889/889 859/859 891/891
f 891/891 859/859 881/881
f 861/861 860/860 892/892
f 876/876 878/878 869/869
f 870/870 869/869 873/873
f 869/869 872/872 873/873
f 878/878 872/872 869/869
f 892/892 860/860 889/889
f 877/877 885/885 878/878
f 875/875 869/869 868/868
f 860/860 890/890 889/889
f 893/893 874/874 861/861
f 871/871 884/884 874/874
f 871/871 867/867 884/884
f 862/862 865/865 894/894
f 895/895 886/886 887/887
f 868/868 870/870 896/896
f 887/887 863/863 897/897
f 897/897 863/863 894/894
f 873/873 893/893 861/861
f 874/874 872/872 871/871
f 873/873 861/861 892/892
f 874/874 893/893 873/873
f 898/898 865/865 866/866
f 897/897 894/894 898/898
f 898/898 894/894 865/865
f 899/899 900/900 886/886
f 886/886 900/900 883/883
f 875/875 868/868 901/901
f 895/895 899/899 886/886
f 868/868 896/896 902/902
f 895/895 887/887 897/897
f 888/888 891/891 881/881
f 900/900 888/888 880/880
f 900/900 880/880 883/883
f 891/891 892/892 889/889
f 892/892 870/870 873/873
f 897/897 898/898 903/903
f 885/885 898/898 866/866
f 904/904 897/897 903/903
f 904/904 903/903 905/905
f 904/904 899/899 895/895
f 904/904 895/895 897/897
f 904/904 906/906 899/899
f 906/906 900/900 899/899
f 904/904 902/902 906/906
f 904/904 905/905 902/902
f 906/906 902/902 888/888
f 888/888 896/896 891/891
f 902/902 896/896 888/888
f 906/906 888/888 900/900
f 896/896 870/870 891/891
f 891/891 870/870 892/892
f 901/901 868/868 902/902
f 903/903 885/885 877/877
f 885/885 903/903 898/898
f 903/903 877/877 905/905
f 902/902 905/905 901/901
f 876/876 905/905 877/877
f 875/875 901/901 876/876
f 876/876 901/901 905/905

