# https://github.com/mikedh/trimesh
mtllib material.mtl
usemtl material_0
v 0.03871528 -0.04038855 -0.00750527
v 0.04149459 -0.03720384 -0.00854844
v 0.04389382 -0.03562768 -0.00148684
v 0.04568509 -0.02521103 0.00096957
v 0.04504329 -0.01802691 -0.00262221
v 0.01656673 -0.02993325 0.09770884
v 0.00002939 -0.03159288 0.09545989
v 0.01411282 -0.03478314 0.09145966
v -0.03335952 -0.02959959 0.08969019
v -0.00985884 -0.03401574 0.08961889
v -0.02961154 -0.02505928 0.10011394
v 0.04648383 -0.03481795 0.00644194
v 0.04672774 -0.03306715 0.00704598
v 0.02952705 -0.03426706 0.01547256
v 0.02762747 -0.02125491 0.00554444
v 0.03407063 -0.03749526 0.00100784
v 0.02368619 -0.04029622 -0.00106323
v 0.03974167 -0.03616199 0.00999996
v 0.03520238 -0.03640984 0.00436627
v 0.02639111 -0.03628484 0.00621498
v 0.02911800 -0.03597363 0.01470522
v 0.03667977 0.04197045 -0.03814030
v 0.02442799 0.04054116 -0.02331483
v 0.02227422 0.04554201 -0.03161098
v 0.03151095 0.04443761 -0.03447089
v 0.02240505 0.04591112 -0.03131142
v -0.00401929 -0.02302809 0.10521941
v -0.02862124 -0.02341598 0.10262639
v 0.04190336 0.03276386 -0.00060658
v 0.04271694 0.03323191 -0.00201465
v 0.03226384 0.03474594 0.00309821
v 0.04922711 0.02842364 -0.00420207
v 0.04911816 0.02955221 -0.00486969
v 0.03723212 0.04261063 -0.03767126
v 0.03957222 0.03906411 -0.03782313
v 0.03530543 0.03573030 -0.01879350
v 0.04159558 0.03635251 -0.03062930
v 0.03250679 0.04023229 -0.02775108
v 0.04472140 0.03187801 -0.01931696
v 0.04120208 0.03274025 -0.01058580
v -0.00746965 -0.03922594 0.07418876
v -0.00890326 -0.03947225 0.06928974
v 0.00234702 -0.04214751 0.06180342
v 0.05445849 -0.02919811 0.09287341
v 0.03209549 -0.02894909 0.09725317
v 0.05460420 -0.02921575 0.09282643
v 0.02946084 0.03415276 -0.00554244
v 0.02731992 0.03543627 -0.01266482
v -0.01162126 -0.03580849 0.08462261
v 0.01154684 -0.03853635 0.08453888
v 0.00782125 -0.04182558 0.07381429
v 0.01657157 -0.04198398 0.07667596
v 0.05281753 -0.03382822 0.08860895
v 0.04709938 0.01687888 -0.00734839
v 0.04542836 0.00193143 -0.00792279
v 0.04586202 0.00696753 -0.00817094
v 0.04315237 0.02623646 -0.00347903
v 0.02902864 0.01712298 -0.00172057
v -0.02874764 -0.03363993 0.07793172
v 0.03713425 -0.03508234 0.08975267
v 0.02669274 -0.03976932 0.08310251
v 0.04789579 -0.04280968 0.07585787
v 0.02161695 -0.02213861 0.10436290
v 0.02403067 -0.04280145 -0.00400965
v 0.02594574 -0.02999943 0.00291233
v 0.02270730 -0.04257284 -0.00344773
v 0.02821877 0.00103846 -0.00213723
v 0.02824768 0.00957423 -0.00188143
v 0.02732719 -0.00510715 -0.00031213
v 0.02818670 -0.01493570 0.00207494
v 0.02770777 -0.02023860 0.00548667
v -0.01090891 0.03283031 -0.01830267
v -0.01302594 0.02896055 -0.01366563
v -0.00323698 0.03342500 -0.00961030
v 0.00599541 0.03547533 0.00444160
v -0.00052066 0.03396719 0.00297940
v -0.00471104 0.03656326 0.01422286
v -0.00872228 0.03142628 0.00724074
v -0.00998084 0.03428747 0.01508151
v 0.03082478 0.03442497 -0.00133039
v 0.01075972 0.03885569 0.01292431
v 0.03282780 0.03642157 0.00436225
v -0.03459733 0.00179708 -0.03029634
v -0.03479222 -0.00899806 -0.02973053
v -0.02780308 0.00078706 -0.01562349
v 0.01005335 0.03602690 -0.00928784
v -0.00117202 0.03334050 -0.00088630
v 0.01169289 0.03523987 -0.00382575
v 0.00077858 0.04188087 0.02084060
v 0.01077179 0.04746205 0.02331658
v 0.00616398 0.03643252 -0.01188382
v -0.01755583 0.02240651 -0.00760956
v -0.02056083 0.01632557 -0.00454230
v -0.01742436 0.02168369 0.00010137
v -0.00833097 0.06319296 -0.04951927
v -0.00875212 0.05069846 -0.03752692
v 0.00039503 0.04783386 -0.03163416
v -0.03300212 0.01162813 -0.03056663
v -0.04215400 0.02191626 -0.05064258
v 0.02096728 0.05120943 -0.03744521
v 0.01639727 0.04699526 -0.03034954
v 0.02464546 0.04003811 -0.02247742
v -0.01330889 0.02652872 -0.00250999
v -0.01666746 0.02346626 0.00557393
v 0.00910009 0.04585488 -0.02803299
v -0.00430894 0.04202031 -0.02637970
v -0.00376126 0.03735705 -0.01954406
v -0.01343397 0.04050423 0.02601963
v -0.00822513 0.03022285 -0.00200427
v -0.01657389 0.04319109 -0.03472604
v -0.01485441 0.02779665 0.01109799
v -0.02391391 0.04445172 -0.04104071
v -0.02038918 0.03236222 -0.02793741
v -0.01840878 0.02448947 -0.01568994
v -0.02235616 0.02373852 -0.02168998
v 0.01020532 0.03965353 -0.01850008
v 0.04104653 -0.04786683 0.05584970
v 0.01840015 -0.04512033 0.05864276
v 0.03721499 -0.04681873 0.04347784
v -0.02363971 0.01265951 -0.01200978
v -0.02278990 0.00735452 0.00095161
v 0.00057842 -0.01593853 0.11053456
v -0.02574923 -0.01694401 0.10976469
v 0.03925073 -0.04363821 0.07457996
v 0.02193888 -0.04436246 0.06953844
v 0.04486419 -0.04607585 0.06731537
v 0.02681921 0.03605200 -0.01439307
v -0.02658147 -0.00437495 -0.01093697
v -0.03058947 0.01971378 -0.03094796
v -0.02640339 0.01134754 -0.01791506
v 0.02073801 0.03492697 -0.00161417
v -0.02027153 0.01861229 0.01046488
v 0.03480514 0.04018031 0.00943875
v 0.02829463 0.03458757 -0.00934009
v -0.01493530 0.03503034 0.02157393
v -0.03652059 -0.03109722 0.08015927
v -0.03842020 -0.03089042 0.07434186
v -0.00552086 0.04850096 0.03046550
v -0.02590072 0.02753981 -0.03004834
v 0.01769619 0.06237419 -0.04948289
v 0.01224551 0.06593011 -0.05184351
v 0.00060736 0.06511719 -0.04987341
v 0.03844244 -0.05584817 -0.02864399
v 0.02756329 -0.05850914 -0.02449776
v 0.03260322 -0.05995588 -0.03182893
v 0.03195587 -0.05333249 -0.01872527
v 0.02982582 -0.05039167 -0.01380665
v 0.02445111 -0.05173363 -0.01313829
v 0.00987299 -0.06000339 -0.02266479
v 0.00672635 -0.06375226 -0.03152294
v 0.01676581 -0.06431256 -0.03341627
v -0.00396638 -0.03780515 -0.00173567
v -0.00794235 -0.04426460 -0.00819080
v 0.00157118 -0.05013163 -0.01043802
v -0.01344063 -0.04711303 -0.01397638
v -0.00728846 -0.05329621 -0.01761222
v 0.00324622 -0.05748004 -0.01944071
v 0.00854069 -0.05529049 -0.01538754
v -0.01333022 -0.04013057 -0.00763687
v 0.01800331 -0.05609707 -0.01701584
v 0.02446377 -0.06129481 -0.02859225
v 0.00495108 -0.04642911 -0.00626473
v -0.00160451 -0.06151645 -0.02922674
v 0.05003348 -0.04585391 -0.02631530
v 0.04682221 -0.04270846 -0.01820263
v 0.04090570 -0.04956738 -0.02055698
v 0.04608555 -0.05140786 -0.02999458
v 0.01737746 -0.06584612 -0.04103314
v 0.01267007 -0.04705801 -0.00637577
v 0.03851012 -0.04665396 -0.01496806
v 0.03381615 -0.04285592 -0.00843802
v 0.03130600 -0.06274110 -0.04101190
v 0.01889811 -0.02477926 -0.11121827
v 0.02139860 -0.03856687 -0.09338544
v 0.01352799 -0.03084678 -0.10555727
v 0.01592327 -0.01403186 -0.12405071
v 0.03066262 -0.05241634 -0.06914289
v 0.02674972 -0.06072311 -0.05826966
v 0.02531655 -0.04863307 -0.07782905
v 0.01692317 -0.04195760 -0.09027132
v -0.03477466 -0.02408489 -0.07791771
v -0.03055012 -0.03454202 -0.06244581
v -0.03583268 -0.02637612 -0.06275274
v 0.02870728 -0.03615602 -0.09267940
v -0.02136126 -0.05054781 -0.04052856
v -0.02313162 -0.04685859 -0.04933341
v -0.01585982 -0.05579398 -0.04303557
v 0.02671762 -0.02976531 -0.10165136
v -0.04103233 -0.00440151 -0.10226383
v -0.04025563 -0.01086267 -0.09114821
v -0.04647284 0.00227153 -0.09504988
v -0.02297809 -0.04348647 -0.06187375
v -0.02765862 -0.03434539 -0.07364118
v -0.03608036 -0.01507747 -0.09487471
v 0.02973540 -0.02077249 -0.10972913
v -0.02877280 -0.02731933 -0.08686997
v 0.03594621 -0.05764425 -0.05670358
v 0.04048288 -0.04918325 -0.06497911
v 0.02689843 -0.00978865 -0.12280611
v -0.03394458 -0.00975486 -0.10868368
v -0.02014499 -0.04216737 -0.07168443
v 0.03527963 -0.03242832 -0.09220848
v 0.03677224 -0.04144499 -0.07954244
v 0.04369550 -0.05238089 -0.05608601
v -0.01243239 -0.05319534 -0.05905451
v -0.02769994 -0.02243860 -0.09783209
v 0.04480704 -0.04114523 -0.07058156
v -0.02176573 -0.03260416 -0.08845595
v 0.04076246 -0.01928111 -0.10112353
v 0.03677854 -0.00396353 -0.11989646
v -0.03170821 -0.01941919 -0.02420118
v -0.02716996 -0.02416563 -0.01523556
v -0.04111236 0.00000622 -0.04477453
v -0.04178119 0.01273983 -0.04714205
v -0.02464385 -0.01400918 -0.11463431
v 0.04433175 -0.02715284 -0.08828014
v -0.01985929 -0.02743146 -0.09947966
v -0.04524720 0.01455732 -0.05626942
v -0.02784469 -0.03120821 -0.01930676
v -0.00832387 -0.05174601 -0.06757539
v -0.00323400 -0.06226660 -0.04899215
v -0.03741761 -0.01509016 -0.03867630
v -0.04178689 -0.00600759 -0.04913058
v 0.05107909 -0.04632242 -0.05243585
v -0.01229163 -0.03764493 -0.08986349
v -0.05056436 0.02342735 -0.07522348
v -0.04889767 0.02972930 -0.06998522
v 0.04116269 -0.00053896 -0.11785585
v -0.00040027 -0.06200825 -0.05314459
v 0.04975535 -0.02859247 -0.07829607
v 0.04613464 -0.01185922 -0.10134382
v -0.04838374 0.01131317 -0.06856190
v -0.00611388 -0.04048197 -0.08944095
v -0.00932020 -0.03210905 -0.10049385
v 0.00574386 -0.06312617 -0.05469822
v 0.00034797 -0.05112528 -0.07494953
v 0.05262000 -0.02935582 -0.07184877
v -0.03740125 -0.02005103 -0.04355476
v 0.05491178 -0.04280546 -0.04795337
v -0.01215557 -0.01672239 -0.11994711
v -0.03352531 -0.02800972 -0.03642036
v 0.05307354 -0.02091469 -0.08027834
v 0.04878575 -0.00355685 -0.10433770
v -0.04553573 -0.00236869 -0.06604193
v -0.02675863 -0.04156485 -0.02891787
v -0.00180623 -0.03906163 -0.09356110
v -0.04996196 0.01029399 -0.08708286
v 0.05725433 -0.02607480 -0.06390250
v 0.04856380 0.00713422 -0.11272288
v 0.01185487 -0.06217953 -0.05851430
v 0.05525308 0.04785219 0.08799530
v 0.06091977 0.04311110 0.09070236
v 0.05904096 0.05082704 0.08244078
v -0.03720548 -0.02361310 -0.05143480
v 0.05769415 -0.03835290 -0.04549398
v 0.05419922 -0.00555238 -0.09198451
v 0.04299372 0.02475431 0.10770231
v 0.01801537 0.02552865 0.11364003
v 0.02551975 0.01777189 0.11379090
v -0.04214879 -0.01267834 -0.06321955
v -0.00725547 -0.01706957 -0.12139269
v 0.00726276 -0.04964184 -0.07946668
v 0.00315948 -0.03671795 -0.09817994
v -0.01918589 0.03272007 0.11675130
v -0.01861385 0.02540953 0.11929377
v 0.00330941 0.03002488 0.11485231
v -0.04764936 0.00240599 -0.08172992
v -0.03202273 -0.03413075 -0.04653542
v 0.05767623 -0.00240446 -0.08495488
v 0.00411266 -0.02881352 -0.10882243
v -0.02459246 -0.04634644 -0.03356540
v 0.06083085 -0.02324676 -0.05223202
v 0.05977665 -0.01826239 -0.06351779
v -0.04090585 -0.01575418 -0.06905952
v -0.00147531 -0.01702342 -0.12269045
v 0.01259902 -0.04918296 -0.08043463
v 0.06052736 -0.03172301 -0.04118925
v 0.05386810 0.01560653 -0.10639113
v -0.03017454 -0.03721203 -0.05020133
v 0.02080165 -0.05738901 -0.06611709
v 0.01628383 -0.06391033 -0.05497931
v 0.06061875 -0.00323271 -0.07254088
v -0.04181891 -0.01125366 -0.08251838
v 0.06175811 -0.01261191 -0.05795738
v 0.05974889 0.00815712 -0.08263546
v 0.04617113 0.01825333 0.10847765
v 0.06246563 0.01575303 0.10388485
v 0.05654661 0.02316710 -0.10026465
v 0.05421630 0.05976082 0.06454685
v 0.03065193 0.06153014 0.07071817
v 0.04635086 0.05906682 0.07189009
v 0.02197339 0.06292330 0.06580625
v 0.00459066 0.06190696 0.07576957
v 0.02504855 0.06074380 0.07578858
v -0.01918912 -0.04272668 -0.01468368
v -0.01758335 -0.05174066 -0.02523607
v 0.02517626 -0.06455895 -0.04076090
v 0.02319647 -0.06496183 -0.04746131
v 0.03508179 -0.06114111 -0.04680485
v 0.00178078 0.02000955 0.11786857
v -0.01318404 -0.05801409 -0.03593268
v -0.01863442 -0.05321877 -0.03250816
v -0.01347457 -0.05484480 -0.02537511
v 0.03041048 -0.06182372 -0.05281603
v 0.04548432 -0.05391912 -0.04920399
v -0.01123388 -0.05812622 -0.03053194
v -0.00840887 -0.06040975 -0.04614061
v 0.03993167 -0.05856144 -0.04006149
v -0.00281058 -0.06341207 -0.04005465
v 0.05162513 -0.04820789 -0.04656555
v 0.05594477 0.05766044 0.07062294
v 0.04902129 -0.05167985 -0.04060873
v 0.00282313 -0.06431054 -0.03536192
v 0.00539602 -0.06492774 -0.04852283
v 0.05619625 -0.04255209 -0.04039315
v -0.02548399 -0.03577359 -0.01753871
v -0.02277614 -0.03087309 -0.01044490
v 0.03846043 0.04939296 0.01814030
v 0.05013402 -0.04951096 -0.03434836
v 0.05538875 -0.04285328 -0.03367593
v 0.00967989 -0.06592996 -0.04519471
v -0.01707602 -0.02813684 -0.00215266
v -0.02415925 -0.04360829 -0.02387232
v 0.01796750 -0.06533164 -0.04968372
v 0.05647306 -0.03938970 -0.02965218
v 0.02251990 -0.06369717 -0.05365172
v 0.06193190 0.00718010 0.10480880
v -0.03144337 0.04574176 0.03970576
v 0.00244980 0.06008510 0.08284674
v 0.04809762 -0.01489489 -0.00504606
v 0.04350210 -0.01841638 -0.00185593
v 0.04074436 0.00517124 -0.00641165
v 0.04998020 -0.00788269 -0.00788620
v -0.02636655 0.05916240 0.08440816
v -0.02466275 0.05749899 0.09034368
v 0.01781448 0.06562549 -0.05340522
v 0.02353026 0.05257845 0.02580721
v -0.03540891 0.04876521 -0.05612326
v -0.04506724 0.03753198 -0.06391029
v 0.04541546 0.05502699 -0.06925520
v 0.05033968 0.05011679 -0.07477777
v 0.05574366 0.04061827 -0.08450575
v 0.03819107 0.05980393 -0.06331985
v 0.05688199 0.03641358 -0.08852161
v 0.02852524 0.06362854 -0.05766812
v 0.05728572 0.02763691 -0.09644729
v -0.01871159 0.05943234 -0.05047087
v -0.02306244 0.05729734 -0.05136914
v 0.04402001 0.05045899 -0.05912828
v 0.04079960 0.05711202 0.07939500
v 0.06194952 -0.00477778 -0.06218845
v 0.04254612 0.04687008 -0.05167162
v 0.03984333 0.03785907 -0.03713556
v 0.04362759 0.02804513 -0.03078993
v 0.03965612 0.02507226 -0.02344421
v 0.04696291 0.01309915 -0.01999980
v 0.06246589 -0.01339786 -0.04570225
v 0.06171536 -0.02668891 -0.03686643
v 0.05969461 0.02136079 -0.08085750
v 0.06165776 -0.02446289 -0.03129682
v 0.06228492 -0.00123784 -0.05698722
v 0.03175648 0.05509873 -0.04954300
v 0.06160580 -0.01871252 -0.02972020
v 0.03001963 0.03910412 -0.03009095
v 0.03242689 0.01764034 -0.01117419
v 0.06162401 0.00015719 -0.04577765
v 0.02995246 0.02962080 -0.02065697
v 0.06063408 0.01657763 -0.06715401
v 0.05946368 0.02271737 -0.06747489
v 0.06030171 -0.00829999 -0.02962496
v 0.05976557 0.00542030 -0.04092038
v 0.04569281 0.00847366 0.10957539
v 0.05904603 -0.01125599 -0.02246987
v 0.02423618 0.03485793 -0.02218999
v 0.00362435 0.01104699 0.11827661
v 0.05630194 0.03629835 -0.07456262
v 0.05724285 0.02383560 -0.05484677
v -0.02971328 0.04614941 -0.04766628
v 0.02017120 0.05786817 0.08476441
v 0.05741157 0.01289525 -0.04069626
v -0.03536924 0.03753597 -0.04794562
v -0.01873547 0.01993617 0.12040487
v 0.05517882 0.00564201 -0.02693415
v -0.04079973 0.04584779 0.04508658
v -0.03754036 0.05194963 0.05141760
v 0.05293638 0.00142208 -0.01845163
v 0.05525776 0.02677751 -0.05179569
v -0.03858818 0.03180398 -0.04902202
v 0.05219264 0.02069449 -0.03632242
v 0.04881350 0.03448354 -0.04621570
v -0.00858260 0.05357748 0.03851606
v 0.05109094 -0.00203534 -0.01238713
v 0.06032022 -0.02144216 -0.02413544
v 0.05903319 -0.02777584 -0.02338365
v 0.05714300 -0.01364395 -0.01682867
v 0.05229095 -0.03241751 -0.01523225
v 0.05619962 -0.02506690 -0.01645387
v 0.04860082 -0.02871049 -0.00930804
v 0.05286558 -0.01438880 -0.01010958
v 0.05924887 -0.03392019 -0.03031160
v 0.05606163 -0.03438817 -0.02228939
v 0.05669782 -0.02045874 -0.01593363
v 0.05199236 -0.02165870 -0.00984678
v 0.06003867 -0.03376558 -0.03503999
v 0.01258222 0.05531551 0.03324900
v -0.00573598 0.05583460 0.09352453
v 0.02182684 0.00799362 0.11510076
v 0.04021963 0.05286599 0.02261786
v 0.04256800 -0.02545473 -0.00331029
v 0.04760173 -0.03663260 -0.01343936
v 0.03669314 -0.03809551 -0.00641273
v 0.03477743 -0.02690567 0.00041438
v -0.02747307 0.00225634 0.01300884
v -0.02399949 0.00380592 0.00670674
v -0.02518410 -0.00823242 0.00810265
v -0.02457329 0.00937196 0.01149657
v -0.02089030 0.02432089 0.01747747
v -0.01060287 -0.03476044 0.03319385
v 0.00704672 -0.04032312 0.03902368
v -0.00401772 -0.03888473 0.04274343
v -0.02192516 -0.01780026 0.00566941
v -0.02692164 -0.01712717 0.01485637
v -0.02418102 -0.02132917 0.01498626
v -0.04234259 -0.02311953 0.03994016
v -0.03397791 -0.02562708 0.03234928
v -0.05629976 -0.00656714 0.04737277
v -0.04945016 -0.01632441 0.04247575
v -0.05297414 -0.01791250 0.05508829
v -0.02017329 -0.02190798 0.00837739
v -0.01691048 -0.02553401 0.01063417
v -0.02157020 -0.02559182 0.01860683
v -0.04434283 -0.01835578 0.03613633
v 0.04708753 0.00438315 0.10907291
v 0.06114928 -0.00016295 0.10458016
v -0.04949483 0.02470957 0.03718968
v -0.03370087 0.00332446 0.01995470
v -0.04838751 0.00962448 0.03273868
v -0.01391692 -0.02773223 0.01467876
v -0.02251054 0.05387384 0.09803627
v -0.03043529 0.00983004 0.01878746
v -0.05737538 -0.01022925 0.05602581
v -0.04933972 0.00204982 0.03335205
v -0.03032465 -0.00412707 0.01565585
v -0.04996679 -0.00386291 0.03498660
v 0.00584313 -0.03207220 0.01402996
v -0.00527895 -0.03073306 0.01899942
v -0.02969934 -0.03174416 0.04429576
v -0.03001272 -0.03001531 0.03794206
v -0.02075507 -0.03183612 0.03301985
v -0.06163939 0.00212574 0.06098502
v -0.02415599 0.03257737 0.02584771
v -0.05223842 0.01503085 0.03715569
v -0.01339179 -0.03837059 0.06192531
v -0.01988096 0.03805318 0.02737575
v -0.01895290 -0.03525871 0.04381530
v 0.02176657 -0.03717042 0.02349662
v 0.02907288 -0.03601427 0.01458285
v 0.03470669 -0.04419614 0.03478985
v -0.06240416 0.00956011 0.06147608
v -0.06060072 0.00796853 0.05193051
v -0.04924177 -0.01212749 0.03796430
v -0.04081034 -0.01622512 0.02964272
v 0.01537117 -0.04412642 0.05091239
v -0.00138067 -0.04063915 0.05104823
v 0.02501038 0.05410367 0.09021545
v -0.03577736 -0.02875753 0.04313732
v -0.05621829 -0.01544030 0.06627720
v -0.03597291 0.01548272 0.02506561
v -0.04223605 -0.02708512 0.05232934
v -0.03742918 -0.03023111 0.05749570
v -0.04357551 -0.02847965 0.07291275
v -0.06005608 -0.00599977 0.06479309
v -0.05585031 0.00934435 0.04100881
v 0.01893240 0.05691607 0.03429752
v -0.02388429 -0.03479538 0.05237658
v -0.04907539 -0.02303414 0.05790668
v -0.05307246 -0.02016970 0.07219683
v -0.03270201 0.02421575 0.02640264
v -0.05497840 -0.00107958 0.04126608
v -0.02436458 -0.02281370 -0.00981900
v -0.02380127 -0.01284678 -0.00476730
v -0.05618464 0.02421632 0.04488783
v 0.01495481 -0.03850214 0.00181214
v 0.00252274 0.05401280 0.09540055
v 0.02545171 -0.03729774 0.00357837
v -0.00502600 -0.03246987 0.00390281
v -0.01280419 -0.03188251 -0.00132448
v -0.02073297 -0.02165812 -0.00201531
v -0.01954046 0.00992420 0.12079417
v -0.02254647 0.00953247 0.00602580
v -0.02312792 -0.01185150 0.00188303
v 0.00604282 -0.03277587 0.00913363
v -0.04934493 -0.02395737 0.07600100
v -0.05987462 0.02003862 0.05142251
v -0.04386732 0.03428761 0.03751596
v -0.01277335 -0.02921855 0.00250617
v 0.02744254 -0.03565132 0.00934068
v -0.05892801 0.01158815 0.04677836
v -0.01720810 -0.02563055 0.00133586
v -0.01244199 -0.02787237 0.01041556
v 0.03662020 0.04972319 0.09262367
v -0.00242586 0.05820602 0.04462745
v 0.01673458 0.00447559 0.11576866
v -0.00841133 0.05319029 0.09814146
v -0.02973436 0.05551951 0.05333191
v 0.04774962 -0.00533712 0.10732019
v 0.04882925 0.06151368 0.04706900
v 0.04418658 0.05848764 0.03338316
v 0.05017890 0.06165227 0.05127092
v -0.00298762 0.00282184 0.11831517
v 0.06210689 0.03391926 0.09722763
v 0.06244971 0.02852686 0.09995003
v 0.05888671 -0.01365038 0.10156441
v 0.05628907 -0.02401226 0.09654421
v 0.05460498 -0.02921331 0.09282850
v -0.03544808 -0.01724219 0.10652078
v -0.03879050 -0.02311982 0.09779505
v -0.04091825 -0.01506479 0.10465411
v -0.04582233 -0.01967733 0.09463173
v -0.04739797 -0.01616553 0.09644934
v -0.05076149 -0.01840430 0.08744370
v -0.04232008 -0.02818854 0.08198140
v -0.04633162 -0.02450361 0.08492264
v -0.05721522 -0.01191387 0.07686294
v -0.05313024 -0.01257726 0.08959220
v -0.04086167 -0.02524842 0.09228747
v -0.02455128 -0.01170475 0.11369697
v -0.03763667 -0.00867963 0.11118375
v -0.04544168 -0.00918296 0.10435460
v -0.03016069 -0.00659252 0.11546504
v -0.04650003 0.02007742 0.10780187
v -0.04315728 0.01124395 0.11199717
v -0.03992319 0.02293735 0.11332909
v -0.05696735 0.03547374 0.07696834
v -0.05683790 0.02945831 0.08643252
v -0.05447343 0.03667008 0.08470093
v -0.04508667 0.03050382 0.10568258
v -0.04991598 0.03425804 0.09694525
v -0.05008170 0.04603647 0.08056931
v -0.05124069 0.00839492 0.10284061
v -0.05599887 0.00544542 0.09462633
v -0.05404355 0.01703289 0.09827511
v -0.04895199 0.04253121 0.09007950
v -0.04258453 0.04315653 0.09945798
v -0.05855358 0.01648401 0.08913715
v -0.05458708 0.02459894 0.09487849
v -0.05794901 0.03359669 0.05954944
v -0.05784557 0.03513755 0.07017128
v -0.05484627 0.03930847 0.05732583
v -0.04309634 0.04962568 0.09023204
v -0.05025929 0.04755008 0.06346844
v -0.06143405 0.02384003 0.06542777
v -0.04620633 0.00136840 0.10774519
v -0.05197988 0.04523308 0.07390817
v -0.05012017 0.04819153 0.06950860
v -0.06145385 0.01981981 0.07680663
v -0.04054393 0.03517149 0.10778456
v 0.01692379 0.04923984 0.09867714
v -0.04413197 0.04011424 0.04177529
v -0.06020265 -0.00557728 0.07034861
v -0.06142598 0.00724348 0.07945874
v -0.06243383 0.00582487 0.06999429
v -0.06012243 -0.00256486 0.07815223
v -0.05321336 -0.00170553 0.09727620
v 0.02961768 0.06110686 0.04301107
v -0.06246602 0.01092816 0.07337148
v -0.06217867 0.01965337 0.06896532
v 0.01048397 -0.00041804 0.11592548
v -0.05680627 -0.00484002 0.08790988
v -0.05961736 0.02718450 0.05663038
v -0.05892249 0.00941767 0.08863050
v -0.05945619 0.00387165 0.08567736
v 0.00497514 0.06016046 0.04674026
v -0.05321434 0.03384456 0.04631361
v -0.05501350 0.03524232 0.05113873
v -0.05188864 0.04183346 0.05342938
v -0.05085168 0.03261696 0.04228468
v -0.04664113 0.04446933 0.04869631
v -0.01019269 0.06005481 0.05377430
v -0.02452139 0.00943736 0.12064522
v -0.02833701 0.02376681 0.11887845
v -0.03101202 0.01313855 0.11937436
v -0.03321084 0.05704508 0.08679877
v -0.03967162 0.05534237 0.08232193
v -0.03630397 0.00488369 0.11646242
v -0.03666401 0.01708872 0.11659499
v -0.03685631 0.05776823 0.07652781
v -0.03094357 0.05952844 0.07794958
v -0.03467324 0.02563107 0.11600420
v -0.04352739 0.05272598 0.08201624
v -0.03225983 0.05879259 0.06592482
v -0.02463377 0.03387967 0.11603259
v -0.03946007 0.05658321 0.06840084
v -0.04484132 0.05322053 0.06837248
v -0.03432884 0.05730510 0.06160513
v -0.02477477 0.04153057 0.11139883
v -0.03250103 0.03321873 0.11413664
v -0.01946391 0.04186461 0.11132536
v -0.04115042 0.05265075 0.05621683
v -0.02029949 0.04592208 0.10792665
v -0.03311585 0.04135104 0.10886832
v -0.04618142 0.05064259 0.06003907
v 0.01966067 -0.00586472 0.11302453
v -0.03032313 0.04826564 0.10378646
v -0.02203263 -0.00219812 0.11834625
v -0.03414417 -0.00025182 0.11636377
v -0.04049912 -0.00404427 0.11137580
v -0.03902107 0.04225923 0.10405608
v 0.00047251 0.04776188 0.10352749
v -0.03018049 0.00063414 0.11805172
v 0.04286762 -0.01139048 0.10654164
v -0.03365077 0.05195701 0.09712631
v -0.02740476 0.05589073 0.09345753
v 0.03073382 0.04405311 0.10022265
v 0.00546289 0.06303135 0.06450199
v -0.00440601 -0.00423066 0.11658280
v 0.04229933 0.06228150 0.05699977
v -0.00093209 0.03478860 0.11338719
v 0.02504511 0.03458339 0.10827848
v -0.01287495 0.06189004 0.06993876
v 0.05362231 0.02928185 0.10266705
v 0.04338906 -0.02362272 0.09975550
v 0.02697513 -0.01858397 0.10602003
v 0.02267997 0.06310646 0.05645539
v 0.02186810 0.03770418 0.10723658
v -0.00552564 -0.00932318 0.11458748
v 0.04226353 0.03688700 0.10219168
v 0.00982069 -0.01142348 0.11220051
v 0.04448589 -0.01926294 0.10235874
v 0.00478392 0.04388705 0.10635936
v 0.00329638 0.06250748 0.05794375
v -0.01901510 0.06058355 0.06251819
v 0.01689761 0.06213189 0.05002569
v -0.03885482 0.02924814 0.01400455
v -0.04124003 0.02148109 0.00796734
v -0.04100053 0.01673046 0.01110023
v -0.03435962 0.02720644 0.01362364
v -0.04048016 0.01690690 0.01435637
v -0.03862718 0.02821283 0.01692986
v -0.03694562 0.01658092 0.01190291
v -0.03748145 0.01657805 0.00814800
v -0.04241649 -0.00435506 0.01314332
v -0.04322746 -0.00237761 0.00886989
v -0.04208347 -0.01238007 0.01662575
v -0.03780674 0.03560274 0.01437517
v -0.03465318 0.02822460 0.01021981
v -0.04177768 0.00861170 0.01072176
v -0.04156683 -0.02485559 0.02124424
v -0.04083166 -0.02211928 0.02332573
v -0.03842933 0.00906874 0.00911799
v -0.03888887 -0.00003490 0.00899568
v -0.03858358 -0.00557751 0.01097918
v -0.03794622 0.00824349 0.01170420
v -0.04217557 0.00849506 0.01595848
v -0.04175573 -0.00343682 0.01659266
v -0.03756097 -0.00409876 0.01340995
v -0.03645397 -0.01173173 0.01597703
v -0.04027936 -0.02056238 0.02638471
v -0.04206967 -0.00994871 0.02096361
v -0.03439942 -0.02141789 0.02176476
v -0.04006537 -0.02206315 0.02547560
v -0.03792255 -0.01300767 0.01331866
v -0.03574795 0.03856120 0.02139154
v -0.03599475 -0.02320589 0.01959254
v -0.03692824 -0.02977156 0.03877520
v -0.04012182 -0.02218146 0.02526060
v -0.04012185 -0.02218136 0.02526061
v -0.04019325 -0.02808572 0.02598658
v -0.03417471 -0.03237521 0.04563715
v -0.00397130 -0.01181902 0.11676566
v -0.00666142 -0.02106592 0.11100798
v -0.00228815 -0.00781251 0.11521715
v -0.03914795 -0.01327333 0.00939881
v -0.03932556 0.00156129 0.00485439
v -0.00104394 0.00382156 0.12149038
v -0.03271705 0.02157186 0.01868353
v -0.02748802 0.03894857 0.02632347
v -0.02697868 0.03409988 0.02629305
v 0.00058587 0.00774573 0.11900624
v -0.03297666 0.00476772 0.01733098
v -0.03404360 -0.00718258 0.01731149
v -0.02897123 0.04236628 0.02189990
v 0.00150651 0.02641868 0.11659373
v 0.00075406 0.03007044 0.11860579
v 0.00039538 0.01935999 0.12143892
v -0.03589090 -0.03002503 0.02340446
v -0.03202364 -0.02695182 0.02917757
v -0.04286465 -0.01350043 0.01316119
v -0.04298457 0.00599560 0.00741586
v -0.03352164 0.03608356 0.01125964
v -0.03789929 -0.02484159 0.01612855
v -0.03860382 0.01209072 0.00389855
v 0.00012827 0.04007019 0.11386516
v -0.02250731 0.04847641 0.03579459
v -0.00026678 0.04671202 0.10495450
v -0.03372649 -0.01830097 0.02089442
v -0.03681235 0.03780827 0.02455323
v -0.03133475 0.04622918 0.03072488
v -0.02338895 0.05312837 0.03663095
v -0.00071875 0.04538614 0.11022544
v -0.00178878 0.05171084 0.10429142
v -0.02999803 0.02166828 0.02128249
v -0.00278731 0.05520740 0.10003511
v -0.05328357 0.00960163 0.02823447
v -0.05277927 0.01837337 0.02841400
v -0.01996863 0.05834834 0.04518655
v -0.01782129 0.05748204 0.04758075
v -0.00500591 0.05940196 0.08612470
v -0.00695821 0.06291369 0.08512861
v -0.01494582 0.06391940 0.05948323
v -0.01237041 0.06266002 0.06159306
v -0.03358269 0.06060741 0.06069528
v -0.03351498 0.06203267 0.06713751
v -0.01345031 0.06472112 0.06381353
v -0.00033613 0.01081257 0.12206104
v -0.01041566 0.06228825 0.06826053
v -0.00936119 0.06476878 0.07655729
v -0.04946166 0.03710673 0.03542654
v -0.03937444 0.02734165 0.01813201
v -0.02043559 -0.03954228 0.07347711
v -0.02421986 -0.03877205 0.06233423
v -0.02037178 -0.03794216 0.06853934
v -0.03664504 0.05737805 0.05426595
v -0.01665558 -0.03805707 0.08540439
v -0.02668055 -0.03710093 0.05392754
v -0.05199206 0.02502068 0.02948964
v -0.01033053 -0.03012665 0.09670623
v -0.01192908 -0.03263250 0.09809184
v -0.00942189 -0.02785984 0.10457504
v -0.03574664 0.02943215 0.00613654
v -0.03920704 0.06059595 0.06903584
v -0.04274591 0.05574539 0.05661489
v -0.02011103 0.04476844 0.03081583
v -0.03893505 0.05111294 0.04386298
v -0.01986193 0.04619883 0.03367551
v -0.01988249 0.02678015 0.01720075
v -0.02073026 0.02715009 0.01648620
v -0.04644530 0.04695099 0.04430351
v -0.02640239 0.01576043 0.01469055
v -0.02422928 0.01483357 0.00999855
v -0.02880022 0.00360085 0.01203585
v -0.02576545 -0.02216964 0.01506316
v -0.02517857 -0.03163040 0.03258243
v -0.02686026 -0.03471161 0.04721544
v -0.02474583 -0.03382533 0.04441192
v -0.02709160 -0.01153216 0.00875905
v -0.02610878 0.00551510 0.00711937
v -0.02353843 0.01317536 0.00974745
v -0.02610726 -0.00830776 0.00819964
v -0.02434775 -0.02713110 0.02435781
v -0.02918888 0.02713256 0.12181212
v -0.01737710 0.03545220 0.11887532
v -0.02933299 0.03640402 0.11807127
v -0.05262564 0.04517989 0.06588857
v -0.05654413 0.03952230 0.05518804
v -0.05811599 0.03432605 0.05179623
v -0.05887491 -0.00959469 0.06289369
v -0.06103498 -0.00481541 0.05458507
v -0.05938108 -0.01288310 0.06222191
v -0.04270250 0.04960287 0.09569153
v -0.04458332 0.05176581 0.08909344
v -0.03880690 0.01797539 0.11756963
v -0.03858435 0.02989195 0.11464950
v -0.04137192 0.00529615 0.11342724
v -0.04491138 -0.01087128 0.10708660
v -0.05027866 -0.01916730 0.09274749
v -0.04114399 0.00147606 0.11518776
v -0.06112850 0.01681471 0.04769302
v -0.04935163 0.05171979 0.07407861
v -0.03953983 0.03979751 0.10860413
v -0.05544320 -0.01979970 0.07626153
v -0.06163684 0.00824490 0.04872834
v -0.05340676 0.04677209 0.06279651
v -0.05676970 -0.01834586 0.07208062
v -0.04075288 0.04515617 0.10314511
v -0.02009405 0.06430360 0.07482753
v -0.03599483 0.06108829 0.08236314
v -0.03145634 0.06184246 0.08427753
v -0.03326393 0.05793054 0.09465092
v -0.02363615 -0.00709751 0.11982961
v -0.02483703 0.00222789 0.12290132
v -0.03235206 -0.00492068 0.11966994
v -0.04581245 -0.03083323 0.07321031
v -0.04254176 -0.03085794 0.08662969
v -0.05694622 -0.01504079 0.05488855
v -0.05106952 -0.02221914 0.04845132
v -0.04961072 -0.02585220 0.05569389
v -0.05847482 0.00936047 0.03918528
v -0.05838662 -0.00561238 0.04547812
v -0.05356778 -0.00318864 0.03157963
v -0.05291732 -0.01395878 0.03805579
v -0.02092131 0.00969484 0.12405073
v -0.02201744 0.02002174 0.12378182
v -0.02964203 0.01628173 0.12360030
v -0.02566030 -0.01303672 0.11658268
v -0.03405574 -0.01282566 0.11519111
v -0.05711289 0.01581314 0.03668673
v -0.02080242 0.04437860 0.11354988
v -0.02501868 0.04982966 0.10852939
v -0.03043425 0.04839400 0.10918472
v -0.05523973 0.03014825 0.04009626
v -0.02754502 -0.02060709 0.11064494
v -0.02273485 0.02593740 0.12267101
v -0.03700490 -0.02205550 0.10643990
v -0.03973825 -0.02777807 0.09703526
v -0.01898687 -0.02914725 0.10210201
v -0.03182163 -0.02880554 0.09960248
v -0.03943135 -0.03381067 0.07390861
v -0.04191208 -0.03118412 0.05795047
v -0.02520626 0.06168446 0.08786468
v -0.03587343 -0.03385807 0.08466974
v -0.04674752 -0.02029804 0.03683298
v -0.02653751 0.05629649 0.09992059
v -0.04105835 -0.02025639 0.02862684
v -0.03524549 -0.03237323 0.09037532
v -0.01310933 0.05774388 0.09734779
vt 0.56458333 0.34821429
vt 0.56458333 0.34821429
vt 0.56458333 0.34821429
vt 0.56458333 0.34821429
vt 0.56458333 0.34821429
vt 0.56458333 0.34821429
vt 0.56458333 0.34821429
vt 0.56458333 0.34821429
vt 0.56458333 0.34821429
vt 0.56458333 0.34821429
vt 0.56458333 0.34821429
vt 0.56458333 0.34821429
vt 0.56458333 0.34821429
vt 0.56458333 0.34821429
vt 0.56458333 0.34821429
vt 0.56458333 0.34821429
vt 0.56458333 0.34821429
vt 0.56458333 0.34821429
vt 0.56458333 0.34821429
vt 0.56458333 0.34821429
vt 0.56458333 0.34821429
vt 0.56458333 0.34821429
vt 0.56458333 0.34821429
vt 0.56458333 0.34821429
vt 0.56458333 0.34821429
vt 0.56458333 0.34821429
vt 0.56458333 0.34821429
vt 0.56458333 0.34821429
vt 0.56458333 0.34821429
vt 0.56458333 0.34821429
vt 0.56458333 0.34821429
vt 0.56458333 0.34821429
vt 0.56458333 0.34821429
vt 0.56458333 0.34821429
vt 0.56458333 0.34821429
vt 0.56458333 0.34821429
vt 0.56458333 0.34821429
vt 0.56458333 0.34821429
vt 0.56458333 0.34821429
vt 0.56458333 0.34821429
vt 0.56458333 0.34821429
vt 0.56458333 0.34821429
vt 0.56458333 0.34821429
vt 0.56458333 0.34821429
vt 0.56458333 0.34821429
vt 0.56458333 0.34821429
vt 0.56458333 0.34821429
vt 0.56458333 0.34821429
vt 0.56458333 0.34821429
vt 0.56458333 0.34821429
vt 0.56458333 0.34821429
vt 0.56458333 0.34821429
vt 0.56458333 0.34821429
vt 0.56458333 0.34821429
vt 0.56458333 0.34821429
vt 0.56458333 0.34821429
vt 0.56458333 0.34821429
vt 0.56458333 0.34821429
vt 0.56458333 0.34821429
vt 0.56458333 0.34821429
vt 0.56458333 0.34821429
vt 0.56458333 0.34821429
vt 0.56458333 0.34821429
vt 0.56458333 0.34821429
vt 0.56458333 0.34821429
vt 0.56458333 0.34821429
vt 0.56458333 0.34821429
vt 0.56458333 0.34821429
vt 0.56458333 0.34821429
vt 0.56458333 0.34821429
vt 0.56458333 0.34821429
vt 0.56458333 0.34821429
vt 0.56458333 0.34821429
vt 0.56458333 0.34821429
vt 0.56458333 0.34821429
vt 0.56458333 0.34821429
vt 0.56458333 0.34821429
vt 0.56458333 0.34821429
vt 0.56458333 0.34821429
vt 0.56458333 0.34821429
vt 0.56458333 0.34821429
vt 0.56458333 0.34821429
vt 0.56458333 0.34821429
vt 0.56458333 0.34821429
vt 0.56458333 0.34821429
vt 0.56458333 0.34821429
vt 0.56458333 0.34821429
vt 0.56458333 0.34821429
vt 0.56458333 0.34821429
vt 0.56458333 0.34821429
vt 0.56458333 0.34821429
vt 0.56458333 0.34821429
vt 0.56458333 0.34821429
vt 0.56458333 0.34821429
vt 0.56458333 0.34821429
vt 0.56458333 0.34821429
vt 0.56458333 0.34821429
vt 0.56458333 0.34821429
vt 0.56458333 0.34821429
vt 0.56458333 0.34821429
vt 0.56458333 0.34821429
vt 0.56458333 0.34821429
vt 0.56458333 0.34821429
vt 0.56458333 0.34821429
vt 0.56458333 0.34821429
vt 0.56458333 0.34821429
vt 0.56458333 0.34821429
vt 0.56458333 0.34821429
vt 0.56458333 0.34821429
vt 0.56458333 0.34821429
vt 0.56458333 0.34821429
vt 0.56458333 0.34821429
vt 0.56458333 0.34821429
vt 0.56458333 0.34821429
vt 0.56458333 0.34821429
vt 0.56458333 0.34821429
vt 0.56458333 0.34821429
vt 0.56458333 0.34821429
vt 0.56458333 0.34821429
vt 0.56458333 0.34821429
vt 0.56458333 0.34821429
vt 0.56458333 0.34821429
vt 0.56458333 0.34821429
vt 0.56458333 0.34821429
vt 0.56458333 0.34821429
vt 0.56458333 0.34821429
vt 0.56458333 0.34821429
vt 0.56458333 0.34821429
vt 0.56458333 0.34821429
vt 0.56458333 0.34821429
vt 0.56458333 0.34821429
vt 0.56458333 0.34821429
vt 0.56458333 0.34821429
vt 0.56458333 0.34821429
vt 0.56458333 0.34821429
vt 0.56458333 0.34821429
vt 0.56458333 0.34821429
vt 0.56458333 0.34821429
vt 0.56458333 0.34821429
vt 0.56458333 0.34821429
vt 0.56458333 0.34821429
vt 0.56458333 0.34821429
vt 0.56458333 0.34821429
vt 0.56458333 0.34821429
vt 0.56458333 0.34821429
vt 0.56458333 0.34821429
vt 0.56458333 0.34821429
vt 0.56458333 0.34821429
vt 0.56458333 0.34821429
vt 0.56458333 0.34821429
vt 0.56458333 0.34821429
vt 0.56458333 0.34821429
vt 0.56458333 0.34821429
vt 0.56458333 0.34821429
vt 0.56458333 0.34821429
vt 0.56458333 0.34821429
vt 0.56458333 0.34821429
vt 0.56458333 0.34821429
vt 0.56458333 0.34821429
vt 0.56458333 0.34821429
vt 0.56458333 0.34821429
vt 0.56458333 0.34821429
vt 0.56458333 0.34821429
vt 0.56458333 0.34821429
vt 0.56458333 0.34821429
vt 0.56458333 0.34821429
vt 0.56458333 0.34821429
vt 0.56458333 0.34821429
vt 0.56458333 0.34821429
vt 0.56458333 0.34821429
vt 0.56458333 0.34821429
vt 0.56458333 0.34821429
vt 0.56458333 0.34821429
vt 0.56458333 0.34821429
vt 0.56458333 0.34821429
vt 0.56458333 0.34821429
vt 0.56458333 0.34821429
vt 0.56458333 0.34821429
vt 0.56458333 0.34821429
vt 0.56458333 0.34821429
vt 0.56458333 0.34821429
vt 0.56458333 0.34821429
vt 0.56458333 0.34821429
vt 0.56458333 0.34821429
vt 0.56458333 0.34821429
vt 0.56458333 0.34821429
vt 0.56458333 0.34821429
vt 0.56458333 0.34821429
vt 0.56458333 0.34821429
vt 0.56458333 0.34821429
vt 0.56458333 0.34821429
vt 0.56458333 0.34821429
vt 0.56458333 0.34821429
vt 0.56458333 0.34821429
vt 0.56458333 0.34821429
vt 0.56458333 0.34821429
vt 0.56458333 0.34821429
vt 0.56458333 0.34821429
vt 0.56458333 0.34821429
vt 0.56458333 0.34821429
vt 0.56458333 0.34821429
vt 0.56458333 0.34821429
vt 0.56458333 0.34821429
vt 0.56458333 0.34821429
vt 0.56458333 0.34821429
vt 0.56458333 0.34821429
vt 0.56458333 0.34821429
vt 0.56458333 0.34821429
vt 0.56458333 0.34821429
vt 0.56458333 0.34821429
vt 0.56458333 0.34821429
vt 0.56458333 0.34821429
vt 0.56458333 0.34821429
vt 0.56458333 0.34821429
vt 0.56458333 0.34821429
vt 0.56458333 0.34821429
vt 0.56458333 0.34821429
vt 0.56458333 0.34821429
vt 0.56458333 0.34821429
vt 0.56458333 0.34821429
vt 0.56458333 0.34821429
vt 0.56458333 0.34821429
vt 0.56458333 0.34821429
vt 0.56458333 0.34821429
vt 0.56458333 0.34821429
vt 0.56458333 0.34821429
vt 0.56458333 0.34821429
vt 0.56458333 0.34821429
vt 0.56458333 0.34821429
vt 0.56458333 0.34821429
vt 0.56458333 0.34821429
vt 0.56458333 0.34821429
vt 0.56458333 0.34821429
vt 0.56458333 0.34821429
vt 0.56458333 0.34821429
vt 0.56458333 0.34821429
vt 0.56458333 0.34821429
vt 0.56458333 0.34821429
vt 0.56458333 0.34821429
vt 0.56458333 0.34821429
vt 0.56458333 0.34821429
vt 0.56458333 0.34821429
vt 0.56458333 0.34821429
vt 0.56458333 0.34821429
vt 0.56458333 0.34821429
vt 0.56458333 0.34821429
vt 0.56458333 0.34821429
vt 0.56458333 0.34821429
vt 0.56458333 0.34821429
vt 0.56458333 0.34821429
vt 0.56458333 0.34821429
vt 0.56458333 0.34821429
vt 0.56458333 0.34821429
vt 0.56458333 0.34821429
vt 0.56458333 0.34821429
vt 0.56458333 0.34821429
vt 0.56458333 0.34821429
vt 0.56458333 0.34821429
vt 0.56458333 0.34821429
vt 0.56458333 0.34821429
vt 0.56458333 0.34821429
vt 0.56458333 0.34821429
vt 0.56458333 0.34821429
vt 0.56458333 0.34821429
vt 0.56458333 0.34821429
vt 0.56458333 0.34821429
vt 0.56458333 0.34821429
vt 0.56458333 0.34821429
vt 0.56458333 0.34821429
vt 0.56458333 0.34821429
vt 0.56458333 0.34821429
vt 0.56458333 0.34821429
vt 0.56458333 0.34821429
vt 0.56458333 0.34821429
vt 0.56458333 0.34821429
vt 0.56458333 0.34821429
vt 0.56458333 0.34821429
vt 0.56458333 0.34821429
vt 0.56458333 0.34821429
vt 0.56458333 0.34821429
vt 0.56458333 0.34821429
vt 0.56458333 0.34821429
vt 0.56458333 0.34821429
vt 0.56458333 0.34821429
vt 0.56458333 0.34821429
vt 0.56458333 0.34821429
vt 0.56458333 0.34821429
vt 0.56458333 0.34821429
vt 0.56458333 0.34821429
vt 0.56458333 0.34821429
vt 0.56458333 0.34821429
vt 0.56458333 0.34821429
vt 0.56458333 0.34821429
vt 0.56458333 0.34821429
vt 0.56458333 0.34821429
vt 0.56458333 0.34821429
vt 0.56458333 0.34821429
vt 0.56458333 0.34821429
vt 0.56458333 0.34821429
vt 0.56458333 0.34821429
vt 0.56458333 0.34821429
vt 0.56458333 0.34821429
vt 0.56458333 0.34821429
vt 0.56458333 0.34821429
vt 0.56458333 0.34821429
vt 0.56458333 0.34821429
vt 0.56458333 0.34821429
vt 0.56458333 0.34821429
vt 0.56458333 0.34821429
vt 0.56458333 0.34821429
vt 0.56458333 0.34821429
vt 0.56458333 0.34821429
vt 0.56458333 0.34821429
vt 0.56458333 0.34821429
vt 0.56458333 0.34821429
vt 0.56458333 0.34821429
vt 0.56458333 0.34821429
vt 0.56458333 0.34821429
vt 0.56458333 0.34821429
vt 0.56458333 0.34821429
vt 0.56458333 0.34821429
vt 0.56458333 0.34821429
vt 0.56458333 0.34821429
vt 0.56458333 0.34821429
vt 0.56458333 0.34821429
vt 0.56458333 0.34821429
vt 0.56458333 0.34821429
vt 0.56458333 0.34821429
vt 0.56458333 0.34821429
vt 0.56458333 0.34821429
vt 0.56458333 0.34821429
vt 0.56458333 0.34821429
vt 0.56458333 0.34821429
vt 0.56458333 0.34821429
vt 0.56458333 0.34821429
vt 0.56458333 0.34821429
vt 0.56458333 0.34821429
vt 0.56458333 0.34821429
vt 0.56458333 0.34821429
vt 0.56458333 0.34821429
vt 0.56458333 0.34821429
vt 0.56458333 0.34821429
vt 0.56458333 0.34821429
vt 0.56458333 0.34821429
vt 0.56458333 0.34821429
vt 0.56458333 0.34821429
vt 0.56458333 0.34821429
vt 0.56458333 0.34821429
vt 0.56458333 0.34821429
vt 0.56458333 0.34821429
vt 0.56458333 0.34821429
vt 0.56458333 0.34821429
vt 0.56458333 0.34821429
vt 0.56458333 0.34821429
vt 0.56458333 0.34821429
vt 0.56458333 0.34821429
vt 0.56458333 0.34821429
vt 0.56458333 0.34821429
vt 0.56458333 0.34821429
vt 0.56458333 0.34821429
vt 0.56458333 0.34821429
vt 0.56458333 0.34821429
vt 0.56458333 0.34821429
vt 0.56458333 0.34821429
vt 0.56458333 0.34821429
vt 0.56458333 0.34821429
vt 0.56458333 0.34821429
vt 0.56458333 0.34821429
vt 0.56458333 0.34821429
vt 0.56458333 0.34821429
vt 0.56458333 0.34821429
vt 0.56458333 0.34821429
vt 0.56458333 0.34821429
vt 0.56458333 0.34821429
vt 0.56458333 0.34821429
vt 0.56458333 0.34821429
vt 0.56458333 0.34821429
vt 0.56458333 0.34821429
vt 0.56458333 0.34821429
vt 0.56458333 0.34821429
vt 0.56458333 0.34821429
vt 0.56458333 0.34821429
vt 0.56458333 0.34821429
vt 0.56458333 0.34821429
vt 0.56458333 0.34821429
vt 0.56458333 0.34821429
vt 0.56458333 0.34821429
vt 0.56458333 0.34821429
vt 0.56458333 0.34821429
vt 0.56458333 0.34821429
vt 0.56458333 0.34821429
vt 0.56458333 0.34821429
vt 0.56458333 0.34821429
vt 0.56458333 0.34821429
vt 0.56458333 0.34821429
vt 0.56458333 0.34821429
vt 0.56458333 0.34821429
vt 0.56458333 0.34821429
vt 0.56458333 0.34821429
vt 0.56458333 0.34821429
vt 0.56458333 0.34821429
vt 0.56458333 0.34821429
vt 0.56458333 0.34821429
vt 0.56458333 0.34821429
vt 0.56458333 0.34821429
vt 0.56458333 0.34821429
vt 0.56458333 0.34821429
vt 0.56458333 0.34821429
vt 0.56458333 0.34821429
vt 0.56458333 0.34821429
vt 0.56458333 0.34821429
vt 0.56458333 0.34821429
vt 0.56458333 0.34821429
vt 0.56458333 0.34821429
vt 0.56458333 0.34821429
vt 0.56458333 0.34821429
vt 0.56458333 0.34821429
vt 0.56458333 0.34821429
vt 0.56458333 0.34821429
vt 0.56458333 0.34821429
vt 0.56458333 0.34821429
vt 0.56458333 0.34821429
vt 0.56458333 0.34821429
vt 0.56458333 0.34821429
vt 0.56458333 0.34821429
vt 0.56458333 0.34821429
vt 0.56458333 0.34821429
vt 0.56458333 0.34821429
vt 0.56458333 0.34821429
vt 0.56458333 0.34821429
vt 0.56458333 0.34821429
vt 0.56458333 0.34821429
vt 0.56458333 0.34821429
vt 0.56458333 0.34821429
vt 0.56458333 0.34821429
vt 0.56458333 0.34821429
vt 0.56458333 0.34821429
vt 0.56458333 0.34821429
vt 0.56458333 0.34821429
vt 0.56458333 0.34821429
vt 0.56458333 0.34821429
vt 0.56458333 0.34821429
vt 0.56458333 0.34821429
vt 0.56458333 0.34821429
vt 0.56458333 0.34821429
vt 0.56458333 0.34821429
vt 0.56458333 0.34821429
vt 0.56458333 0.34821429
vt 0.56458333 0.34821429
vt 0.56458333 0.34821429
vt 0.56458333 0.34821429
vt 0.56458333 0.34821429
vt 0.56458333 0.34821429
vt 0.56458333 0.34821429
vt 0.56458333 0.34821429
vt 0.56458333 0.34821429
vt 0.56458333 0.34821429
vt 0.56458333 0.34821429
vt 0.56458333 0.34821429
vt 0.56458333 0.34821429
vt 0.56458333 0.34821429
vt 0.56458333 0.34821429
vt 0.56458333 0.34821429
vt 0.56458333 0.34821429
vt 0.56458333 0.34821429
vt 0.56458333 0.34821429
vt 0.56458333 0.34821429
vt 0.56458333 0.34821429
vt 0.56458333 0.34821429
vt 0.56458333 0.34821429
vt 0.56458333 0.34821429
vt 0.56458333 0.34821429
vt 0.56458333 0.34821429
vt 0.56458333 0.34821429
vt 0.56458333 0.34821429
vt 0.56458333 0.34821429
vt 0.56458333 0.34821429
vt 0.56458333 0.34821429
vt 0.56458333 0.34821429
vt 0.56458333 0.34821429
vt 0.56458333 0.34821429
vt 0.56458333 0.34821429
vt 0.56458333 0.34821429
vt 0.56458333 0.34821429
vt 0.56458333 0.34821429
vt 0.56458333 0.34821429
vt 0.56458333 0.34821429
vt 0.56458333 0.34821429
vt 0.56458333 0.34821429
vt 0.56458333 0.34821429
vt 0.56458333 0.34821429
vt 0.56458333 0.34821429
vt 0.56458333 0.34821429
vt 0.56458333 0.34821429
vt 0.56458333 0.34821429
vt 0.56458333 0.34821429
vt 0.56458333 0.34821429
vt 0.56458333 0.34821429
vt 0.56458333 0.34821429
vt 0.56458333 0.34821429
vt 0.56458333 0.34821429
vt 0.56458333 0.34821429
vt 0.56458333 0.34821429
vt 0.56458333 0.34821429
vt 0.56458333 0.34821429
vt 0.56458333 0.34821429
vt 0.56458333 0.34821429
vt 0.56458333 0.34821429
vt 0.56458333 0.34821429
vt 0.56458333 0.34821429
vt 0.56458333 0.34821429
vt 0.56458333 0.34821429
vt 0.56458333 0.34821429
vt 0.56458333 0.34821429
vt 0.56458333 0.34821429
vt 0.56458333 0.34821429
vt 0.56458333 0.34821429
vt 0.56458333 0.34821429
vt 0.56458333 0.34821429
vt 0.56458333 0.34821429
vt 0.56458333 0.34821429
vt 0.56458333 0.34821429
vt 0.56458333 0.34821429
vt 0.56458333 0.34821429
vt 0.56458333 0.34821429
vt 0.56458333 0.34821429
vt 0.56458333 0.34821429
vt 0.56458333 0.34821429
vt 0.56458333 0.34821429
vt 0.56458333 0.34821429
vt 0.56458333 0.34821429
vt 0.56458333 0.34821429
vt 0.56458333 0.34821429
vt 0.56458333 0.34821429
vt 0.56458333 0.34821429
vt 0.56458333 0.34821429
vt 0.56458333 0.34821429
vt 0.56458333 0.34821429
vt 0.56458333 0.34821429
vt 0.56458333 0.34821429
vt 0.56458333 0.34821429
vt 0.56458333 0.34821429
vt 0.56458333 0.34821429
vt 0.56458333 0.34821429
vt 0.56458333 0.34821429
vt 0.56458333 0.34821429
vt 0.56458333 0.34821429
vt 0.56458333 0.34821429
vt 0.56458333 0.34821429
vt 0.56458333 0.34821429
vt 0.56458333 0.34821429
vt 0.56458333 0.34821429
vt 0.56458333 0.34821429
vt 0.56458333 0.34821429
vt 0.56458333 0.34821429
vt 0.56458333 0.34821429
vt 0.56458333 0.34821429
vt 0.56458333 0.34821429
vt 0.56458333 0.34821429
vt 0.56458333 0.34821429
vt 0.56458333 0.34821429
vt 0.56458333 0.34821429
vt 0.56458333 0.34821429
vt 0.56458333 0.34821429
vt 0.56458333 0.34821429
vt 0.56458333 0.34821429
vt 0.56458333 0.34821429
vt 0.56458333 0.34821429
vt 0.56458333 0.34821429
vt 0.56458333 0.34821429
vt 0.56458333 0.34821429
vt 0.56458333 0.34821429
vt 0.56458333 0.34821429
vt 0.56458333 0.34821429
vt 0.56458333 0.34821429
vt 0.56458333 0.34821429
vt 0.56458333 0.34821429
vt 0.56458333 0.34821429
vt 0.56458333 0.34821429
vt 0.56458333 0.34821429
vt 0.56458333 0.34821429
vt 0.56458333 0.34821429
vt 0.56458333 0.34821429
vt 0.56458333 0.34821429
vt 0.56458333 0.34821429
vt 0.56458333 0.34821429
vt 0.56458333 0.34821429
vt 0.56458333 0.34821429
vt 0.56458333 0.34821429
vt 0.56458333 0.34821429
vt 0.56458333 0.34821429
vt 0.56458333 0.34821429
vt 0.56458333 0.34821429
vt 0.56458333 0.34821429
vt 0.56458333 0.34821429
vt 0.56458333 0.34821429
vt 0.56458333 0.34821429
vt 0.56458333 0.34821429
vt 0.56458333 0.34821429
vt 0.56458333 0.34821429
vt 0.56458333 0.34821429
vt 0.56458333 0.34821429
vt 0.56458333 0.34821429
vt 0.56458333 0.34821429
vt 0.56458333 0.34821429
vt 0.56458333 0.34821429
vt 0.56458333 0.34821429
vt 0.56458333 0.34821429
vt 0.56458333 0.34821429
vt 0.56458333 0.34821429
vt 0.56458333 0.34821429
vt 0.56458333 0.34821429
vt 0.56458333 0.34821429
vt 0.56458333 0.34821429
vt 0.56458333 0.34821429
vt 0.56458333 0.34821429
vt 0.56458333 0.34821429
vt 0.56458333 0.34821429
vt 0.56458333 0.34821429
vt 0.56458333 0.34821429
vt 0.56458333 0.34821429
vt 0.56458333 0.34821429
vt 0.56458333 0.34821429
vt 0.56458333 0.34821429
vt 0.56458333 0.34821429
vt 0.56458333 0.34821429
vt 0.56458333 0.34821429
vt 0.56458333 0.34821429
vt 0.56458333 0.34821429
vt 0.56458333 0.34821429
vt 0.56458333 0.34821429
vt 0.56458333 0.34821429
vt 0.56458333 0.34821429
vt 0.16458333 0.34821429
vt 0.16458333 0.34821429
vt 0.16458333 0.34821429
vt 0.16458333 0.34821429
vt 0.16458333 0.34821429
vt 0.16458333 0.34821429
vt 0.16458333 0.34821429
vt 0.16458333 0.34821429
vt 0.16458333 0.34821429
vt 0.16458333 0.34821429
vt 0.16458333 0.34821429
vt 0.16458333 0.34821429
vt 0.16458333 0.34821429
vt 0.16458333 0.34821429
vt 0.16458333 0.34821429
vt 0.16458333 0.34821429
vt 0.16458333 0.34821429
vt 0.16458333 0.34821429
vt 0.16458333 0.34821429
vt 0.16458333 0.34821429
vt 0.16458333 0.34821429
vt 0.16458333 0.34821429
vt 0.16458333 0.34821429
vt 0.16458333 0.34821429
vt 0.16458333 0.34821429
vt 0.16458333 0.34821429
vt 0.16458333 0.34821429
vt 0.16458333 0.34821429
vt 0.16458333 0.34821429
vt 0.16458333 0.34821429
vt 0.16458333 0.34821429
vt 0.16458333 0.34821429
vt 0.16458333 0.34821429
vt 0.16458333 0.34821429
vt 0.16458333 0.34821429
vt 0.16458333 0.34821429
vt 0.16458333 0.34821429
vt 0.16458333 0.34821429
vt 0.16458333 0.34821429
vt 0.16458333 0.34821429
vt 0.16458333 0.34821429
vt 0.16458333 0.34821429
vt 0.16458333 0.34821429
vt 0.16458333 0.34821429
vt 0.16458333 0.34821429
vt 0.16458333 0.34821429
vt 0.16458333 0.34821429
vt 0.16458333 0.34821429
vt 0.16458333 0.34821429
vt 0.16458333 0.34821429
vt 0.16458333 0.34821429
vt 0.16458333 0.34821429
vt 0.16458333 0.34821429
vt 0.16458333 0.34821429
vt 0.16458333 0.34821429
vt 0.16458333 0.34821429
vt 0.16458333 0.34821429
vt 0.16458333 0.34821429
vt 0.16458333 0.34821429
vt 0.16458333 0.34821429
vt 0.16458333 0.34821429
vt 0.16458333 0.34821429
vt 0.16458333 0.34821429
vt 0.16458333 0.34821429
vt 0.16458333 0.34821429
vt 0.16458333 0.34821429
vt 0.16458333 0.34821429
vt 0.16458333 0.34821429
vt 0.16458333 0.34821429
vt 0.16458333 0.34821429
vt 0.16458333 0.34821429
vt 0.16458333 0.34821429
vt 0.16458333 0.34821429
vt 0.16458333 0.34821429
vt 0.16458333 0.34821429
vt 0.16458333 0.34821429
vt 0.16458333 0.34821429
vt 0.16458333 0.34821429
vt 0.16458333 0.34821429
vt 0.16458333 0.34821429
vt 0.16458333 0.34821429
vt 0.16458333 0.34821429
vt 0.16458333 0.34821429
vt 0.16458333 0.34821429
vt 0.16458333 0.34821429
vt 0.16458333 0.34821429
vt 0.16458333 0.34821429
vt 0.16458333 0.34821429
vt 0.16458333 0.34821429
vt 0.16458333 0.34821429
vt 0.16458333 0.34821429
vt 0.16458333 0.34821429
vt 0.16458333 0.34821429
vt 0.16458333 0.34821429
vt 0.16458333 0.34821429
vt 0.16458333 0.34821429
vt 0.16458333 0.34821429
vt 0.16458333 0.34821429
vt 0.16458333 0.34821429
vt 0.16458333 0.34821429
vt 0.16458333 0.34821429
vt 0.16458333 0.34821429
vt 0.16458333 0.34821429
vt 0.16458333 0.34821429
vt 0.16458333 0.34821429
vt 0.16458333 0.34821429
vt 0.16458333 0.34821429
vt 0.16458333 0.34821429
vt 0.16458333 0.34821429
vt 0.16458333 0.34821429
vt 0.16458333 0.34821429
vt 0.16458333 0.34821429
vt 0.16458333 0.34821429
vt 0.16458333 0.34821429
vt 0.16458333 0.34821429
vt 0.16458333 0.34821429
vt 0.16458333 0.34821429
vt 0.16458333 0.34821429
vt 0.16458333 0.34821429
vt 0.16458333 0.34821429
vt 0.16458333 0.34821429
vt 0.16458333 0.34821429
vt 0.16458333 0.34821429
vt 0.16458333 0.34821429
vt 0.16458333 0.34821429
vt 0.16458333 0.34821429
vt 0.16458333 0.34821429
vt 0.16458333 0.34821429
vt 0.16458333 0.34821429
vt 0.16458333 0.34821429
vt 0.16458333 0.34821429
vt 0.16458333 0.34821429
vt 0.16458333 0.34821429
vt 0.16458333 0.34821429
vt 0.16458333 0.34821429
vt 0.16458333 0.34821429
vt 0.16458333 0.34821429
vt 0.16458333 0.34821429
vt 0.16458333 0.34821429
vt 0.16458333 0.34821429
vt 0.16458333 0.34821429
vt 0.16458333 0.34821429
vt 0.16458333 0.34821429
vt 0.16458333 0.34821429
vt 0.16458333 0.34821429
vt 0.16458333 0.34821429
vt 0.16458333 0.34821429
vt 0.16458333 0.34821429
vt 0.16458333 0.34821429
vt 0.16458333 0.34821429
vt 0.16458333 0.34821429
vt 0.16458333 0.34821429
vt 0.16458333 0.34821429
vt 0.16458333 0.34821429
vt 0.16458333 0.34821429
vt 0.16458333 0.34821429
vt 0.16458333 0.34821429
vt 0.16458333 0.34821429
vt 0.16458333 0.34821429
vt 0.16458333 0.34821429
vt 0.16458333 0.34821429
vt 0.16458333 0.34821429
vt 0.16458333 0.34821429
vt 0.16458333 0.34821429
vt 0.16458333 0.34821429
vt 0.16458333 0.34821429
vt 0.16458333 0.34821429
vt 0.16458333 0.34821429
vt 0.16458333 0.34821429
vt 0.16458333 0.34821429
vt 0.16458333 0.34821429
vt 0.16458333 0.34821429
vt 0.16458333 0.34821429
vt 0.16458333 0.34821429
vt 0.16458333 0.34821429
vt 0.16458333 0.34821429
vt 0.16458333 0.34821429
vt 0.16458333 0.34821429
vt 0.16458333 0.34821429
vt 0.16458333 0.34821429
vt 0.16458333 0.34821429
vt 0.16458333 0.34821429
vt 0.16458333 0.34821429
f 1/1 2/2 3/3
f 4/4 2/2 5/5
f 4/4 3/3 2/2
f 6/6 7/7 8/8
f 9/9 10/10 11/11
f 12/12 3/3 4/4
f 13/13 12/12 4/4
f 13/13 4/4 14/14
f 4/4 5/5 15/15
f 4/4 15/15 14/14
f 1/1 16/16 17/17
f 12/12 18/18 19/19
f 16/16 19/19 20/20
f 16/16 20/20 17/17
f 19/19 18/18 21/21
f 19/19 21/21 20/20
f 16/16 3/3 19/19
f 1/1 3/3 16/16
f 3/3 12/12 19/19
f 14/14 21/21 13/13
f 13/13 18/18 12/12
f 18/18 13/13 21/21
f 2/2 1/1 17/17
f 22/22 23/23 24/24
f 25/25 26/26 23/23
f 27/27 28/28 7/7
f 29/29 30/30 31/31
f 29/29 32/32 33/33
f 29/29 33/33 30/30
f 34/34 35/35 22/22
f 36/36 37/37 38/38
f 37/37 35/35 34/34
f 39/39 36/36 40/40
f 41/41 42/42 43/43
f 30/30 33/33 40/40
f 37/37 34/34 38/38
f 44/44 45/45 46/46
f 39/39 37/37 36/36
f 38/38 25/25 23/23
f 30/30 47/47 31/31
f 47/47 30/30 40/40
f 40/40 36/36 47/47
f 36/36 23/23 48/48
f 36/36 48/48 47/47
f 36/36 38/38 23/23
f 10/10 49/49 50/50
f 40/40 33/33 39/39
f 34/34 25/25 38/38
f 50/50 51/51 52/52
f 37/37 39/39 35/35
f 46/46 45/45 53/53
f 39/39 33/33 35/35
f 33/33 54/54 35/35
f 33/33 32/32 54/54
f 35/35 54/54 55/55
f 54/54 56/56 55/55
f 57/57 32/32 29/29
f 54/54 32/32 57/57
f 31/31 57/57 29/29
f 57/57 31/31 58/58
f 54/54 57/57 58/58
f 55/55 56/56 58/58
f 41/41 59/59 42/42
f 56/56 54/54 58/58
f 25/25 22/22 26/26
f 60/60 61/61 62/62
f 63/63 6/6 45/45
f 22/22 24/24 26/26
f 34/34 22/22 25/25
f 64/64 65/65 66/66
f 67/67 68/68 69/69
f 70/70 67/67 69/69
f 71/71 70/70 69/69
f 72/72 73/73 74/74
f 75/75 76/76 77/77
f 76/76 78/78 79/79
f 80/80 81/81 82/82
f 83/83 84/84 85/85
f 86/86 87/87 88/88
f 27/27 6/6 63/63
f 89/89 90/90 82/82
f 86/86 91/91 87/87
f 92/92 93/93 94/94
f 95/95 96/96 97/97
f 98/98 99/99 83/83
f 81/81 77/77 89/89
f 100/100 101/101 102/102
f 10/10 9/9 49/49
f 60/60 8/8 61/61
f 103/103 94/94 104/104
f 101/101 97/97 105/105
f 97/97 96/96 106/106
f 97/97 106/106 107/107
f 76/76 79/79 77/77
f 89/89 77/77 108/108
f 103/103 104/104 109/109
f 97/97 107/107 105/105
f 96/96 110/110 106/106
f 101/101 105/105 102/102
f 50/50 49/49 51/51
f 88/88 87/87 76/76
f 78/78 109/109 111/111
f 112/112 113/113 110/110
f 114/114 115/115 92/92
f 78/78 111/111 79/79
f 106/106 110/110 72/72
f 105/105 107/107 116/116
f 117/117 118/118 119/119
f 88/88 76/76 75/75
f 120/120 85/85 121/121
f 109/109 104/104 111/111
f 102/102 105/105 116/116
f 122/122 123/123 27/27
f 124/124 125/125 126/126
f 106/106 72/72 107/107
f 102/102 116/116 127/127
f 120/120 121/121 93/93
f 85/85 84/84 128/128
f 129/129 85/85 130/130
f 129/129 98/98 85/85
f 77/77 79/79 108/108
f 131/131 75/75 80/80
f 114/114 92/92 73/73
f 52/52 125/125 124/124
f 93/93 132/132 94/94
f 91/91 109/109 87/87
f 91/91 74/74 109/109
f 73/73 109/109 74/74
f 94/94 132/132 104/104
f 85/85 128/128 121/121
f 8/8 50/50 61/61
f 80/80 75/75 81/81
f 110/110 113/113 72/72
f 127/127 116/116 86/86
f 52/52 51/51 125/125
f 133/133 82/82 90/90
f 134/134 127/127 88/88
f 111/111 135/135 79/79
f 136/136 137/137 59/59
f 109/109 73/73 103/103
f 104/104 132/132 111/111
f 7/7 10/10 8/8
f 79/79 135/135 108/108
f 90/90 89/89 138/138
f 115/115 130/130 120/120
f 115/115 120/120 92/92
f 113/113 139/139 115/115
f 98/98 83/83 85/85
f 116/116 107/107 74/74
f 116/116 74/74 91/91
f 113/113 115/115 114/114
f 116/116 91/91 86/86
f 87/87 78/78 76/76
f 72/72 113/113 73/73
f 127/127 86/86 88/88
f 82/82 81/81 89/89
f 139/139 129/129 115/115
f 28/28 11/11 7/7
f 134/134 88/88 75/75
f 134/134 131/131 80/80
f 73/73 92/92 94/94
f 73/73 94/94 103/103
f 113/113 114/114 73/73
f 134/134 75/75 131/131
f 92/92 120/120 93/93
f 130/130 85/85 120/120
f 100/100 140/140 141/141
f 107/107 72/72 74/74
f 75/75 77/77 81/81
f 87/87 109/109 78/78
f 142/142 101/101 141/141
f 142/142 97/97 101/101
f 115/115 129/129 130/130
f 125/125 117/117 126/126
f 141/141 101/101 100/100
f 143/143 144/144 145/145
f 146/146 147/147 148/148
f 149/149 150/150 151/151
f 152/152 153/153 154/154
f 8/8 10/10 50/50
f 153/153 155/155 156/156
f 154/154 157/157 158/158
f 153/153 159/159 155/155
f 59/59 137/137 42/42
f 148/148 144/144 146/146
f 64/64 66/66 148/148
f 160/160 149/149 161/161
f 160/160 162/162 158/158
f 144/144 161/161 145/145
f 148/148 66/66 160/160
f 157/157 163/163 150/150
f 158/158 157/157 149/149
f 157/157 156/156 163/163
f 164/164 165/165 166/166
f 160/160 158/158 149/149
f 62/62 124/124 126/126
f 164/164 166/166 167/167
f 161/161 151/151 168/168
f 7/7 11/11 10/10
f 162/162 169/169 152/152
f 148/148 160/160 144/144
f 153/153 152/152 159/159
f 66/66 169/169 160/160
f 166/166 143/143 167/167
f 157/157 154/154 156/156
f 162/162 154/154 158/158
f 161/161 149/149 151/151
f 45/45 60/60 53/53
f 170/170 171/171 147/147
f 166/166 170/170 146/146
f 149/149 157/157 150/150
f 160/160 161/161 144/144
f 153/153 156/156 154/154
f 162/162 152/152 154/154
f 170/170 147/147 146/146
f 166/166 146/146 143/143
f 145/145 161/161 172/172
f 146/146 144/144 143/143
f 147/147 64/64 148/148
f 169/169 162/162 160/160
f 173/173 174/174 175/175
f 173/173 175/175 176/176
f 49/49 41/41 51/51
f 62/62 61/61 124/124
f 51/51 41/41 125/125
f 177/177 178/178 179/179
f 179/179 180/180 174/174
f 181/181 182/182 183/183
f 45/45 6/6 60/60
f 184/184 179/179 174/174
f 185/185 186/186 187/187
f 188/188 174/174 173/173
f 189/189 190/190 191/191
f 184/184 174/174 188/188
f 192/192 186/186 193/193
f 193/193 186/186 182/182
f 192/192 187/187 186/186
f 194/194 181/181 190/190
f 193/193 182/182 181/181
f 194/194 190/190 189/189
f 61/61 52/52 124/124
f 6/6 8/8 60/60
f 125/125 118/118 117/117
f 184/184 177/177 179/179
f 193/193 181/181 194/194
f 195/195 188/188 173/173
f 196/196 193/193 194/194
f 136/136 59/59 9/9
f 9/9 59/59 49/49
f 197/197 177/177 198/198
f 61/61 50/50 52/52
f 199/199 173/173 176/176
f 200/200 194/194 189/189
f 200/200 196/196 194/194
f 201/201 187/187 192/192
f 202/202 184/184 188/188
f 195/195 173/173 199/199
f 203/203 177/177 184/184
f 53/53 60/60 62/62
f 195/195 202/202 188/188
f 123/123 28/28 27/27
f 201/201 192/192 193/193
f 125/125 41/41 118/118
f 198/198 177/177 203/203
f 201/201 193/193 196/196
f 202/202 203/203 184/184
f 204/204 197/197 198/198
f 205/205 187/187 201/201
f 206/206 196/196 200/200
f 207/207 198/198 203/203
f 208/208 201/201 196/196
f 208/208 196/196 206/206
f 209/209 195/195 199/199
f 209/209 202/202 195/195
f 207/207 203/203 202/202
f 210/210 209/209 199/199
f 205/205 201/201 208/208
f 49/49 59/59 41/41
f 204/204 198/198 207/207
f 211/211 212/212 84/84
f 27/27 7/7 6/6
f 41/41 43/43 118/118
f 213/213 84/84 214/214
f 215/215 206/206 200/200
f 216/216 207/207 202/202
f 217/217 206/206 215/215
f 213/213 214/214 218/218
f 217/217 208/208 206/206
f 211/211 84/84 213/213
f 212/212 211/211 219/219
f 220/220 205/205 208/208
f 216/216 202/202 209/209
f 220/220 221/221 205/205
f 222/222 211/211 213/213
f 223/223 213/213 218/218
f 224/224 204/204 207/207
f 225/225 220/220 208/208
f 225/225 208/208 217/217
f 226/226 218/218 227/227
f 219/219 211/211 222/222
f 223/223 222/222 213/213
f 228/228 209/209 210/210
f 229/229 221/221 220/220
f 224/224 207/207 230/230
f 231/231 216/216 209/209
f 232/232 218/218 226/226
f 230/230 207/207 216/216
f 223/223 218/218 232/232
f 231/231 209/209 228/228
f 233/233 220/220 225/225
f 234/234 225/225 217/217
f 235/235 229/229 220/220
f 230/230 216/216 231/231
f 236/236 220/220 233/233
f 233/233 225/225 234/234
f 237/237 224/224 230/230
f 235/235 220/220 236/236
f 238/238 219/219 222/222
f 238/238 222/222 223/223
f 234/234 217/217 215/215
f 239/239 224/224 237/237
f 240/240 234/234 215/215
f 241/241 219/219 238/238
f 242/242 237/237 230/230
f 243/243 231/231 228/228
f 244/244 223/223 232/232
f 242/242 230/230 231/231
f 243/243 242/242 231/231
f 219/219 241/241 245/245
f 236/236 233/233 246/246
f 247/247 232/232 226/226
f 238/238 223/223 244/244
f 248/248 239/239 237/237
f 246/246 233/233 234/234
f 249/249 243/243 228/228
f 235/235 236/236 250/250
f 244/244 232/232 247/247
f 251/251 252/252 253/253
f 254/254 238/238 244/244
f 255/255 239/239 248/248
f 256/256 242/242 243/243
f 257/257 258/258 259/259
f 254/254 244/244 260/260
f 254/254 241/241 238/238
f 261/261 234/234 240/240
f 262/262 236/236 246/246
f 248/248 237/237 242/242
f 263/263 246/246 234/234
f 264/264 265/265 266/266
f 262/262 246/246 263/263
f 250/250 236/236 262/262
f 267/267 244/244 247/247
f 268/268 245/245 241/241
f 261/261 263/263 234/234
f 256/256 243/243 249/249
f 268/268 241/241 254/254
f 269/269 248/248 242/242
f 269/269 242/242 256/256
f 270/270 263/263 261/261
f 267/267 260/260 244/244
f 271/271 245/245 268/268
f 272/272 255/255 248/248
f 273/273 248/248 269/269
f 274/274 260/260 267/267
f 270/270 261/261 275/275
f 274/274 254/254 260/260
f 276/276 250/250 262/262
f 277/277 255/255 272/272
f 276/276 262/262 263/263
f 278/278 269/269 256/256
f 278/278 256/256 249/249
f 272/272 248/248 273/273
f 268/268 254/254 183/183
f 183/183 254/254 274/274
f 191/191 267/267 247/247
f 175/175 276/276 263/263
f 271/271 268/268 279/279
f 280/280 281/281 250/250
f 274/274 267/267 191/191
f 280/280 250/250 276/276
f 175/175 263/263 270/270
f 282/282 273/273 269/269
f 279/279 268/268 183/183
f 283/283 274/274 191/191
f 284/284 272/272 273/273
f 280/280 276/276 180/180
f 281/281 280/280 178/178
f 285/285 269/269 278/278
f 182/182 279/279 183/183
f 257/257 286/286 287/287
f 288/288 285/285 278/278
f 175/175 270/270 275/275
f 285/285 282/282 269/269
f 183/183 274/274 283/283
f 180/180 276/276 175/175
f 289/289 290/290 291/291
f 185/185 271/271 279/279
f 178/178 280/280 179/179
f 179/179 280/280 180/180
f 292/292 293/293 294/294
f 292/292 294/294 290/290
f 176/176 175/175 275/275
f 174/174 180/180 175/175
f 186/186 279/279 182/182
f 186/186 185/185 279/279
f 190/190 283/283 191/191
f 181/181 183/183 283/283
f 181/181 283/283 190/190
f 295/295 296/296 155/155
f 168/168 297/297 161/161
f 298/298 299/299 297/297
f 266/266 300/300 258/258
f 185/185 301/301 302/302
f 296/296 302/302 303/303
f 185/185 187/187 301/301
f 297/297 299/299 172/172
f 197/197 299/299 304/304
f 297/297 172/172 161/161
f 296/296 303/303 155/155
f 155/155 303/303 156/156
f 204/204 305/305 197/197
f 302/302 301/301 303/303
f 301/301 306/306 303/303
f 197/197 305/305 299/299
f 187/187 205/205 307/307
f 303/303 306/306 163/163
f 187/187 307/307 301/301
f 303/303 163/163 156/156
f 258/258 300/300 259/259
f 257/257 259/259 286/286
f 290/290 294/294 291/291
f 299/299 308/308 172/172
f 299/299 305/305 308/308
f 301/301 309/309 306/306
f 205/205 221/221 307/307
f 204/204 310/310 305/305
f 172/172 308/308 145/145
f 301/301 307/307 309/309
f 289/289 291/291 311/311
f 204/204 224/224 310/310
f 305/305 312/312 308/308
f 224/224 239/239 310/310
f 310/310 312/312 305/305
f 306/306 309/309 163/163
f 307/307 221/221 309/309
f 309/309 313/313 163/163
f 229/229 314/314 221/221
f 265/265 300/300 266/266
f 239/239 255/255 315/315
f 239/239 315/315 310/310
f 145/145 308/308 143/143
f 229/229 235/235 314/314
f 310/310 315/315 312/312
f 212/212 316/316 317/317
f 133/133 90/90 318/318
f 312/312 319/319 308/308
f 219/219 316/316 212/212
f 312/312 315/315 320/320
f 163/163 313/313 150/150
f 221/221 314/314 309/309
f 308/308 319/319 167/167
f 308/308 167/167 143/143
f 312/312 320/320 319/319
f 314/314 321/321 309/309
f 159/159 322/322 317/317
f 255/255 277/277 315/315
f 235/235 250/250 314/314
f 317/317 316/316 159/159
f 250/250 281/281 314/314
f 309/309 321/321 313/313
f 316/316 295/295 159/159
f 219/219 323/323 316/316
f 314/314 324/324 321/321
f 219/219 245/245 323/323
f 315/315 325/325 320/320
f 319/319 164/164 167/167
f 314/314 281/281 324/324
f 313/313 151/151 150/150
f 316/316 323/323 295/295
f 321/321 324/324 168/168
f 320/320 164/164 319/319
f 321/321 168/168 313/313
f 320/320 325/325 164/164
f 281/281 178/178 326/326
f 281/281 326/326 324/324
f 245/245 271/271 323/323
f 313/313 168/168 151/151
f 159/159 295/295 155/155
f 178/178 304/304 326/326
f 324/324 326/326 298/298
f 271/271 296/296 323/323
f 287/287 286/286 327/327
f 324/324 298/298 168/168
f 178/178 197/197 304/304
f 271/271 302/302 296/296
f 298/298 297/297 168/168
f 178/178 177/177 197/197
f 323/323 296/296 295/295
f 326/326 304/304 298/298
f 89/89 328/328 138/138
f 293/293 329/329 294/294
f 271/271 185/185 302/302
f 304/304 299/299 298/298
f 330/330 70/70 331/331
f 332/332 67/67 333/333
f 334/334 335/335 293/293
f 333/333 70/70 330/330
f 67/67 70/70 333/333
f 68/68 67/67 332/332
f 70/70 71/71 331/331
f 228/228 336/336 249/249
f 249/249 336/336 278/278
f 240/240 336/336 261/261
f 261/261 336/336 275/275
f 275/275 336/336 176/176
f 176/176 336/336 199/199
f 199/199 336/336 210/210
f 210/210 336/336 228/228
f 142/142 141/141 336/336
f 189/189 336/336 200/200
f 200/200 336/336 215/215
f 215/215 336/336 240/240
f 247/247 336/336 191/191
f 191/191 336/336 189/189
f 227/227 336/336 226/226
f 90/90 337/337 318/318
f 226/226 336/336 247/247
f 338/338 336/336 339/339
f 293/293 335/335 329/329
f 339/339 336/336 227/227
f 340/340 341/341 336/336
f 336/336 341/341 342/342
f 343/343 340/340 336/336
f 336/336 342/342 344/344
f 345/345 343/343 336/336
f 336/336 344/344 346/346
f 347/347 336/336 348/348
f 348/348 336/336 338/338
f 336/336 346/346 288/288
f 95/95 336/336 347/347
f 336/336 288/288 278/278
f 142/142 336/336 95/95
f 343/343 349/349 340/340
f 291/291 294/294 350/350
f 351/351 284/284 282/282
f 352/352 349/349 343/343
f 291/291 350/350 311/311
f 351/351 282/282 285/285
f 353/353 354/354 352/352
f 346/346 285/285 288/288
f 355/355 356/356 354/354
f 355/355 332/332 356/356
f 357/357 358/358 284/284
f 357/357 284/284 351/351
f 359/359 351/351 285/285
f 353/353 352/352 343/343
f 360/360 358/358 357/357
f 361/361 357/357 351/351
f 353/353 355/355 354/354
f 361/361 351/351 359/359
f 359/359 285/285 346/346
f 362/362 353/353 343/343
f 363/363 360/360 357/357
f 362/362 343/343 345/345
f 364/364 353/353 362/362
f 364/364 355/355 353/353
f 365/365 332/332 355/355
f 366/366 357/357 361/361
f 367/367 355/355 364/364
f 368/368 361/361 359/359
f 367/367 365/365 355/355
f 366/366 361/361 368/368
f 366/366 363/363 357/357
f 332/332 365/365 68/68
f 100/100 364/364 362/362
f 100/100 362/362 345/345
f 344/344 359/359 346/346
f 336/336 100/100 345/345
f 369/369 368/368 359/359
f 369/369 359/359 344/344
f 370/370 363/363 366/366
f 371/371 368/368 369/369
f 286/286 259/259 372/372
f 373/373 363/363 370/370
f 374/374 365/365 367/367
f 371/371 366/366 368/368
f 374/374 367/367 364/364
f 300/300 375/375 259/259
f 374/374 364/364 100/100
f 371/371 370/370 366/366
f 68/68 365/365 374/374
f 369/369 344/344 342/342
f 90/90 138/138 337/337
f 100/100 336/336 140/140
f 376/376 369/369 342/342
f 141/141 140/140 336/336
f 97/97 142/142 95/95
f 371/371 369/369 377/377
f 96/96 95/95 347/347
f 96/96 347/347 110/110
f 373/373 370/370 371/371
f 348/348 110/110 347/347
f 286/286 372/372 327/327
f 112/112 110/110 348/348
f 377/377 369/369 376/376
f 378/378 112/112 348/348
f 329/329 379/379 294/294
f 139/139 113/113 112/112
f 139/139 112/112 378/378
f 338/338 378/378 348/348
f 380/380 371/371 377/377
f 381/381 139/139 378/378
f 341/341 376/376 342/342
f 338/338 381/381 378/378
f 139/139 381/381 129/129
f 265/265 382/382 300/300
f 383/383 371/371 380/380
f 373/373 371/371 383/383
f 384/384 385/385 328/328
f 386/386 373/373 383/383
f 377/377 376/376 341/341
f 387/387 380/380 377/377
f 388/388 129/129 381/381
f 388/388 381/381 338/338
f 388/388 338/338 339/339
f 387/387 377/377 341/341
f 388/388 98/98 129/129
f 99/99 98/98 388/388
f 294/294 379/379 350/350
f 389/389 383/383 380/380
f 99/99 388/388 339/339
f 389/389 380/380 387/387
f 214/214 83/83 99/99
f 390/390 389/389 387/387
f 227/227 99/99 339/339
f 328/328 391/391 138/138
f 340/340 387/387 341/341
f 218/218 214/214 99/99
f 84/84 83/83 214/214
f 218/218 99/99 227/227
f 390/390 387/387 340/340
f 389/389 386/386 383/383
f 392/392 386/386 389/389
f 349/349 390/390 340/340
f 356/356 392/392 389/389
f 284/284 273/273 282/282
f 358/358 277/277 272/272
f 354/354 356/356 389/389
f 354/354 389/389 390/390
f 352/352 390/390 349/349
f 332/332 392/392 356/356
f 358/358 272/272 284/284
f 354/354 390/390 352/352
f 360/360 393/393 394/394
f 386/386 392/392 395/395
f 396/396 397/397 398/398
f 395/395 333/333 399/399
f 400/400 394/394 401/401
f 395/395 392/392 333/333
f 402/402 403/403 397/397
f 363/363 373/373 393/393
f 397/397 403/403 398/398
f 402/402 399/399 330/330
f 402/402 330/330 403/403
f 394/394 393/393 397/397
f 373/373 395/395 393/393
f 392/392 332/332 333/333
f 404/404 315/315 277/277
f 398/398 403/403 331/331
f 277/277 358/358 404/404
f 394/394 397/397 401/401
f 399/399 333/333 330/330
f 315/315 404/404 325/325
f 393/393 395/395 402/402
f 337/337 138/138 405/405
f 401/401 397/397 396/396
f 358/358 360/360 404/404
f 393/393 402/402 397/397
f 325/325 404/404 400/400
f 403/403 330/330 331/331
f 300/300 382/382 375/375
f 329/329 335/335 406/406
f 259/259 407/407 372/372
f 318/318 337/337 408/408
f 404/404 360/360 400/400
f 325/325 401/401 164/164
f 360/360 394/394 400/400
f 400/400 401/401 325/325
f 373/373 386/386 395/395
f 363/363 393/393 360/360
f 395/395 399/399 402/402
f 331/331 409/409 398/398
f 171/171 64/64 147/147
f 329/329 406/406 379/379
f 409/409 331/331 71/71
f 410/410 411/411 170/170
f 410/410 170/170 165/165
f 409/409 71/71 412/412
f 412/412 65/65 411/411
f 398/398 410/410 396/396
f 165/165 170/170 166/166
f 138/138 391/391 405/405
f 410/410 401/401 396/396
f 410/410 165/165 401/401
f 71/71 65/65 412/412
f 401/401 165/165 164/164
f 409/409 412/412 398/398
f 411/411 65/65 64/64
f 411/411 171/171 170/170
f 411/411 64/64 171/171
f 259/259 375/375 407/407
f 398/398 411/411 410/410
f 398/398 412/412 411/411
f 413/413 414/414 415/415
f 132/132 416/416 417/417
f 416/416 414/414 413/413
f 418/418 419/419 420/420
f 415/415 421/421 422/422
f 422/422 421/421 423/423
f 424/424 423/423 425/425
f 135/135 132/132 417/417
f 420/420 419/419 119/119
f 426/426 427/427 428/428
f 429/429 430/430 431/431
f 432/432 423/423 424/424
f 327/327 433/433 434/434
f 435/435 436/436 437/437
f 431/431 430/430 438/438
f 335/335 439/439 406/406
f 440/440 416/416 413/413
f 441/441 426/426 428/428
f 442/442 443/443 444/444
f 443/443 413/413 415/415
f 423/423 429/429 431/431
f 327/327 372/372 433/433
f 438/438 445/445 446/446
f 447/447 448/448 449/449
f 440/440 417/417 416/416
f 450/450 426/426 441/441
f 451/451 135/135 417/417
f 452/452 435/435 437/437
f 453/453 43/43 42/42
f 454/454 135/135 451/451
f 108/108 135/135 454/454
f 328/328 385/385 391/391
f 455/455 418/418 420/420
f 456/456 457/457 458/458
f 459/459 460/460 450/450
f 447/447 449/449 455/455
f 443/443 415/415 422/422
f 461/461 462/462 432/432
f 420/420 119/119 463/463
f 455/455 420/420 464/464
f 379/379 465/465 350/350
f 444/444 462/462 461/461
f 440/440 413/413 443/443
f 425/425 448/448 466/466
f 441/441 428/428 467/467
f 451/451 417/417 468/468
f 469/469 470/470 471/471
f 372/372 407/407 433/433
f 468/468 417/417 440/440
f 463/463 119/119 118/118
f 450/450 441/441 472/472
f 424/424 425/425 466/466
f 473/473 437/437 442/442
f 337/337 405/405 474/474
f 448/448 447/447 466/466
f 449/449 438/438 446/446
f 446/446 456/456 458/458
f 464/464 420/420 463/463
f 137/137 470/470 475/475
f 475/475 453/453 137/137
f 431/431 438/438 449/449
f 436/436 440/440 443/443
f 476/476 469/469 471/471
f 452/452 437/437 473/473
f 477/477 428/428 476/476
f 472/472 441/441 467/467
f 473/473 442/442 444/444
f 478/478 451/451 468/468
f 436/436 443/443 442/442
f 449/449 446/446 418/418
f 467/467 428/428 477/477
f 337/337 474/474 408/408
f 461/461 432/432 427/427
f 137/137 453/453 42/42
f 473/473 435/435 452/452
f 479/479 444/444 461/461
f 427/427 432/432 424/424
f 311/311 350/350 253/253
f 475/475 455/455 464/464
f 473/473 444/444 479/479
f 84/84 212/212 480/480
f 128/128 84/84 480/480
f 481/481 128/128 480/480
f 482/482 435/435 473/473
f 121/121 128/128 481/481
f 447/447 455/455 475/475
f 317/317 480/480 212/212
f 169/169 66/66 483/483
f 406/406 484/484 379/379
f 480/480 317/317 322/322
f 425/425 423/423 431/431
f 470/470 137/137 471/471
f 483/483 66/66 485/485
f 462/462 422/422 423/423
f 468/468 440/440 436/436
f 486/486 152/152 169/169
f 159/159 152/152 487/487
f 487/487 322/322 159/159
f 481/481 480/480 488/488
f 489/489 375/375 382/382
f 490/490 121/121 481/481
f 419/419 446/446 458/458
f 491/491 481/481 488/488
f 486/486 169/169 483/483
f 379/379 484/484 465/465
f 469/469 424/424 466/466
f 488/488 480/480 322/322
f 93/93 121/121 132/132
f 492/492 483/483 485/485
f 493/493 477/477 476/476
f 444/444 443/443 422/422
f 494/494 482/482 473/473
f 495/495 451/451 478/478
f 493/493 476/476 471/471
f 487/487 152/152 496/496
f 436/436 442/442 437/437
f 414/414 490/490 481/481
f 492/492 485/485 497/497
f 322/322 487/487 496/496
f 494/494 473/473 498/498
f 496/496 152/152 486/486
f 488/488 322/322 499/499
f 132/132 121/121 490/490
f 454/454 451/451 495/495
f 414/414 481/481 491/491
f 499/499 322/322 496/496
f 426/426 479/479 461/461
f 470/470 466/466 447/447
f 118/118 464/464 463/463
f 421/421 491/491 488/488
f 486/486 483/483 492/492
f 418/418 446/446 419/419
f 492/492 497/497 445/445
f 500/500 499/499 496/496
f 421/421 488/488 499/499
f 419/419 458/458 119/119
f 430/430 499/499 500/500
f 498/498 473/473 479/479
f 428/428 427/427 424/424
f 43/43 464/464 118/118
f 470/470 447/447 475/475
f 426/426 461/461 427/427
f 445/445 497/497 457/457
f 465/465 501/501 350/350
f 496/496 486/486 500/500
f 391/391 502/502 405/405
f 421/421 499/499 429/429
f 407/407 503/503 433/433
f 476/476 424/424 469/469
f 416/416 132/132 490/490
f 498/498 479/479 460/460
f 407/407 375/375 503/503
f 415/415 491/491 421/421
f 438/438 492/492 445/445
f 438/438 486/486 492/492
f 460/460 494/494 498/498
f 429/429 499/499 430/430
f 428/428 424/424 476/476
f 446/446 445/445 457/457
f 500/500 486/486 438/438
f 456/456 446/446 457/457
f 414/414 491/491 415/415
f 435/435 468/468 436/436
f 416/416 490/490 414/414
f 475/475 464/464 453/453
f 425/425 431/431 448/448
f 460/460 479/479 426/426
f 423/423 421/421 429/429
f 135/135 111/111 132/132
f 444/444 422/422 462/462
f 438/438 430/430 500/500
f 460/460 426/426 450/450
f 469/469 466/466 470/470
f 432/432 462/462 423/423
f 448/448 431/431 449/449
f 478/478 468/468 435/435
f 449/449 418/418 455/455
f 453/453 464/464 43/43
f 406/406 504/504 484/484
f 391/391 385/385 505/505
f 134/134 374/374 127/127
f 133/133 458/458 69/69
f 69/69 458/458 71/71
f 71/71 458/458 457/457
f 433/433 506/506 434/434
f 127/127 374/374 102/102
f 485/485 66/66 65/65
f 497/497 485/485 65/65
f 102/102 374/374 100/100
f 133/133 69/69 68/68
f 71/71 457/457 497/497
f 350/350 501/501 253/253
f 71/71 497/497 65/65
f 133/133 68/68 82/82
f 507/507 46/46 508/508
f 509/509 46/46 507/507
f 391/391 505/505 502/502
f 289/289 46/46 509/509
f 375/375 489/489 510/510
f 405/405 502/502 474/474
f 311/311 46/46 289/289
f 253/253 46/46 311/311
f 252/252 46/46 253/253
f 511/511 46/46 252/252
f 512/512 46/46 511/511
f 287/287 46/46 512/512
f 406/406 439/439 504/504
f 327/327 46/46 287/287
f 434/434 46/46 327/327
f 513/513 46/46 434/434
f 82/82 68/68 80/80
f 514/514 46/46 513/513
f 515/515 46/46 514/514
f 134/134 68/68 374/374
f 126/126 117/117 62/62
f 80/80 68/68 134/134
f 62/62 117/117 53/53
f 408/408 474/474 508/508
f 53/53 117/117 119/119
f 53/53 119/119 46/46
f 46/46 119/119 458/458
f 318/318 458/458 133/133
f 408/408 458/458 318/318
f 508/508 458/458 408/408
f 46/46 458/458 508/508
f 11/11 28/28 516/516
f 517/517 516/516 518/518
f 519/519 520/520 521/521
f 517/517 518/518 519/519
f 522/522 523/523 493/493
f 28/28 123/123 516/516
f 519/519 518/518 520/520
f 477/477 521/521 524/524
f 493/493 521/521 477/477
f 136/136 9/9 522/522
f 520/520 525/525 521/521
f 522/522 526/526 523/523
f 522/522 9/9 526/526
f 123/123 527/527 516/516
f 516/516 528/528 518/518
f 523/523 521/521 493/493
f 518/518 529/529 520/520
f 516/516 527/527 530/530
f 9/9 517/517 526/526
f 9/9 11/11 517/517
f 526/526 519/519 523/523
f 523/523 519/519 521/521
f 518/518 528/528 529/529
f 137/137 522/522 471/471
f 137/137 136/136 522/522
f 517/517 11/11 516/516
f 471/471 522/522 493/493
f 467/467 477/477 524/524
f 526/526 517/517 519/519
f 375/375 510/510 503/503
f 531/531 532/532 533/533
f 534/534 535/535 536/536
f 531/531 537/537 538/538
f 534/534 536/536 539/539
f 540/540 532/532 531/531
f 541/541 540/540 542/542
f 543/543 538/538 544/544
f 545/545 546/546 535/535
f 539/539 536/536 543/543
f 547/547 548/548 549/549
f 543/543 544/544 550/550
f 549/549 548/548 551/551
f 548/548 547/547 552/552
f 540/540 553/553 532/532
f 548/548 554/554 551/551
f 253/253 501/501 251/251
f 548/548 552/552 534/534
f 551/551 554/554 555/555
f 534/534 552/552 556/556
f 548/548 534/534 554/554
f 537/537 557/557 544/544
f 542/542 531/531 546/546
f 534/534 556/556 535/535
f 546/546 531/531 538/538
f 535/535 538/538 536/536
f 542/542 540/540 531/531
f 538/538 537/537 544/544
f 433/433 503/503 506/506
f 531/531 533/533 537/537
f 554/554 539/539 555/555
f 536/536 538/538 543/543
f 545/545 542/542 546/546
f 465/465 484/484 558/558
f 554/554 534/534 539/539
f 546/546 538/538 535/535
f 535/535 556/556 545/545
f 537/537 533/533 557/557
f 541/541 542/542 545/545
f 454/454 328/328 108/108
f 465/465 558/558 501/501
f 454/454 559/559 328/328
f 495/495 559/559 454/454
f 108/108 328/328 89/89
f 459/459 552/552 494/494
f 560/560 561/561 562/562
f 560/560 524/524 563/563
f 541/541 564/564 540/540
f 474/474 565/565 508/508
f 524/524 521/521 525/525
f 566/566 556/556 567/567
f 560/560 563/563 561/561
f 503/503 510/510 568/568
f 564/564 553/553 540/540
f 564/564 529/529 553/553
f 562/562 561/561 566/566
f 562/562 459/459 450/450
f 524/524 525/525 569/569
f 570/570 552/552 547/547
f 459/459 567/567 552/552
f 472/472 560/560 450/450
f 450/450 560/560 562/562
f 562/562 566/566 459/459
f 459/459 566/566 567/567
f 566/566 571/571 556/556
f 571/571 541/541 545/545
f 569/569 564/564 572/572
f 560/560 472/472 467/467
f 569/569 525/525 564/564
f 566/566 561/561 571/571
f 571/571 572/572 541/541
f 561/561 563/563 572/572
f 572/572 564/564 541/541
f 560/560 467/467 524/524
f 567/567 556/556 552/552
f 563/563 569/569 572/572
f 494/494 460/460 459/459
f 561/561 572/572 571/571
f 563/563 524/524 569/569
f 556/556 571/571 545/545
f 525/525 529/529 564/564
f 434/434 506/506 513/513
f 474/474 502/502 573/573
f 570/570 494/494 552/552
f 525/525 520/520 529/529
f 574/574 575/575 576/576
f 559/559 435/435 577/577
f 482/482 494/494 570/570
f 328/328 559/559 384/384
f 559/559 578/578 384/384
f 575/575 547/547 549/549
f 559/559 577/577 578/578
f 575/575 570/570 547/547
f 578/578 574/574 576/576
f 578/578 577/577 574/574
f 577/577 435/435 574/574
f 574/574 482/482 575/575
f 575/575 549/549 576/576
f 575/575 482/482 570/570
f 495/495 435/435 559/559
f 574/574 435/435 482/482
f 502/502 505/505 579/579
f 478/478 435/435 495/495
f 580/580 581/581 582/582
f 583/583 584/584 550/550
f 585/585 586/586 532/532
f 583/583 587/587 584/584
f 474/474 573/573 565/565
f 583/583 588/588 587/587
f 382/382 265/265 581/581
f 582/582 589/589 586/586
f 582/582 581/581 589/589
f 550/550 584/584 590/590
f 588/588 591/591 587/587
f 265/265 592/592 581/581
f 265/265 264/264 592/592
f 586/586 533/533 532/532
f 550/550 590/590 543/543
f 591/591 593/593 587/587
f 584/584 594/594 590/590
f 584/584 587/587 594/594
f 501/501 252/252 251/251
f 581/581 592/592 589/589
f 591/591 595/595 593/593
f 590/590 539/539 543/543
f 264/264 596/596 592/592
f 589/589 592/592 597/597
f 586/586 589/589 533/533
f 587/587 593/593 594/594
f 264/264 598/598 596/596
f 594/594 555/555 590/590
f 595/595 599/599 593/593
f 589/589 597/597 533/533
f 505/505 599/599 595/595
f 590/590 555/555 539/539
f 598/598 600/600 596/596
f 505/505 385/385 599/599
f 596/596 601/601 592/592
f 593/593 599/599 594/594
f 592/592 601/601 597/597
f 505/505 595/595 579/579
f 594/594 599/599 602/602
f 597/597 557/557 533/533
f 506/506 503/503 603/603
f 579/579 573/573 502/502
f 594/594 551/551 555/555
f 594/594 602/602 551/551
f 504/504 439/439 600/600
f 596/596 604/604 601/601
f 596/596 600/600 604/604
f 385/385 384/384 599/599
f 530/530 528/528 516/516
f 601/601 557/557 597/597
f 599/599 384/384 578/578
f 527/527 605/605 530/530
f 600/600 439/439 604/604
f 530/530 606/606 528/528
f 528/528 607/607 529/529
f 599/599 578/578 602/602
f 601/601 608/608 557/557
f 504/504 609/609 484/484
f 605/605 610/610 530/530
f 529/529 607/607 553/553
f 601/601 604/604 608/608
f 528/528 606/606 607/607
f 602/602 578/578 576/576
f 506/506 611/611 513/513
f 604/604 439/439 612/612
f 602/602 549/549 551/551
f 608/608 544/544 557/557
f 530/530 610/610 606/606
f 604/604 612/612 608/608
f 602/602 576/576 549/549
f 439/439 335/335 613/613
f 439/439 613/613 612/612
f 568/568 603/603 503/503
f 489/489 580/580 605/605
f 605/605 580/580 610/610
f 606/606 585/585 607/607
f 612/612 544/544 608/608
f 607/607 585/585 532/532
f 607/607 532/532 553/553
f 335/335 334/334 613/613
f 484/484 609/609 558/558
f 606/606 610/610 585/585
f 613/613 583/583 612/612
f 580/580 582/582 610/610
f 501/501 614/614 252/252
f 610/610 582/582 585/585
f 334/334 583/583 613/613
f 489/489 382/382 580/580
f 334/334 588/588 583/583
f 612/612 550/550 544/544
f 582/582 586/586 585/585
f 612/612 583/583 550/550
f 382/382 581/581 580/580
f 334/334 293/293 615/615
f 510/510 489/489 616/616
f 257/257 287/287 512/512
f 615/615 293/293 292/292
f 617/617 290/290 289/289
f 618/618 264/264 266/266
f 617/617 292/292 290/290
f 619/619 266/266 258/258
f 504/504 600/600 609/609
f 122/122 27/27 63/63
f 527/527 123/123 122/122
f 620/620 588/588 334/334
f 619/619 258/258 257/257
f 620/620 334/334 615/615
f 621/621 257/257 512/512
f 509/509 617/617 289/289
f 621/621 619/619 257/257
f 622/622 63/63 45/45
f 622/622 45/45 44/44
f 514/514 44/44 515/515
f 623/623 122/122 63/63
f 624/624 292/292 617/617
f 622/622 44/44 514/514
f 625/625 266/266 619/619
f 626/626 527/527 122/122
f 511/511 621/621 512/512
f 623/623 63/63 622/622
f 624/624 615/615 292/292
f 619/619 621/621 627/627
f 618/618 266/266 625/625
f 628/628 122/122 623/623
f 527/527 626/626 605/605
f 627/627 621/621 511/511
f 605/605 616/616 489/489
f 624/624 617/617 509/509
f 264/264 618/618 598/598
f 629/629 622/622 514/514
f 630/630 618/618 625/625
f 510/510 616/616 568/568
f 629/629 623/623 622/622
f 627/627 625/625 619/619
f 588/588 620/620 591/591
f 628/628 626/626 122/122
f 631/631 632/632 620/620
f 631/631 620/620 615/615
f 558/558 614/614 501/501
f 631/631 615/615 624/624
f 507/507 624/624 509/509
f 616/616 605/605 626/626
f 598/598 618/618 630/630
f 632/632 591/591 620/620
f 616/616 626/626 628/628
f 614/614 625/625 627/627
f 633/633 631/631 624/624
f 611/611 623/623 629/629
f 579/579 632/632 631/631
f 628/628 623/623 611/611
f 573/573 633/633 565/565
f 630/630 625/625 614/614
f 565/565 624/624 507/507
f 513/513 629/629 514/514
f 565/565 633/633 624/624
f 252/252 614/614 627/627
f 506/506 603/603 611/611
f 616/616 628/628 603/603
f 252/252 627/627 511/511
f 579/579 631/631 573/573
f 611/611 629/629 513/513
f 595/595 591/591 632/632
f 573/573 631/631 633/633
f 609/609 600/600 598/598
f 558/558 630/630 614/614
f 609/609 630/630 558/558
f 609/609 598/598 630/630
f 603/603 628/628 611/611
f 508/508 565/565 507/507
f 595/595 632/632 579/579
f 568/568 616/616 603/603
f 634/634 635/635 636/636
f 637/637 638/638 639/639
f 640/640 638/638 637/637
f 636/636 638/638 640/640
f 641/641 636/636 640/640
f 642/642 643/643 644/644
f 634/634 645/645 635/635
f 646/646 634/634 641/641
f 642/642 647/647 643/643
f 647/647 635/635 643/643
f 644/644 643/643 648/648
f 641/641 634/634 636/636
f 639/639 634/634 646/646
f 637/637 639/639 646/646
f 649/649 644/644 648/648
f 650/650 647/647 651/651
f 651/651 647/647 642/642
f 651/651 642/642 652/652
f 653/653 654/654 650/650
f 650/650 654/654 647/647
f 653/653 655/655 654/654
f 656/656 655/655 653/653
f 652/652 642/642 655/655
f 652/652 655/655 656/656
f 657/657 658/658 659/659
f 660/660 658/658 657/657
f 657/657 659/659 644/644
f 661/661 649/649 648/648
f 657/657 644/644 662/662
f 663/663 645/645 634/634
f 662/662 644/644 649/649
f 662/662 649/649 664/664
f 665/665 661/661 648/648
f 660/660 661/661 658/658
f 647/647 636/636 635/635
f 647/647 638/638 636/636
f 666/666 664/664 649/649
f 661/661 664/664 667/667
f 668/668 669/669 665/665
f 667/667 664/664 666/666
f 664/664 661/661 660/660
f 649/649 661/661 666/666
f 670/670 671/671 672/672
f 673/673 674/674 651/651
f 672/672 675/675 670/670
f 676/676 677/677 678/678
f 648/648 668/668 665/665
f 672/672 679/679 675/675
f 680/680 681/681 656/656
f 640/640 646/646 682/682
f 640/640 682/682 676/676
f 651/651 674/674 650/650
f 683/683 684/684 685/685
f 686/686 664/664 687/687
f 688/688 648/648 643/643
f 689/689 643/643 635/635
f 646/646 690/690 682/682
f 686/686 691/691 664/664
f 656/656 653/653 676/676
f 650/650 674/674 692/692
f 676/676 682/682 677/677
f 656/656 676/676 680/680
f 683/683 693/693 684/684
f 653/653 650/650 640/640
f 678/678 677/677 694/694
f 664/664 660/660 687/687
f 691/691 662/662 664/664
f 693/693 683/683 695/695
f 650/650 641/641 640/640
f 660/660 696/696 687/687
f 697/697 698/698 645/645
f 663/663 697/697 645/645
f 660/660 657/657 696/696
f 694/694 677/677 699/699
f 653/653 640/640 676/676
f 693/693 695/695 700/700
f 677/677 682/682 699/699
f 695/695 701/701 700/700
f 680/680 676/676 702/702
f 650/650 692/692 641/641
f 695/695 703/703 701/701
f 704/704 705/705 654/654
f 694/694 699/699 706/706
f 707/707 694/694 706/706
f 708/708 709/709 703/703
f 707/707 706/706 710/710
f 707/707 710/710 711/711
f 712/712 713/713 710/710
f 711/711 710/710 714/714
f 679/679 715/715 675/675
f 691/691 673/673 662/662
f 708/708 716/716 717/717
f 714/714 716/716 711/711
f 708/708 717/717 709/709
f 706/706 712/712 710/710
f 718/718 639/639 719/719
f 716/716 714/714 717/717
f 715/715 679/679 685/685
f 662/662 673/673 652/652
f 720/720 721/721 722/722
f 657/657 681/681 696/696
f 723/723 712/712 706/706
f 720/720 722/722 724/724
f 725/725 722/722 721/721
f 692/692 646/646 641/641
f 705/705 726/726 638/638
f 685/685 679/679 683/683
f 699/699 723/723 706/706
f 686/686 687/687 725/725
f 705/705 638/638 654/654
f 724/724 722/722 727/727
f 728/728 724/724 727/727
f 676/676 678/678 702/702
f 728/728 727/727 729/729
f 654/654 655/655 704/704
f 646/646 692/692 730/730
f 725/725 687/687 722/722
f 656/656 681/681 657/657
f 656/656 657/657 662/662
f 731/731 713/713 712/712
f 656/656 662/662 652/652
f 637/637 646/646 640/640
f 652/652 673/673 651/651
f 732/732 712/712 723/723
f 730/730 690/690 646/646
f 733/733 678/678 694/694
f 734/734 723/723 699/699
f 694/694 707/707 733/733
f 707/707 716/716 735/735
f 711/711 716/716 707/707
f 707/707 735/735 733/733
f 734/734 732/732 723/723
f 733/733 736/736 737/737
f 733/733 735/735 736/736
f 703/703 695/695 708/708
f 734/734 682/682 698/698
f 734/734 699/699 682/682
f 734/734 738/738 732/732
f 738/738 698/698 697/697
f 679/679 672/672 683/683
f 727/727 672/672 729/729
f 738/738 734/734 698/698
f 672/672 671/671 729/729
f 739/739 702/702 678/678
f 712/712 732/732 731/731
f 702/702 739/739 680/680
f 739/739 740/740 741/741
f 739/739 741/741 680/680
f 741/741 681/681 680/680
f 742/742 687/687 696/696
f 743/743 744/744 687/687
f 743/743 745/745 744/744
f 742/742 743/743 687/687
f 639/639 718/718 697/697
f 718/718 738/738 697/697
f 746/746 741/741 747/747
f 745/745 722/722 744/744
f 746/746 681/681 741/741
f 746/746 696/696 681/681
f 747/747 741/741 740/740
f 733/733 737/737 678/678
f 737/737 739/739 678/678
f 726/726 718/718 719/719
f 740/740 739/739 737/737
f 737/737 736/736 740/740
f 726/726 719/719 638/638
f 736/736 748/748 740/740
f 740/740 748/748 747/747
f 747/747 748/748 749/749
f 742/742 749/749 750/750
f 742/742 750/750 743/743
f 743/743 750/750 745/745
f 751/751 752/752 753/753
f 746/746 742/742 696/696
f 747/747 749/749 746/746
f 749/749 742/742 746/746
f 754/754 755/755 756/756
f 757/757 758/758 759/759
f 760/760 761/761 754/754
f 762/762 763/763 764/764
f 765/765 764/764 766/766
f 762/762 764/764 767/767
f 754/754 756/756 768/768
f 761/761 769/769 754/754
f 763/763 770/770 764/764
f 764/764 771/771 766/766
f 757/757 772/772 758/758
f 754/754 769/769 773/773
f 764/764 757/757 771/771
f 757/757 774/774 771/771
f 757/757 754/754 772/772
f 754/754 768/768 772/772
f 754/754 773/773 755/755
f 770/770 754/754 764/764
f 770/770 775/775 754/754
f 757/757 759/759 774/774
f 776/776 731/731 777/777
f 776/776 713/713 731/731
f 775/775 760/760 754/754
f 778/778 777/777 779/779
f 780/780 781/781 782/782
f 767/767 764/764 765/765
f 771/771 783/783 784/784
f 785/785 786/786 787/787
f 787/787 774/774 785/785
f 788/788 758/758 772/772
f 788/788 789/789 758/758
f 788/788 704/704 790/790
f 788/788 790/790 789/789
f 789/789 791/791 758/758
f 758/758 785/785 759/759
f 792/792 793/793 794/794
f 795/795 782/782 796/796
f 791/791 785/785 758/758
f 789/789 790/790 791/791
f 785/785 774/774 759/759
f 791/791 786/786 785/785
f 774/774 783/783 771/771
f 774/774 787/787 783/783
f 784/784 766/766 771/771
f 788/788 772/772 768/768
f 788/788 768/768 797/797
f 704/704 788/788 797/797
f 795/795 780/780 782/782
f 797/797 726/726 705/705
f 797/797 705/705 704/704
f 798/798 799/799 800/800
f 768/768 756/756 801/801
f 781/781 794/794 782/782
f 768/768 801/801 797/797
f 797/797 801/801 726/726
f 756/756 755/755 801/801
f 726/726 801/801 718/718
f 801/801 755/755 718/718
f 755/755 773/773 738/738
f 718/718 755/755 738/738
f 781/781 792/792 794/794
f 802/802 795/795 796/796
f 798/798 800/800 753/753
f 738/738 773/773 732/732
f 803/803 752/752 751/751
f 769/769 732/732 773/773
f 769/769 731/731 732/732
f 796/796 767/767 765/765
f 796/796 765/765 804/804
f 777/777 731/731 769/769
f 805/805 766/766 784/784
f 765/765 766/766 804/804
f 804/804 766/766 805/805
f 779/779 775/775 800/800
f 802/802 796/796 804/804
f 751/751 762/762 794/794
f 763/763 751/751 753/753
f 763/763 762/762 751/751
f 761/761 760/760 779/779
f 761/761 779/779 777/777
f 779/779 760/760 775/775
f 806/806 802/802 804/804
f 800/800 775/775 770/770
f 770/770 753/753 800/800
f 770/770 763/763 753/753
f 794/794 762/762 767/767
f 767/767 782/782 794/794
f 782/782 767/767 796/796
f 804/804 805/805 807/807
f 804/804 807/807 806/806
f 777/777 769/769 761/761
f 783/783 808/808 784/784
f 778/778 776/776 777/777
f 704/704 655/655 790/790
f 809/809 669/669 725/725
f 778/778 779/779 810/810
f 784/784 808/808 811/811
f 655/655 659/659 790/790
f 790/790 659/659 791/791
f 791/791 812/812 786/786
f 725/725 721/721 808/808
f 813/813 810/810 779/779
f 799/799 813/813 779/779
f 799/799 779/779 800/800
f 791/791 814/814 812/812
f 812/812 814/814 658/658
f 803/803 751/751 794/794
f 793/793 803/803 794/794
f 808/808 721/721 720/720
f 808/808 720/720 811/811
f 811/811 720/720 724/724
f 787/787 809/809 783/783
f 752/752 798/798 753/753
f 787/787 669/669 809/809
f 808/808 809/809 725/725
f 791/791 659/659 814/814
f 786/786 812/812 787/787
f 812/812 669/669 787/787
f 812/812 658/658 669/669
f 809/809 808/808 783/783
f 811/811 805/805 784/784
f 815/815 807/807 805/805
f 815/815 805/805 811/811
f 724/724 815/815 811/811
f 807/807 724/724 728/728
f 807/807 815/815 724/724
f 675/675 792/792 781/781
f 710/710 713/713 714/714
f 752/752 684/684 693/693
f 799/799 798/798 701/701
f 701/701 798/798 700/700
f 752/752 693/693 798/798
f 792/792 675/675 715/715
f 714/714 713/713 776/776
f 776/776 778/778 810/810
f 709/709 810/810 813/813
f 816/816 709/709 813/813
f 780/780 670/670 675/675
f 798/798 693/693 700/700
f 780/780 795/795 670/670
f 752/752 803/803 684/684
f 654/654 638/638 647/647
f 795/795 671/671 670/670
f 685/685 793/793 715/715
f 715/715 793/793 792/792
f 802/802 729/729 671/671
f 639/639 697/697 663/663
f 802/802 806/806 729/729
f 781/781 780/780 675/675
f 806/806 728/728 729/729
f 671/671 795/795 802/802
f 806/806 807/807 728/728
f 719/719 639/639 638/638
f 776/776 717/717 714/714
f 776/776 810/810 717/717
f 810/810 709/709 717/717
f 816/816 799/799 701/701
f 816/816 703/703 709/709
f 816/816 813/813 799/799
f 816/816 701/701 703/703
f 803/803 793/793 685/685
f 803/803 685/685 684/684
f 690/690 645/645 698/698
f 639/639 663/663 634/634
f 698/698 682/682 690/690
f 645/645 730/730 635/635
f 690/690 730/730 645/645
f 673/673 643/643 674/674
f 674/674 643/643 689/689
f 674/674 689/689 692/692
f 635/635 692/692 689/689
f 691/691 688/688 673/673
f 635/635 730/730 692/692
f 688/688 643/643 673/673
f 691/691 648/648 688/688
f 648/648 691/691 686/686
f 658/658 661/661 665/665
f 648/648 686/686 668/668
f 659/659 658/658 814/814
f 669/669 686/686 725/725
f 669/669 668/668 686/686
f 665/665 669/669 658/658
f 655/655 642/642 644/644
f 655/655 644/644 659/659

