# https://github.com/mikedh/trimesh
mtllib material.mtl

o meshId0
usemtl material_0
v -0.03244991 0.07761753 -0.03074549
v -0.03266520 0.07761511 -0.03007471
v -0.03187597 0.07891840 -0.03096326
v -0.03208095 0.07897483 -0.03084348
v -0.03292364 0.07760049 -0.02618892
v -0.03304912 0.07759590 -0.02496751
v -0.02999842 0.07890283 -0.02632992
v -0.03552789 0.07891167 -0.02917514
v -0.03514018 0.07760946 -0.02858127
v -0.03507048 0.07760588 -0.02764904
v -0.03552765 0.07895845 -0.02897362
v -0.03607857 0.07760832 -0.02825387
v -0.03580421 0.07861320 -0.02524273
v -0.03359403 0.07759799 -0.02553720
v -0.03379625 0.07781280 -0.02946894
v -0.03336870 0.07761517 -0.03011132
v -0.03408754 0.07780991 -0.02875307
v -0.03360285 0.07760689 -0.02788580
v -0.03243469 0.07760836 -0.02827429
v -0.03276813 0.07760546 -0.02751265
v -0.03398609 0.07889836 -0.02562607
v -0.03181226 0.07891905 -0.03115991
v -0.03552969 0.07891391 -0.02978733
v -0.03427220 0.07781123 -0.02905616
v -0.03423791 0.07889945 -0.02575108
v -0.03368957 0.07008735 -0.02270396
v -0.03358216 0.07009233 -0.02408550
v -0.03681283 0.07009309 -0.02421017
v -0.03052461 0.07890101 -0.02632661
v -0.03071267 0.07760955 -0.02862050
v -0.03011816 0.07731846 -0.03097507
v -0.02886881 0.07145336 -0.02829763
v -0.03342092 0.07142911 -0.02400047
v -0.03432131 0.07889632 -0.02503188
v -0.03301316 0.07009216 -0.02395905
v -0.03328098 0.07009194 -0.02386681
v -0.03320956 0.07146811 -0.03221648
v -0.03181506 0.07008915 -0.02406557
v -0.03713131 0.07145177 -0.02786837
v -0.02854556 0.07009504 -0.02499384
v -0.02759749 0.07010989 -0.02870982
v -0.03001035 0.07760853 -0.02837178
v -0.03039546 0.07890139 -0.02642782
v -0.03064478 0.07760527 -0.02747292
v -0.00501515 -0.06193037 -0.00420870
v -0.00502013 -0.06177245 -0.00426595
v -0.00495209 -0.06175124 -0.00420123
v -0.00403024 -0.06208148 -0.00520638
v -0.00402620 -0.06224956 -0.00514693
v -0.00396217 -0.06206017 -0.00514175
v -0.00105679 -0.06408409 -0.01366706
v -0.01270353 -0.06410974 -0.01406942
v -0.00401594 -0.06291071 -0.01596451
v -0.01275582 -0.06245144 -0.01453815
v -0.00824345 -0.05348815 -0.00532170
v -0.00941576 -0.05617436 -0.01349879
v -0.00936503 -0.05570377 -0.00405567
v -0.00534171 -0.05628802 -0.01384468
v -0.00685157 -0.05903332 -0.01419104
v -0.00272083 -0.05841475 -0.01230796
v -0.00231076 -0.05482386 -0.00917045
v -0.01288785 -0.05719942 -0.00860876
v -0.00685157 -0.05553485 -0.00354168
v -0.00144782 -0.05704098 -0.00812655
v 0.00053900 -0.05224212 -0.00757384
v -0.00258726 -0.05252078 -0.00338025
v 0.00015664 -0.05408373 -0.01365166
v -0.00084497 -0.06796370 -0.00869486
v 0.00188601 -0.06240169 -0.00885184
v -0.00435509 -0.07005540 -0.01153650
v -0.00838835 -0.07271007 -0.01042244
v -0.01082344 -0.06388541 -0.01294054
v -0.00459237 -0.06410439 -0.01360749
v -0.01269544 -0.06930251 -0.00924505
v -0.01384413 -0.06750670 -0.00377841
v -0.00369793 -0.05394112 -0.01471039
v -0.00260277 -0.05777902 -0.01575800
v 0.00076054 -0.05651146 -0.01135970
v -0.00726254 -0.06583026 0.00132497
v -0.00172508 -0.06657225 -0.00093355
v -0.00543892 -0.05989970 -0.00080776
v -0.01160717 -0.06036347 -0.00221977
v -0.01172918 -0.06639253 -0.00038692
v -0.03258330 0.07142919 -0.02401218
v -0.03290141 0.07012940 -0.02359353
v 0.00010097 -0.05828851 -0.01245952
v -0.00258739 -0.05394566 -0.00291217
v 0.00043023 -0.05637768 -0.00599048
v -0.00347169 -0.06032178 -0.01491479
v -0.00347298 -0.05614309 -0.00219401
v -0.00093557 -0.05954136 -0.00292126
v -0.01039922 -0.05614299 -0.00218926
v -0.01352376 -0.06121697 -0.00802199
v -0.01111025 -0.05949063 -0.00276669
v -0.00079037 -0.06172225 -0.00956002
v -0.01282501 -0.05916056 -0.01137410
v -0.01318337 -0.05618022 -0.00386490
v -0.01151217 -0.05283901 -0.00326593
v -0.01501757 -0.05529631 -0.01013223
v -0.01285470 -0.05976762 -0.00083765
v -0.00392826 -0.05925871 0.00071571
v -0.00120889 -0.05810091 -0.00131336
v -0.01018542 -0.05761811 0.00017474
v 0.00188327 -0.05975844 -0.00636237
v -0.00303049 -0.06318872 -0.01402384
v -0.01595128 -0.06067933 -0.00914500
v -0.01123047 -0.06264707 -0.01237498
v -0.01143348 -0.05884273 -0.01540316
v -0.01143408 -0.05741820 -0.01587153
v -0.01140542 -0.05145726 -0.00372680
v -0.01394322 -0.05174937 -0.00643087
v -0.00949240 -0.05097271 -0.00567462
v -0.01289750 -0.05246797 -0.01022651
v -0.00314576 -0.05126317 -0.00655863
v -0.00168599 -0.05305890 -0.01202502
v -0.01029539 -0.05394249 -0.01471519
v -0.01090306 -0.05482004 -0.01671759
v -0.01152283 -0.07217892 -0.00883988
v -0.01235371 -0.06984711 -0.00322242
v -0.00164647 -0.07074656 -0.00596088
v -0.00613923 -0.07201798 -0.00980437
v -0.00214900 -0.05992331 -0.00504500
v -0.00514972 -0.06113109 -0.00231327
v -0.00171214 -0.06250828 -0.00650553
v -0.02889478 0.07144722 -0.02784134
v -0.00748940 -0.06873749 0.00167564
v -0.00202544 -0.06955073 -0.00230859
v -0.01006670 -0.06887358 -0.00022261
v -0.00342132 -0.06896347 -0.00055532
v -0.01097894 -0.06355970 -0.00641328
v -0.00892682 -0.06114585 -0.00235837
v -0.01080614 -0.06153147 -0.00353219
v -0.00489123 -0.06254981 -0.00386865
v -0.01214058 -0.06316774 -0.00851294
v -0.00528282 -0.06428245 -0.01190619
v -0.00938565 -0.06466440 -0.00982773
v -0.00381505 -0.06222658 -0.01205657
v -0.01018513 -0.06222658 -0.01205658
v -0.03710820 0.07144572 -0.02784087
v -0.00488038 -0.06261958 -0.00363609
v -0.01041557 -0.06298900 -0.00472845
v -0.00672872 -0.06963296 -0.00159880
v -0.00978816 -0.06998188 -0.00169357
v -0.03815813 0.07011374 -0.02972779
v -0.01109833 -0.06387471 -0.00742392
v -0.00941825 -0.07114849 -0.00623095
v -0.00595558 -0.06969964 -0.00182153
v -0.00460561 -0.07029490 -0.00361333
v -0.00384635 -0.07036417 -0.00382740
v -0.00312020 -0.06407353 -0.00802964
v -0.00910372 -0.06475572 -0.01010611
v -0.00559604 -0.06488498 -0.01049981
v -0.00727850 -0.07147583 -0.00722742
v -0.00645317 -0.07154156 -0.00742053
v -0.00432968 -0.07113571 -0.00619181
v -0.00662178 -0.07067003 -0.00474593
v -0.00637126 -0.07138172 -0.00693486
v -0.00895734 -0.07001027 -0.00274676
v -0.00700014 -0.07045211 -0.00405131
v -0.00460720 -0.07051738 -0.00429159
v -0.00744182 -0.07056265 -0.00439029
v -0.00894749 -0.07105989 -0.00590165
v -0.00864636 -0.07130413 -0.00668617
v -0.01004895 -0.07041377 -0.00397590
v -0.00927705 -0.07048073 -0.00419812
v -0.00944645 -0.07063639 -0.00465339
v -0.00835652 -0.06978723 -0.00206856
v -0.00819808 -0.06993896 -0.00253337
v -0.00620446 -0.06988377 -0.00232469
v -0.00480455 -0.07097611 -0.00563254
v -0.03581798 0.07860091 -0.03385291
v -0.03436900 0.07012713 -0.03334583
v -0.02956409 0.07859910 -0.03350924
v -0.03069693 0.07012597 -0.03301442
v -0.02760082 0.07860298 -0.02682023
v -0.02858919 0.07859496 -0.02470592
v -0.00524534 -0.07107817 -0.00596513
v -0.02267688 -0.04228606 0.04095438
v -0.02695430 -0.04833233 0.04177365
v -0.01831105 -0.04817231 0.04226074
v -0.03007472 -0.04331338 0.03782747
v -0.03275233 -0.05023739 0.03586803
v -0.03446406 0.07858749 -0.02271421
v -0.03279382 -0.04462855 0.03382351
v -0.03146231 -0.04583478 0.02438442
v -0.03172882 -0.05353821 0.02592660
v -0.03282775 -0.05251968 0.02806578
v -0.03007479 -0.04844526 0.02220519
v -0.02410192 -0.05512045 0.02111033
v -0.02488740 -0.04937155 0.01938563
v -0.02343971 -0.04952684 0.04326462
v -0.03090339 -0.05080916 0.03936089
v -0.02710063 -0.05147117 0.04279276
v -0.03296988 -0.05456312 0.03658441
v -0.03325027 -0.05229990 0.03482300
v -0.03320457 -0.05652476 0.03061319
v -0.02986711 -0.05575044 0.02431888
v -0.03128432 -0.05683930 0.02645149
v -0.02595102 -0.05903556 0.02297036
v -0.01799170 -0.05903356 0.02297639
v -0.02155983 -0.05670372 0.02141730
v -0.01367449 -0.05642174 0.03268914
v -0.01364272 -0.05595038 0.03412383
v -0.01366915 -0.04202909 0.02795884
v -0.01306342 -0.05539662 0.02539603
v -0.01073394 -0.05547108 0.03061658
v -0.01094036 -0.05203161 0.03563960
v -0.01112353 -0.05351282 0.03657793
v -0.01702196 -0.05145995 0.04282678
v -0.01752281 -0.04978077 0.04249131
v -0.02880312 -0.05465568 0.03806488
v -0.03040391 -0.05624909 0.03321453
v -0.02962929 -0.04069255 0.03202759
v -0.02987480 -0.04269605 0.02592860
v -0.02759146 -0.05814642 0.02743923
v -0.02604217 -0.04409437 0.02167193
v -0.02544080 -0.03939315 0.03598280
v -0.02445602 -0.05368887 0.04100826
v -0.01889621 -0.05861443 0.02601450
v -0.02031250 -0.04436783 0.02083909
v -0.02181446 -0.03917150 0.03665771
v -0.01511002 -0.04327881 0.02415428
v -0.01516574 -0.05770477 0.02878359
v -0.03836244 0.07860250 -0.02672868
v -0.03821016 0.07779212 -0.02372944
v -0.01913333 -0.05371485 0.04092908
v -0.01365335 -0.04155618 0.02939828
v -0.01627976 -0.05427303 0.03922999
v -0.01638309 -0.03983423 0.03463994
v -0.01251745 -0.05706123 0.03282500
v -0.01608884 -0.05447416 0.04070017
v -0.02686298 -0.05936055 0.02582569
v -0.03127849 -0.05749521 0.03150394
v -0.02442090 -0.05392363 0.04237605
v -0.01720368 -0.05937825 0.02577178
v -0.03089315 -0.05571316 0.03692864
v -0.03072358 0.07778420 -0.02167872
v -0.02796252 -0.06283181 0.04345489
v -0.03273779 -0.06493717 0.03704646
v -0.03018386 -0.06671359 0.03163850
v -0.03147179 -0.06478424 0.03751208
v -0.02433544 -0.06226638 0.04517622
v -0.02452319 -0.06804887 0.02757430
v -0.01830684 -0.06242047 0.04470773
v -0.01353078 -0.05811050 0.02578643
v -0.02617811 -0.06018728 0.04605846
v -0.01746213 -0.06209710 0.04569176
v -0.03320456 -0.06269033 0.03843899
v -0.03070891 -0.06592076 0.02860492
v -0.02600114 -0.06691990 0.02556376
v -0.01765280 -0.06690282 0.02561555
v -0.01825738 -0.06833635 0.02669899
v -0.01198441 -0.06177861 0.04121427
v -0.01044935 -0.06379317 0.03508183
v -0.01132375 -0.06490383 0.03170075
v -0.01804910 -0.06017962 0.04608186
v -0.03352076 -0.06383178 0.03496428
v -0.01334442 -0.06392515 0.04012721
v -0.01246344 -0.06491506 0.03711338
v -0.01133538 -0.06468780 0.03780527
v -0.01710080 -0.06771439 0.02859230
v -0.01155310 -0.05309766 0.02726745
v -0.01110010 -0.05097978 0.03207638
v -0.01382804 -0.04904383 0.03960812
v -0.01481973 -0.05439274 0.02332572
v -0.02059603 -0.04752341 0.01924390
v -0.01326049 -0.04617636 0.02334492
v -0.01852733 -0.04930845 0.01957766
v -0.01183122 -0.04299830 0.03301851
v -0.01126265 -0.04717815 0.02606234
v -0.01729562 -0.04259631 0.04001014
v -0.01313108 -0.04358314 0.03700620
v -0.02092833 -0.04080758 0.03968741
v -0.02959442 -0.04175566 0.03680165
v -0.04270006 0.06655649 0.01225037
v -0.02476119 0.06658963 0.00149402
v -0.02752732 0.06630724 -0.00175146
v -0.02476317 0.06653340 0.01630812
v -0.02363311 0.06624620 0.01633087
v -0.03591310 0.06623098 0.02046921
v -0.04477996 0.06627767 0.00734362
v -0.02480006 0.06654148 0.01627402
v -0.03119672 0.06659232 0.00273955
v -0.02929171 0.06654592 0.01505855
v -0.04117889 0.06656087 0.01112152
v -0.04120010 0.06659675 0.00152402
v -0.02480007 0.06659672 0.00152402
v -0.05995537 -0.07543931 -0.04178472
v 0.01104533 -0.07202140 -0.03337927
v -0.05678004 -0.07068165 -0.03992225
v 0.01143611 -0.06823808 -0.03259114
v 0.01143260 -0.07300365 -0.03435573
v 0.01276891 -0.07284199 -0.03599776
v 0.00250584 -0.07465842 -0.03957596
v -0.05529205 -0.07673084 -0.04762136
v 0.00722635 -0.07161974 -0.04288977
v 0.01260094 -0.07075814 -0.04026914
v -0.05990035 -0.07713266 -0.04696771
v -0.05682362 -0.07424476 -0.05065496
v 0.06999999 -0.02842697 -0.08849426
v 0.06999978 -0.01349013 -0.09468169
v 0.06999999 0.01916780 0.01020509
v 0.06999999 0.04828740 -0.01510905
v 0.07000001 0.04326080 -0.00743416
v 0.06999999 -0.05506857 -0.04227268
v 0.06999901 -0.05416235 -0.03146815
v 0.06999999 0.03387045 0.00195473
v 0.07000002 -0.00228070 -0.09630897
v 0.06999990 -0.04923572 -0.01668405
v 0.06999987 0.00341017 -0.09624555
v 0.06999990 0.01132438 -0.09516462
v 0.06999992 0.02193175 -0.09176236
v 0.06999993 -0.03886161 -0.00234480
v 0.06999990 0.02730936 -0.08905768
v 0.06999990 -0.03215489 0.00333311
v 0.07000001 0.03323473 -0.08516424
v 0.07000002 -0.01958051 0.01007189
v 0.07000001 0.04147884 -0.07742336
v 0.06999999 -0.01218595 0.01230573
v 0.06999987 0.04844704 -0.06728589
v 0.07000002 0.05160525 -0.06025687
v 0.07000001 0.00526319 0.01339618
v 0.07000001 -0.04509268 -0.07293781
v 0.07000002 -0.04039221 -0.07875454
v 0.07000002 -0.05148291 -0.06085022
v 0.06999999 -0.03296214 -0.08543264
v 0.06999969 0.05444801 -0.04873496
v 0.06999989 0.05483951 -0.03777855
v 0.01186822 0.06699006 -0.06418765
v 0.00630135 0.06694803 -0.06625637
v 0.00504065 0.06753564 -0.06545185
v -0.05856635 0.06767849 -0.07403319
v 0.01559859 0.06691793 -0.06010596
v 0.01723051 0.06705402 -0.05196204
v -0.06146444 0.09005303 -0.06166393
v -0.05978526 0.07060519 -0.07186879
v -0.06116367 0.07946820 -0.06906188
v -0.06039497 0.09132113 -0.05579935
v -0.06156917 0.09222627 -0.05719529
v -0.05837424 0.06843676 -0.07285146
v -0.05954998 -0.07610085 -0.04910997
v -0.06121796 -0.08252928 -0.04484345
v -0.05610097 -0.07421353 -0.05079582
v -0.05809355 -0.07474036 -0.05035895
v 0.01640137 -0.06759467 -0.03067091
v 0.01014423 -0.07135457 -0.04210820
v 0.01555408 -0.06956896 -0.03860020
v -0.01745998 -0.07257105 -0.04740588
v 0.00701141 -0.07149100 -0.04416086
v -0.06153452 -0.09244588 -0.03150038
v -0.06025224 -0.08962150 -0.03501965
v -0.05979662 -0.03175834 0.08174222
v -0.06109040 -0.03343198 0.08453181
v -0.05753393 -0.03093519 0.08096679
v -0.06972361 -0.09070937 -0.03723688
v -0.06989987 -0.09346928 -0.02658514
v -0.06961112 -0.08384363 -0.04484406
v -0.06984002 -0.09359053 -0.03004220
v -0.06913913 -0.06318253 -0.07549655
v -0.06949610 -0.07468852 -0.05300557
v -0.06916970 0.05105557 -0.09178884
v -0.06939417 0.06149212 -0.08042233
v -0.06879614 -0.04307329 -0.09857806
v -0.06876606 0.01949064 -0.11021219
v -0.06871312 -0.03269989 -0.10502577
v -0.06949538 0.06734012 -0.07546571
v -0.06989999 0.09334806 -0.05611985
v -0.03941500 0.07546927 -0.03092863
v -0.06867844 0.00380785 -0.11278041
v -0.03189422 0.07542758 -0.02111695
v -0.06865115 -0.01090268 -0.11206814
v -0.06867588 -0.02505745 -0.10839764
v -0.06967456 0.08397382 -0.06770860
v -0.06899442 -0.05699127 -0.08487857
v -0.06901078 0.04178496 -0.09954201
v -0.06888770 -0.05060915 -0.09207132
v -0.06977464 0.09019659 -0.06289180
v -0.06886052 0.02993629 -0.10638596
v 0.03573790 0.04922630 -0.06731370
v 0.03754778 0.05236644 -0.05987611
v 0.03842510 0.05424614 -0.05310041
v 0.06500101 -0.00765442 -0.09583597
v 0.01918221 0.03488512 -0.08582976
v 0.00297146 0.02331929 -0.09416533
v -0.01381547 0.02471345 -0.09556583
v 0.03667782 0.05612307 -0.04144035
v 0.03010260 0.04057809 -0.07973747
v 0.03986118 0.03380989 -0.08532682
v 0.02288070 0.01887783 -0.09433856
v 0.02302653 0.02539890 -0.09152529
v 0.04302032 0.02914505 -0.08841940
v 0.00176579 0.01594749 -0.09695562
v 0.02573115 0.00756910 -0.09694684
v 0.03496592 0.04609225 -0.07249951
v 0.00342828 0.00634424 -0.09870929
v -0.01909244 -0.00792196 -0.10114671
v 0.02302372 -0.00385429 -0.09748271
v 0.04015270 -0.00961976 -0.09600247
v -0.02931972 0.07548064 -0.03405028
v -0.03425343 0.07473695 -0.03498184
v -0.02800733 0.07544023 -0.02312744
v -0.02609009 0.07545404 -0.02680826
v -0.03277988 0.02194464 -0.09984140
v -0.02574927 0.03320477 -0.09308603
v -0.01378865 0.01102624 -0.09990502
v -0.02329822 0.00821296 -0.10169733
v -0.01378972 0.00198149 -0.10090943
v -0.05191762 -0.00006365 -0.10793567
v -0.04033596 -0.01066441 -0.10439917
v -0.06015505 0.07509737 -0.04942800
v -0.00946599 -0.05653387 0.00302962
v -0.01094270 -0.05386318 0.01115956
v -0.03304708 -0.05609854 0.00435452
v -0.02595884 -0.04251058 0.04571758
v -0.02594924 -0.04029864 0.05245095
v -0.01940674 -0.03986585 0.05376868
v -0.01110447 -0.03376424 0.07128403
v -0.02637821 -0.03160360 0.07887603
v -0.00303155 -0.05391360 0.01100598
v 0.00661176 -0.05359956 0.01174968
v -0.03303158 -0.05391360 0.01100598
v -0.01802845 -0.04248309 0.04580147
v 0.01616180 -0.06760405 -0.03066885
v 0.01619983 -0.06760335 -0.03066882
v -0.03944350 -0.05343309 0.01246892
v -0.03621610 0.06938414 -0.02184623
v -0.04098225 -0.05601830 0.00459949
v -0.06045061 -0.08562914 -0.01598761
v -0.06045245 -0.07968047 -0.00979014
v -0.06103014 -0.05492393 0.05782048
v -0.06016601 -0.06907792 -0.01999353
v -0.06016421 -0.07502665 -0.02619091
v -0.06115527 -0.02544774 0.09704283
v -0.06147747 -0.04475463 0.09986810
v -0.06091551 -0.05102424 0.05338980
v -0.06031858 -0.07176852 -0.01154275
v -0.06122108 -0.01775687 0.10971240
v -0.06096764 -0.05444148 0.05372710
v -0.06029803 -0.08293865 -0.02443830
v -0.06042367 -0.09026103 -0.02303890
v -0.06114715 -0.04631116 0.07518387
v -0.06119851 -0.04586346 0.07940719
v -0.06040555 -0.01790759 0.09269834
v -0.06126737 -0.02556363 0.10515012
v -0.06115762 -0.04414847 0.07815858
v -0.06097620 -0.05053177 0.05834106
v -0.06097782 -0.00954762 0.10023340
v -0.06081884 -0.01267638 0.09456681
v -0.06065112 0.02438297 0.10861168
v -0.03212862 0.06943379 -0.03509290
v -0.06045389 0.02081018 0.09431181
v -0.02867377 0.06938676 -0.02253867
v -0.02597874 0.06940825 -0.02827873
v 0.02978878 0.05359063 -0.06232039
v 0.03034531 0.05683929 -0.05041871
v 0.02347158 0.05739923 -0.06211890
v 0.01740336 0.06683721 -0.05192806
v -0.04996373 0.02943601 -0.10050610
v -0.03601117 0.04091096 -0.09047262
v -0.05186535 0.05277507 -0.08535055
v -0.05344162 0.04397973 -0.09262872
v -0.02960773 0.05221863 -0.08172139
v 0.02214678 0.04989742 -0.07306247
v -0.00377333 0.04967405 -0.07968698
v 0.01541912 0.05386939 -0.07264791
v -0.04188615 0.06927999 -0.02967446
v -0.03997111 0.06940432 -0.02723010
v 0.02623594 0.05886473 -0.05068080
v -0.04551234 0.01265179 -0.10514629
v -0.05692291 0.02280873 -0.10530008
v -0.05840475 0.01102785 -0.10875528
v -0.05584402 -0.01123950 -0.10801324
v 0.01835412 -0.04975663 -0.06934935
v 0.02041434 -0.05686466 -0.05811954
v -0.05917846 -0.06823533 -0.06158847
v -0.00148325 -0.06061871 -0.06022920
v -0.04341476 -0.06294420 -0.06586946
v -0.05480004 -0.05775883 -0.07710420
v -0.05661412 -0.04808159 -0.08922917
v 0.02619923 -0.04845872 -0.06967933
v -0.03261227 -0.05682741 -0.07127207
v -0.04157281 -0.04224080 -0.08974227
v -0.01865982 -0.04521091 -0.08134754
v 0.02701883 -0.05921273 -0.04052658
v 0.03813092 -0.05562474 -0.04128743
v 0.03831401 -0.05501811 -0.03324002
v 0.02774565 -0.05815821 -0.03216107
v 0.02288283 -0.05983939 -0.04967719
v 0.00287920 -0.04313558 -0.07984398
v 0.03364790 -0.05254912 -0.06007464
v 0.03653541 -0.05487616 -0.05074976
v 0.02306789 -0.06103648 -0.03158492
v 0.01648253 -0.06580523 -0.02603484
v 0.00342572 -0.03855015 -0.08435339
v -0.06154429 -0.09160509 -0.02304694
v -0.05732525 0.06705912 0.06526241
v -0.02905739 0.06733251 -0.00800492
v -0.03393197 0.06731400 -0.00308598
v -0.02586998 0.06730530 -0.00076583
v -0.02099025 0.06726833 0.00915879
v -0.02455069 0.06723732 0.01745626
v 0.00346796 0.06719406 0.00478077
v -0.03695890 0.06735902 -0.01512992
v -0.04422499 0.06728522 0.00462364
v -0.03555567 0.06682743 -0.00665087
v -0.02902462 0.06720893 0.02499279
v -0.04306228 0.06724459 0.01548387
v -0.03694270 0.06718291 0.03199479
v -0.02903159 0.06718352 0.03183321
v -0.03697553 0.06720887 0.02499280
v -0.03596247 0.06722567 0.02055492
v -0.02904123 0.06735902 -0.01512992
v -0.02416134 0.06927312 -0.02639970
v -0.03595174 0.06924784 -0.01959081
v 0.01138750 0.06737924 -0.02693261
v -0.01231381 0.06708844 0.05505960
v -0.03625293 0.06929961 -0.03654292
v -0.02711790 0.06929911 -0.03490283
v 0.02887547 -0.05391844 -0.01878396
v 0.01803206 -0.05492444 -0.00764773
v 0.05437931 -0.04884703 -0.01390343
v 0.03288720 -0.04929385 -0.00712808
v 0.03835572 -0.05360684 -0.02541302
v 0.01342630 -0.05860943 -0.00799735
v 0.03937043 -0.04248893 0.00270459
v 0.05984251 -0.04129826 -0.00317196
v 0.05021611 -0.04359184 -0.00334208
v -0.02415986 0.06754795 -0.02978588
v -0.02539904 0.06840657 -0.02782455
v -0.02992828 0.06757291 -0.03658488
v 0.01073945 -0.04450966 0.02673399
v 0.00357233 -0.04989469 0.02292325
v 0.00346756 -0.04978310 0.02327328
v 0.03886472 -0.04636924 -0.00348641
v 0.03011091 -0.04150978 0.00994481
v 0.02782232 -0.04647303 0.00341175
v 0.01764102 -0.04582655 0.01564385
v 0.04986320 -0.03490902 0.00602579
v -0.06999999 -0.09270421 -0.02341300
v -0.06999999 0.05697382 0.09075335
v -0.07000001 0.04067224 0.08157685
v -0.07000001 0.03442055 0.10895113
v -0.06999998 -0.05086305 0.05348457
v -0.06999999 -0.06351658 -0.01649157
v -0.06999999 -0.05501933 0.05438258
v -0.07000001 0.07824521 0.03765448
v -0.06999999 0.07753724 0.03317971
v -0.07000001 0.06417401 0.06660835
v -0.02713650 0.06751547 -0.02125862
v -0.06999999 0.05710166 0.08642850
v -0.07000001 0.07726543 -0.04594549
v -0.06999999 0.08336930 -0.04662090
v -0.06999999 -0.01449368 0.08737350
v -0.06999998 -0.02386687 0.08512688
v -0.06999999 -0.01972835 0.09701855
v -0.06999998 -0.04816201 0.07776491
v -0.06999998 -0.05535465 0.05700010
v -0.06999998 -0.05045694 0.09211062
v -0.06999999 -0.04557502 0.07523409
v -0.06999998 -0.05015541 0.05795939
v -0.06999999 0.08914565 0.06812441
v -0.06999999 0.05454786 0.07606579
v -0.06999999 0.09359044 -0.05210026
v -0.07000001 0.08240131 0.03675647
v -0.06999999 0.08273668 0.03413892
v -0.06999999 -0.02211143 0.09929670
v -0.06999999 -0.02914892 0.10972413
v -0.06999999 -0.02221687 0.10286393
v -0.07000000 -0.02772335 0.08142398
v -0.07000000 0.06135412 0.08419714
v -0.06999998 -0.01397293 0.09915847
v -0.06999998 -0.04401266 0.07682601
v -0.06999999 0.06432381 0.08562890
v -0.07000002 0.08516034 -0.04368858
v -0.06999893 0.08668613 0.08235004
v -0.07000000 -0.04659985 0.07935697
v -0.07000001 0.08314876 -0.03918716
v -0.06999999 0.07875369 0.08998186
v -0.07000000 0.06797116 -0.03756013
v -0.03595460 0.06750393 -0.01959737
v -0.03219325 0.06837932 -0.02052779
v -0.07000000 -0.05786490 -0.02610453
v -0.07000000 0.05964530 -0.04468254
v -0.06999999 -0.07501769 -0.02186527
v -0.06999998 -0.08103212 -0.02062445
v -0.06999933 -0.04664002 0.10057989
v -0.06999998 -0.08118142 -0.01557897
v -0.07000001 0.05955745 0.10130908
v -0.06999999 -0.01668586 0.10552999
v -0.07000000 0.06272923 0.09289328
v -0.06999998 -0.01217004 0.11278046
v -0.07000000 0.01451352 0.11213996
v -0.06999999 -0.07525147 -0.01398411
v -0.07000000 0.06511220 0.09061505
v -0.07000000 -0.07309097 -0.01647438
v -0.06999999 0.01343194 0.08708795
v -0.06999999 0.07709606 -0.04022315
v -0.06157327 0.09267137 -0.05192765
v -0.02860725 0.06638951 -0.02327935
v -0.06027772 0.08300930 -0.05118100
v -0.06250009 0.06648530 0.08217701
v -0.06108659 0.07061456 0.06738069
v -0.06123417 0.06926445 0.08660866
v -0.06146641 0.08579034 0.07963301
v -0.06047376 0.08857660 -0.03976896
v -0.06102598 0.08182382 0.03741185
v -0.06097443 0.08133116 0.03246062
v -0.06095506 0.05279409 0.08642230
v -0.06101120 0.05345448 0.09265540
v -0.06123807 0.06459806 0.09643771
v -0.06043513 0.08895847 -0.04498342
v -0.06091946 0.07685158 0.03511950
v -0.06025031 0.07445364 -0.03716199
v -0.06038184 0.08065347 -0.03445623
v -0.06250006 0.06918173 0.09112994
v -0.06018149 0.07240719 -0.04097754
v -0.06019773 0.06850886 0.06611587
v -0.04186309 0.06754847 -0.02973273
v -0.04184038 0.06753524 -0.02640931
v 0.01736669 0.06690100 -0.05193755
v 0.00356567 0.06718706 0.00443254
v 0.01938008 0.06128229 -0.01209362
v 0.01764858 0.06107960 -0.00134197
v 0.03442851 0.05431068 -0.00846135
v 0.03210852 0.05694181 -0.01651454
v 0.03943540 0.05600204 -0.02283884
v 0.04631141 0.05559829 -0.02921529
v 0.00754154 0.06723158 -0.01046565
v 0.00347549 0.06718851 0.00474870
v 0.02448855 0.05967550 -0.02606339
v 0.05784392 0.04912957 -0.01283835
v 0.06220138 0.05298806 -0.02498325
v 0.04063719 0.04080763 0.00678377
v 0.03093959 0.04762254 0.00937730
v 0.03298120 0.04293311 0.01283119
v 0.04403242 0.02759121 0.01330326
v 0.05294882 0.02022155 0.01215103
v 0.05244222 0.00784830 0.01509919
v 0.04227820 0.02256203 0.01660403
v -0.03824473 0.06642219 -0.03200484
v -0.03955436 0.06839313 -0.02423574
v -0.03800720 0.06639171 -0.02387153
v 0.03425772 0.03431853 0.01910364
v 0.03675780 0.01554728 0.02421493
v 0.05795622 0.03867608 0.00036751
v 0.05245300 0.03715956 0.00343435
v 0.02750194 0.05381920 0.00249575
v 0.01193475 0.06224198 0.01134420
v 0.05917950 0.00781867 0.01372831
v 0.05323090 0.03074857 0.00749325
v -0.03473867 0.06643127 -0.03442859
v -0.03380698 0.06843588 -0.03566088
v 0.01988733 0.05426108 0.01799737
v 0.04857041 0.04557295 -0.00341689
v 0.04736292 0.00699947 0.01710230
v 0.03090821 0.02456936 0.02935048
v -0.02784687 0.06642260 -0.03212470
v 0.04204412 0.00855574 0.02016026
v 0.05053511 -0.02362607 0.01255823
v 0.04001392 -0.02309736 0.01790172
v 0.03991532 -0.03536547 0.00994805
v 0.03573850 0.00686746 0.02694794
v 0.06122711 -0.02598526 0.00862669
v 0.04400592 -0.00596052 0.01949321
v 0.04272430 -0.01359732 0.01925740
v 0.04927411 -0.00565318 0.01695028
v 0.05618940 -0.01373977 0.01394811
v 0.03455900 -0.02529626 0.02116339
v 0.02872276 -0.03563266 0.01821964
v 0.05868070 -0.00359365 0.01456676
v 0.03497931 -0.01516223 0.02555326
v 0.03719231 -0.00655070 0.02509864
v 0.02974421 -0.03076275 0.02206507
v -0.04444129 0.06255988 0.07395764
v -0.05767508 0.06414209 0.07369784
v -0.05761517 0.06144442 0.07648630
v -0.03106624 0.06484300 0.06932387
v -0.05746567 0.06615767 0.06990560
v -0.01547594 0.06632940 0.06141528
v -0.00969559 0.06558941 0.05629896
v -0.03775515 0.06631052 -0.00213328
v -0.02183750 0.06625263 0.01333603
v -0.02657783 0.06623127 0.01904957
v 0.00347556 -0.04979137 0.02324628
v -0.04608615 -0.02016812 0.08911171
v -0.05758941 -0.01900227 0.09059866
v -0.05792284 -0.02410680 0.08888490
v -0.05752593 -0.02884256 0.08475373
v -0.04037720 -0.02909360 0.08366268
v -0.03044075 -0.02776672 0.08376671
v -0.01427359 -0.03192732 0.07587963
v -0.01707781 -0.02785197 0.08024356
v -0.06250004 -0.08552586 -0.02041172
v -0.06250004 -0.08310980 -0.02428148
v -0.06250004 -0.07486391 -0.02614310
v -0.06250005 -0.06970625 -0.02175618
v -0.06250007 -0.06918124 -0.01556932
v -0.06250005 -0.02579588 0.09773844
v -0.06250005 -0.01649373 0.09282509
v -0.06250007 -0.02436408 0.10688394
v -0.06250005 -0.01206391 0.09509191
v -0.06250005 -0.00983638 0.10362493
v -0.05773258 -0.01043504 0.09194071
v -0.05708702 0.01456826 0.09155036
v -0.05938299 0.02145796 0.09186046
v -0.06235117 -0.01883942 0.11114404
v -0.06172913 0.01925944 0.11060862
v -0.06195818 0.00882896 0.11178244
v -0.06253860 -0.03501796 0.10678919
v -0.06260811 -0.04507767 0.10133749
v -0.06255782 -0.05008565 0.09079367
v -0.06239241 0.06599540 0.09734184
v -0.06208264 0.04190480 0.10628921
v -0.06247336 0.07437920 0.09225834
v -0.06184519 0.08739726 0.07596349
v -0.06259502 0.08816501 0.07199982
v -0.06258650 0.08496829 0.08322416
v -0.06250006 0.08012902 -0.03862228
v -0.06250007 0.07647968 -0.04168909
v 0.01467294 0.06752356 -0.05910805
v 0.01153266 0.07150229 -0.05715153
v 0.01108736 0.07075118 -0.05589841
v -0.06250007 0.08326696 -0.03942762
v -0.06250007 0.08506031 -0.04278953
v -0.06250006 0.06521565 0.08990718
v -0.06250006 0.05761890 0.09150179
v -0.06250007 0.06045547 0.09306666
v 0.01133984 0.06750482 -0.05402902
v -0.05682368 0.06764718 -0.07309203
v 0.00609492 0.06754585 -0.06510469
v -0.05678010 0.06756951 -0.06178359
v -0.06250008 0.06486432 0.08660171
v -0.06250006 -0.02240517 0.10127170
v -0.06250007 -0.02013003 0.10505036
v -0.05995560 0.07152161 -0.06502583
v -0.06250006 -0.01429616 0.10355251
v -0.06250005 -0.01372408 0.10031704
v -0.06250006 -0.08120832 -0.01588381
v -0.06250004 -0.07871535 -0.01381371
v -0.06250007 -0.07326645 -0.01637978
v -0.06250007 -0.07396277 -0.02078373
v -0.05985272 0.07094751 -0.07151062
v 0.00645412 0.07098865 -0.06295341
v -0.06625284 0.02904598 0.08439264
v -0.06630260 0.04954023 0.07826187
v -0.06638296 0.06125025 0.07174867
v -0.06629473 -0.00828561 0.08786539
v -0.06625146 0.01235741 0.08710805
v -0.06638442 -0.02362977 0.08508869
v -0.05990344 0.07152767 -0.07051627
v -0.06646436 -0.02772597 0.08109606
v -0.06824243 -0.06342536 -0.01638626
v -0.06834769 -0.06246570 -0.02264177
v -0.06839406 -0.05757160 -0.02610650
v -0.06839383 0.05971701 -0.04463772
v -0.06824285 0.06792845 -0.03717903
v -0.06646162 0.06403526 0.06674905
v -0.06250007 0.05377186 0.08420359
v -0.06029648 0.05709879 0.08113205
v -0.06250007 0.06052667 0.08019921
v -0.05746316 0.03876110 0.08656362
v -0.05747789 0.05111384 0.08212492
v -0.06250007 0.07251047 -0.04540166
v -0.06250006 0.07492641 -0.04927133
v -0.06250006 0.08317243 -0.05113303
v -0.06250007 0.08885507 -0.04055941
v -0.03336764 -0.05462457 -0.01677913
v -0.03667248 -0.05902071 -0.01415279
v -0.03314866 -0.05380551 -0.01429768
v -0.03363520 -0.05867111 -0.01308813
v 0.00188732 0.05961881 0.04374141
v 0.01063363 0.05149278 0.03987920
v 0.00755064 0.04748350 0.04906165
v -0.02486749 0.04903791 0.07798047
v -0.02907127 0.05657527 0.07525520
v -0.03705406 0.05337568 0.07850178
v -0.01315027 0.06243275 0.06503197
v -0.03155554 -0.05219789 -0.00940413
v -0.04207158 -0.05326669 -0.01265748
v -0.04204875 -0.05804513 -0.01118291
v -0.02328438 0.02665084 0.08480038
v -0.02984882 0.03530990 0.08406460
v -0.03840781 0.02634885 0.08800071
v 0.00701833 0.02041025 0.06161966
v 0.01850073 0.02139650 0.04689318
v -0.00290015 0.04003222 0.06866249
v -0.02009083 0.03847333 0.08049449
v -0.04039159 0.03977378 0.08444689
v -0.02415723 0.06070675 0.07130949
v -0.01826019 0.05349499 0.07383828
v -0.01993716 0.01885708 0.08521958
v -0.02407367 0.01208432 0.08722029
v -0.03093565 -0.05954145 -0.00292120
v -0.03130354 -0.06207634 -0.01063764
v -0.02903343 -0.05743147 -0.00772285
v -0.01527727 0.02815086 0.08160252
v -0.04476554 -0.06143005 -0.00866987
v -0.04316300 -0.05756685 -0.00652297
v -0.04320979 -0.05887221 -0.01049635
v -0.01062193 0.03824509 0.07638753
v -0.00937849 0.05691316 0.06690525
v -0.00813127 0.06298128 0.05892444
v -0.00622287 0.02201794 0.07709559
v -0.03672259 -0.06352478 -0.01504690
v -0.03262918 -0.05982291 -0.01507216
v -0.04145509 -0.05954239 -0.01515839
v -0.01031780 0.01058828 0.08179676
v -0.00480021 0.05367047 0.06397302
v 0.00784391 0.04104730 0.05311525
v -0.03093596 0.01274216 0.08874138
v -0.05080278 0.02258982 0.09007253
v -0.04586190 -0.06077553 -0.00944984
v -0.04025287 -0.05762912 0.00014313
v 0.02416269 0.01017975 0.04177556
v -0.04269547 -0.06930272 -0.00924504
v -0.04341673 -0.07093675 -0.00503356
v -0.04387933 -0.06156979 -0.00589138
v -0.03130472 -0.06930272 -0.00924503
v -0.03681809 -0.07022133 -0.01204139
v -0.03390210 -0.06455301 -0.01539985
v -0.04227507 -0.06348184 -0.01171201
v -0.02809817 -0.06237857 -0.00878811
v -0.04500986 -0.00916100 0.09075852
v -0.04100474 0.00263089 0.09068235
v -0.02577883 -0.00927700 0.08756694
v -0.02771282 -0.01776494 0.08680161
v -0.02997584 -0.06785553 -0.00483968
v -0.03019674 -0.06257938 -0.00896466
v -0.01581836 -0.01926363 0.08306886
v -0.01430345 0.00480465 0.08422215
v -0.04169375 0.00905681 0.09064333
v -0.02225243 -0.02261506 0.08423086
v -0.00272971 -0.00206406 0.07551975
v 0.01216531 0.00607830 0.05709417
v -0.00289577 0.00352483 0.07559932
v -0.00974133 -0.00031405 0.08193655
v -0.00985623 -0.03182208 0.07268114
v 0.00503731 -0.02521574 0.05836518
v -0.00739670 -0.02772139 0.07369815
v 0.00673944 -0.03311279 0.04882541
v 0.00410597 -0.01435421 0.06488450
v -0.00774878 -0.01139448 0.08000205
v -0.00520033 -0.01970723 0.07553854
v -0.00977410 -0.02189510 0.07911999
v -0.04502351 0.06626957 0.00880071
v -0.04012997 0.06623307 0.01856560
v -0.03050007 0.06669589 0.02850099
v -0.03288537 0.06670087 0.02715464
v -0.03335518 -0.07158393 -0.00855889
v -0.04178101 -0.07207461 -0.00860518
v -0.03446110 0.06718815 -0.00954939
v -0.03288538 0.06720386 -0.01372250
v -0.03063374 -0.07104363 -0.00534337
v -0.03869439 -0.05584375 0.00464991
v -0.03869838 -0.05551477 0.00452965
v -0.03890460 -0.05548193 0.00462965
v -0.03910177 -0.05543743 0.00476515
v -0.03927452 -0.05538489 0.00492542
v -0.03958255 -0.05515642 0.00562045
v -0.03939837 -0.05565800 0.00521513
v -0.03940385 -0.05533000 0.00509206
v -0.03949827 -0.05527170 0.00526926
v -0.03955949 -0.05520747 0.00546536
v -0.03688539 -0.05389884 0.00944861
v -0.00646769 -0.05527133 0.00527118
v -0.00471830 -0.05538984 0.00491017
v -0.00694823 -0.05515047 0.00563851
v -0.00755011 -0.05534108 0.00505826
v -0.00783354 -0.05526281 0.00529644
v -0.00454348 -0.05527920 0.00524654
v -0.00688536 -0.05389890 0.00944861
v -0.00733536 -0.05504436 0.00596125
v -0.00485229 -0.05543577 0.00477025
v -0.00501931 -0.05547644 0.00464681
v -0.00471831 -0.05538984 0.00491023
v -0.00523621 -0.05551422 0.00453120
v -0.00461936 -0.05533962 0.00506269
v -0.00578986 -0.05556121 0.00438895
v -0.00543994 -0.05553787 0.00445962
v -0.02188546 -0.04032261 0.05077587
v -0.06250006 -0.07993768 -0.02154340
v -0.06250006 -0.07159733 -0.01169963
v -0.06250004 -0.07984324 -0.00983807
v -0.03747756 -0.06873809 0.00167571
v -0.03973234 -0.06880876 -0.00002700
v -0.06250007 -0.01828278 0.09681871
v -0.03653192 -0.06098290 -0.00186187
v -0.03256830 -0.06928249 0.00000315
v -0.06250006 -0.01641134 0.10957980
v -0.04251396 -0.06255306 -0.00664155
v -0.03301788 -0.06150837 -0.00346144
v -0.04071236 -0.06141654 -0.00318193
v -0.03158628 -0.06304237 -0.00813129
v -0.06250008 0.07747773 -0.04598516
v -0.06250006 0.07819328 -0.03482792
v -0.06250007 0.07432757 -0.03729957
v -0.06250006 0.08348888 -0.04636071
v -0.06250006 0.05913777 0.08473379
v -0.06250007 0.05548389 0.09519914
v -0.06737335 0.01188849 0.02211239
v -0.06735446 0.01977408 0.02196353
v -0.06747252 0.01518012 0.01584282
v -0.06753976 0.02130731 0.01097243
v -0.06726808 0.02373749 0.02634151
v -0.06836034 0.06425613 -0.04341495
v -0.06660682 0.00321100 0.06794661
v -0.06716770 0.02392442 0.03213448
v -0.06711175 0.02513733 0.03519386
v -0.06700171 0.01521360 0.04314083
v -0.06684822 0.02135924 0.05107246
v -0.06700110 0.01939760 0.04251507
v -0.06730604 0.01249087 0.02592203
v -0.06685394 0.01054180 0.05245101
v -0.06718080 0.00186125 0.03486223
v -0.06700169 0.00346413 0.04499876
v -0.06635595 0.02031773 0.07979125
v -0.06711173 0.01840820 0.03625791
v -0.06751430 0.02224864 0.04130259
v -0.06664289 0.03185069 0.06132198
v -0.06782180 0.00846622 0.02564643
v -0.06773329 0.00750315 0.03093454
v -0.06718080 0.01361075 0.03300428
v -0.06741625 0.02244386 0.01789141
v -0.06674432 0.00402351 0.05983984
v -0.06828767 0.00370678 -0.02962845
v -0.06714761 0.00722765 0.03594011
v -0.06751717 -0.00114821 0.01583059
v -0.06762391 0.00964601 0.00793112
v -0.06762391 -0.00210358 0.00978905
v -0.06746286 -0.00066259 0.01890183
v -0.06735820 0.00323519 0.02436025
v -0.06826657 0.00392437 0.00056988
v -0.06781560 -0.00381789 -0.00105269
v -0.06781560 0.00793164 -0.00291063
v -0.06817311 0.00192068 0.00630638
v -0.06840950 0.00047370 -0.00717500
v -0.06798928 -0.00537307 -0.01088722
v -0.06785709 -0.00418942 -0.00340208
v -0.06785710 0.00756016 -0.00526002
v -0.06805569 0.00578874 -0.01651725
v -0.06847291 -0.00035870 -0.01072003
v -0.06814593 -0.00677426 -0.01974833
v -0.06643420 0.02975726 0.07376059
v -0.06700109 0.02612673 0.04145099
v -0.06721526 0.01748112 0.03039485
v -0.06820023 -0.00725986 -0.02281957
v -0.06755418 0.00808230 0.04123296
v -0.04144955 -0.05511187 -0.01662444
v -0.04151333 -0.05672863 -0.01609622
v -0.04496939 -0.05342703 -0.01132952
v -0.06871670 0.00216067 -0.02525868
v -0.06862552 0.00297650 -0.02009964
v -0.06803365 0.00827246 0.01339151
v -0.06794245 0.00908818 0.01855070
v -0.04443413 -0.05477281 -0.00648660
v -0.04058791 -0.05044987 -0.00406953
v -0.04149329 -0.05210439 -0.00351612
v -0.03940392 -0.05532996 0.00509218
v -0.03926747 -0.05571410 0.00504471
v -0.03927458 -0.05538483 0.00492549
v -0.03926747 -0.05571410 0.00504465
v -0.03903162 -0.05579009 0.00481559
v -0.03910184 -0.05543742 0.00476520
v -0.03890467 -0.05548193 0.00462970
v -0.04151356 -0.05815374 -0.01562803
v -0.03869844 -0.05551476 0.00452972
v -0.03955955 -0.05520746 0.00546547
v -0.03949827 -0.05527166 0.00526931
v -0.00664313 -0.05557092 0.00547997
v -0.00734352 -0.05537983 0.00606185
v -0.00694824 -0.05515062 0.00563852
v -0.00544000 -0.05553787 0.00445961
v -0.00523627 -0.05551429 0.00453122
v -0.00501937 -0.05547645 0.00464681
v -0.00485235 -0.05543577 0.00477025
v -0.00461940 -0.05533981 0.00506264
v -0.00782542 -0.05559254 0.00541436
v -0.00783348 -0.05526281 0.00529644
v -0.00750411 -0.05568187 0.00514377
v -0.06698928 0.00606836 0.07431208
v -0.06733096 0.02336370 0.05176204
v -0.04143649 -0.05492646 -0.00259969
v -0.06700261 0.02274323 0.07090280
v -0.06713463 0.02477731 0.06292673
v -0.06707901 0.01894294 0.06707510
v -0.06703299 0.00964679 0.07121262
v -0.06724954 0.01438265 0.05790583
v -0.06711519 0.01266024 0.06596615
v -0.06717277 0.00695660 0.06353293
v -0.06720233 0.00997295 0.06134306
v -0.02942873 -0.05256035 -0.01041838
v -0.03252834 -0.05186077 -0.00359346
v -0.03001755 -0.05308415 -0.01024657
v -0.02898039 -0.05376394 -0.01002458
v -0.03082001 -0.05936027 -0.01353145
v -0.03185929 -0.05966350 -0.01453585
v -0.03156764 -0.05863606 -0.01312332
v -0.03206437 -0.05970789 -0.01470013
v -0.03250611 -0.05701585 -0.01600851
v -0.03080045 -0.05806208 -0.01397531
v -0.03347301 -0.05614321 -0.00219400
v -0.03251196 -0.05327031 -0.00313051
v -0.02898615 -0.05529710 -0.00990030
v -0.05373460 -0.03877896 -0.09608317
v -0.03677189 -0.03586878 -0.09346695
v -0.04686267 -0.02986709 -0.09951558
v -0.02698697 -0.03048863 -0.09477830
v -0.05882263 -0.02722029 -0.10417791
v -0.03740132 -0.01682307 -0.10244182
v -0.02939313 -0.02235144 -0.09909353
v -0.01510892 -0.01825228 -0.09827226
v -0.00991671 -0.03058311 -0.09197133
v 0.01198262 -0.02931375 -0.09028020
v 0.02242442 -0.03648424 -0.08427168
v 0.01198184 -0.01740011 -0.09565863
v 0.03829961 -0.02404889 -0.09145359
v 0.05210552 -0.03304184 -0.08557878
v 0.03723511 -0.04497673 -0.07409690
v 0.03931809 -0.03855120 -0.08133866
v 0.03381843 -0.01886006 -0.09380402
v -0.03316528 -0.06351685 -0.00765307
v -0.03634275 -0.06203041 -0.00312837
v -0.03382820 -0.07072663 -0.00189174
v -0.03789157 -0.06872853 -0.00172995
v -0.03437740 -0.06940911 -0.00380158
v -0.03411733 -0.07025278 -0.00636990
v -0.03462923 -0.06915819 -0.00303751
v -0.03722674 -0.06993781 -0.00541098
v -0.03711146 -0.06942144 -0.00383909
v -0.03550699 -0.07050917 -0.00715076
v -0.03783906 -0.07012894 -0.00599295
v -0.03795563 -0.07071181 -0.00776742
v -0.03803289 -0.07050128 -0.00712648
v -0.03951484 -0.07242372 -0.00716011
v -0.03581882 -0.07070246 -0.00773879
v -0.03901612 -0.07125445 -0.00301374
v -0.03805548 -0.06894217 -0.00238051
v -0.03958475 -0.06908359 -0.00281066
v -0.03407915 -0.06925854 -0.00334351
v -0.03592378 -0.06902722 -0.00263908
v -0.03571964 -0.06876985 -0.00185588
v -0.03734149 -0.06882909 -0.00203588
v -0.03965461 -0.06961879 -0.00444030
v -0.03962667 -0.06982610 -0.00507121
v -0.03896302 -0.07021600 -0.00625791
v -0.03905624 -0.07039128 -0.00679124
v -0.03743910 -0.07052803 -0.00720765
v -0.03433109 -0.07005625 -0.00577157
v -0.03581625 -0.06960274 -0.00439090
v -0.03551370 -0.06978721 -0.00495257
v -0.03611738 -0.06983648 -0.00510299
v -0.03755003 -0.06955516 -0.00424640
v -0.03895128 -0.06910287 -0.00286933
v -0.03957028 -0.06927364 -0.00338911
v -0.03764546 -0.06931165 -0.00350500
v -0.03782332 -0.06993777 -0.00541099
v -0.03480900 -0.07025328 -0.00637173
v -0.03626054 -0.07056785 -0.00732938
v -0.03954226 -0.07017142 -0.00612224
v -0.04029446 -0.06968853 -0.00465231
v -0.03626972 -0.06887037 -0.00216173
v -0.04106404 -0.06314459 -0.00652004
v -0.03837801 -0.06447198 -0.01056056
v -0.04218161 -0.05661586 -0.00683199
v -0.04041535 -0.05115319 -0.00622409
v -0.03450775 -0.05572309 -0.00411414
v -0.03463519 -0.05095358 -0.00561623
v -0.04199553 -0.05976828 -0.00361135
v -0.03892297 -0.05871734 -0.00041237
v -0.02824068 -0.06073386 -0.00963360
v -0.04266911 -0.06410368 -0.01404115
v -0.03114560 -0.06240105 -0.01439830
v -0.02806473 -0.06147208 -0.00603054
v -0.04262269 -0.05968989 -0.00061357
v -0.03839243 -0.05987544 -0.00073372
v -0.03381479 -0.05925398 0.00071219
v -0.03450251 -0.06596595 0.00091203
v -0.03189636 -0.06550692 -0.00121826
v -0.03974665 -0.06599111 0.00083559
v -0.04287530 -0.06695801 -0.00210778
v -0.03840454 -0.07196984 -0.00966125
v -0.03450876 -0.06424162 -0.01178195
v -0.04054785 -0.06403440 -0.01115099
f 1 2 3
f 4 1 3
f 5 6 7
f 8 9 10
f 11 9 8
f 12 9 11
f 13 12 11
f 10 12 13
f 7 6 14
f 15 16 1
f 2 16 15
f 17 18 19
f 17 5 18
f 5 20 18
f 7 14 21
f 5 21 14
f 3 2 15
f 4 22 1
f 23 8 24
f 8 10 24
f 24 10 13
f 13 25 5
f 26 27 28
f 5 7 29
f 29 30 20
f 30 31 20
f 22 15 31
f 32 31 7
f 33 7 34
f 26 35 36
f 26 36 27
f 33 32 7
f 32 37 31
f 37 22 31
f 37 23 22
f 26 38 35
f 37 39 23
f 23 39 13
f 39 33 13
f 33 34 13
f 40 41 38
f 17 31 15
f 20 31 17
f 15 23 24
f 29 20 5
f 5 24 13
f 17 24 5
f 40 38 26
f 20 17 19
f 42 7 30
f 7 42 43
f 30 7 31
f 22 3 15
f 29 43 30
f 5 25 21
f 43 42 44
f 43 44 30
f 15 1 23
f 13 11 23
f 34 25 13
f 1 22 23
f 7 21 34
f 45 46 47
f 48 49 50
f 51 52 53
f 52 54 53
f 55 56 57
f 56 58 59
f 58 60 59
f 58 61 60
f 56 59 62
f 61 63 64
f 61 55 63
f 55 57 63
f 61 64 60
f 57 56 62
f 65 66 67
f 68 51 69
f 28 38 36
f 70 71 72
f 68 73 51
f 68 70 73
f 74 52 72
f 74 75 52
f 70 72 73
f 76 67 77
f 67 78 77
f 66 78 67
f 71 74 72
f 79 80 81
f 75 82 52
f 75 83 82
f 80 69 81
f 84 85 38
f 83 79 82
f 85 28 36
f 79 81 82
f 80 68 69
f 78 86 77
f 78 87 88
f 77 86 89
f 86 78 88
f 87 90 88
f 66 87 78
f 91 90 92
f 93 94 92
f 91 88 90
f 91 95 88
f 93 92 96
f 94 91 92
f 97 98 99
f 99 96 97
f 52 73 72
f 100 52 82
f 52 51 73
f 100 82 101
f 82 81 101
f 81 69 101
f 101 102 103
f 103 102 91
f 104 53 105
f 105 53 54
f 69 53 104
f 69 51 53
f 101 104 102
f 101 69 104
f 104 91 102
f 106 100 103
f 100 101 103
f 52 106 54
f 106 52 100
f 104 95 91
f 54 107 105
f 107 54 93
f 93 54 106
f 91 94 103
f 93 106 94
f 94 106 103
f 105 95 104
f 96 99 108
f 109 108 99
f 28 85 84
f 110 99 98
f 111 109 99
f 111 99 110
f 95 89 88
f 107 93 96
f 95 105 89
f 105 107 89
f 112 62 113
f 57 62 112
f 63 57 112
f 114 63 112
f 64 63 114
f 115 64 114
f 60 64 115
f 76 60 115
f 59 60 76
f 116 59 76
f 62 59 116
f 113 62 116
f 108 89 107
f 108 107 96
f 97 96 92
f 89 86 88
f 76 117 116
f 76 115 67
f 67 114 65
f 67 115 114
f 65 114 66
f 116 117 113
f 66 112 110
f 66 114 112
f 113 111 112
f 112 111 110
f 97 92 98
f 92 90 98
f 98 87 66
f 98 66 110
f 98 90 87
f 113 109 111
f 113 117 109
f 89 108 77
f 77 108 109
f 77 109 117
f 77 117 76
f 74 118 119
f 70 68 120
f 71 70 121
f 122 123 124
f 38 41 125
f 119 83 75
f 126 80 79
f 127 68 80
f 74 119 75
f 71 118 74
f 68 127 120
f 79 128 126
f 79 83 128
f 80 129 127
f 84 38 125
f 83 119 128
f 80 126 129
f 130 131 132
f 131 130 133
f 123 131 124
f 134 130 132
f 131 133 124
f 135 133 136
f 124 133 135
f 136 130 134
f 124 135 137
f 120 137 121
f 138 134 118
f 71 138 118
f 124 137 120
f 121 138 71
f 127 124 120
f 138 121 137
f 128 131 126
f 122 124 127
f 132 131 128
f 129 122 127
f 119 132 128
f 123 122 129
f 126 123 129
f 134 132 119
f 131 123 126
f 28 84 139
f 118 134 119
f 138 135 134
f 138 137 135
f 136 134 135
f 121 70 120
f 140 141 142
f 141 143 142
f 139 144 28
f 141 145 143
f 145 146 143
f 140 142 147
f 147 148 140
f 148 149 140
f 150 140 149
f 151 152 153
f 152 154 153
f 152 155 154
f 152 150 155
f 145 151 146
f 151 153 146
f 150 149 155
f 156 153 157
f 156 157 154
f 158 159 160
f 159 158 161
f 156 160 159
f 156 161 158
f 162 163 153
f 153 163 146
f 143 164 165
f 165 166 162
f 164 162 166
f 162 164 143
f 143 158 167
f 143 167 168
f 142 168 169
f 147 169 148
f 148 169 168
f 155 149 170
f 170 149 160
f 156 154 170
f 146 162 143
f 156 170 160
f 162 153 156
f 158 160 168
f 162 156 158
f 162 158 165
f 160 148 168
f 171 172 173
f 172 174 173
f 175 40 176
f 41 40 175
f 165 158 143
f 143 168 142
f 177 154 155
f 154 177 170
f 178 179 180
f 178 181 179
f 174 41 173
f 40 26 176
f 181 182 179
f 176 26 183
f 181 184 182
f 173 41 175
f 185 186 187
f 185 188 186
f 188 189 186
f 188 190 189
f 191 192 193
f 192 194 193
f 192 195 194
f 195 196 194
f 195 197 196
f 197 198 196
f 197 199 198
f 197 200 199
f 197 201 200
f 202 203 204
f 201 205 200
f 206 207 208
f 207 209 208
f 207 210 209
f 210 191 209
f 211 212 213
f 214 215 216
f 217 211 213
f 218 211 217
f 212 215 214
f 213 212 214
f 216 219 220
f 215 219 216
f 221 218 217
f 222 202 204
f 223 202 222
f 183 224 225
f 219 223 222
f 220 219 222
f 223 203 202
f 215 223 219
f 211 218 226
f 204 203 227
f 228 211 226
f 229 226 221
f 228 226 229
f 227 228 229
f 203 228 227
f 226 218 221
f 203 230 231
f 203 231 228
f 232 215 233
f 233 215 212
f 234 228 231
f 211 228 234
f 233 212 211
f 223 235 230
f 223 230 203
f 233 211 236
f 237 176 183
f 232 235 223
f 236 211 234
f 215 232 223
f 238 239 236
f 233 240 232
f 234 238 236
f 241 240 233
f 242 238 234
f 236 241 233
f 240 243 232
f 244 242 234
f 239 241 236
f 206 245 200
f 246 242 247
f 246 238 242
f 246 248 238
f 248 239 238
f 248 249 239
f 250 243 249
f 250 251 243
f 251 252 243
f 200 251 199
f 199 251 250
f 200 245 251
f 208 253 254
f 245 255 251
f 208 209 253
f 245 206 255
f 209 256 253
f 206 254 255
f 206 208 254
f 205 206 200
f 193 209 191
f 246 209 193
f 256 209 246
f 193 194 246
f 196 198 257
f 198 249 257
f 194 248 246
f 198 199 249
f 199 250 249
f 194 257 248
f 194 196 257
f 249 248 257
f 125 41 174
f 231 244 234
f 258 244 231
f 259 258 230
f 230 258 231
f 251 255 252
f 255 254 252
f 254 260 252
f 254 253 260
f 253 247 260
f 253 256 247
f 256 246 247
f 235 260 230
f 261 260 235
f 243 261 235
f 232 243 235
f 260 259 230
f 260 258 259
f 243 240 249
f 260 247 258
f 258 247 244
f 240 241 249
f 241 239 249
f 174 172 139
f 244 247 242
f 252 260 261
f 252 261 243
f 206 205 207
f 189 205 201
f 189 262 205
f 262 263 205
f 263 207 205
f 263 264 207
f 264 210 207
f 264 179 210
f 179 191 210
f 179 192 191
f 179 182 192
f 182 195 192
f 182 187 195
f 187 197 195
f 187 189 197
f 189 201 197
f 189 187 186
f 264 180 179
f 265 262 189
f 266 267 268
f 267 269 270
f 269 271 272
f 269 273 271
f 273 181 271
f 273 274 181
f 274 184 181
f 274 185 184
f 185 190 188
f 185 266 190
f 266 268 190
f 190 268 189
f 268 265 189
f 268 267 265
f 267 270 265
f 270 262 265
f 270 263 262
f 269 264 263
f 269 272 264
f 272 180 264
f 272 271 180
f 271 178 180
f 271 181 178
f 184 187 182
f 185 187 184
f 270 269 263
f 275 276 277
f 278 279 277
f 278 277 276
f 278 275 280
f 280 275 281
f 275 277 281
f 278 280 279
f 282 283 284
f 284 285 286
f 285 283 286
f 287 286 283
f 286 282 284
f 282 287 283
f 288 289 290
f 290 289 291
f 291 289 292
f 293 291 292
f 294 295 296
f 293 294 296
f 297 293 296
f 298 299 295
f 296 295 299
f 299 288 290
f 299 298 288
f 292 289 288
f 295 294 298
f 294 288 298
f 292 288 294
f 293 292 294
f 290 291 296
f 290 296 299
f 296 291 297
f 297 291 293
f 300 301 302
f 302 303 304
f 305 302 306
f 302 304 307
f 301 308 302
f 306 302 309
f 308 310 302
f 310 311 302
f 311 312 302
f 309 302 313
f 312 314 302
f 313 302 315
f 314 316 302
f 315 302 317
f 316 318 302
f 317 302 319
f 318 320 302
f 320 321 302
f 319 302 322
f 323 324 302
f 323 302 325
f 324 326 302
f 139 172 144
f 321 327 302
f 326 300 302
f 302 327 328
f 302 328 303
f 325 302 305
f 329 330 331
f 331 330 332
f 333 329 334
f 335 336 337
f 338 335 339
f 332 337 340
f 336 340 337
f 336 335 338
f 341 342 343
f 344 341 343
f 345 346 347
f 348 346 343
f 346 348 349
f 125 174 139
f 28 35 38
f 27 35 28
f 350 342 351
f 342 341 351
f 352 353 341
f 224 144 171
f 344 352 341
f 26 28 183
f 144 172 171
f 354 352 344
f 343 354 344
f 355 356 357
f 355 358 356
f 183 28 224
f 359 360 361
f 360 362 361
f 363 364 365
f 357 356 360
f 360 366 362
f 28 144 224
f 360 367 366
f 368 225 224
f 360 356 367
f 365 364 369
f 370 237 183
f 365 369 371
f 365 371 372
f 366 367 373
f 374 375 376
f 373 367 377
f 368 224 171
f 225 370 183
f 374 361 375
f 374 359 361
f 376 364 363
f 376 378 364
f 376 375 378
f 379 321 320
f 380 321 379
f 381 321 380
f 327 321 381
f 310 308 382
f 383 384 385
f 327 381 386
f 383 387 388
f 389 312 311
f 390 391 314
f 392 389 393
f 394 320 318
f 314 312 389
f 392 393 395
f 379 320 394
f 390 383 391
f 318 316 388
f 395 393 396
f 396 393 397
f 389 311 393
f 316 314 391
f 397 310 382
f 394 318 387
f 397 382 398
f 383 388 391
f 399 400 173
f 384 390 389
f 387 318 388
f 401 175 176
f 401 402 175
f 401 176 237
f 397 393 310
f 384 389 392
f 388 316 391
f 390 314 389
f 370 401 237
f 383 390 384
f 402 399 173
f 393 311 310
f 382 308 301
f 403 404 385
f 385 384 392
f 403 385 405
f 406 407 408
f 408 407 396
f 395 405 392
f 408 396 409
f 403 405 406
f 385 392 405
f 407 395 396
f 406 405 395
f 406 395 407
f 410 336 338
f 411 412 413
f 414 415 354
f 416 417 418
f 419 420 412
f 412 421 413
f 416 418 415
f 412 420 422
f 415 418 354
f 412 422 421
f 346 423 424
f 346 345 423
f 421 422 425
f 426 370 225
f 346 411 343
f 346 424 411
f 425 422 414
f 343 411 413
f 400 368 171
f 420 417 422
f 343 413 427
f 424 419 411
f 343 425 354
f 343 427 425
f 424 420 419
f 425 414 354
f 417 416 422
f 428 429 430
f 341 431 432
f 353 433 434
f 431 435 436
f 434 433 437
f 436 435 438
f 351 439 440
f 441 442 440
f 353 443 433
f 437 433 444
f 440 439 428
f 429 438 430
f 430 441 440
f 441 353 445
f 442 353 440
f 442 445 353
f 440 353 434
f 430 446 441
f 429 436 438
f 447 448 449
f 447 449 437
f 440 428 430
f 431 353 435
f 341 353 431
f 450 400 399
f 448 451 449
f 351 341 439
f 452 453 402
f 435 353 446
f 452 402 401
f 341 432 439
f 446 353 441
f 454 455 380
f 456 334 457
f 379 394 380
f 404 458 459
f 453 450 399
f 332 362 366
f 453 399 402
f 452 401 370
f 460 461 361
f 361 461 375
f 459 460 462
f 460 459 461
f 394 387 463
f 380 456 454
f 462 330 464
f 404 464 383
f 463 383 465
f 426 452 370
f 464 330 383
f 463 333 456
f 387 383 463
f 454 456 455
f 456 394 463
f 394 456 380
f 361 362 460
f 460 362 332
f 466 467 368
f 460 332 462
f 466 368 400
f 455 456 468
f 467 426 225
f 462 332 330
f 450 466 400
f 375 461 378
f 458 461 459
f 458 378 461
f 380 455 381
f 464 459 462
f 404 459 464
f 383 330 329
f 465 383 329
f 465 329 333
f 334 456 333
f 383 385 404
f 468 456 457
f 463 465 333
f 403 406 469
f 470 458 403
f 378 458 470
f 470 469 471
f 378 470 364
f 472 408 409
f 470 403 469
f 471 469 406
f 364 471 369
f 458 404 403
f 364 470 471
f 471 406 408
f 369 471 408
f 371 408 472
f 369 408 371
f 339 377 367
f 366 337 332
f 337 366 373
f 337 373 335
f 335 373 377
f 335 377 339
f 349 473 474
f 475 360 359
f 348 476 349
f 475 477 348
f 478 374 479
f 473 480 474
f 348 477 481
f 467 225 368
f 481 482 483
f 484 485 486
f 484 486 487
f 474 480 488
f 474 346 349
f 481 483 489
f 488 484 347
f 484 345 347
f 478 479 482
f 476 489 473
f 481 478 482
f 488 347 346
f 346 474 488
f 488 490 484
f 490 491 484
f 484 491 485
f 488 480 490
f 345 484 492
f 345 492 493
f 360 475 348
f 360 348 343
f 492 484 487
f 376 479 374
f 475 478 481
f 475 359 478
f 359 374 478
f 348 481 476
f 477 475 481
f 481 489 476
f 349 476 473
f 494 489 483
f 350 355 342
f 358 350 356
f 356 350 495
f 357 342 355
f 360 342 357
f 360 343 342
f 358 355 350
f 496 332 340
f 497 498 499
f 500 501 502
f 503 504 505
f 501 506 502
f 504 496 507
f 505 504 498
f 507 496 508
f 506 509 502
f 507 508 510
f 508 496 509
f 507 510 511
f 512 497 499
f 513 452 514
f 513 453 452
f 512 499 515
f 499 502 515
f 509 496 516
f 505 498 497
f 450 517 466
f 499 500 502
f 509 516 502
f 332 496 504
f 332 504 503
f 332 503 512
f 332 512 331
f 511 510 506
f 331 512 515
f 331 515 334
f 511 506 501
f 450 518 517
f 426 467 466
f 331 334 329
f 487 519 520
f 521 522 523
f 453 518 450
f 514 426 466
f 520 492 487
f 420 493 524
f 519 487 486
f 520 420 524
f 315 525 526
f 527 526 525
f 514 452 426
f 513 518 453
f 313 527 521
f 524 492 520
f 315 526 313
f 313 526 527
f 528 529 530
f 313 521 309
f 522 519 523
f 531 532 420
f 531 533 532
f 527 534 521
f 523 519 486
f 527 525 534
f 534 522 521
f 492 524 493
f 525 535 534
f 535 536 534
f 535 537 536
f 521 523 309
f 523 306 309
f 536 420 520
f 536 537 420
f 536 520 522
f 306 523 486
f 525 315 538
f 534 536 522
f 537 531 420
f 522 520 519
f 493 420 424
f 493 424 345
f 440 495 350
f 440 350 351
f 356 495 539
f 540 541 542
f 543 544 545
f 546 547 548
f 528 549 529
f 550 541 540
f 367 551 552
f 553 554 555
f 556 557 558
f 559 557 556
f 560 557 559
f 561 546 548
f 562 541 550
f 367 552 563
f 564 546 561
f 561 565 564
f 566 567 568
f 569 543 560
f 570 562 550
f 571 553 555
f 569 560 572
f 572 560 559
f 573 562 570
f 548 562 573
f 563 552 574
f 561 548 575
f 556 558 576
f 565 577 547
f 575 548 578
f 578 548 573
f 579 548 547
f 569 544 543
f 549 580 581
f 367 582 583
f 367 356 582
f 584 356 585
f 582 356 584
f 569 576 558
f 569 572 576
f 585 356 539
f 569 558 586
f 569 586 567
f 529 549 581
f 585 539 587
f 587 539 545
f 545 539 557
f 557 539 558
f 588 540 542
f 367 583 551
f 563 574 577
f 563 577 565
f 561 563 565
f 582 584 544
f 589 568 567
f 590 540 588
f 591 589 567
f 553 571 592
f 593 587 545
f 592 571 591
f 578 573 594
f 544 584 595
f 591 571 589
f 554 569 567
f 551 583 579
f 566 554 567
f 594 590 588
f 544 593 545
f 596 553 592
f 555 554 566
f 551 579 597
f 578 594 588
f 595 593 544
f 542 596 592
f 541 596 542
f 577 579 547
f 597 579 577
f 367 598 339
f 598 367 563
f 529 581 599
f 598 338 339
f 410 338 600
f 601 602 603
f 602 604 603
f 605 606 607
f 451 608 449
f 609 610 449
f 600 338 611
f 612 606 602
f 606 604 602
f 613 607 612
f 528 518 513
f 613 614 607
f 608 609 449
f 338 605 611
f 549 514 580
f 603 610 615
f 603 604 610
f 614 605 607
f 605 604 606
f 338 604 605
f 602 613 612
f 602 616 613
f 602 410 616
f 617 496 340
f 602 617 336
f 336 617 340
f 618 619 466
f 410 602 336
f 514 466 619
f 515 620 334
f 515 502 621
f 328 327 386
f 622 623 624
f 622 624 625
f 625 626 627
f 623 622 628
f 625 627 386
f 618 466 517
f 621 629 515
f 622 625 630
f 386 627 328
f 630 386 381
f 630 625 386
f 622 630 455
f 622 468 628
f 455 630 381
f 455 468 622
f 515 629 628
f 518 530 517
f 457 515 468
f 303 631 304
f 515 628 468
f 631 303 632
f 328 632 303
f 632 328 627
f 625 631 632
f 624 631 625
f 625 632 626
f 515 457 620
f 632 627 626
f 633 634 635
f 635 636 633
f 637 636 638
f 639 638 636
f 640 641 619
f 640 642 641
f 636 643 639
f 644 639 643
f 307 645 646
f 647 623 648
f 302 649 322
f 642 581 641
f 640 619 618
f 650 637 302
f 302 307 650
f 623 647 624
f 649 302 637
f 651 640 618
f 623 628 648
f 633 647 634
f 651 618 652
f 634 647 653
f 633 636 650
f 638 649 637
f 646 633 650
f 628 629 648
f 645 654 646
f 643 636 635
f 654 624 647
f 514 619 580
f 655 638 639
f 650 307 646
f 653 647 648
f 643 656 644
f 599 657 529
f 655 639 658
f 646 647 633
f 654 647 646
f 304 645 307
f 654 304 631
f 645 304 654
f 657 651 652
f 634 653 635
f 657 652 530
f 624 654 631
f 637 650 636
f 659 660 661
f 658 639 662
f 663 315 317
f 657 530 529
f 660 664 665
f 662 639 644
f 642 599 581
f 666 655 664
f 663 664 659
f 663 667 664
f 538 661 525
f 517 530 652
f 661 668 669
f 670 649 666
f 671 665 672
f 317 319 667
f 317 667 663
f 581 580 641
f 660 665 671
f 660 671 668
f 663 659 538
f 661 660 668
f 538 659 661
f 580 619 641
f 665 664 672
f 322 649 670
f 659 664 660
f 661 535 525
f 618 517 652
f 655 658 664
f 664 658 672
f 670 666 667
f 649 638 666
f 663 538 315
f 319 670 667
f 669 535 661
f 535 669 537
f 669 668 673
f 670 319 322
f 531 537 669
f 672 658 662
f 664 667 666
f 666 638 655
f 674 675 676
f 675 677 678
f 516 679 680
f 679 516 496
f 677 675 674
f 679 678 677
f 679 496 678
f 499 498 681
f 682 500 499
f 501 500 682
f 683 501 682
f 511 501 683
f 420 532 684
f 685 686 687
f 688 418 689
f 690 418 691
f 549 513 514
f 354 418 688
f 691 418 417
f 689 418 690
f 688 689 687
f 685 687 690
f 687 689 690
f 690 691 692
f 443 687 686
f 353 352 688
f 443 353 687
f 687 353 688
f 688 352 354
f 559 556 441
f 572 559 441
f 528 530 518
f 441 556 442
f 513 549 528
f 439 693 428
f 694 693 439
f 431 695 432
f 696 695 431
f 697 696 431
f 695 694 432
f 432 694 439
f 443 698 433
f 699 698 443
f 698 700 444
f 433 698 444
f 447 701 448
f 702 701 447
f 448 699 443
f 701 699 448
f 703 704 443
f 443 704 451
f 443 451 448
f 704 705 451
f 686 703 443
f 706 437 449
f 449 707 708
f 708 706 449
f 706 709 437
f 710 434 709
f 434 437 709
f 711 434 710
f 711 440 434
f 400 171 173
f 495 440 711
f 543 545 438
f 435 543 438
f 545 557 430
f 438 545 430
f 495 558 539
f 495 711 558
f 607 547 612
f 565 547 607
f 547 546 612
f 606 565 607
f 710 709 567
f 710 567 586
f 710 586 711
f 586 558 711
f 591 706 708
f 567 709 706
f 591 708 592
f 592 708 707
f 567 706 591
f 712 588 713
f 713 588 542
f 714 578 712
f 712 578 588
f 402 173 175
f 713 542 707
f 707 542 592
f 575 715 716
f 717 578 714
f 716 561 575
f 717 575 578
f 715 575 717
f 563 716 598
f 563 561 716
f 597 577 718
f 719 597 718
f 720 721 722
f 718 577 723
f 723 574 724
f 577 574 723
f 590 594 725
f 726 540 727
f 728 729 730
f 720 728 730
f 728 731 729
f 727 590 725
f 594 573 732
f 725 594 732
f 540 590 727
f 733 568 734
f 722 735 731
f 728 722 731
f 566 568 733
f 734 589 736
f 736 571 737
f 589 571 736
f 568 589 734
f 728 720 722
f 738 587 739
f 739 593 740
f 740 595 741
f 587 593 739
f 729 742 743
f 593 595 740
f 744 541 745
f 745 541 562
f 745 562 746
f 744 596 541
f 746 562 548
f 747 553 748
f 748 553 596
f 743 730 729
f 743 720 730
f 748 596 744
f 747 554 553
f 749 554 747
f 569 554 749
f 750 742 735
f 751 569 749
f 742 729 731
f 742 731 735
f 751 752 569
f 722 721 735
f 569 752 544
f 582 544 753
f 754 582 753
f 753 544 752
f 582 754 755
f 582 755 583
f 756 548 579
f 756 757 548
f 746 548 757
f 338 715 604
f 743 721 720
f 338 598 715
f 598 716 715
f 608 758 609
f 750 743 742
f 759 758 608
f 760 758 759
f 601 760 759
f 615 601 603
f 678 496 675
f 617 602 496
f 496 676 675
f 496 601 676
f 602 601 496
f 604 717 714
f 715 717 604
f 713 449 712
f 449 610 712
f 449 713 707
f 610 604 714
f 714 712 610
f 761 451 705
f 759 761 762
f 759 451 761
f 750 721 743
f 451 759 608
f 601 759 676
f 676 759 762
f 735 721 750
f 761 705 704
f 410 763 616
f 764 763 410
f 611 765 600
f 765 764 600
f 766 765 611
f 767 768 769
f 768 770 769
f 600 764 410
f 653 771 635
f 772 773 635
f 648 516 680
f 774 775 776
f 643 635 773
f 680 679 777
f 769 770 778
f 779 780 767
f 648 771 653
f 781 782 783
f 780 768 767
f 784 785 786
f 787 782 781
f 782 776 788
f 788 762 761
f 789 677 775
f 777 789 790
f 677 777 679
f 774 776 782
f 789 775 790
f 791 781 792
f 793 794 795
f 761 783 788
f 796 787 781
f 797 798 799
f 800 787 796
f 796 781 791
f 777 790 801
f 777 802 680
f 775 774 790
f 803 800 796
f 794 804 805
f 797 799 806
f 802 777 801
f 804 797 806
f 788 783 782
f 803 796 807
f 804 806 805
f 648 680 771
f 794 805 795
f 773 802 808
f 790 774 787
f 808 809 773
f 771 802 772
f 810 783 811
f 629 516 648
f 774 782 787
f 786 803 784
f 810 781 783
f 802 801 808
f 800 790 787
f 797 812 813
f 771 772 635
f 785 784 814
f 808 800 786
f 801 790 800
f 773 809 643
f 771 680 802
f 785 656 786
f 656 785 644
f 676 762 776
f 786 800 803
f 644 785 814
f 674 676 776
f 808 801 800
f 677 674 775
f 775 674 776
f 777 677 789
f 772 802 773
f 643 809 656
f 815 816 817
f 818 819 820
f 815 817 821
f 818 820 822
f 809 808 786
f 502 516 629
f 762 788 776
f 783 761 811
f 811 761 704
f 809 786 656
f 686 685 703
f 703 685 823
f 824 825 792
f 685 690 826
f 827 822 828
f 827 818 822
f 819 821 820
f 829 830 825
f 831 810 811
f 703 824 831
f 703 831 704
f 703 823 824
f 685 826 823
f 690 692 832
f 690 832 826
f 684 533 420
f 533 531 417
f 825 830 792
f 833 834 835
f 533 417 420
f 830 829 836
f 835 784 803
f 837 838 839
f 831 811 704
f 417 840 837
f 417 531 669
f 823 825 824
f 672 841 671
f 691 417 837
f 829 842 836
f 841 672 833
f 840 669 673
f 843 839 838
f 832 692 844
f 832 844 829
f 692 691 844
f 837 673 838
f 837 840 673
f 819 815 821
f 826 832 825
f 838 668 671
f 668 838 673
f 691 839 844
f 834 662 814
f 825 823 826
f 834 672 662
f 662 644 814
f 792 830 791
f 843 833 842
f 792 810 824
f 691 837 839
f 842 829 844
f 832 829 825
f 842 844 843
f 836 807 830
f 810 792 781
f 824 810 831
f 842 833 835
f 807 836 803
f 803 836 835
f 417 669 840
f 838 841 843
f 791 830 807
f 843 841 833
f 784 835 834
f 671 841 838
f 844 839 843
f 784 834 814
f 833 672 834
f 807 796 791
f 836 842 835
f 682 845 683
f 683 845 846
f 683 846 511
f 682 681 845
f 682 499 681
f 845 681 504
f 509 506 847
f 847 506 848
f 848 506 510
f 849 819 818
f 848 510 508
f 850 816 815
f 847 848 508
f 509 847 508
f 851 503 505
f 497 512 852
f 819 850 815
f 512 503 852
f 497 852 851
f 853 818 827
f 851 852 503
f 505 497 851
f 413 854 855
f 427 856 857
f 819 849 850
f 857 858 427
f 854 859 860
f 858 861 427
f 861 862 427
f 862 863 427
f 863 859 427
f 859 864 427
f 427 864 425
f 427 855 856
f 864 421 425
f 854 864 859
f 413 421 864
f 818 853 849
f 413 855 427
f 865 866 867
f 868 869 411
f 870 419 871
f 867 871 872
f 869 872 411
f 411 872 412
f 870 871 867
f 411 419 873
f 411 873 874
f 419 875 873
f 411 874 876
f 871 419 412
f 419 877 875
f 419 870 877
f 871 412 872
f 411 878 868
f 411 879 878
f 411 876 879
f 414 880 415
f 880 416 415
f 422 880 414
f 422 416 880
f 693 694 881
f 740 697 882
f 693 881 738
f 739 740 882
f 883 739 882
f 884 816 885
f 693 738 883
f 741 695 696
f 738 739 883
f 741 696 697
f 694 695 881
f 881 695 741
f 741 697 740
f 737 702 736
f 698 699 886
f 698 886 733
f 884 887 888
f 736 702 889
f 698 733 700
f 700 733 734
f 816 890 885
f 887 891 888
f 890 892 885
f 734 736 889
f 888 891 853
f 886 701 737
f 891 893 853
f 892 887 885
f 885 887 884
f 699 701 886
f 700 734 889
f 737 701 702
f 724 766 723
f 763 764 894
f 763 894 719
f 895 723 766
f 718 723 895
f 763 719 896
f 896 718 895
f 896 719 718
f 894 765 897
f 897 765 766
f 897 766 724
f 764 765 894
f 758 760 898
f 725 615 610
f 758 898 726
f 727 725 610
f 899 727 610
f 758 726 899
f 726 727 899
f 760 601 732
f 898 760 732
f 732 601 615
f 732 615 725
f 900 901 902
f 755 903 756
f 901 904 757
f 901 757 756
f 755 756 905
f 749 747 906
f 904 907 908
f 904 908 757
f 909 910 911
f 900 912 901
f 909 913 910
f 914 751 915
f 916 748 744
f 917 911 918
f 919 745 757
f 920 921 922
f 920 922 912
f 903 923 756
f 751 924 915
f 751 749 906
f 751 906 924
f 755 754 925
f 909 915 913
f 922 914 926
f 927 928 929
f 920 930 931
f 900 930 920
f 929 932 933
f 934 935 928
f 912 922 904
f 936 937 938
f 939 933 934
f 939 938 933
f 940 937 941
f 940 942 937
f 916 744 943
f 911 917 909
f 944 911 910
f 917 907 945
f 908 917 918
f 907 917 908
f 945 907 904
f 901 912 904
f 902 903 928
f 923 902 901
f 918 944 908
f 753 752 754
f 754 946 925
f 754 942 946
f 754 937 942
f 754 752 937
f 926 915 947
f 948 949 950
f 919 943 745
f 752 751 914
f 752 930 927
f 752 927 929
f 752 914 930
f 752 933 938
f 752 938 937
f 752 929 933
f 908 944 757
f 951 952 925
f 925 952 940
f 925 940 755
f 943 744 745
f 922 945 904
f 940 903 755
f 940 936 939
f 940 939 903
f 939 934 903
f 926 909 922
f 926 947 909
f 934 928 903
f 915 924 913
f 930 914 931
f 944 910 919
f 944 919 757
f 928 953 902
f 923 901 756
f 953 954 900
f 950 949 955
f 953 900 902
f 956 950 957
f 745 746 757
f 922 909 917
f 922 917 945
f 950 955 957
f 906 747 748
f 906 748 916
f 860 862 958
f 860 958 861
f 860 861 959
f 959 861 960
f 959 960 961
f 961 960 858
f 961 858 962
f 962 858 963
f 962 963 857
f 962 857 964
f 962 856 854
f 962 964 856
f 949 965 955
f 854 966 854
f 854 856 966
f 854 966 855
f 860 859 967
f 860 967 863
f 860 863 968
f 860 968 862
f 969 867 970
f 969 865 971
f 969 971 867
f 867 872 970
f 970 872 970
f 970 872 872
f 866 865 969
f 972 879 973
f 972 973 876
f 972 876 866
f 866 876 974
f 866 974 874
f 866 874 975
f 866 975 873
f 866 875 976
f 866 976 877
f 866 877 870
f 866 870 870
f 977 869 978
f 977 978 868
f 977 868 979
f 979 868 972
f 972 868 878
f 869 977 977
f 906 916 980
f 981 910 913
f 919 910 981
f 854 860 962
f 962 860 961
f 413 864 854
f 866 969 972
f 972 969 979
f 866 870 867
f 969 970 979
f 979 970 977
f 970 872 977
f 869 977 872
f 944 918 911
f 951 925 946
f 942 951 946
f 940 952 942
f 937 936 941
f 939 936 938
f 940 941 936
f 932 935 934
f 965 806 955
f 932 929 935
f 928 935 929
f 934 933 932
f 957 955 982
f 953 928 927
f 930 953 927
f 900 954 930
f 921 920 931
f 912 900 920
f 921 931 914
f 914 922 921
f 909 947 915
f 915 926 914
f 943 983 916
f 943 919 983
f 919 984 983
f 983 985 986
f 983 986 980
f 983 980 916
f 919 981 984
f 984 981 987
f 984 987 985
f 985 988 986
f 988 989 986
f 988 987 990
f 986 906 980
f 986 989 906
f 990 987 924
f 990 924 989
f 987 981 913
f 987 913 924
f 989 924 906
f 902 923 903
f 991 992 993
f 942 952 951
f 930 954 953
f 985 983 984
f 990 989 988
f 987 988 985
f 613 895 614
f 896 895 613
f 614 766 605
f 895 766 614
f 616 896 613
f 763 896 616
f 605 766 611
f 609 899 610
f 994 993 992
f 758 899 609
f 579 583 905
f 756 579 905
f 905 583 755
f 595 584 741
f 585 587 738
f 741 585 881
f 584 585 741
f 881 585 738
f 737 555 886
f 571 555 737
f 995 795 805
f 996 995 805
f 886 566 733
f 555 566 886
f 997 998 805
f 570 550 898
f 997 996 998
f 995 996 997
f 997 805 999
f 550 540 726
f 898 550 726
f 732 570 898
f 573 570 732
f 1000 997 999
f 552 551 894
f 574 552 897
f 724 574 897
f 551 597 719
f 894 551 719
f 897 552 894
f 1001 795 1002
f 546 564 606
f 612 546 606
f 564 565 606
f 557 560 446
f 430 557 446
f 995 1000 1003
f 560 543 435
f 795 995 1003
f 446 560 435
f 437 702 447
f 444 889 437
f 700 889 444
f 889 702 437
f 436 697 431
f 882 697 436
f 428 883 429
f 883 882 429
f 693 883 428
f 429 882 436
f 576 572 445
f 442 576 445
f 556 576 442
f 445 572 441
f 507 511 846
f 845 507 846
f 504 507 845
f 1003 1000 999
f 681 498 504
f 1004 1005 479
f 479 1005 482
f 1006 1007 1004
f 472 409 1008
f 365 1006 363
f 363 1006 1004
f 1004 1007 1005
f 372 472 1008
f 1008 409 1009
f 371 472 372
f 363 1004 376
f 376 1004 479
f 1006 1010 1007
f 1006 1009 1010
f 372 1008 365
f 1008 1006 365
f 1008 1009 1006
f 1009 1011 1010
f 1005 483 482
f 1012 494 1005
f 1007 1011 1012
f 494 1012 1013
f 1009 396 1011
f 1014 494 1013
f 409 396 1009
f 1011 397 1015
f 396 397 1011
f 1005 494 483
f 1003 1002 795
f 1007 1012 1005
f 1011 1015 1013
f 1011 1013 1012
f 1010 1011 1007
f 1013 1016 1017
f 1016 300 1017
f 480 1018 490
f 1017 300 326
f 473 1018 480
f 1019 324 1018
f 486 305 306
f 1019 1017 326
f 1019 326 324
f 494 1014 489
f 1013 1017 1014
f 491 305 485
f 490 325 491
f 485 305 486
f 1018 324 323
f 1018 325 490
f 301 1016 1020
f 1014 1017 1019
f 1015 1020 1013
f 301 1020 398
f 398 1015 397
f 489 1019 1018
f 382 301 398
f 1015 398 1020
f 1014 1019 489
f 1018 323 325
f 489 1018 473
f 992 1002 994
f 1013 1020 1016
f 1016 301 300
f 491 325 305
f 1021 1022 1023
f 1022 1024 1023
f 1025 1026 1021
f 1021 1023 1025
f 1025 1027 1028
f 1028 1027 1029
f 1030 1025 1031
f 1030 1031 1032
f 994 1002 1003
f 1032 1033 1034
f 1035 1026 1030
f 1029 1027 1036
f 1037 1024 1038
f 1033 1031 1034
f 1027 1024 1036
f 1023 1039 1025
f 1027 1039 1023
f 1027 1040 1024
f 1041 1040 1027
f 1023 1041 1027
f 1024 1041 1023
f 1042 1037 1036
f 1024 1042 1036
f 1043 1044 1036
f 1038 1043 1036
f 1036 1045 1031
f 1031 1045 1034
f 1045 1046 1034
f 1033 1047 1031
f 1031 1047 1032
f 1048 1026 1025
f 1049 1025 1028
f 1025 1049 1050
f 1031 1025 1050
f 1051 1031 1050
f 1028 1029 1052
f 1053 1054 1036
f 1037 1053 1036
f 1038 1053 1037
f 1036 1054 1038
f 1036 1028 1052
f 767 1003 999
f 994 1003 767
f 1055 1036 1052
f 1029 1036 1055
f 1049 1031 1051
f 1049 1028 1031
f 1056 1036 1031
f 1028 1036 1056
f 1030 1048 1025
f 1057 1048 1030
f 1026 1057 1030
f 1032 1058 1030
f 1035 1058 1032
f 1036 1059 1045
f 1046 1059 1034
f 1034 1059 1036
f 1060 1043 1038
f 1036 1044 1060
f 1038 1034 1060
f 1036 1060 1034
f 1061 1041 1024
f 1040 1061 1024
f 1062 1034 1038
f 1062 1063 1034
f 1022 1038 1024
f 1022 1062 1038
f 1063 1032 1034
f 1063 1035 1032
f 1063 1021 1035
f 1021 1026 1035
f 1064 780 779
f 1065 1064 779
f 778 1066 1067
f 1066 1064 1065
f 1067 1066 1065
f 767 769 778
f 767 778 991
f 994 767 991
f 778 1067 991
f 948 779 767
f 948 950 779
f 991 1067 992
f 992 1067 956
f 999 965 949
f 779 950 1065
f 1067 1065 956
f 1065 950 956
f 982 1001 1002
f 957 992 956
f 767 949 948
f 999 949 767
f 957 1002 992
f 982 1002 957
f 793 795 1001
f 1068 982 798
f 1068 1069 982
f 1069 1001 982
f 999 806 965
f 1069 793 1001
f 797 1068 798
f 805 806 999
f 1070 794 793
f 804 1071 797
f 1068 797 813
f 1068 813 1069
f 1070 804 794
f 1071 812 797
f 1070 1072 804
f 1072 1071 804
f 1070 793 1073
f 793 1069 813
f 812 1074 813
f 812 817 1074
f 817 1075 1074
f 1075 1076 1074
f 828 822 1073
f 1071 820 821
f 1075 1073 1076
f 1071 821 817
f 1071 817 812
f 1077 1078 1075
f 1078 1073 1075
f 806 798 955
f 1079 1075 817
f 1078 828 1073
f 1078 827 828
f 1079 1077 1075
f 816 1080 817
f 982 955 798
f 1080 1079 817
f 888 1078 1077
f 1080 884 1079
f 888 853 1078
f 884 1077 1079
f 853 827 1078
f 1077 884 888
f 816 884 1080
f 806 799 798
f 849 1081 850
f 849 1082 1081
f 850 890 816
f 1083 890 850
f 1081 1083 850
f 893 1082 849
f 853 893 849
f 1082 1083 1081
f 1076 1073 793
f 822 1070 1073
f 822 1072 1070
f 1072 822 820
f 820 1071 1072
f 1076 793 813
f 1074 1076 813

